<svg version="1.2" baseProfile="tiny-ps" xmlns="http://www.w3.org/2000/svg" viewBox="0 0 218 25" width="218" height="25">
	<title>Layer 1</title>
	<defs>
		<linearGradient id="grd1" gradientUnits="userSpaceOnUse"  x1="106.615" y1="10.68" x2="106.615" y2="20.203">
			<stop offset="0" stop-color="#fb393c"  />
			<stop offset="0.859" stop-color="#dc2a34"  />
		</linearGradient>
		<linearGradient id="grd2" gradientUnits="userSpaceOnUse"  x1="69.791" y1="10.68" x2="69.791" y2="20.203">
			<stop offset="0" stop-color="#fb393c"  />
			<stop offset="0.859" stop-color="#dc2a34"  />
		</linearGradient>
		<linearGradient id="grd3" gradientUnits="userSpaceOnUse"  x1="84.882" y1="10.68" x2="84.882" y2="20.203">
			<stop offset="0" stop-color="#fb393c"  />
			<stop offset="0.859" stop-color="#dc2a34"  />
		</linearGradient>
		<linearGradient id="grd4" gradientUnits="userSpaceOnUse"  x1="11.037" y1="10.68" x2="11.037" y2="20.203">
			<stop offset="0" stop-color="#fb393c"  />
			<stop offset="0.859" stop-color="#dc2a34"  />
		</linearGradient>
		<linearGradient id="grd5" gradientUnits="userSpaceOnUse"  x1="19.056" y1="10.68" x2="19.056" y2="20.203">
			<stop offset="0" stop-color="#fb393c"  />
			<stop offset="0.859" stop-color="#dc2a34"  />
		</linearGradient>
		<linearGradient id="grd6" gradientUnits="userSpaceOnUse"  x1="32.298" y1="10.68" x2="32.298" y2="20.203">
			<stop offset="0" stop-color="#fb393c"  />
			<stop offset="0.859" stop-color="#dc2a34"  />
		</linearGradient>
		<linearGradient id="grd7" gradientUnits="userSpaceOnUse"  x1="44.165" y1="10.68" x2="44.165" y2="20.203">
			<stop offset="0" stop-color="#fb393c"  />
			<stop offset="0.859" stop-color="#dc2a34"  />
		</linearGradient>
		<linearGradient id="grd8" gradientUnits="userSpaceOnUse"  x1="55.991" y1="10.68" x2="55.991" y2="20.203">
			<stop offset="0" stop-color="#fb393c"  />
			<stop offset="0.859" stop-color="#dc2a34"  />
		</linearGradient>
		<linearGradient id="grd9" gradientUnits="userSpaceOnUse"  x1="196.991" y1="10.68" x2="196.991" y2="20.203">
			<stop offset="0" stop-color="#fb393c"  />
			<stop offset="0.859" stop-color="#dc2a34"  />
		</linearGradient>
		<linearGradient id="grd10" gradientUnits="userSpaceOnUse"  x1="214.871" y1="10.68" x2="214.871" y2="20.203">
			<stop offset="0" stop-color="#fb393c"  />
			<stop offset="0.859" stop-color="#dc2a34"  />
		</linearGradient>
		<linearGradient id="grd11" gradientUnits="userSpaceOnUse"  x1="185.025" y1="10.68" x2="185.025" y2="20.203">
			<stop offset="0" stop-color="#fb393c"  />
			<stop offset="0.859" stop-color="#dc2a34"  />
		</linearGradient>
		<linearGradient id="grd12" gradientUnits="userSpaceOnUse"  x1="171.107" y1="10.68" x2="171.107" y2="20.203">
			<stop offset="0" stop-color="#fb393c"  />
			<stop offset="0.859" stop-color="#dc2a34"  />
		</linearGradient>
		<linearGradient id="grd13" gradientUnits="userSpaceOnUse"  x1="134.61" y1="10.68" x2="134.61" y2="20.203">
			<stop offset="0" stop-color="#fb393c"  />
			<stop offset="0.859" stop-color="#dc2a34"  />
		</linearGradient>
		<linearGradient id="grd14" gradientUnits="userSpaceOnUse"  x1="121.16" y1="10.68" x2="121.16" y2="20.203">
			<stop offset="0" stop-color="#fb393c"  />
			<stop offset="0.859" stop-color="#dc2a34"  />
		</linearGradient>
		<linearGradient id="grd15" gradientUnits="userSpaceOnUse"  x1="149.275" y1="10.68" x2="149.275" y2="20.203">
			<stop offset="0" stop-color="#fb393c"  />
			<stop offset="0.859" stop-color="#dc2a34"  />
		</linearGradient>
	</defs>
	<style>
		tspan { white-space:pre }
		.shp0 { fill: #ffffff } 
		.shp1 { fill: #0f1b30 } 
		.shp2 { fill: #e63444 } 
		.shp3 { fill: url(#grd1) } 
		.shp4 { fill: url(#grd2) } 
		.shp5 { fill: url(#grd3) } 
		.shp6 { fill: url(#grd4) } 
		.shp7 { fill: url(#grd5) } 
		.shp8 { fill: url(#grd6) } 
		.shp9 { fill: url(#grd7) } 
		.shp10 { fill: url(#grd8) } 
		.shp11 { fill: url(#grd9) } 
		.shp12 { fill: url(#grd10) } 
		.shp13 { fill: url(#grd11) } 
		.shp14 { fill: url(#grd12) } 
		.shp15 { fill: url(#grd13) } 
		.shp16 { fill: url(#grd14) } 
		.shp17 { fill: url(#grd15) } 
	</style>
	<g id="Layer 1">
		<g id="&lt;Group&gt;">
			<path id="&lt;Compound Path&gt;" class="shp0" d="M206.81 24.7C205.17 24.7 203.31 24.3 201.12 23.48L200.93 23.41L200.75 23.32C200.48 23.18 200 22.93 199.49 22.54L199.49 24.7L167.49 24.7L167.49 24.38C166.58 24.59 165.63 24.7 164.65 24.7L152.56 24.7L152.56 16.12L153.36 15.63L153.36 10.73L152.56 10.73L152.56 0.34L160.46 0.34C164.07 0.34 166.16 0.47 167.49 0.73L167.49 0.39L181.61 0.39L183.11 0.29L203.61 0.29L203.61 0.72C204.62 0.46 205.63 0.34 206.67 0.34C209.45 0.34 211.94 0.91 214.09 2.04L216.63 2.04L216.69 5.51L216.69 11.87C216.81 12.14 216.91 12.41 217 12.69C217.25 13.59 217.37 14.34 217.37 15.07L217.37 15.64C217.37 17.15 217 18.72 216.26 20.31L216.16 20.52L216.03 20.72C215.26 21.94 214.25 22.86 213.04 23.45C211.77 24.1 210.51 24.46 209.3 24.52C208.5 24.64 207.68 24.7 206.85 24.7L206.81 24.7ZM102.09 24.7L88.32 24.7L88.32 16.06L88.9 15.71L88.9 13.82L88.97 13.82L88.97 9.75L88.32 9.49L88.32 0.24L99.24 0.24C100.48 0.24 101.62 0.36 102.64 0.6L102.64 0.34L112.76 0.34C116.66 0.34 118.11 0.82 119.01 1.3C119.57 1.56 120.1 1.88 120.58 2.27C122.23 1.02 124.44 0.39 127.2 0.39L128.1 0.39C129.11 0.39 130.07 0.5 130.98 0.73L130.98 0.24L141.9 0.24C146.2 0.24 149.16 1.66 150.72 4.46C151.4 5.58 151.77 6.9 151.77 8.24L151.77 11.69C151.77 15.19 149.97 17.9 146.84 19.12C146.13 19.36 145.45 19.52 144.75 19.62L144.75 24.7L130.98 24.7L130.98 24.37C130.07 24.59 129.08 24.7 128.04 24.7L126.99 24.7C125.77 24.67 124.66 24.52 123.66 24.25L123.66 24.7L102.64 24.7L102.09 24.7ZM32.95 24.7L32.95 22.68C32.2 23.25 31.25 23.71 30.06 24.08L29.86 24.13C28.19 24.52 26.8 24.7 25.58 24.7L24.73 24.7C23.62 24.7 22.56 24.57 21.56 24.29L21.56 24.7L0.39 24.7L0.39 16.72L1.16 15.87L1.16 15.86L1.28 15.52C1.38 14.95 1.93 11.95 3.49 3.26L4.01 0.38L14.68 0.38C16.4 0.38 17.31 1.29 17.81 2.38C19.1 1.23 21.1 0.24 24.16 0.24L24.91 0.24C26.25 0.24 27.55 0.39 28.78 0.68L28.78 0.29L50.79 0.29L50.79 0.32L58.49 0.32L58.49 0.34L73.43 0.34L73.43 0.39L87.38 0.39L87.38 24.7L32.95 24.7Z" />
			<path id="&lt;Compound Path&gt;" class="shp1" d="M206.81 23.2C205.35 23.2 203.66 22.84 201.65 22.08L201.54 22.04L201.43 21.98C200.56 21.53 199.38 20.78 199.14 19.47L199.11 19.29L199.11 13.64L197.36 13.64L197.36 16.55L197.99 16.91L197.99 23.2L187.27 23.2L187.27 17.11L187.92 16.7C187.9 16.2 187.89 15.81 187.89 15.55L187.89 13.64L186.02 13.64L186.02 23.2L168.99 23.2L168.99 22.25C168.76 22.38 168.53 22.48 168.33 22.56C167.2 22.99 165.97 23.2 164.65 23.2L154.06 23.2L154.06 16.96L154.86 16.47L154.86 9.23L154.06 9.23L154.06 1.84L160.46 1.84C166.21 1.84 167.84 2.18 168.64 2.73C168.76 2.78 168.88 2.84 168.99 2.9L168.99 1.89L183.11 1.89L183.11 1.79L202.11 1.79L202.11 2.91C202.42 2.74 202.75 2.58 203.09 2.44C204.27 2.03 205.45 1.84 206.67 1.84C209.35 1.84 211.71 2.41 213.71 3.54L215.15 3.54L215.19 5.54L215.19 11.58L214.86 11.58C215.16 12.06 215.39 12.58 215.56 13.14C215.77 13.88 215.87 14.49 215.87 15.07L215.87 15.64C215.87 16.93 215.54 18.29 214.9 19.68L214.84 19.8L214.77 19.91C214.14 20.89 213.34 21.64 212.38 22.11C211.26 22.68 210.17 22.99 209.16 23.02C208.41 23.14 207.63 23.2 206.85 23.2L206.81 23.2ZM132.48 23.2L132.48 22.22C131.24 22.87 129.76 23.2 128.04 23.2L126.99 23.2C125.02 23.16 123.41 22.76 122.16 22.03L122.16 23.2L104.14 23.2L104.14 17.5C103.98 17.58 103.81 17.65 103.63 17.72C102.64 18.06 101.64 18.22 100.59 18.23L100.59 23.2L89.82 23.2L89.82 16.92L90.4 16.57L90.4 15.32L90.47 15.32L90.47 8.73L89.82 8.47L89.82 1.74L99.24 1.74C101.22 1.74 102.85 2.07 104.14 2.72L104.14 1.84L112.76 1.84C116.29 1.84 117.6 2.25 118.31 2.63C119.23 3.05 119.98 3.63 120.55 4.36C121.94 2.72 124.17 1.89 127.2 1.89L128.1 1.89C129.73 1.89 131.19 2.22 132.48 2.87L132.48 1.74L141.9 1.74C145.61 1.74 148.13 2.9 149.41 5.19C149.97 6.11 150.27 7.16 150.27 8.24L150.27 11.69C150.27 14.58 148.86 16.72 146.29 17.72C145.3 18.06 144.3 18.22 143.25 18.23L143.25 23.2L132.48 23.2ZM68.42 23.2L57.63 23.2L56.99 23.2L46.14 23.2L46.14 17.25L46.8 16.73L46.8 13.64L44.54 13.64L44.54 16.55L45.16 16.91L45.16 23.2L34.45 23.2L34.45 17.11L35.09 16.7C35.07 16.2 35.06 15.81 35.06 15.55L35.06 13.64L33.3 13.64L33.3 19.95L33 20.43C32.4 21.41 31.32 22.11 29.61 22.65L29.47 22.68C27.96 23.03 26.69 23.2 25.58 23.2L24.73 23.2C23 23.2 21.44 22.83 20.06 22.1L20.06 23.2L1.89 23.2L1.89 17.3L2.42 16.73C2.63 16.5 2.66 16.38 2.66 16.38L2.66 16.1L2.73 15.9C2.77 15.72 3.21 13.34 4.97 3.53L5.26 1.88L14.68 1.88C16.49 1.88 16.74 3.53 16.99 5.13C17.04 5.4 17.09 5.67 17.14 5.93C17.32 5.4 17.55 4.97 17.83 4.62C18.74 3.28 20.56 1.74 24.16 1.74L24.91 1.74C26.83 1.74 28.63 2.07 30.28 2.71L30.28 1.79L49.29 1.79L49.29 1.82L56.99 1.82L56.99 1.84L71.93 1.84L71.93 1.89L85.88 1.89L85.88 11.95L82.4 11.95L82.4 13.03L85.88 13.03L85.88 23.2L68.85 23.2L68.42 23.2Z" />
			<path id="&lt;Compound Path&gt;" fill-rule="evenodd" class="shp2" d="M6.94 3.88L14.68 3.88C14.74 3.88 14.85 4.4 15.01 5.43C16.38 12.64 17.13 16.49 17.26 16.99C17.51 17.64 17.77 18.02 18.06 18.16L18.06 21.2L12.17 21.2C12.15 19.57 12.13 18.53 12.13 18.08C12.06 17.15 11.94 16.49 11.77 16.09C11.44 15.34 10.95 14.77 10.28 14.37C9.68 14.02 9.22 13.83 8.91 13.8L8.69 13.8C8.7 13.83 8.92 13.97 9.38 14.22L9.42 14.3C9.42 14.48 9.33 15.31 9.16 16.81C9.16 17.44 9.38 17.91 9.81 18.23L9.81 21.2L3.89 21.2L3.89 18.08C4.4 17.52 4.66 16.98 4.66 16.44C4.7 16.28 5.46 12.09 6.94 3.88ZM9.62 13.25L11.23 13.25C10.72 10.05 10.46 8.39 10.46 8.27C10.41 8.27 10.34 8.67 10.25 9.47L9.62 13.25ZM24.16 3.74L24.91 3.74C27.3 3.74 29.43 4.3 31.3 5.42L31.3 10.27L25.98 10.27L25.98 8.53C25.98 8 25.83 7.66 25.51 7.52C25.51 7.46 25.37 7.43 25.09 7.42L22.52 7.42L22.52 7.49C23.67 7.71 24.29 7.81 24.37 7.81C24.2 8.05 24.12 8.34 24.12 8.67L24.12 16.59C24.12 17.18 24.4 17.55 24.98 17.7L25.2 17.7C25.72 17.7 25.98 17.28 25.98 16.45L25.98 13.89L31.3 13.89L31.3 19.38C30.97 19.91 30.21 20.36 29.02 20.74C27.67 21.05 26.53 21.2 25.58 21.2L24.73 21.2C23.07 21.2 21.63 20.8 20.41 19.99C19.7 19.48 19.2 18.79 18.91 17.92C18.72 17.48 18.62 16.5 18.62 14.99L18.62 10.13C18.62 7.87 18.9 6.43 19.44 5.81C20.33 4.43 21.9 3.74 24.16 3.74ZM32.28 3.79L47.29 3.79L47.29 11.64L43.3 11.64L43.3 8.43C43.3 7.99 43.04 7.74 42.51 7.66L40.1 7.66L40.1 7.73L42.54 8.17L42.54 16.56C42.54 17.33 42.75 17.83 43.16 18.07L43.16 21.2L36.45 21.2L36.45 18.21C36.88 17.93 37.1 17.47 37.1 16.82C37.08 16.25 37.06 15.83 37.06 15.55L37.06 7.66L37.03 7.66C36.54 7.66 36.3 7.97 36.3 8.57C36.28 8.72 36.27 9.01 36.27 9.45L36.27 11.64L32.28 11.64L32.28 3.79ZM48.14 3.82L54.99 3.82L54.99 6.92L52.55 6.92L52.55 7L54.55 7.35C54.43 7.72 54.37 8.17 54.37 8.71L54.37 16.25C54.37 17.3 54.58 17.93 54.99 18.15L54.99 21.2L48.14 21.2L48.14 18.22C48.58 17.87 48.8 17.42 48.8 16.87L48.8 7.98C48.8 7.48 48.58 7.11 48.14 6.89L48.14 3.82ZM55.92 3.84L62.8 3.84L62.8 7.04L60.36 7.04L60.36 7.12C61.53 7.33 62.17 7.44 62.29 7.44L62.29 7.47C62.24 7.6 62.21 7.8 62.18 8.06C62.18 8.37 62.59 10.92 63.41 15.71L63.45 15.71L64.51 8.06C64.51 7.56 64.32 7.22 63.93 7.04C63.9 7.04 63.89 7.03 63.89 7.01L63.89 3.84L69.93 3.84L69.93 6.97C69.93 7.04 69.8 7.26 69.54 7.62C69.27 8.33 68.8 10.58 68.11 14.39C68.04 14.69 67.59 16.96 66.77 21.2L59.26 21.2C57.71 13.62 56.85 9.38 56.68 8.46C56.49 7.86 56.24 7.37 55.92 7.01L55.92 3.84ZM70.85 3.89L83.88 3.89L83.88 9.95L78.8 9.95L78.8 8.72C78.8 8.27 78.48 7.94 77.86 7.73C77.73 7.71 77.6 7.7 77.49 7.7L74.51 7.7L74.51 7.77L76.91 8.21L76.91 10.9L80.4 10.9L80.4 14.23L76.91 14.23L76.91 17.57L77.49 17.57C78.23 17.57 78.67 17.21 78.8 16.48L78.8 15.03L83.88 15.03L83.88 21.2L70.85 21.2L70.85 18.08C71.19 17.87 71.36 17.56 71.36 17.14L71.36 8.86C71.36 7.84 71.19 7.19 70.85 6.91L70.85 3.89ZM91.82 3.74L99.24 3.74C102.18 3.74 104.1 4.55 105 6.16C105.41 6.84 105.62 7.53 105.62 8.24L105.62 11.69C105.62 13.76 104.71 15.15 102.91 15.86C102.18 16.1 101.39 16.23 100.53 16.23L98.08 16.23L98.08 17.14C98.08 17.54 98.21 17.81 98.48 17.95C98.52 17.95 98.55 17.98 98.59 18.06L98.59 21.2L91.82 21.2L91.82 18.06C92.21 17.83 92.4 17.58 92.4 17.32C92.45 17.32 92.47 17.2 92.47 16.95L92.47 8.1C92.47 7.61 92.26 7.28 91.82 7.11L91.82 3.74ZM95.62 7.58L95.62 7.65L98.08 8.1L98.08 12.53C98.09 12.58 98.11 12.6 98.15 12.6L98.78 12.6C99.35 12.6 99.74 12.32 99.94 11.76C99.99 11.53 100.02 11.35 100.02 11.21L100.02 9.24C100.02 8.37 99.75 7.87 99.21 7.73C98.89 7.63 98.34 7.58 97.56 7.58L95.62 7.58ZM106.14 3.84L112.76 3.84C115.17 3.84 116.73 4.03 117.42 4.42C119.05 5.15 119.86 6.5 119.86 8.46C119.86 10.48 119.28 11.74 118.12 12.25C118.12 12.31 117.86 12.41 117.35 12.57L117.35 12.65C117.72 12.65 118.22 12.84 118.85 13.23C118.85 13.28 118.93 13.39 119.11 13.56C119.39 13.88 119.53 14.76 119.53 16.18C119.53 17.28 119.66 17.9 119.9 18.04C120.07 18.12 120.16 18.18 120.16 18.22L120.16 21.2L114.26 21.2C114.06 20.42 113.97 19.29 113.97 17.82L113.97 16.22C113.97 15.45 113.79 14.96 113.42 14.76C112.84 14.52 112.45 14.39 112.23 14.39L112.23 16.72C112.23 17.4 112.35 17.85 112.58 18.08C112.7 18.15 112.79 18.19 112.84 18.19L112.84 21.2L106.14 21.2L106.14 18.19C106.58 18.03 106.8 17.36 106.8 16.18L106.8 8.21C106.8 7.75 106.6 7.42 106.21 7.23L106.14 7.23L106.14 3.84ZM109.79 7.51L109.79 7.59L112.23 8.02L112.23 11.01L112.47 11.01C113.66 11.01 114.26 10.62 114.26 9.84C114.28 9.76 114.3 9.65 114.3 9.52C114.3 8.78 114.11 8.21 113.75 7.81C113.42 7.61 112.72 7.51 111.64 7.51L109.79 7.51ZM127.2 3.89L128.1 3.89C129.66 3.89 131.01 4.25 132.14 4.98C133.12 5.81 133.61 6.97 133.61 8.44L133.61 16.71C133.61 18.03 133.17 19.12 132.28 19.98C131.23 20.79 129.82 21.2 128.04 21.2L126.99 21.2C124.29 21.14 122.51 20.32 121.65 18.75C121.24 18.07 121.03 16.74 121.03 14.75L121.03 9.98C121.03 8.18 121.21 6.98 121.58 6.38C122.48 4.72 124.35 3.89 127.2 3.89ZM127.2 7.56L124.81 7.56L124.81 7.63C125.94 7.85 126.55 7.95 126.63 7.95C126.49 8.13 126.42 8.42 126.42 8.83L126.42 15.88C126.42 16.81 126.63 17.34 127.06 17.49L127.48 17.56C127.93 17.56 128.21 17.34 128.31 16.89C128.39 16.59 128.42 16.13 128.42 15.49L128.42 9.29C128.42 8.28 128.34 7.77 128.17 7.77C128.17 7.67 127.96 7.59 127.55 7.53L127.2 7.56ZM134.48 3.74L141.9 3.74C144.84 3.74 146.76 4.55 147.66 6.16C148.07 6.84 148.27 7.53 148.27 8.24L148.27 11.69C148.27 13.76 147.37 15.15 145.57 15.86C144.84 16.1 144.05 16.23 143.19 16.23L140.74 16.23L140.74 17.14C140.74 17.54 140.87 17.81 141.14 17.95C141.18 17.95 141.21 17.98 141.25 18.06L141.25 21.2L134.48 21.2L134.48 18.06C134.87 17.83 135.06 17.58 135.06 17.32C135.11 17.32 135.13 17.2 135.13 16.95L135.13 8.1C135.13 7.61 134.91 7.28 134.48 7.11L134.48 3.74ZM138.28 7.58L138.28 7.65L140.74 8.1L140.74 12.53C140.74 12.58 140.77 12.6 140.81 12.6L141.44 12.6C142.01 12.6 142.39 12.32 142.6 11.76C142.65 11.53 142.68 11.35 142.68 11.21L142.68 9.24C142.68 8.37 142.41 7.87 141.87 7.73C141.55 7.63 141 7.58 140.22 7.58L138.28 7.58ZM156.06 3.84L160.46 3.84C164.82 3.84 167.2 4.05 167.6 4.46C168.39 4.76 168.98 5.29 169.38 6.06C169.65 6.62 169.78 7.33 169.78 8.17C169.78 10.01 169.17 11.22 167.97 11.81C167.54 12.01 167.2 12.1 166.94 12.1L166.94 12.14C167.32 12.14 167.85 12.32 168.54 12.68C169.59 13.43 170.11 14.53 170.11 15.97L170.11 16.26C170.11 18.56 169.27 20.04 167.6 20.7C166.71 21.03 165.73 21.2 164.65 21.2L156.06 21.2L156.06 18.08C156.42 17.86 156.65 17.65 156.75 17.45C156.82 17.1 156.86 16.83 156.86 16.61L156.86 8.76C156.86 8.08 156.72 7.61 156.46 7.37C156.27 7.28 156.13 7.23 156.06 7.23L156.06 3.84ZM159.7 7.55L159.7 7.62L162.14 8.06L162.14 10.68L162.54 10.68C163.76 10.68 164.36 10.34 164.36 9.66C164.38 9.57 164.39 9.48 164.39 9.38C164.39 8.85 164.24 8.36 163.92 7.91C163.57 7.67 163.06 7.55 162.39 7.55L159.7 7.55ZM159.7 13.85L159.7 13.93L162.14 14.36L162.14 17.53L162.57 17.53C163.57 17.53 164.15 17.21 164.32 16.58C164.37 16.31 164.39 16.09 164.39 15.93C164.39 14.98 164.19 14.36 163.78 14.06C163.52 13.92 162.91 13.85 161.92 13.85L159.7 13.85ZM170.99 3.89L184.02 3.89L184.02 9.95L178.94 9.95L178.94 8.72C178.94 8.27 178.63 7.94 178 7.73C177.87 7.71 177.75 7.7 177.63 7.7L174.66 7.7L174.66 7.77L177.06 8.21L177.06 10.9L180.54 10.9L180.54 14.23L177.06 14.23L177.06 17.57L177.63 17.57C178.38 17.57 178.81 17.21 178.94 16.48L178.94 15.03L184.02 15.03L184.02 21.2L170.99 21.2L170.99 18.08C171.33 17.87 171.5 17.56 171.5 17.14L171.5 8.86C171.5 7.84 171.33 7.19 170.99 6.91L170.99 3.89ZM185.11 3.79L200.11 3.79L200.11 11.64L196.13 11.64L196.13 8.43C196.13 7.99 195.87 7.74 195.33 7.66L192.92 7.66L192.92 7.73L195.36 8.17L195.36 16.56C195.36 17.33 195.57 17.83 195.99 18.07L195.99 21.2L189.27 21.2L189.27 18.21C189.71 17.93 189.93 17.47 189.93 16.82C189.9 16.25 189.89 15.83 189.89 15.55L189.89 7.66L189.86 7.66C189.37 7.66 189.12 7.97 189.12 8.57C189.1 8.72 189.09 9.01 189.09 9.45L189.09 11.64L185.11 11.64L185.11 3.79ZM206.67 3.84C209.21 3.84 211.37 4.41 213.15 5.54L213.19 5.54L213.19 9.58L208.24 9.58L208.24 8.59C208.24 7.81 207.87 7.42 207.13 7.42L204.9 7.42L204.9 7.49C205.91 7.68 206.46 7.77 206.56 7.77C206.42 8.01 206.35 8.2 206.35 8.34L206.35 8.52C206.35 9.4 207.17 9.97 208.8 10.25C210.14 10.53 211.09 10.84 211.67 11.18C212.65 11.78 213.31 12.63 213.65 13.73C213.8 14.24 213.87 14.69 213.87 15.07L213.87 15.64C213.87 16.64 213.61 17.71 213.08 18.83C212.65 19.51 212.12 20.01 211.49 20.32C210.56 20.79 209.72 21.02 208.97 21.02C208.28 21.14 207.58 21.2 206.85 21.2L206.81 21.2C205.6 21.2 204.12 20.87 202.35 20.21C201.58 19.81 201.17 19.44 201.11 19.11L201.11 14.86L206.39 14.86L206.39 16.07C206.39 16.94 206.71 17.38 207.35 17.38C207.99 17.3 208.31 17.06 208.31 16.66C208.35 16.66 208.38 16.49 208.38 16.14L208.38 15.75C208.38 14.99 207.62 14.42 206.11 14.04C204.29 13.57 203.24 13.22 202.95 12.98C201.63 12.33 200.97 10.95 200.97 8.84L200.97 8.45C200.97 6.45 201.92 5.06 203.84 4.3C204.72 3.99 205.66 3.84 206.67 3.84Z" />
			<g id="&lt;Group&gt;">
				<path id="&lt;Path&gt;" class="shp3" d="M104.62 10.68L104.62 11.69C104.62 13.35 103.96 14.37 102.54 14.93C101.97 15.12 101.28 15.23 100.53 15.23L97.08 15.23L97.08 17.14C97.08 17.81 97.32 18.25 97.59 18.52L97.59 20.2L92.82 20.2L92.82 18.56C93.16 18.24 93.32 17.91 93.38 17.62C93.44 17.44 93.47 17.22 93.47 16.95L93.47 10.68L97.08 10.68L97.08 12.6L97.21 13.53L98.15 13.6L98.78 13.6C99.77 13.6 100.53 13.05 100.88 12.1L100.9 12.04L100.91 11.98C100.99 11.68 101.02 11.43 101.02 11.21L101.02 10.68L104.62 10.68Z" />
				<path id="&lt;Path&gt;" class="shp4" d="M67.79 10.68C67.61 11.59 67.39 12.74 67.13 14.22C67.11 14.27 67.03 14.61 65.94 20.2L60.08 20.2C59.19 15.87 58.54 12.69 58.14 10.68L61.55 10.68C61.74 11.82 62.01 13.47 62.43 15.88L62.57 16.71L64.29 16.71L64.44 15.84L65.16 10.68L67.79 10.68Z" />
				<path id="&lt;Path&gt;" class="shp5" d="M79.8 16.03L82.88 16.03L82.88 20.2L71.85 20.2L71.85 18.54C72.18 18.16 72.36 17.69 72.36 17.14L72.36 10.68L75.91 10.68L75.91 11.9L79.4 11.9L79.4 13.23L75.91 13.23L75.91 18.57L77.49 18.57C78.72 18.57 79.57 17.85 79.78 16.66L79.8 16.57L79.8 16.03Z" />
				<path id="&lt;Path&gt;" class="shp6" d="M8.16 16.81C8.16 17.68 8.46 18.27 8.81 18.66L8.81 20.2L4.89 20.2L4.89 18.44C5.37 17.83 5.63 17.2 5.65 16.56C5.72 16.22 5.94 15.06 6.73 10.68L9.04 10.68L8.69 12.8L7.46 12.8L7.71 14C7.78 14.36 7.98 14.56 8.37 14.8C8.34 15.15 8.27 15.73 8.16 16.7L8.16 16.76L8.16 16.81Z" />
				<path id="&lt;Path&gt;" class="shp7" d="M16.33 17.35C16.54 17.91 16.78 18.33 17.06 18.63L17.06 20.2L13.16 20.2C13.14 19.14 13.13 18.43 13.13 18.08C13.05 16.95 12.91 16.22 12.7 15.71C12.45 15.14 12.12 14.65 11.73 14.25L12.4 14.25L12.21 13.09C12.06 12.1 11.93 11.31 11.83 10.68L15 10.68C16.15 16.67 16.25 17.08 16.29 17.24L16.3 17.29L16.33 17.35Z" />
				<path id="&lt;Path&gt;" class="shp8" d="M26.98 14.89L30.3 14.89L30.3 19.03C30.1 19.21 29.66 19.49 28.72 19.78C27.53 20.05 26.45 20.2 25.58 20.2L24.73 20.2C23.26 20.2 22.03 19.86 20.96 19.15C20.45 18.79 20.08 18.28 19.86 17.61C19.79 17.44 19.62 16.95 19.62 14.99L19.62 10.68L23.12 10.68C23.12 12.25 23.12 14.23 23.12 16.59C23.12 17.63 23.72 18.41 24.73 18.67L24.85 18.7L25.2 18.7C25.49 18.7 26.98 18.59 26.98 16.45L26.98 14.89Z" />
				<path id="&lt;Path&gt;" class="shp9" d="M41.54 16.56C41.54 17.53 41.82 18.14 42.16 18.53L42.16 20.2L37.45 20.2L37.45 18.67C37.8 18.29 38.1 17.7 38.1 16.82C38.08 16.23 38.06 15.82 38.06 15.55L38.06 10.68L41.54 10.68L41.54 16.56Z" />
				<path id="&lt;Path&gt;" class="shp10" d="M53.37 16.25C53.37 16.68 53.37 17.85 53.99 18.6L53.99 20.2L49.14 20.2L49.14 18.64C49.57 18.16 49.8 17.55 49.8 16.87L49.8 10.68L53.37 10.68L53.37 16.25Z" />
				<path id="&lt;Path&gt;" class="shp11" d="M194.36 16.56C194.36 17.53 194.65 18.14 194.99 18.53L194.99 20.2L190.27 20.2L190.27 18.67C190.63 18.29 190.93 17.7 190.93 16.82C190.9 16.23 190.89 15.82 190.89 15.55L190.89 10.68L194.36 10.68L194.36 16.56Z" />
				<path id="&lt;Path&gt;" class="shp12" d="M212.7 14.02C212.81 14.42 212.87 14.78 212.87 15.07L212.87 15.64C212.87 16.47 212.65 17.38 212.21 18.35C211.88 18.85 211.5 19.2 211.05 19.42C210.26 19.82 209.56 20.02 208.97 20.02L208.89 20.02L208.8 20.04C208.17 20.15 207.52 20.2 206.85 20.2L206.81 20.2C205.74 20.2 204.38 19.9 202.76 19.29C202.38 19.09 202.19 18.95 202.11 18.87L202.11 15.86L205.39 15.86L205.39 16.07C205.39 17.77 206.41 18.38 207.35 18.38L207.41 18.38L207.47 18.37C208.93 18.19 209.23 17.33 209.29 16.86C209.35 16.66 209.38 16.42 209.38 16.14L209.38 15.75C209.38 14.48 208.36 13.58 206.35 13.07C204.09 12.49 203.63 12.24 203.57 12.19L203.47 12.12L203.39 12.08C203.15 11.96 202.58 11.66 202.24 10.68L206.85 10.68C207.3 10.91 207.88 11.11 208.64 11.24C210.12 11.55 210.83 11.85 211.17 12.04C211.92 12.51 212.43 13.16 212.7 14.02Z" />
				<path id="&lt;Path&gt;" class="shp13" d="M179.94 16.03L183.02 16.03L183.02 20.2L171.99 20.2L171.99 18.54C172.32 18.16 172.5 17.69 172.5 17.14L172.5 10.68L176.06 10.68L176.06 11.9L179.54 11.9L179.54 13.23L176.06 13.23L176.06 18.57L177.63 18.57C178.86 18.57 179.71 17.85 179.92 16.66L179.94 16.57L179.94 16.03Z" />
				<path id="&lt;Compound Path&gt;" fill-rule="evenodd" class="shp14" d="M169.11 15.97L169.11 16.26C169.11 18.74 168.04 19.45 167.23 19.76C166.47 20.05 165.6 20.2 164.65 20.2L157.06 20.2L157.06 18.59C157.33 18.37 157.52 18.15 157.64 17.9L157.7 17.78L157.73 17.66C157.81 17.24 157.86 16.9 157.86 16.61L157.86 10.68L161.14 10.68L161.14 11.68L162.54 11.68C164.03 11.68 164.74 11.2 165.07 10.68L167.9 10.68C167.75 10.8 167.61 10.87 167.53 10.92C167.12 11.1 166.95 11.1 166.94 11.1L165.94 11.1L165.94 13.1L166.94 13.14C166.99 13.14 167.29 13.16 168.02 13.53C168.76 14.09 169.11 14.87 169.11 15.97ZM165.39 15.93C165.39 14.62 165.05 13.75 164.35 13.25C163.84 12.95 163.16 12.85 161.92 12.85L158.7 12.85L158.7 14.76L161.14 15.2L161.14 18.53L162.57 18.53C164.53 18.53 165.11 17.48 165.29 16.85L165.31 16.75C165.36 16.41 165.39 16.14 165.39 15.93Z" />
				<path id="&lt;Path&gt;" class="shp15" d="M132.61 10.68L132.61 16.71C132.61 17.74 132.29 18.56 131.62 19.22C130.76 19.87 129.56 20.2 128.04 20.2L126.99 20.2C124.68 20.15 123.21 19.51 122.53 18.27C122.33 17.94 122.03 17.1 122.03 14.75L122.03 10.68L125.42 10.68C125.42 12.08 125.42 13.82 125.42 15.88C125.42 17.28 125.86 18.14 126.73 18.44L126.81 18.46L127.39 18.56L127.48 18.56C128.4 18.56 129.07 18.02 129.29 17.13C129.38 16.75 129.42 16.21 129.42 15.49L129.42 10.68L132.61 10.68Z" />
				<path id="&lt;Path&gt;" class="shp16" d="M118.53 16.18C118.53 17.35 118.65 18.25 119.16 18.73L119.16 20.2L115.09 20.2C115.01 19.57 114.97 18.77 114.97 17.82L114.97 16.22C114.97 15.06 114.61 14.27 113.9 13.88C113.07 13.53 112.6 13.39 112.23 13.39L111.23 13.39L111.23 16.72C111.23 17.66 111.43 18.32 111.84 18.75L111.84 20.2L107.14 20.2L107.14 18.68C107.8 17.95 107.8 16.71 107.8 16.18L107.8 10.68L111.23 10.68L111.23 12.01L112.47 12.01C114.15 12.01 114.82 11.31 115.08 10.68L118.42 10.68C118.24 10.99 118.01 11.21 117.72 11.34L117.15 11.59C117.13 11.59 116.86 11.68 116.35 11.84L116.35 13.57L117.35 13.65C117.38 13.65 117.59 13.66 118.12 13.96C118.19 14.05 118.26 14.13 118.34 14.2C118.38 14.31 118.53 14.77 118.53 16.18Z" />
				<path id="&lt;Path&gt;" class="shp17" d="M147.27 10.68L147.27 11.69C147.27 13.35 146.62 14.37 145.2 14.93C144.63 15.12 143.94 15.23 143.19 15.23L139.74 15.23L139.74 17.14C139.74 17.81 139.98 18.25 140.25 18.52L140.25 20.2L135.48 20.2L135.48 18.56C135.82 18.24 135.98 17.91 136.03 17.62C136.1 17.44 136.13 17.22 136.13 16.95L136.13 10.68L139.74 10.68L139.74 12.6L139.86 13.53L140.81 13.6L141.44 13.6C142.42 13.6 143.19 13.05 143.54 12.1L143.56 12.04L143.57 11.98C143.64 11.68 143.68 11.43 143.68 11.21L143.68 10.68L147.27 10.68Z" />
			</g>
		</g>
	</g>
</svg>