<svg xmlns="http://www.w3.org/2000/svg" width="166" height="47.172" viewBox="0 0 166 47.172">
  <g id="Group_304" data-name="Group 304" transform="translate(-74.381 -598.323)">
    <g id="Group_305" data-name="Group 305" transform="translate(74.381 598.323)">
      <path id="Path_897" data-name="Path 897" d="M5.714,9.841c-7.657,6.384-7.7,29.419-.044,35.8,7.57,6.312,146.953,6.312,154.522,0,7.657-6.384,7.613-29.456-.043-35.8C152.449,3.42,13.458,3.42,5.714,9.841Z" transform="translate(0.05 -3.207)" fill="rgba(0,0,0,0.2)"/>
      <path id="Path_898" data-name="Path 898" d="M5.742,4.833c-7.656,6.384-7.656,29.419,0,35.8,7.569,6.312,146.95,6.312,154.519,0,7.656-6.384,7.613-29.456-.043-35.84C152.474-1.588,13.486-1.588,5.742,4.833Z" transform="translate(0.018 -0.012)" fill="#fff"/>
      <path id="Path_899" data-name="Path 899" d="M11.041,7.105c-7,5.768-7,26.662-.044,32.467,6.91,5.732,144.444,5.732,151.31,0,6.953-5.768,6.953-26.662-.044-32.467C155.266,1.265,18.081,1.265,11.041,7.105Z" transform="translate(-3.67 -1.741)" fill="#e73443"/>
      <path id="Path_900" data-name="Path 900" d="M162.324,67.6c-6.909,5.732-144.44,5.732-151.349,0-3.1-2.576-4.81-8.126-5.16-14-.437,7.328,1.268,15.163,5.16,18.392,6.909,5.732,144.44,5.732,151.306,0,3.848-3.192,5.554-11.028,5.16-18.392C167.134,59.477,165.385,65.063,162.324,67.6Z" transform="translate(-3.644 -34.161)" fill="#b51a2d"/>
      <path id="Path_901" data-name="Path 901" d="M12.7,69.351a9.552,9.552,0,0,0,2.194,2.684c6.934,5.732,144.955,5.732,151.845,0,2.677-2.213,4.3-6.6,4.959-11.536C158.752,68.372,30.167,71.238,12.7,69.351Z" transform="translate(-8.075 -38.558)" fill="#ce3043"/>
      <path id="Path_902" data-name="Path 902" d="M167.231,56c-.612,4.933-2.274,9.323-4.942,11.536-6.866,5.732-144.4,5.732-151.308,0a9.545,9.545,0,0,1-2.187-2.684A26.4,26.4,0,0,1,5.82,53.5a25.308,25.308,0,0,0-.044,2.576c0-.58.044-1.2.044-1.778.35,5.913,2.055,11.5,5.16,14.039,6.909,5.732,144.443,5.732,151.308,0,3.1-2.576,4.81-8.126,5.16-14,.044.58.044,1.2.044,1.778,0-.871,0-1.741-.044-2.576A22.651,22.651,0,0,1,167.231,56Z" transform="translate(-3.651 -34.097)" fill="#ea5c6d"/>
      <path id="Path_903" data-name="Path 903" d="M160.217,78.776c-7.569,6.312-146.952,6.312-154.521,0C2,75.693.083,68.583,0,61.4c-.087,7.509,1.827,15.091,5.742,18.355,7.569,6.312,146.952,6.312,154.521,0,3.915-3.265,5.786-10.846,5.7-18.355C165.872,68.583,163.958,75.693,160.217,78.776Z" transform="translate(0.022 -39.131)" fill="#e6e6e6"/>
    </g>
  </g>
</svg>
