<svg xmlns="http://www.w3.org/2000/svg" width="92.125" height="26.179" viewBox="0 0 92.125 26.179">
    <defs>
        <style>
            .cls-1{fill:rgba(0,0,0,.2)}.cls-2{fill:#fff}.cls-3{fill:#e73443}.cls-4{fill:#b51a2d}.cls-5{fill:#ce3043}.cls-6{fill:#ea5c6d}.cls-7{fill:#e6e6e6}
        </style>
    </defs>
    <g id="Group_305" data-name="Group 305" transform="translate(.05 -.012)">
        <path id="Path_897" d="M3.149 7.7c-4.249 3.543-4.273 16.327-.024 19.87 4.2 3.5 81.554 3.5 85.755 0 4.249-3.543 4.225-16.347-.024-19.87-4.273-3.566-81.41-3.566-85.707 0z" class="cls-1" data-name="Path 897" transform="translate(0 -4.003)"/>
        <path id="Path_898" d="M3.187 2.687c-4.249 3.543-4.249 16.327 0 19.87 4.2 3.5 81.553 3.5 85.753 0 4.249-3.543 4.225-16.347-.024-19.89-4.297-3.543-81.432-3.543-85.729.02z" class="cls-2" data-name="Path 898" transform="translate(-.04)"/>
        <path id="Path_899" d="M8.7 5.156c-3.883 3.2-3.883 14.8-.024 18.018 3.835 3.181 80.162 3.181 83.972 0 3.859-3.2 3.859-14.8-.024-18.018-3.881-3.241-80.014-3.241-83.924 0z" class="cls-3" data-name="Path 899" transform="translate(-4.662 -2.166)"/>
        <path id="Path_900" d="M92.642 61.371c-3.834 3.181-80.16 3.181-83.994 0-1.723-1.429-2.67-4.51-2.864-7.771-.243 4.067.7 8.415 2.864 10.207 3.834 3.181 80.16 3.181 83.97 0 2.136-1.772 3.082-6.12 2.864-10.207-.17 3.261-1.141 6.362-2.84 7.771z" class="cls-4" data-name="Path 900" transform="translate(-4.63 -42.799)"/>
        <path id="Path_901" d="M12.7 65.412a5.3 5.3 0 0 0 1.218 1.49c3.848 3.181 80.446 3.181 84.27 0 1.486-1.228 2.387-3.664 2.752-6.4-7.185 4.367-78.547 5.957-88.24 4.91z" class="cls-5" data-name="Path 901" transform="translate(-10.183 -48.31)"/>
        <path id="Path_902" d="M95.371 54.889c-.34 2.738-1.262 5.174-2.742 6.4-3.81 3.181-80.137 3.181-83.972 0A5.3 5.3 0 0 1 7.443 59.8a14.65 14.65 0 0 1-1.65-6.3 14.045 14.045 0 0 0-.024 1.429c0-.322.024-.664.024-.986.194 3.281 1.141 6.382 2.864 7.791 3.835 3.181 80.161 3.181 83.972 0 1.723-1.429 2.67-4.51 2.864-7.771.024.322.024.664.024.986 0-.483 0-.966-.024-1.429a12.567 12.567 0 0 1-.122 1.369z" class="cls-6" data-name="Path 902" transform="translate(-4.639 -42.72)"/>
        <path id="Path_903" d="M88.913 71.043c-4.2 3.5-81.554 3.5-85.755 0C1.106 69.332.043 65.386 0 61.4c-.048 4.167 1.014 8.375 3.187 10.187 4.2 3.5 81.554 3.5 85.755 0 2.173-1.812 3.211-6.019 3.163-10.187-.054 3.986-1.116 7.932-3.192 9.643z" class="cls-7" data-name="Path 903" transform="translate(-.035 -49.029)"/>
    </g>
</svg>
