<svg xmlns="http://www.w3.org/2000/svg" xmlns:xlink="http://www.w3.org/1999/xlink" width="177.369" height="23.652" viewBox="0 0 177.369 23.652">
    <defs>
        <style>
            .cls-1,.cls-2{fill:none;stroke-miterlimit:10}.cls-1{stroke:#fff;stroke-width:5px}.cls-2{stroke:#030504;stroke-width:3px}.cls-3{fill:#dd1c34}.cls-4{fill:url(#linear-gradient)}.cls-5{fill:url(#linear-gradient-14)}
        </style>
        <linearGradient id="linear-gradient" x1=".5" x2=".5" y2="1" gradientUnits="objectBoundingBox">
            <stop offset="0" stop-color="#dd1c34"/>
            <stop offset=".013" stop-color="#dc1b33"/>
            <stop offset=".537" stop-color="#c30b2e"/>
            <stop offset=".859" stop-color="#bb052d"/>
        </linearGradient>
        <linearGradient id="linear-gradient-14" x1=".5" x2=".5" y2="1" xlink:href="#linear-gradient"/>
    </defs>
    <g id="title-game-history" transform="translate(2.5 2.5)">
        <g id="Group_344" data-name="Group 344">
            <path id="Path_1038" d="M347.4 488.435v-7.477a4.765 4.765 0 0 1 1.574-3.836 7.069 7.069 0 0 1 4.7-1.346q.487 0 1.037.032a12.611 12.611 0 0 1 3.141.614 13.167 13.167 0 0 1 2.841 1.38v4.487h-5.483v-1.163a2.212 2.212 0 0 0-.141-.846 1.211 1.211 0 0 0-.369-.513.808.808 0 0 0-.508-.177.993.993 0 0 0-.795.456 2.014 2.014 0 0 0-.348 1.247v7.807a1.463 1.463 0 0 0 .337 1.017 1.031 1.031 0 0 0 .784.373.978.978 0 0 0 .727-.326 1.251 1.251 0 0 0 .312-.9v-1.827h-.832v-3.49h6.323v8.641a3.742 3.742 0 0 1-1.485.9 13.626 13.626 0 0 1-2.43.675 13.124 13.124 0 0 1-2.4.255c-.174.006-.423.011-.748.011a10.791 10.791 0 0 1-2.642-.292 4.73 4.73 0 0 1-1.942-.966 4.26 4.26 0 0 1-1.221-1.844 8.487 8.487 0 0 1-.432-2.892z" class="cls-1" data-name="Path 1038" transform="translate(-347.403 -475.776)"/>
            <path id="Path_1039" d="M363.82 476h8.08a5.689 5.689 0 0 1 .343 1.62q2.151 11.277 2.348 12.058a2.128 2.128 0 0 0 .831 1.214v3.178h-6.137q-.043-2.557-.041-3.262a7.535 7.535 0 0 0-.375-2.077 3.847 3.847 0 0 0-1.557-1.786 4.137 4.137 0 0 0-1.434-.6h-.228a3.624 3.624 0 0 0 .716.446l.042.083q0 .27-.27 2.617a1.706 1.706 0 0 0 .685 1.475v3.106h-6.178v-3.262a2.574 2.574 0 0 0 .8-1.7q.07-.261 2.375-13.11zm2.8 9.772h1.68q-.8-5.006-.8-5.192a3.691 3.691 0 0 0-.219 1.245z" class="cls-1" data-name="Path 1039" transform="translate(-346.686 -475.764)"/>
            <path id="Path_1040" d="M375.627 475.964h7.332q.073.384 1.817 6.947h.042l1.786-6.947h7.02v3.188h-2.545v.073l2.088.385a3.6 3.6 0 0 0-.229 1.672v7.891q0 1.082.343 1.372c.229.152.343.241.343.27v3.262h-6.833v-3.262a1.075 1.075 0 0 0 .644-.882v-5.348h-.042l-2.43 9.492h-1.7l-2.471-9.451h-.032v2.689q0 2.928.188 2.928c.02.132.183.322.488.571v3.262h-5.805v-3.262c0-.028.138-.1.415-.229a1.027 1.027 0 0 0 .27-.684q-.041-1.373-.042-1.973v-5.775q0-.686.042-1.942a1.175 1.175 0 0 0-.384-.9c-.2-.09-.3-.156-.3-.2z" class="cls-1" data-name="Path 1040" transform="translate(-345.874 -475.766)"/>
            <path id="Path_1041" d="M393.743 476.013h13.595v6.325h-5.308v-1.288q0-.705-.975-1.029a2.712 2.712 0 0 0-.386-.031h-3.1v.072l2.5.457v2.8h3.631v3.481h-3.635v3.48h.6a1.239 1.239 0 0 0 1.361-1.132v-1.517h5.308v6.44h-13.591v-3.262a1.065 1.065 0 0 0 .529-.976V481.2a2.727 2.727 0 0 0-.529-2.036z" class="cls-1" data-name="Path 1041" transform="translate(-344.893 -475.763)"/>
            <path id="Path_1042" d="M415.278 475.964h6.813v3.156a1.442 1.442 0 0 0-.415.748 5.654 5.654 0 0 0-.083 1.079v1.995h1.993v-2.16a9.415 9.415 0 0 0 .021-.617 1.236 1.236 0 0 0-.519-1.049v-3.156h6.979v3.156a2.171 2.171 0 0 0-.546.8 2.832 2.832 0 0 0-.13.9c0 .124 0 .241.005.348s.005.255.005.442v7.145a6.539 6.539 0 0 0 .109 1.328 1.386 1.386 0 0 0 .557.831v3.158h-6.979v-3.158a.923.923 0 0 0 .414-.586 4.184 4.184 0 0 0 .083-.91v-2.99h-1.993v2.492c0 .353.006.635.02.846a2.215 2.215 0 0 0 .131.614 1.464 1.464 0 0 0 .348.533v3.158h-6.813v-3.158a1.56 1.56 0 0 0 .541-.742 3.112 3.112 0 0 0 .135-.95c0-.153 0-.272-.005-.358s-.005-.178-.005-.276v-7.476a5.2 5.2 0 0 0-.114-1.184 1.424 1.424 0 0 0-.551-.811z" class="cls-1" data-name="Path 1042" transform="translate(-343.727 -475.766)"/>
            <path id="Path_1043" d="M430.1 475.944h7.144v3.23H434.7v.083l2.086.373a4.609 4.609 0 0 0-.186 1.413v7.857q0 1.651.643 1.984v3.189H430.1v-3.113a1.7 1.7 0 0 0 .685-1.4v-9.273a1.192 1.192 0 0 0-.685-1.142z" class="cls-1" data-name="Path 1043" transform="translate(-342.924 -475.767)"/>
            <path id="Path_1044" d="M443.739 475.964a12.346 12.346 0 0 1 6.76 1.775h.042v4.216h-5.173v-1.037q0-1.225-1.152-1.226h-2.325v.083q1.578.291 1.733.29a1.319 1.319 0 0 0-.218.592v.188q0 1.371 2.555 1.807a10.636 10.636 0 0 1 2.991.966 4.631 4.631 0 0 1 2.067 2.659 5.22 5.22 0 0 1 .229 1.4v.592a7.931 7.931 0 0 1-.821 3.333 4.165 4.165 0 0 1-1.661 1.548 5.916 5.916 0 0 1-2.628.737 12.965 12.965 0 0 1-2.212.188h-.042a13.723 13.723 0 0 1-4.652-1.039q-1.2-.623-1.3-1.143v-4.433h5.514v1.258q0 1.369 1 1.369 1-.125 1-.747c.048 0 .072-.182.072-.55v-.4q0-1.184-2.368-1.775a12.709 12.709 0 0 1-3.292-1.112q-2.067-1.018-2.066-4.32v-.406a4.329 4.329 0 0 1 2.991-4.329 9 9 0 0 1 2.956-.484z" class="cls-1" data-name="Path 1044" transform="translate(-342.507 -475.766)"/>
            <path id="Path_1045" d="M451.4 475.914h15.65v8.186h-4.15v-3.344q0-.686-.831-.8h-2.513v.072l2.544.457v8.755a1.653 1.653 0 0 0 .655 1.568v3.272h-7.009v-3.127a1.579 1.579 0 0 0 .684-1.443q-.041-.893-.041-1.329v-8.225h-.031q-.77 0-.77.945a8.639 8.639 0 0 0-.031.914v2.285H451.4z" class="cls-1" data-name="Path 1045" transform="translate(-341.77 -475.769)"/>
            <path id="Path_1046" d="M473.534 476.013h.946a7.623 7.623 0 0 1 4.206 1.132 4.491 4.491 0 0 1 1.537 3.614v8.629a4.551 4.551 0 0 1-1.392 3.407 7 7 0 0 1-4.424 1.278h-1.09q-4.228-.1-5.566-2.555a8.937 8.937 0 0 1-.655-4.174v-4.975a8.036 8.036 0 0 1 .581-3.759q1.402-2.597 5.857-2.597zm0 3.832h-2.492v.073q1.776.334 1.9.332a1.506 1.506 0 0 0-.217.914v7.353q0 1.453.663 1.682l.436.073a.818.818 0 0 0 .873-.7 6.791 6.791 0 0 0 .114-1.465v-6.468q0-1.58-.259-1.58-.011-.164-.655-.249z" class="cls-1" data-name="Path 1046" transform="translate(-340.92 -475.763)"/>
            <path id="Path_1047" d="M480.4 475.964h6.906q3.771 0 4.86.6a4.211 4.211 0 0 1 2.545 4.217q0 3.156-1.817 3.956c0 .056-.266.165-.8.333v.082a3.286 3.286 0 0 1 1.558.6q0 .082.269.342a4.984 4.984 0 0 1 .447 2.731c0 1.157.128 1.8.385 1.943.179.083.269.144.269.185v3.117h-6.157a15.7 15.7 0 0 1-.3-3.531v-1.672q0-1.205-.571-1.516a3.946 3.946 0 0 0-1.245-.385v2.43a1.965 1.965 0 0 0 .373 1.413.632.632 0 0 0 .27.114v3.148H480.4v-3.148q.686-.248.686-2.1v-8.308a1.058 1.058 0 0 0-.612-1.028h-.074zm3.8 3.832v.083l2.545.447v3.115h.259q1.86 0 1.858-1.215a1.2 1.2 0 0 0 .042-.343 2.533 2.533 0 0 0-.571-1.775 4.934 4.934 0 0 0-2.2-.312z" class="cls-1" data-name="Path 1047" transform="translate(-340.199 -475.766)"/>
            <path id="Path_1048" d="M495.605 475.983h6.495v1.7a6.666 6.666 0 0 0 .488 2.887q.5 1.007.5 1.059a5.435 5.435 0 0 0 1.018-3.262v-2.389h5.805v3.222h-2.545v.083l2.087.374a19.609 19.609 0 0 0-2.087 3.874q-1.776 3.551-1.776 3.717v1.361a4.133 4.133 0 0 0 .229 1.9l.447.445v3.117h-6.979v-3.117a1.416 1.416 0 0 0 .643-1.172v-2.461q0-.084-3.062-6.262-.738-1.891-1.258-1.89z" class="cls-1" data-name="Path 1048" transform="translate(-339.376 -475.765)"/>
        </g>
        <g id="Group_345" data-name="Group 345">
            <path id="Path_1049" d="M347.4 488.435v-7.477a4.765 4.765 0 0 1 1.574-3.836 7.069 7.069 0 0 1 4.7-1.346q.487 0 1.037.032a12.611 12.611 0 0 1 3.141.614 13.167 13.167 0 0 1 2.841 1.38v4.487h-5.483v-1.163a2.212 2.212 0 0 0-.141-.846 1.211 1.211 0 0 0-.369-.513.808.808 0 0 0-.508-.177.993.993 0 0 0-.795.456 2.014 2.014 0 0 0-.348 1.247v7.807a1.463 1.463 0 0 0 .337 1.017 1.031 1.031 0 0 0 .784.373.978.978 0 0 0 .727-.326 1.251 1.251 0 0 0 .312-.9v-1.827h-.832v-3.49h6.323v8.641a3.742 3.742 0 0 1-1.485.9 13.626 13.626 0 0 1-2.43.675 13.124 13.124 0 0 1-2.4.255c-.174.006-.423.011-.748.011a10.791 10.791 0 0 1-2.642-.292 4.73 4.73 0 0 1-1.942-.966 4.26 4.26 0 0 1-1.221-1.844 8.487 8.487 0 0 1-.432-2.892z" class="cls-2" data-name="Path 1049" transform="translate(-347.403 -475.776)"/>
            <path id="Path_1050" d="M363.82 476h8.08a5.689 5.689 0 0 1 .343 1.62q2.151 11.277 2.348 12.058a2.128 2.128 0 0 0 .831 1.214v3.178h-6.137q-.043-2.557-.041-3.262a7.535 7.535 0 0 0-.375-2.077 3.847 3.847 0 0 0-1.557-1.786 4.137 4.137 0 0 0-1.434-.6h-.228a3.624 3.624 0 0 0 .716.446l.042.083q0 .27-.27 2.617a1.706 1.706 0 0 0 .685 1.475v3.106h-6.178v-3.262a2.574 2.574 0 0 0 .8-1.7q.07-.261 2.375-13.11zm2.8 9.772h1.68q-.8-5.006-.8-5.192a3.691 3.691 0 0 0-.219 1.245z" class="cls-2" data-name="Path 1050" transform="translate(-346.686 -475.764)"/>
            <path id="Path_1051" d="M375.627 475.964h7.332q.073.384 1.817 6.947h.042l1.786-6.947h7.02v3.188h-2.545v.073l2.088.385a3.6 3.6 0 0 0-.229 1.672v7.891q0 1.082.343 1.372c.229.152.343.241.343.27v3.262h-6.833v-3.262a1.075 1.075 0 0 0 .644-.882v-5.348h-.042l-2.43 9.492h-1.7l-2.471-9.451h-.032v2.689q0 2.928.188 2.928c.02.132.183.322.488.571v3.262h-5.805v-3.262c0-.028.138-.1.415-.229a1.027 1.027 0 0 0 .27-.684q-.041-1.373-.042-1.973v-5.775q0-.686.042-1.942a1.175 1.175 0 0 0-.384-.9c-.2-.09-.3-.156-.3-.2z" class="cls-2" data-name="Path 1051" transform="translate(-345.874 -475.766)"/>
            <path id="Path_1052" d="M393.743 476.013h13.595v6.325h-5.308v-1.288q0-.705-.975-1.029a2.712 2.712 0 0 0-.386-.031h-3.1v.072l2.5.457v2.8h3.631v3.481h-3.635v3.48h.6a1.239 1.239 0 0 0 1.361-1.132v-1.517h5.308v6.44h-13.591v-3.262a1.065 1.065 0 0 0 .529-.976V481.2a2.727 2.727 0 0 0-.529-2.036z" class="cls-2" data-name="Path 1052" transform="translate(-344.893 -475.763)"/>
            <path id="Path_1053" d="M415.278 475.964h6.813v3.156a1.442 1.442 0 0 0-.415.748 5.654 5.654 0 0 0-.083 1.079v1.995h1.993v-2.16a9.415 9.415 0 0 0 .021-.617 1.236 1.236 0 0 0-.519-1.049v-3.156h6.979v3.156a2.171 2.171 0 0 0-.546.8 2.832 2.832 0 0 0-.13.9c0 .124 0 .241.005.348s.005.255.005.442v7.145a6.539 6.539 0 0 0 .109 1.328 1.386 1.386 0 0 0 .557.831v3.158h-6.979v-3.158a.923.923 0 0 0 .414-.586 4.184 4.184 0 0 0 .083-.91v-2.99h-1.993v2.492c0 .353.006.635.02.846a2.215 2.215 0 0 0 .131.614 1.464 1.464 0 0 0 .348.533v3.158h-6.813v-3.158a1.56 1.56 0 0 0 .541-.742 3.112 3.112 0 0 0 .135-.95c0-.153 0-.272-.005-.358s-.005-.178-.005-.276v-7.476a5.2 5.2 0 0 0-.114-1.184 1.424 1.424 0 0 0-.551-.811z" class="cls-2" data-name="Path 1053" transform="translate(-343.727 -475.766)"/>
            <path id="Path_1054" d="M430.1 475.944h7.144v3.23H434.7v.083l2.086.373a4.609 4.609 0 0 0-.186 1.413v7.857q0 1.651.643 1.984v3.189H430.1v-3.113a1.7 1.7 0 0 0 .685-1.4v-9.273a1.192 1.192 0 0 0-.685-1.142z" class="cls-2" data-name="Path 1054" transform="translate(-342.924 -475.767)"/>
            <path id="Path_1055" d="M443.739 475.964a12.346 12.346 0 0 1 6.76 1.775h.042v4.216h-5.173v-1.037q0-1.225-1.152-1.226h-2.325v.083q1.578.291 1.733.29a1.319 1.319 0 0 0-.218.592v.188q0 1.371 2.555 1.807a10.636 10.636 0 0 1 2.991.966 4.631 4.631 0 0 1 2.067 2.659 5.22 5.22 0 0 1 .229 1.4v.592a7.931 7.931 0 0 1-.821 3.333 4.165 4.165 0 0 1-1.661 1.548 5.916 5.916 0 0 1-2.628.737 12.965 12.965 0 0 1-2.212.188h-.042a13.723 13.723 0 0 1-4.652-1.039q-1.2-.623-1.3-1.143v-4.433h5.514v1.258q0 1.369 1 1.369 1-.125 1-.747c.048 0 .072-.182.072-.55v-.4q0-1.184-2.368-1.775a12.709 12.709 0 0 1-3.292-1.112q-2.067-1.018-2.066-4.32v-.406a4.329 4.329 0 0 1 2.991-4.329 9 9 0 0 1 2.956-.484z" class="cls-2" data-name="Path 1055" transform="translate(-342.507 -475.766)"/>
            <path id="Path_1056" d="M451.4 475.914h15.65v8.186h-4.15v-3.344q0-.686-.831-.8h-2.513v.072l2.544.457v8.755a1.653 1.653 0 0 0 .655 1.568v3.272h-7.009v-3.127a1.579 1.579 0 0 0 .684-1.443q-.041-.893-.041-1.329v-8.225h-.031q-.77 0-.77.945a8.639 8.639 0 0 0-.031.914v2.285H451.4z" class="cls-2" data-name="Path 1056" transform="translate(-341.77 -475.769)"/>
            <path id="Path_1057" d="M473.534 476.013h.946a7.623 7.623 0 0 1 4.206 1.132 4.491 4.491 0 0 1 1.537 3.614v8.629a4.551 4.551 0 0 1-1.392 3.407 7 7 0 0 1-4.424 1.278h-1.09q-4.228-.1-5.566-2.555a8.937 8.937 0 0 1-.655-4.174v-4.975a8.036 8.036 0 0 1 .581-3.759q1.402-2.597 5.857-2.597zm0 3.832h-2.492v.073q1.776.334 1.9.332a1.506 1.506 0 0 0-.217.914v7.353q0 1.453.663 1.682l.436.073a.818.818 0 0 0 .873-.7 6.791 6.791 0 0 0 .114-1.465v-6.468q0-1.58-.259-1.58-.011-.164-.655-.249z" class="cls-2" data-name="Path 1057" transform="translate(-340.92 -475.763)"/>
            <path id="Path_1058" d="M480.4 475.964h6.906q3.771 0 4.86.6a4.211 4.211 0 0 1 2.545 4.217q0 3.156-1.817 3.956c0 .056-.266.165-.8.333v.082a3.286 3.286 0 0 1 1.558.6q0 .082.269.342a4.984 4.984 0 0 1 .447 2.731c0 1.157.128 1.8.385 1.943.179.083.269.144.269.185v3.117h-6.157a15.7 15.7 0 0 1-.3-3.531v-1.672q0-1.205-.571-1.516a3.946 3.946 0 0 0-1.245-.385v2.43a1.965 1.965 0 0 0 .373 1.413.632.632 0 0 0 .27.114v3.148H480.4v-3.148q.686-.248.686-2.1v-8.308a1.058 1.058 0 0 0-.612-1.028h-.074zm3.8 3.832v.083l2.545.447v3.115h.259q1.86 0 1.858-1.215a1.2 1.2 0 0 0 .042-.343 2.533 2.533 0 0 0-.571-1.775 4.934 4.934 0 0 0-2.2-.312z" class="cls-2" data-name="Path 1058" transform="translate(-340.199 -475.766)"/>
            <path id="Path_1059" d="M495.605 475.983h6.495v1.7a6.666 6.666 0 0 0 .488 2.887q.5 1.007.5 1.059a5.435 5.435 0 0 0 1.018-3.262v-2.389h5.805v3.222h-2.545v.083l2.087.374a19.609 19.609 0 0 0-2.087 3.874q-1.776 3.551-1.776 3.717v1.361a4.133 4.133 0 0 0 .229 1.9l.447.445v3.117h-6.979v-3.117a1.416 1.416 0 0 0 .643-1.172v-2.461q0-.084-3.062-6.262-.738-1.891-1.258-1.89z" class="cls-2" data-name="Path 1059" transform="translate(-339.376 -475.765)"/>
        </g>
        <g id="Group_346" data-name="Group 346">
            <path id="Path_1060" d="M347.4 488.435v-7.477a4.765 4.765 0 0 1 1.574-3.836 7.069 7.069 0 0 1 4.7-1.346q.487 0 1.037.032a12.611 12.611 0 0 1 3.141.614 13.167 13.167 0 0 1 2.841 1.38v4.487h-5.483v-1.163a2.212 2.212 0 0 0-.141-.846 1.211 1.211 0 0 0-.369-.513.808.808 0 0 0-.508-.177.993.993 0 0 0-.795.456 2.014 2.014 0 0 0-.348 1.247v7.807a1.463 1.463 0 0 0 .337 1.017 1.031 1.031 0 0 0 .784.373.978.978 0 0 0 .727-.326 1.251 1.251 0 0 0 .312-.9v-1.827h-.832v-3.49h6.323v8.641a3.742 3.742 0 0 1-1.485.9 13.626 13.626 0 0 1-2.43.675 13.124 13.124 0 0 1-2.4.255c-.174.006-.423.011-.748.011a10.791 10.791 0 0 1-2.642-.292 4.73 4.73 0 0 1-1.942-.966 4.26 4.26 0 0 1-1.221-1.844 8.487 8.487 0 0 1-.432-2.892z" class="cls-3" data-name="Path 1060" transform="translate(-347.403 -475.776)"/>
            <path id="Path_1061" d="M363.82 476h8.08a5.689 5.689 0 0 1 .343 1.62q2.151 11.277 2.348 12.058a2.128 2.128 0 0 0 .831 1.214v3.178h-6.137q-.043-2.557-.041-3.262a7.535 7.535 0 0 0-.375-2.077 3.847 3.847 0 0 0-1.557-1.786 4.137 4.137 0 0 0-1.434-.6h-.228a3.624 3.624 0 0 0 .716.446l.042.083q0 .27-.27 2.617a1.706 1.706 0 0 0 .685 1.475v3.106h-6.178v-3.262a2.574 2.574 0 0 0 .8-1.7q.07-.261 2.375-13.11zm2.8 9.772h1.68q-.8-5.006-.8-5.192a3.691 3.691 0 0 0-.219 1.245z" class="cls-3" data-name="Path 1061" transform="translate(-346.686 -475.764)"/>
            <path id="Path_1062" d="M375.627 475.964h7.332q.073.384 1.817 6.947h.042l1.786-6.947h7.02v3.188h-2.545v.073l2.088.385a3.6 3.6 0 0 0-.229 1.672v7.891q0 1.082.343 1.372c.229.152.343.241.343.27v3.262h-6.833v-3.262a1.075 1.075 0 0 0 .644-.882v-5.348h-.042l-2.43 9.492h-1.7l-2.471-9.451h-.032v2.689q0 2.928.188 2.928c.02.132.183.322.488.571v3.262h-5.805v-3.262c0-.028.138-.1.415-.229a1.027 1.027 0 0 0 .27-.684q-.041-1.373-.042-1.973v-5.775q0-.686.042-1.942a1.175 1.175 0 0 0-.384-.9c-.2-.09-.3-.156-.3-.2z" class="cls-3" data-name="Path 1062" transform="translate(-345.874 -475.766)"/>
            <path id="Path_1063" d="M393.743 476.013h13.595v6.325h-5.308v-1.288q0-.705-.975-1.029a2.712 2.712 0 0 0-.386-.031h-3.1v.072l2.5.457v2.8h3.631v3.481h-3.635v3.48h.6a1.239 1.239 0 0 0 1.361-1.132v-1.517h5.308v6.44h-13.591v-3.262a1.065 1.065 0 0 0 .529-.976V481.2a2.727 2.727 0 0 0-.529-2.036z" class="cls-3" data-name="Path 1063" transform="translate(-344.893 -475.763)"/>
            <path id="Path_1064" d="M415.278 475.964h6.813v3.156a1.442 1.442 0 0 0-.415.748 5.654 5.654 0 0 0-.083 1.079v1.995h1.993v-2.16a9.415 9.415 0 0 0 .021-.617 1.236 1.236 0 0 0-.519-1.049v-3.156h6.979v3.156a2.171 2.171 0 0 0-.546.8 2.832 2.832 0 0 0-.13.9c0 .124 0 .241.005.348s.005.255.005.442v7.145a6.539 6.539 0 0 0 .109 1.328 1.386 1.386 0 0 0 .557.831v3.158h-6.979v-3.158a.923.923 0 0 0 .414-.586 4.184 4.184 0 0 0 .083-.91v-2.99h-1.993v2.492c0 .353.006.635.02.846a2.215 2.215 0 0 0 .131.614 1.464 1.464 0 0 0 .348.533v3.158h-6.813v-3.158a1.56 1.56 0 0 0 .541-.742 3.112 3.112 0 0 0 .135-.95c0-.153 0-.272-.005-.358s-.005-.178-.005-.276v-7.476a5.2 5.2 0 0 0-.114-1.184 1.424 1.424 0 0 0-.551-.811z" class="cls-3" data-name="Path 1064" transform="translate(-343.727 -475.766)"/>
            <path id="Path_1065" d="M430.1 475.944h7.144v3.23H434.7v.083l2.086.373a4.609 4.609 0 0 0-.186 1.413v7.857q0 1.651.643 1.984v3.189H430.1v-3.113a1.7 1.7 0 0 0 .685-1.4v-9.273a1.192 1.192 0 0 0-.685-1.142z" class="cls-3" data-name="Path 1065" transform="translate(-342.924 -475.767)"/>
            <path id="Path_1066" d="M443.739 475.964a12.346 12.346 0 0 1 6.76 1.775h.042v4.216h-5.173v-1.037q0-1.225-1.152-1.226h-2.325v.083q1.578.291 1.733.29a1.319 1.319 0 0 0-.218.592v.188q0 1.371 2.555 1.807a10.636 10.636 0 0 1 2.991.966 4.631 4.631 0 0 1 2.067 2.659 5.22 5.22 0 0 1 .229 1.4v.592a7.931 7.931 0 0 1-.821 3.333 4.165 4.165 0 0 1-1.661 1.548 5.916 5.916 0 0 1-2.628.737 12.965 12.965 0 0 1-2.212.188h-.042a13.723 13.723 0 0 1-4.652-1.039q-1.2-.623-1.3-1.143v-4.433h5.514v1.258q0 1.369 1 1.369 1-.125 1-.747c.048 0 .072-.182.072-.55v-.4q0-1.184-2.368-1.775a12.709 12.709 0 0 1-3.292-1.112q-2.067-1.018-2.066-4.32v-.406a4.329 4.329 0 0 1 2.991-4.329 9 9 0 0 1 2.956-.484z" class="cls-3" data-name="Path 1066" transform="translate(-342.507 -475.766)"/>
            <path id="Path_1067" d="M451.4 475.914h15.65v8.186h-4.15v-3.344q0-.686-.831-.8h-2.513v.072l2.544.457v8.755a1.653 1.653 0 0 0 .655 1.568v3.272h-7.009v-3.127a1.579 1.579 0 0 0 .684-1.443q-.041-.893-.041-1.329v-8.225h-.031q-.77 0-.77.945a8.639 8.639 0 0 0-.031.914v2.285H451.4z" class="cls-3" data-name="Path 1067" transform="translate(-341.77 -475.769)"/>
            <path id="Path_1068" d="M473.534 476.013h.946a7.623 7.623 0 0 1 4.206 1.132 4.491 4.491 0 0 1 1.537 3.614v8.629a4.551 4.551 0 0 1-1.392 3.407 7 7 0 0 1-4.424 1.278h-1.09q-4.228-.1-5.566-2.555a8.937 8.937 0 0 1-.655-4.174v-4.975a8.036 8.036 0 0 1 .581-3.759q1.402-2.597 5.857-2.597zm0 3.832h-2.492v.073q1.776.334 1.9.332a1.506 1.506 0 0 0-.217.914v7.353q0 1.453.663 1.682l.436.073a.818.818 0 0 0 .873-.7 6.791 6.791 0 0 0 .114-1.465v-6.468q0-1.58-.259-1.58-.011-.164-.655-.249z" class="cls-3" data-name="Path 1068" transform="translate(-340.92 -475.763)"/>
            <path id="Path_1069" d="M480.4 475.964h6.906q3.771 0 4.86.6a4.211 4.211 0 0 1 2.545 4.217q0 3.156-1.817 3.956c0 .056-.266.165-.8.333v.082a3.286 3.286 0 0 1 1.558.6q0 .082.269.342a4.984 4.984 0 0 1 .447 2.731c0 1.157.128 1.8.385 1.943.179.083.269.144.269.185v3.117h-6.157a15.7 15.7 0 0 1-.3-3.531v-1.672q0-1.205-.571-1.516a3.946 3.946 0 0 0-1.245-.385v2.43a1.965 1.965 0 0 0 .373 1.413.632.632 0 0 0 .27.114v3.148H480.4v-3.148q.686-.248.686-2.1v-8.308a1.058 1.058 0 0 0-.612-1.028h-.074zm3.8 3.832v.083l2.545.447v3.115h.259q1.86 0 1.858-1.215a1.2 1.2 0 0 0 .042-.343 2.533 2.533 0 0 0-.571-1.775 4.934 4.934 0 0 0-2.2-.312z" class="cls-3" data-name="Path 1069" transform="translate(-340.199 -475.766)"/>
            <path id="Path_1070" d="M495.605 475.983h6.495v1.7a6.666 6.666 0 0 0 .488 2.887q.5 1.007.5 1.059a5.435 5.435 0 0 0 1.018-3.262v-2.389h5.805v3.222h-2.545v.083l2.087.374a19.609 19.609 0 0 0-2.087 3.874q-1.776 3.551-1.776 3.717v1.361a4.133 4.133 0 0 0 .229 1.9l.447.445v3.117h-6.979v-3.117a1.416 1.416 0 0 0 .643-1.172v-2.461q0-.084-3.062-6.262-.738-1.891-1.258-1.89z" class="cls-3" data-name="Path 1070" transform="translate(-339.376 -475.765)"/>
        </g>
        <g id="Group_347" data-name="Group 347" transform="translate(.528 10.138)">
            <path id="Path_1071" d="M354.883 486.39h.831v2.356a1.758 1.758 0 0 1-.458 1.261 1.537 1.537 0 0 1-2.283-.056 1.978 1.978 0 0 1-.474-1.372v-3.187H347.9v2.523a8.035 8.035 0 0 0 .393 2.711 3.778 3.778 0 0 0 1.067 1.622 4.256 4.256 0 0 0 1.73.856 10.382 10.382 0 0 0 2.513.274c.316 0 .558 0 .726-.01a12.683 12.683 0 0 0 2.322-.245 13.113 13.113 0 0 0 2.336-.648 3.913 3.913 0 0 0 1.15-.623v-6.46h-5.259z" class="cls-4" data-name="Path 1071" transform="translate(-347.904 -485.393)"/>
            <path id="Path_1072" d="M361.942 488.662a3 3 0 0 1-.8 1.841v2.534h5.124V490.7a2.28 2.28 0 0 1-.685-1.72c.16-1.41.228-2.07.254-2.378-.549-.311-.681-.417-.732-.662l-.113-.551h-2.446a202.482 202.482 0 0 1-.602 3.273z" class="cls-4" data-name="Path 1072" transform="translate(-347.187 -485.393)"/>
            <path id="Path_1073" d="M368.576 485.794h-1.682c.11.058.223.121.343.191a4.4 4.4 0 0 1 1.773 2.026 7.912 7.912 0 0 1 .42 2.252c0 .456.012 1.371.034 2.775h5.092v-2.371a3.179 3.179 0 0 1-.8-1.307c-.083-.32-.349-1.634-.8-3.966h-4.444z" class="cls-4" data-name="Path 1073" transform="translate(-346.875 -485.393)"/>
            <path id="Path_1074" d="M383.356 493.037h.887l1.957-7.644h-4.842z" class="cls-4" data-name="Path 1074" transform="translate(-346.092 -485.393)"/>
            <path id="Path_1075" d="M376.771 487.416q0 .6.042 1.957a1.525 1.525 0 0 1-.484 1.127l-.1.057-.1.046v2.434h4.751v-2.492a1.966 1.966 0 0 1-.358-.411c-.274-.27-.317-1.077-.317-3.33v-1.41h-3.431z" class="cls-4" data-name="Path 1075" transform="translate(-346.375 -485.393)"/>
            <path id="Path_1076" d="M387.361 489.42a1.442 1.442 0 0 1-.644 1.163v2.454h5.783v-2.492l-.108-.074a2.2 2.2 0 0 1-.578-1.808v-3.27h-4.45z" class="cls-4" data-name="Path 1076" transform="translate(-345.802 -485.393)"/>
            <path id="Path_1077" d="M394.772 489.327a1.594 1.594 0 0 1-.529 1.241v2.469h12.54v-5.384h-4.252v.989a1.774 1.774 0 0 1-1.888 1.658h-1.13v-4.532h3.636v-.375h-8.376z" class="cls-4" data-name="Path 1077" transform="translate(-345.394 -485.393)"/>
            <path id="Path_1078" d="M416.443 488.081c0 .088 0 .171.005.25 0 .1.005.222.005.383a3.634 3.634 0 0 1-.16 1.111 2.016 2.016 0 0 1-.514.82v2.392h5.758v-2.429a1.918 1.918 0 0 1-.315-.556 2.7 2.7 0 0 1-.162-.757 14.626 14.626 0 0 1-.021-.882v-3.019h3.048v3.518a4.653 4.653 0 0 1-.1 1.026 1.434 1.434 0 0 1-.4.72v2.379h5.924v-2.387a1.867 1.867 0 0 1-.544-.96 7.09 7.09 0 0 1-.121-1.443v-2.854h-12.4z" class="cls-4" data-name="Path 1078" transform="translate(-344.228 -485.393)"/>
            <path id="Path_1079" d="M431.28 489.047a2.232 2.232 0 0 1-.685 1.641v2.349h6.09v-2.394a3.027 3.027 0 0 1-.643-2.25v-3h-4.762z" class="cls-4" data-name="Path 1079" transform="translate(-343.425 -485.393)"/>
            <path id="Path_1080" d="M443.245 485.587c1.832.459 2.763 1.228 2.763 2.286v.4a2.136 2.136 0 0 1-.082.709c-.052.411-.334.972-1.449 1.112h-.017c-.53 0-1.573-.2-1.573-1.894v-.729h-4.459v3.89a3.382 3.382 0 0 0 1.01.69 13.2 13.2 0 0 0 4.412.98 12.642 12.642 0 0 0 2.163-.178 5.577 5.577 0 0 0 2.479-.689 3.666 3.666 0 0 0 1.456-1.361 7.428 7.428 0 0 0 .737-3.05v-.591a4.7 4.7 0 0 0-.208-1.258 4.3 4.3 0 0 0-.209-.517h-7.749c.225.067.458.13.726.2z" class="cls-4" data-name="Path 1080" transform="translate(-343.001 -485.393)"/>
            <path id="Path_1081" d="M456.665 487.665c0 .287.012.72.04 1.305a2.182 2.182 0 0 1-.685 1.73v2.337h5.957v-2.475a2.335 2.335 0 0 1-.655-1.837v-3.331h-4.657z" class="cls-4" data-name="Path 1081" transform="translate(-342.048 -485.393)"/>
            <path id="Path_1082" d="M475.311 487.6a7.164 7.164 0 0 1-.129 1.59 1.342 1.342 0 0 1-1.385 1.1l-.522-.08c-.762-.254-1.1-.988-1.1-2.2v-2.615H467.6v1.441c0 2.445.314 3.47.578 3.9.8 1.472 2.525 2.239 5.13 2.3h1.077a6.515 6.515 0 0 0 4.1-1.165 3.985 3.985 0 0 0 1.19-2.991v-3.488h-4.357z" class="cls-4" data-name="Path 1082" transform="translate(-341.421 -485.393)"/>
            <path id="Path_1083" d="M481.59 488.319a3.212 3.212 0 0 1-.685 2.4v2.322h5.934v-2.273l-.017-.009-.089-.068a2.4 2.4 0 0 1-.537-1.8v-2.957h.527a4.2 4.2 0 0 1 1.452.427 2.051 2.051 0 0 1 .891 2v1.671a17.865 17.865 0 0 0 .2 3h5.2v-2.312c-.477-.286-.653-.961-.653-2.4 0-1.925-.264-2.323-.316-2.383a1.757 1.757 0 0 1-.284-.323 5.358 5.358 0 0 0-.413-.22h-11.21z" class="cls-4" data-name="Path 1083" transform="translate(-340.7 -485.393)"/>
            <path id="Path_1084" d="M505.389 485.393h-5.766c.61 1.255.615 1.317.615 1.421v2.461a1.889 1.889 0 0 1-.644 1.42v2.341h5.925v-2.37l-.293-.292c-.241-.263-.383-.727-.383-2.274v-1.36c0-.117.003-.214.546-1.347z" class="cls-5" data-name="Path 1084" transform="translate(-339.688 -485.393)"/>
        </g>
    </g>
</svg>
