<?xml version="1.0" encoding="utf-8"?>
<!-- Generator: Adobe Illustrator 16.0.0, SVG Export Plug-In . SVG Version: 6.00 Build 0)  -->
<!DOCTYPE svg PUBLIC "-//W3C//DTD SVG 1.1//EN" "http://www.w3.org/Graphics/SVG/1.1/DTD/svg11.dtd">
<svg version="1.1" id="Layer_1" xmlns="http://www.w3.org/2000/svg" xmlns:xlink="http://www.w3.org/1999/xlink" x="0px" y="0px"
	 width="1990.03px" height="954.079px" viewBox="0 0 1990.03 954.079" enable-background="new 0 0 1990.03 954.079"
	 xml:space="preserve">
<g>
	<defs>
		<rect id="SVGID_1_" width="1990.03" height="954.079"/>
	</defs>
	<clipPath id="SVGID_2_">
		<use xlink:href="#SVGID_1_"  overflow="visible"/>
	</clipPath>
	<g clip-path="url(#SVGID_2_)">
		<defs>
			<rect id="SVGID_3_" width="1990.034" height="954.079"/>
		</defs>
		<clipPath id="SVGID_4_">
			<use xlink:href="#SVGID_3_"  overflow="visible"/>
		</clipPath>
		<g opacity="0.2" clip-path="url(#SVGID_4_)">
			<g>
				<defs>
					<rect id="SVGID_5_" y="31.704" width="1990.03" height="922.375"/>
				</defs>
				<clipPath id="SVGID_6_">
					<use xlink:href="#SVGID_5_"  overflow="visible"/>
				</clipPath>
				<path clip-path="url(#SVGID_6_)" fill="#010101" d="M1965.245,58.964h-0.089c-7.994-8.488-17.47-15.359-27.979-20.03h-0.09
					c-10.464-4.67-21.824-7.229-33.456-7.229H86.402c-11.676,0-22.993,2.559-33.456,7.229h-0.09
					c-10.509,4.671-19.985,11.542-27.978,20.03h-0.09c-7.723,8.307-14.01,18.277-18.322,29.414
					c-4.086,10.463-6.377,11.825-6.467,23.545v0.54v751.396c0.09,11.677,2.381,23.038,6.467,33.546
					c4.267,11.002,10.554,20.973,18.412,29.369c7.904,8.443,17.424,15.314,27.978,20.029v0.045
					c10.463,4.625,21.825,7.231,33.546,7.231h1817.229c11.632,0,22.992-2.606,33.456-7.231h0.09
					c10.599-4.716,20.118-11.587,28.067-20.074c7.724-8.308,14.011-18.276,18.322-29.369c4.087-10.508,6.377-21.869,6.467-33.546
					V112.463v-0.54c-0.09-11.72-2.38-13.082-6.467-23.545C1979.256,77.241,1972.969,67.271,1965.245,58.964 M1911.267,112.193v0.27
					V863.59v18.008c0,1.573-0.27,3.009-0.719,4.177v0.09c-0.493,1.303-1.213,2.426-2.021,3.278h-0.09
					c-0.764,0.81-1.616,1.482-2.516,1.841c-0.584,0.271-1.391,0.449-2.29,0.449H86.402c-0.944,0-1.707-0.179-2.336-0.449
					c-0.853-0.358-1.706-0.986-2.47-1.841l-0.09-0.09c-0.852-0.898-1.571-2.021-2.02-3.188v-0.09
					c-0.449-1.168-0.719-2.604-0.719-4.177V863.59V112.463v-0.27v-8.008c0-1.572,0.27-3.009,0.719-4.177v-0.089
					c0.449-1.212,1.168-2.29,2.02-3.234l0.09-0.089c0.764-0.809,1.617-1.437,2.47-1.842v-0.045c0.584-0.224,1.392-0.359,2.336-0.359
					h1817.229c0.899,0,1.706,0.135,2.29,0.404l0.09,0.09c0.899,0.405,1.752,0.988,2.426,1.752c0.942,0.988,1.662,2.111,2.11,3.323
					v0.089c0.449,1.168,0.719,2.605,0.719,4.177V112.193z"/>
			</g>
		</g>
		<path clip-path="url(#SVGID_4_)" fill="#E6E6E5" d="M1965.245,27.303h-0.089c-7.994-8.532-17.47-15.403-27.979-20.074h-0.09
			C1926.624,2.604,1915.264,0,1903.632,0H86.402C74.726,0,63.409,2.604,52.946,7.229h-0.09C42.347,11.9,32.871,18.771,24.878,27.303
			h-0.09c-7.723,8.263-14.01,18.278-18.322,29.369C2.29,67.361-0.001,78.902-0.001,90.757v759.137c0,11.9,2.291,23.441,6.467,34.085
			c4.267,11.001,10.554,20.973,18.412,29.414c7.904,8.441,17.424,15.269,27.978,19.983v0.045c10.463,4.671,21.825,7.23,33.546,7.23
			h1817.229c11.632,0,22.992-2.56,33.456-7.23h0.09c10.599-4.715,20.118-11.587,28.067-20.028
			c7.724-8.309,14.011-18.276,18.322-29.414c4.132-10.644,6.467-22.185,6.467-34.085V90.757c0-11.855-2.335-23.396-6.467-34.085
			C1979.256,45.581,1972.969,35.566,1965.245,27.303 M1911.267,849.894c0,1.571-0.27,3.009-0.719,4.178v0.09
			c-0.493,1.301-1.213,2.424-2.021,3.322h-0.09c-0.764,0.808-1.616,1.437-2.516,1.842c-0.584,0.269-1.391,0.403-2.29,0.403H86.402
			c-0.944,0-1.707-0.135-2.336-0.403c-0.853-0.405-1.706-1.034-2.47-1.842l-0.09-0.09c-0.852-0.942-1.571-2.021-2.02-3.232v-0.09
			c-0.449-1.169-0.719-2.606-0.719-4.178V90.757c0-1.572,0.27-3.009,0.719-4.176v-0.089c0.449-1.168,1.168-2.29,2.02-3.189
			l0.09-0.09c0.764-0.809,1.617-1.482,2.47-1.886c0.584-0.225,1.392-0.405,2.336-0.405h1817.229c0.899,0,1.706,0.18,2.29,0.45
			l0.09,0.089c0.899,0.36,1.752,0.988,2.426,1.752c0.942,0.944,1.662,2.111,2.11,3.279v0.089c0.449,1.167,0.719,2.604,0.719,4.176
			V849.894z"/>
		<path clip-path="url(#SVGID_4_)" fill="#FFFFFF" d="M1965.245,27.303h-0.089c-7.994-8.532-17.47-15.403-27.979-20.074h-0.09
			C1926.624,2.604,1915.264,0,1903.632,0H86.402C74.726,0,63.409,2.604,52.946,7.229h-0.09
			c-10.509,4.671-19.985,11.542-27.978,20.074h-0.09c-7.723,8.263-14.01,18.278-18.322,29.37C2.38,67.181,0.089,78.543-0.001,90.218
			v0.54v741.396c0.09,11.723,2.381,23.084,6.467,33.546c4.267,11.004,10.554,20.974,18.412,29.37
			c7.904,8.442,17.424,15.313,27.978,20.028v0.045c10.463,4.671,21.825,7.231,33.546,7.231h1817.229
			c11.632,0,22.992-2.561,33.456-7.231h0.09c10.599-4.715,20.118-11.586,28.067-20.073c7.724-8.263,14.011-18.276,18.322-29.37
			c4.087-10.462,6.377-21.823,6.467-33.546V90.758v-0.54c-0.09-11.674-2.38-23.037-6.467-33.545
			C1979.256,45.581,1972.969,35.565,1965.245,27.303 M1911.267,90.488v0.27v741.128v18.008c0,1.572-0.27,3.009-0.719,4.177v0.09
			c-0.493,1.303-1.213,2.426-2.021,3.323h-0.09c-0.764,0.809-1.616,1.438-2.516,1.841c-0.584,0.27-1.391,0.404-2.29,0.404H86.402
			c-0.944,0-1.707-0.135-2.336-0.404c-0.853-0.403-1.706-1.032-2.47-1.841l-0.09-0.09c-0.852-0.943-1.571-2.021-2.02-3.233v-0.09
			c-0.449-1.168-0.719-2.604-0.719-4.177v-18.008V90.758v-0.27V72.479c0-1.571,0.27-3.009,0.719-4.176v-0.089
			c0.449-1.168,1.168-2.291,2.02-3.189l0.09-0.09c0.764-0.853,1.617-1.482,2.47-1.886c0.584-0.269,1.392-0.405,2.336-0.405h1817.229
			c0.899,0,1.706,0.181,2.29,0.405l0.09,0.089c0.899,0.405,1.752,1.034,2.426,1.797c0.942,0.943,1.662,2.111,2.11,3.279v0.089
			c0.449,1.167,0.719,2.605,0.719,4.176V90.488z"/>
		<path clip-path="url(#SVGID_4_)" fill="#B51F2E" d="M1903.632,14.459H86.402c-17.245,0-32.917,7.545-44.234,19.714
			C30.806,46.299,23.755,63.049,23.755,81.506v759.092c0,18.456,7.051,35.207,18.413,47.377
			c11.317,12.126,26.989,19.67,44.234,19.67h1817.229c17.2,0,32.917-7.544,44.234-19.67c11.362-12.125,18.412-28.921,18.412-47.377
			V81.506c0-18.457-7.05-35.207-18.412-47.333C1936.549,22.004,1920.832,14.459,1903.632,14.459 M1935.023,840.598
			c0,9.251-3.549,17.648-9.252,23.756c-5.657,6.062-13.518,9.835-22.14,9.835H86.402c-8.622,0-16.482-3.772-22.14-9.835
			c-5.703-6.107-9.251-14.505-9.251-23.756V81.506c0-9.251,3.548-17.648,9.251-23.711c5.658-6.107,13.518-9.88,22.14-9.88h1817.229
			c8.622,0,16.482,3.773,22.14,9.88c5.703,6.063,9.252,14.46,9.252,23.711V840.598z"/>
		<path clip-path="url(#SVGID_4_)" fill="#CF3143" d="M1903.632,17.199H86.402c-17.245,0-32.917,7.051-44.234,18.367
			C30.806,46.928,23.755,62.6,23.755,79.845V822.23c0,17.245,7.051,32.918,18.413,44.279c11.317,11.362,26.989,18.411,44.234,18.411
			h1817.229c17.2,0,32.917-7.049,44.234-18.411c11.362-11.316,18.412-27.034,18.412-44.279V79.845
			c0-17.245-7.05-32.917-18.412-44.279C1936.549,24.25,1920.832,17.199,1903.632,17.199 M1935.023,822.23
			c0,8.622-3.549,16.525-9.252,22.185c-5.657,5.703-13.518,9.252-22.14,9.252H86.402c-8.622,0-16.482-3.549-22.14-9.252
			c-5.703-5.703-9.251-13.562-9.251-22.185V79.845c0-8.623,3.548-16.481,9.251-22.184c5.658-5.659,13.518-9.206,22.14-9.206
			h1817.229c8.622,0,16.482,3.503,22.14,9.206c5.703,5.703,9.252,13.561,9.252,22.184V822.23z"/>
		<path clip-path="url(#SVGID_4_)" fill="#CF3143" d="M1903.632,14.459H86.402c-17.245,0-32.917,7.096-44.234,18.412
			C30.806,44.232,23.755,59.905,23.755,77.15v742.386c0,17.244,7.051,32.917,18.413,44.278
			c11.317,11.317,26.989,18.368,44.234,18.368h1817.229c17.2,0,32.917-7.051,44.234-18.368
			c11.362-11.361,18.412-27.034,18.412-44.278V77.15c0-17.245-7.05-32.918-18.412-44.279
			C1936.549,21.51,1920.832,14.459,1903.632,14.459 M1935.023,819.536c0,8.622-3.549,16.48-9.252,22.186
			c-5.657,5.703-13.518,9.206-22.14,9.206H86.402c-8.622,0-16.482-3.548-22.14-9.206c-5.703-5.705-9.251-13.563-9.251-22.186V77.15
			c0-8.622,3.548-16.48,9.251-22.184c5.658-5.703,13.518-9.251,22.14-9.251h1817.229c8.622,0,16.482,3.548,22.14,9.251
			c5.703,5.659,9.252,13.562,9.252,22.184V819.536z"/>
		<path clip-path="url(#SVGID_4_)" fill="#E73545" d="M1935.023,819.536c0,8.622-3.549,16.48-9.252,22.186
			c-5.657,5.703-13.518,9.206-22.14,9.206H86.402c-8.622,0-16.482-3.548-22.14-9.206c-5.703-5.705-9.251-13.563-9.251-22.186v-1.213
			c-11.136-1.48-21.6-3.368-31.256-5.702v6.915c0,17.244,7.051,32.917,18.413,44.278c11.317,11.317,26.989,18.368,44.234,18.368
			h1817.229c17.2,0,32.917-7.051,44.234-18.368c11.362-11.361,18.412-27.034,18.412-44.278V639.721
			c-9.655,5.703-20.118,145.987-31.255,151.378V819.536z"/>
		<path clip-path="url(#SVGID_4_)" fill="#EA5D6E" d="M1903.633,14.459H86.402c-17.246,0-32.917,7.096-44.235,18.412
			C30.807,44.232,23.755,59.905,23.755,77.15v79.545c9.655-5.749,20.074-11.362,31.256-16.84V77.15
			c0-8.622,3.548-16.48,9.251-22.184c5.658-5.703,13.517-9.251,22.14-9.251h1817.23c8.621,0,16.48,3.548,22.14,9.251
			c5.703,5.659,9.251,13.562,9.251,22.184v4.221c11.136,1.393,21.554,3.234,31.255,5.479v-9.7c0-17.245-7.05-32.918-18.413-44.279
			C1936.55,21.51,1920.831,14.459,1903.633,14.459"/>
		<path clip-path="url(#SVGID_4_)" fill="#B51F2E" d="M1895.595,38.754H94.44c-24.565,0-44.683,20.073-44.683,44.638v730.351
			c0,24.565,20.118,44.638,44.683,44.638h1801.154c24.563,0,44.683-20.072,44.683-44.638V83.392
			C1940.277,58.827,1920.158,38.754,1895.595,38.754"/>
		<path clip-path="url(#SVGID_4_)" fill="#1C2A3F" d="M1937.36,86.225c-0.169-0.425-0.317-0.855-0.498-1.272
			c-0.055-0.119-0.115-0.231-0.169-0.347c-6.497-14.621-21.162-24.879-38.136-24.879h-1.975H93.452h-1.976
			c-16.973,0-31.638,10.258-38.136,24.879c-0.053,0.116-0.115,0.228-0.168,0.347c-0.18,0.417-0.331,0.847-0.499,1.272
			c-1.854,4.546-2.916,9.453-2.916,14.592v0.583v683.994v31.313c0,22.904,18.771,41.674,41.719,41.674h1807.082
			c22.948,0,41.72-18.77,41.72-41.674v-31.313V101.4v-0.583C1940.277,95.678,1939.215,90.771,1937.36,86.225"/>
		<g opacity="0.2" clip-path="url(#SVGID_4_)">
			<g>
				<defs>
					<rect id="SVGID_7_" x="129.422" y="121.344" width="671.313" height="191.881"/>
				</defs>
				<clipPath id="SVGID_8_">
					<use xlink:href="#SVGID_7_"  overflow="visible"/>
				</clipPath>
				<path clip-path="url(#SVGID_8_)" fill="#010101" d="M740.989,121.344h-551.82c-48.986,0-59.898,48.507-59.745,96.754
					c0.173,47.705,6.681,95.128,59.745,95.128h551.82c53.084,0,59.593-47.423,59.744-95.128
					C800.907,169.851,789.973,121.344,740.989,121.344"/>
			</g>
		</g>
		<path clip-path="url(#SVGID_4_)" fill="#FFFFFF" d="M740.989,111.842h-551.82c-48.986,0-59.898,48.528-59.745,96.754
			c0.173,47.705,6.681,95.128,59.745,95.128h551.82c53.084,0,59.593-47.423,59.744-95.128
			C800.907,160.37,789.973,111.842,740.989,111.842"/>
		<path clip-path="url(#SVGID_4_)" fill="#E73545" d="M724.045,125.531H206.11c-45.339,0-55.449,38.767-55.297,77.316
			c0.152,38.117,6.161,76.038,55.297,76.038h517.935c49.137,0,55.167-37.921,55.319-76.038
			C779.517,164.298,769.408,125.531,724.045,125.531"/>
		<path clip-path="url(#SVGID_4_)" fill="#E6E6E5" d="M740.989,296.825h-551.82c-52.109,0-59.312-45.708-59.724-92.523v0.064
			c-0.021,1.41-0.021,2.82-0.021,4.23c0.173,47.706,6.681,95.128,59.745,95.128h551.82c53.084,0,59.593-47.422,59.744-95.128
			c0-1.41,0-2.863-0.021-4.294C800.321,251.117,793.097,296.825,740.989,296.825"/>
		<path clip-path="url(#SVGID_4_)" fill="#EE7285" d="M724.045,263.2H206.11c-45.795,0-54.146-32.953-55.189-68.292
			c-0.087,2.646-0.13,5.293-0.108,7.939c0.152,38.117,6.161,76.038,55.297,76.038h517.935c49.137,0,55.167-37.921,55.319-76.038
			c0-2.646-0.044-5.293-0.13-7.939C778.192,230.247,769.862,263.2,724.045,263.2"/>
		<path clip-path="url(#SVGID_4_)" fill="#EA5D6E" d="M732.745,126.051c-2.733-0.347-5.64-0.521-8.699-0.521H206.111
			c-3.058,0-5.944,0.174-8.699,0.521c-35.166,4.36-45.297,35.687-46.49,68.856c0.044,1.15,0.087,2.3,0.131,3.45
			c1.822-34.667,13.97-66.492,55.058-66.492h517.935c41.088,0,53.259,31.825,55.058,66.492c0.066-1.15,0.109-2.3,0.131-3.45
			C778.042,161.738,767.911,130.411,732.745,126.051"/>
		<path clip-path="url(#SVGID_4_)" fill="#B51F2E" d="M727.408,143.038H521.694c-27.855,0-34.059,27.616-33.951,55.059
			c0.087,27.139,3.775,54.127,33.951,54.127h205.714c30.154,0,33.843-26.988,33.951-54.127
			C761.446,170.653,755.241,143.038,727.408,143.038"/>
		<path clip-path="url(#SVGID_4_)" fill="#F6A4B3" d="M727.408,149.242H521.694c-27.855,0-34.059,26.033-33.951,51.936
			c0.087,25.577,3.775,51.045,33.951,51.045h205.714c30.154,0,33.843-25.468,33.951-51.045
			C761.446,175.274,755.241,149.242,727.408,149.242"/>
		<path clip-path="url(#SVGID_4_)" fill="#1C2A3F" d="M727.408,149.242H521.694c-27.855,0-34.059,24.602-33.951,49.072
			c0.087,24.189,3.775,48.247,33.951,48.247h205.714c30.154,0,33.843-24.058,33.951-48.247
			C761.446,173.844,755.241,149.242,727.408,149.242"/>
		<path clip-path="url(#SVGID_4_)" fill="#B51F2E" d="M724.045,264.631H206.11c-45.795,0-54.146-32.953-55.189-68.292
			c-0.064,2.061-0.108,4.144-0.108,6.204v0.304c0.152,38.116,6.161,76.037,55.297,76.037h517.935
			c49.137,0,55.167-37.921,55.319-76.037v-0.304c-0.022-2.06-0.065-4.143-0.13-6.204
			C778.192,231.678,769.862,264.631,724.045,264.631"/>
		<g opacity="0.2" clip-path="url(#SVGID_4_)">
			<g>
				<defs>
					<rect id="SVGID_9_" x="129.422" y="347.404" width="671.313" height="191.882"/>
				</defs>
				<clipPath id="SVGID_10_">
					<use xlink:href="#SVGID_9_"  overflow="visible"/>
				</clipPath>
				<path clip-path="url(#SVGID_10_)" fill="#010101" d="M740.989,347.405h-551.82c-48.986,0-59.898,48.507-59.745,96.754
					c0.173,47.705,6.681,95.126,59.745,95.126h551.82c53.084,0,59.593-47.422,59.744-95.126
					C800.907,395.912,789.973,347.405,740.989,347.405"/>
			</g>
		</g>
		<path clip-path="url(#SVGID_4_)" fill="#FFFFFF" d="M740.989,337.902h-551.82c-48.986,0-59.898,48.528-59.745,96.754
			c0.173,47.705,6.681,95.127,59.745,95.127h551.82c53.084,0,59.593-47.423,59.744-95.127
			C800.907,386.431,789.973,337.902,740.989,337.902"/>
		<path clip-path="url(#SVGID_4_)" fill="#E73545" d="M724.045,351.591H206.11c-45.339,0-55.449,38.767-55.297,77.316
			c0.152,38.117,6.161,76.038,55.297,76.038h517.935c49.137,0,55.167-37.921,55.319-76.038
			C779.517,390.358,769.408,351.591,724.045,351.591"/>
		<path clip-path="url(#SVGID_4_)" fill="#E6E6E5" d="M740.989,522.885h-551.82c-52.109,0-59.312-45.708-59.724-92.522v0.064
			c-0.021,1.41-0.021,2.82-0.021,4.23c0.173,47.706,6.681,95.128,59.745,95.128h551.82c53.084,0,59.593-47.422,59.744-95.128
			c0-1.41,0-2.863-0.021-4.294C800.321,477.176,793.097,522.885,740.989,522.885"/>
		<path clip-path="url(#SVGID_4_)" fill="#EE7285" d="M724.045,489.26H206.11c-45.795,0-54.146-32.953-55.189-68.292
			c-0.087,2.646-0.13,5.293-0.108,7.939c0.152,38.117,6.161,76.038,55.297,76.038h517.935c49.137,0,55.167-37.921,55.319-76.038
			c0-2.646-0.044-5.293-0.13-7.939C778.192,456.307,769.862,489.26,724.045,489.26"/>
		<path clip-path="url(#SVGID_4_)" fill="#EA5D6E" d="M732.745,352.111c-2.733-0.347-5.64-0.521-8.699-0.521H206.111
			c-3.058,0-5.944,0.174-8.699,0.521c-35.166,4.36-45.297,35.688-46.49,68.856c0.044,1.15,0.087,2.3,0.131,3.45
			c1.822-34.667,13.97-66.492,55.058-66.492h517.935c41.088,0,53.259,31.825,55.058,66.492c0.066-1.15,0.109-2.3,0.131-3.45
			C778.042,387.799,767.911,356.472,732.745,352.111"/>
		<path clip-path="url(#SVGID_4_)" fill="#B51F2E" d="M727.408,369.098H521.694c-27.855,0-34.059,27.616-33.951,55.059
			c0.087,27.139,3.775,54.126,33.951,54.126h205.714c30.154,0,33.843-26.987,33.951-54.126
			C761.446,396.714,755.241,369.098,727.408,369.098"/>
		<path clip-path="url(#SVGID_4_)" fill="#F6A4B3" d="M727.408,375.302H521.694c-27.855,0-34.059,26.033-33.951,51.936
			c0.087,25.577,3.775,51.044,33.951,51.044h205.714c30.154,0,33.843-25.467,33.951-51.044
			C761.446,401.335,755.241,375.302,727.408,375.302"/>
		<path clip-path="url(#SVGID_4_)" fill="#1C2A3F" d="M727.408,375.302H521.694c-27.855,0-34.059,24.602-33.951,49.071
			c0.087,24.19,3.775,48.247,33.951,48.247h205.714c30.154,0,33.843-24.057,33.951-48.247
			C761.446,399.904,755.241,375.302,727.408,375.302"/>
		<path clip-path="url(#SVGID_4_)" fill="#B51F2E" d="M724.045,490.691H206.11c-45.795,0-54.146-32.953-55.189-68.292
			c-0.064,2.061-0.108,4.144-0.108,6.204v0.304c0.152,38.116,6.161,76.037,55.297,76.037h517.935
			c49.137,0,55.167-37.92,55.319-76.037v-0.304c-0.022-2.06-0.065-4.143-0.13-6.204
			C778.192,457.739,769.862,490.691,724.045,490.691"/>
		<g opacity="0.2" clip-path="url(#SVGID_4_)">
			<g>
				<defs>
					<rect id="SVGID_11_" x="1057.64" y="144.02" width="348.65" height="386.893"/>
				</defs>
				<clipPath id="SVGID_12_">
					<use xlink:href="#SVGID_11_"  overflow="visible"/>
				</clipPath>
				<path clip-path="url(#SVGID_12_)" fill="#010101" d="M1388.69,163.428h-0.074c-5.665-6.038-12.426-10.934-19.88-14.264h-0.074
					c-7.431-3.306-15.482-5.145-23.781-5.145h-225.839c-8.276,0-16.326,1.839-23.781,5.145h-0.05
					c-7.481,3.33-14.24,8.226-19.881,14.264h-0.074c-5.518,5.889-9.965,12.997-13.046,20.874
					c-2.883,7.455-4.524,15.531-4.574,23.856v0.398v258.218c0.05,8.325,1.691,16.402,4.574,23.856
					c3.031,7.804,7.528,14.91,13.12,20.874c5.615,6.015,12.35,10.885,19.881,14.239v0.025c7.429,3.304,15.48,5.143,23.831,5.143
					h225.839c8.299,0,16.351-1.839,23.781-5.143h0.074c7.529-3.355,14.313-8.25,19.954-14.265
					c5.492-5.89,9.966-12.997,13.046-20.874c2.884-7.454,4.498-15.532,4.549-23.856V208.556v-0.398
					c-0.051-8.325-1.665-16.401-4.549-23.856C1398.656,176.425,1394.183,169.317,1388.69,163.428 M1350.323,208.332v0.224v258.045
					v12.772c0,1.145-0.176,2.162-0.497,2.982v0.075c-0.373,0.92-0.87,1.714-1.441,2.336h-0.076c-0.546,0.57-1.142,1.044-1.763,1.316
					c-0.448,0.174-0.994,0.298-1.665,0.298h-225.839c-0.671,0-1.218-0.124-1.64-0.298c-0.623-0.272-1.243-0.721-1.791-1.316
					l-0.05-0.075c-0.621-0.646-1.118-1.417-1.439-2.261v-0.075c-0.323-0.82-0.523-1.838-0.523-2.982v-12.772V208.556v-0.224v-12.771
					c0-1.144,0.2-2.138,0.523-2.983v-0.074c0.321-0.846,0.818-1.615,1.439-2.262l0.05-0.074c0.548-0.572,1.145-1.044,1.791-1.317
					l-0.025-0.025c0.423-0.175,0.994-0.273,1.665-0.273h225.839c0.671,0,1.217,0.124,1.665,0.298l0.049,0.074
					c0.622,0.273,1.217,0.696,1.714,1.243c0.671,0.695,1.194,1.516,1.518,2.336v0.074c0.321,0.845,0.497,1.839,0.497,2.983V208.332z
					"/>
			</g>
		</g>
		<path clip-path="url(#SVGID_4_)" fill="#E6E6E5" d="M1388.69,140.889h-0.074c-5.665-6.038-12.426-10.933-19.88-14.239h-0.074
			c-7.431-3.305-15.482-5.144-23.781-5.144h-225.839c-8.276,0-16.326,1.839-23.781,5.144h-0.05
			c-7.481,3.306-14.24,8.201-19.881,14.239h-0.074c-5.518,5.914-9.965,13.022-13.046,20.9c-2.933,7.579-4.574,15.779-4.574,24.228
			V456.86c0,8.448,1.642,16.674,4.574,24.253c3.031,7.804,7.528,14.886,13.12,20.874c5.615,5.988,12.35,10.885,19.881,14.215v0.024
			c7.429,3.329,15.48,5.168,23.831,5.168h225.839c8.299,0,16.351-1.839,23.781-5.168h0.074c7.529-3.33,14.313-8.225,19.954-14.239
			c5.492-5.89,9.966-12.996,13.046-20.874c2.934-7.58,4.549-15.806,4.549-24.253V186.017c0-8.449-1.615-16.649-4.549-24.228
			C1398.656,153.911,1394.183,146.803,1388.69,140.889 M1350.323,456.86c0,1.143-0.176,2.137-0.497,2.981v0.076
			c-0.373,0.894-0.87,1.714-1.441,2.336h-0.076c-0.546,0.571-1.142,1.018-1.763,1.316c-0.448,0.174-0.994,0.299-1.665,0.299
			h-225.839c-0.671,0-1.218-0.125-1.64-0.299c-0.623-0.298-1.243-0.745-1.791-1.316l-0.05-0.076
			c-0.621-0.645-1.118-1.441-1.439-2.26v-0.076c-0.323-0.844-0.523-1.838-0.523-2.981V186.017c0-1.118,0.2-2.136,0.523-2.957v-0.074
			c0.321-0.846,0.818-1.641,1.439-2.286l0.05-0.075c0.548-0.572,1.145-1.02,1.791-1.317h-0.025c0.423-0.175,0.994-0.273,1.665-0.273
			h225.839c0.671,0,1.217,0.098,1.665,0.298l0.049,0.049c0.622,0.274,1.217,0.721,1.714,1.243c0.671,0.72,1.194,1.515,1.518,2.361
			v0.074c0.321,0.821,0.497,1.839,0.497,2.957V456.86z"/>
		<path clip-path="url(#SVGID_4_)" fill="#FFFFFF" d="M1388.69,140.889h-0.074c-5.665-6.038-12.426-10.933-19.88-14.239h-0.074
			c-7.431-3.305-15.482-5.144-23.781-5.144h-225.839c-8.276,0-16.326,1.839-23.781,5.144h-0.05
			c-7.481,3.306-14.24,8.201-19.881,14.239h-0.074c-5.518,5.914-9.965,13.022-13.046,20.9c-2.883,7.455-4.524,15.531-4.574,23.855
			v0.373V444.26c0.05,8.326,1.691,16.377,4.574,23.831c3.031,7.829,7.528,14.911,13.12,20.9c5.615,5.988,12.35,10.885,19.881,14.238
			v0.025c7.429,3.305,15.48,5.119,23.831,5.119h225.839c8.299,0,16.351-1.814,23.781-5.119h0.074
			c7.529-3.355,14.313-8.25,19.954-14.264c5.492-5.891,9.966-12.997,13.046-20.9c2.884-7.454,4.498-15.505,4.549-23.831V186.017
			v-0.397c-0.051-8.3-1.665-16.376-4.549-23.831C1398.656,153.911,1394.183,146.803,1388.69,140.889 M1350.323,185.819v0.198v258.07
			v12.773c0,1.143-0.176,2.137-0.497,2.981v0.076c-0.373,0.894-0.87,1.714-1.441,2.336h-0.076c-0.546,0.571-1.142,1.018-1.763,1.316
			c-0.448,0.174-0.994,0.299-1.665,0.299h-225.839c-0.671,0-1.218-0.125-1.64-0.299c-0.623-0.298-1.243-0.745-1.791-1.316
			l-0.05-0.076c-0.621-0.645-1.118-1.441-1.439-2.26v-0.076c-0.323-0.844-0.523-1.838-0.523-2.981v-12.773v-258.07v-0.198v-12.773
			c0-1.144,0.2-2.163,0.523-2.983v-0.074c0.321-0.845,0.818-1.64,1.439-2.286l0.05-0.05c0.548-0.597,1.145-1.044,1.791-1.317
			l-0.025-0.025c0.423-0.174,0.994-0.273,1.665-0.273h225.839c0.671,0,1.217,0.099,1.665,0.298l0.049,0.049
			c0.622,0.274,1.217,0.721,1.714,1.268c0.671,0.696,1.194,1.491,1.518,2.336v0.074c0.321,0.82,0.497,1.839,0.497,2.983V185.819z"/>
		<path clip-path="url(#SVGID_4_)" fill="#931A28" d="M1344.881,131.795h-225.839c-12.251,0-23.384,5.367-31.46,13.99
			c-8.052,8.623-13.072,20.551-13.072,33.647v270.842c0,13.097,5.021,25.024,13.072,33.647c8.076,8.624,19.209,13.991,31.46,13.991
			h225.839c12.251,0,23.408-5.367,31.46-13.991c8.076-8.623,13.071-20.55,13.071-33.647V179.432
			c0-13.096-4.995-25.024-13.071-33.647C1368.289,137.162,1357.132,131.795,1344.881,131.795 M1367.196,450.274
			c0,6.561-2.511,12.524-6.562,16.849c-4.025,4.324-9.617,7.007-15.754,7.007h-225.839c-6.138,0-11.704-2.683-15.755-7.007
			c-4.051-4.325-6.562-10.288-6.562-16.849V179.432c0-6.56,2.511-12.524,6.562-16.848c4.051-4.325,9.617-7.033,15.755-7.033h225.839
			c6.137,0,11.729,2.708,15.754,7.033c4.051,4.324,6.562,10.288,6.562,16.848V450.274z"/>
		<path clip-path="url(#SVGID_4_)" fill="#F6A4B3" d="M1344.881,133.708h-225.839c-12.251,0-23.384,5.019-31.46,13.096
			c-8.052,8.051-13.072,19.184-13.072,31.435v258.964c0,12.276,5.021,23.409,13.072,31.461c8.076,8.076,19.209,13.096,31.46,13.096
			h225.839c12.251,0,23.408-5.02,31.46-13.096c8.076-8.052,13.071-19.185,13.071-31.461V178.238
			c0-12.251-4.995-23.384-13.071-31.435C1368.289,138.727,1357.132,133.708,1344.881,133.708 M1367.196,437.203
			c0,6.139-2.511,11.729-6.562,15.756c-4.025,4.05-9.617,6.559-15.754,6.559h-225.839c-6.138,0-11.704-2.509-15.755-6.559
			c-4.051-4.027-6.562-9.617-6.562-15.756V178.238c0-6.113,2.511-11.704,6.562-15.755c4.051-4.025,9.617-6.535,15.755-6.535h225.839
			c6.137,0,11.729,2.484,15.754,6.535c4.051,4.051,6.562,9.642,6.562,15.755V437.203z"/>
		<path clip-path="url(#SVGID_4_)" fill="#E73545" d="M1344.881,131.794h-225.839c-12.251,0-23.384,5.019-31.46,13.071
			c-8.052,8.076-13.072,19.209-13.072,31.46V435.29c0,12.251,5.021,23.409,13.072,31.46c8.076,8.052,19.209,13.071,31.46,13.071
			h225.839c12.251,0,23.408-5.019,31.46-13.071c8.076-8.051,13.071-19.209,13.071-31.46V176.326c0-12.251-4.995-23.409-13.071-31.46
			C1368.289,136.813,1357.132,131.794,1344.881,131.794 M1367.196,328.533h-270.471V176.326c0-6.138,2.511-11.704,6.562-15.755
			c4.051-4.051,9.641-6.56,15.755-6.56h225.839c6.137,0,11.729,2.509,15.754,6.56c4.051,4.051,6.562,9.617,6.562,15.755V328.533z"/>
		<path clip-path="url(#SVGID_4_)" fill="#B51F2E" d="M1074.511,389.988v45.302c0,12.251,5.02,23.409,13.07,31.46
			c8.076,8.051,19.209,13.071,31.46,13.071h225.84c12.25,0,23.384-5.02,31.459-13.071c8.076-8.051,13.071-19.209,13.071-31.46
			v-60.461C1319.11,427.487,1179.304,431.215,1074.511,389.988"/>
		<path clip-path="url(#SVGID_4_)" fill="#B51F2E" d="M1344.881,131.794h-225.84c-12.251,0-23.384,5.021-31.46,13.071
			c-8.052,8.076-13.07,19.209-13.07,31.46v63.666c6.857-4.075,14.288-8.1,22.216-11.977v-51.689c0-6.137,2.509-11.704,6.56-15.755
			c4.052-4.05,9.643-6.56,15.755-6.56h225.84c6.138,0,11.729,2.51,15.755,6.56c4.051,4.026,6.56,9.618,6.56,15.755v3.007
			c7.927,1.019,15.358,2.312,22.216,3.901v-6.908c0-12.251-4.995-23.409-13.07-31.46
			C1368.288,136.814,1357.132,131.794,1344.881,131.794"/>
		<path clip-path="url(#SVGID_4_)" fill="#931A28" d="M1339.189,149.04h-214.457c-17.444,0-31.733,14.288-31.733,31.733v157.774
			c0,17.47,14.313,31.734,31.733,31.734h214.457c17.444,0,31.733-14.289,31.733-31.734V180.773
			C1370.923,163.354,1356.659,149.04,1339.189,149.04"/>
		<path clip-path="url(#SVGID_4_)" fill="#1C2A3F" d="M1341.302,163.951h-218.656c-16.302,0-29.647,13.469-29.647,29.944v146.443
			c0,16.475,13.369,29.944,29.647,29.944h218.656c16.276,0,29.622-13.494,29.622-29.944V193.895
			C1370.924,177.443,1357.604,163.951,1341.302,163.951"/>
		<path clip-path="url(#SVGID_4_)" fill="#1C2A3F" d="M1339.886,163.951h-215.85c-17.071,0-31.038,13.146-31.038,29.198v94.73
			c0,16.078,13.991,29.223,31.038,29.223h215.85c17.047,0,31.038-13.145,31.038-29.223v-94.73
			C1370.924,177.121,1356.957,163.951,1339.886,163.951"/>
		<path clip-path="url(#SVGID_4_)" fill="#F6A4B3" d="M1353.852,385.44h-243.706c-16.303,0-17.147,5.119-17.147,11.382v55.664
			c0,6.263,0.871,11.382,17.147,11.382h243.706c16.275,0,17.071-5.145,17.071-11.382v-55.664
			C1370.923,390.585,1370.153,385.44,1353.852,385.44"/>
		<path clip-path="url(#SVGID_4_)" fill="#B51F2E" d="M1352.46,385.44h-240.924c-17.071,0-18.538,4.995-18.538,11.108v35.983
			c0,6.113,1.517,11.108,18.538,11.108h240.924c17.021,0,18.464-4.995,18.464-11.108v-35.983
			C1370.924,390.46,1369.531,385.44,1352.46,385.44"/>
		<path clip-path="url(#SVGID_4_)" fill="#1C2A3F" d="M1352.46,397.144h-240.924c-17.071,0-18.538,4.995-18.538,11.084v36.008
			c0,6.113,1.517,11.107,18.538,11.107h240.924c17.021,0,18.464-4.994,18.464-11.107v-36.008
			C1370.924,402.139,1369.531,397.144,1352.46,397.144"/>
		<path clip-path="url(#SVGID_4_)" fill="#152130" d="M1303.843,405.178c-11.58,0-20.96,9.38-20.96,20.96
			c0,11.569,9.38,20.95,20.96,20.95c11.569,0,20.949-9.381,20.949-20.95C1324.792,414.558,1315.412,405.178,1303.843,405.178"/>
		<path clip-path="url(#SVGID_4_)" fill="#DBB127" d="M1303.843,447.038c-11.149,0-20.25-8.699-20.921-19.67
			c-0.019,0.42-0.039,0.851-0.039,1.28c0,11.58,9.38,20.96,20.96,20.96c11.569,0,20.949-9.38,20.949-20.96
			c0-0.429-0.01-0.86-0.029-1.28C1324.093,438.338,1314.983,447.038,1303.843,447.038"/>
		<path clip-path="url(#SVGID_4_)" fill="#223249" d="M1303.843,406.928c-11.58,0-20.96,9.39-20.96,20.96
			c0,11.569,9.38,20.96,20.96,20.96c11.569,0,20.949-9.391,20.949-20.96C1324.792,416.318,1315.412,406.928,1303.843,406.928"/>
		<path clip-path="url(#SVGID_4_)" fill="#486588" d="M1303.843,448.788c-11.149,0-20.25-8.699-20.921-19.67
			c-0.019,0.42-0.039,0.851-0.039,1.29c0,11.57,9.38,20.95,20.96,20.95c11.569,0,20.949-9.38,20.949-20.95
			c0-0.439-0.01-0.87-0.029-1.29C1324.093,440.088,1314.983,448.788,1303.843,448.788"/>
		<path clip-path="url(#SVGID_4_)" fill="#152130" d="M1227.616,405.178c-11.58,0-20.96,9.38-20.96,20.96
			c0,11.569,9.38,20.95,20.96,20.95c11.569,0,20.949-9.381,20.949-20.95C1248.565,414.558,1239.186,405.178,1227.616,405.178"/>
		<path clip-path="url(#SVGID_4_)" fill="#152130" d="M1227.616,447.038c-11.15,0-20.25-8.699-20.921-19.67
			c-0.02,0.42-0.039,0.851-0.039,1.28c0,11.58,9.38,20.96,20.96,20.96c11.569,0,20.949-9.38,20.949-20.96
			c0-0.429-0.011-0.86-0.029-1.28C1247.866,438.338,1238.756,447.038,1227.616,447.038"/>
		<path clip-path="url(#SVGID_4_)" fill="#223249" d="M1227.616,406.928c-11.58,0-20.96,9.39-20.96,20.96
			c0,11.569,9.38,20.96,20.96,20.96c11.569,0,20.949-9.391,20.949-20.96C1248.565,416.318,1239.186,406.928,1227.616,406.928"/>
		<path clip-path="url(#SVGID_4_)" fill="#486588" d="M1227.616,448.788c-11.15,0-20.25-8.699-20.921-19.67
			c-0.02,0.42-0.039,0.851-0.039,1.29c0,11.57,9.38,20.95,20.96,20.95c11.569,0,20.949-9.38,20.949-20.95
			c0-0.439-0.011-0.87-0.029-1.29C1247.866,440.088,1238.756,448.788,1227.616,448.788"/>
		<path clip-path="url(#SVGID_4_)" fill="#152130" d="M1151.389,405.178c-11.58,0-20.961,9.38-20.961,20.96
			c0,11.569,9.381,20.95,20.961,20.95c11.569,0,20.949-9.381,20.949-20.95C1172.338,414.558,1162.958,405.178,1151.389,405.178"/>
		<path clip-path="url(#SVGID_4_)" fill="#152130" d="M1151.389,447.038c-11.15,0-20.25-8.699-20.92-19.67
			c-0.02,0.42-0.041,0.851-0.041,1.28c0,11.58,9.381,20.96,20.961,20.96c11.569,0,20.949-9.38,20.949-20.96
			c0-0.429-0.011-0.86-0.029-1.28C1171.639,438.338,1162.528,447.038,1151.389,447.038"/>
		<path clip-path="url(#SVGID_4_)" fill="#223249" d="M1151.389,406.928c-11.58,0-20.961,9.39-20.961,20.96
			c0,11.569,9.381,20.96,20.961,20.96c11.569,0,20.949-9.391,20.949-20.96C1172.338,416.318,1162.958,406.928,1151.389,406.928"/>
		<path clip-path="url(#SVGID_4_)" fill="#486588" d="M1151.389,448.788c-11.15,0-20.25-8.699-20.92-19.67
			c-0.02,0.42-0.041,0.851-0.041,1.29c0,11.57,9.381,20.95,20.961,20.95c11.569,0,20.949-9.38,20.949-20.95
			c0-0.439-0.011-0.87-0.029-1.29C1171.639,440.088,1162.528,448.788,1151.389,448.788"/>
		
			<rect x="1264.474" y="259.589" transform="matrix(0.7071 -0.7071 0.7071 0.7071 171.0938 1008.0526)" clip-path="url(#SVGID_4_)" fill="#DCE0E5" width="75.815" height="75.816"/>
		
			<rect x="1198.612" y="197.317" transform="matrix(0.7071 -0.7071 0.7071 0.7071 195.8359 943.2431)" clip-path="url(#SVGID_4_)" fill="#DCE0E5" width="75.816" height="75.816"/>
		
			<rect x="1264.474" y="252.407" transform="matrix(0.7071 -0.7071 0.7071 0.7071 176.1785 1005.9594)" clip-path="url(#SVGID_4_)" fill="#131D2C" width="75.815" height="75.817"/>
		
			<rect x="1198.613" y="190.136" transform="matrix(0.7071 -0.7071 0.7071 0.7071 200.9105 941.1351)" clip-path="url(#SVGID_4_)" fill="#131D2C" width="75.816" height="75.816"/>
		
			<rect x="1264.474" y="256.187" transform="matrix(0.7071 -0.7071 0.7071 0.7071 173.4989 1007.0564)" clip-path="url(#SVGID_4_)" fill="#293951" width="75.815" height="75.816"/>
		
			<rect x="1198.613" y="193.915" transform="matrix(0.7071 -0.7071 0.7071 0.7071 198.2383 942.242)" clip-path="url(#SVGID_4_)" fill="#293951" width="75.816" height="75.816"/>
		<g opacity="0.2" clip-path="url(#SVGID_4_)">
			<g>
				<defs>
					<rect id="SVGID_13_" x="835.75" y="144.02" width="184.97" height="386.893"/>
				</defs>
				<clipPath id="SVGID_14_">
					<use xlink:href="#SVGID_13_"  overflow="visible"/>
				</clipPath>
				<path clip-path="url(#SVGID_14_)" fill="#010101" d="M1003.125,163.428h-0.073c-5.665-6.038-12.425-10.934-19.88-14.264h-0.074
					c-7.431-3.306-15.482-5.145-23.781-5.145h-62.162c-8.275,0-16.326,1.839-23.781,5.145h-0.05
					c-7.479,3.33-14.239,8.226-19.88,14.264h-0.075c-5.516,5.889-9.965,12.997-13.046,20.874
					c-2.882,7.455-4.523,15.531-4.572,23.856v0.398v258.218c0.049,8.325,1.69,16.402,4.572,23.856
					c3.032,7.804,7.53,14.91,13.121,20.874c5.616,6.015,12.35,10.885,19.88,14.239v0.025c7.43,3.304,15.482,5.143,23.831,5.143
					h62.162c8.299,0,16.35-1.839,23.781-5.143h0.074c7.529-3.355,14.314-8.25,19.954-14.265c5.492-5.89,9.967-12.997,13.048-20.874
					c2.883-7.454,4.498-15.532,4.548-23.856V208.556v-0.398c-0.05-8.325-1.665-16.401-4.548-23.856
					C1013.092,176.425,1008.617,169.317,1003.125,163.428 M964.757,208.332v0.224v258.045v12.772c0,1.145-0.174,2.162-0.497,2.982
					v0.075c-0.372,0.92-0.869,1.714-1.441,2.336h-0.075c-0.547,0.57-1.143,1.044-1.764,1.316c-0.448,0.174-0.994,0.298-1.664,0.298
					h-62.162c-0.67,0-1.217-0.124-1.639-0.298c-0.622-0.272-1.243-0.721-1.79-1.316l-0.049-0.075
					c-0.622-0.646-1.119-1.417-1.441-2.261v-0.075c-0.324-0.82-0.523-1.838-0.523-2.982v-12.772V208.556v-0.224v-12.771
					c0-1.144,0.199-2.138,0.523-2.983v-0.074c0.322-0.846,0.819-1.615,1.441-2.262l0.049-0.074c0.547-0.572,1.143-1.044,1.79-1.317
					l-0.026-0.025c0.423-0.175,0.995-0.273,1.665-0.273h62.162c0.67,0,1.216,0.124,1.664,0.298l0.049,0.074
					c0.622,0.273,1.218,0.696,1.715,1.243c0.671,0.695,1.193,1.516,1.516,2.336v0.074c0.323,0.845,0.497,1.839,0.497,2.983V208.332z
					"/>
			</g>
		</g>
		<path clip-path="url(#SVGID_4_)" fill="#E6E6E5" d="M1003.125,140.889h-0.073c-5.665-6.038-12.425-10.933-19.88-14.239h-0.074
			c-7.431-3.305-15.482-5.144-23.781-5.144h-62.162c-8.275,0-16.326,1.839-23.781,5.144h-0.05
			c-7.479,3.306-14.239,8.201-19.88,14.239h-0.075c-5.516,5.914-9.965,13.022-13.046,20.9c-2.932,7.579-4.572,15.779-4.572,24.228
			V456.86c0,8.448,1.64,16.674,4.572,24.253c3.032,7.804,7.53,14.886,13.121,20.874c5.616,5.988,12.35,10.885,19.88,14.215v0.024
			c7.43,3.329,15.482,5.168,23.831,5.168h62.162c8.299,0,16.35-1.839,23.781-5.168h0.074c7.529-3.33,14.314-8.225,19.954-14.239
			c5.492-5.89,9.967-12.996,13.048-20.874c2.933-7.58,4.548-15.806,4.548-24.253V186.017c0-8.449-1.615-16.649-4.548-24.228
			C1013.092,153.911,1008.617,146.803,1003.125,140.889 M964.757,456.86c0,1.143-0.174,2.137-0.497,2.981v0.076
			c-0.372,0.894-0.869,1.714-1.441,2.336h-0.075c-0.547,0.571-1.143,1.018-1.764,1.316c-0.448,0.174-0.994,0.299-1.664,0.299
			h-62.162c-0.67,0-1.217-0.125-1.639-0.299c-0.622-0.298-1.243-0.745-1.79-1.316l-0.049-0.076c-0.622-0.645-1.119-1.441-1.441-2.26
			v-0.076c-0.324-0.844-0.523-1.838-0.523-2.981V186.017c0-1.118,0.199-2.136,0.523-2.957v-0.074
			c0.322-0.846,0.819-1.641,1.441-2.286l0.049-0.075c0.547-0.572,1.143-1.02,1.79-1.317h-0.026c0.423-0.175,0.995-0.273,1.665-0.273
			h62.162c0.67,0,1.216,0.098,1.664,0.298l0.049,0.049c0.622,0.274,1.218,0.721,1.715,1.243c0.671,0.72,1.193,1.515,1.516,2.361
			v0.074c0.323,0.821,0.497,1.839,0.497,2.957V456.86z"/>
		<path clip-path="url(#SVGID_4_)" fill="#FFFFFF" d="M1003.125,140.889h-0.073c-5.665-6.038-12.425-10.933-19.88-14.239h-0.074
			c-7.431-3.305-15.482-5.144-23.781-5.144h-62.162c-8.275,0-16.326,1.839-23.781,5.144h-0.05
			c-7.479,3.306-14.239,8.201-19.88,14.239h-0.075c-5.516,5.914-9.965,13.022-13.046,20.9c-2.882,7.455-4.523,15.531-4.572,23.855
			v0.373V444.26c0.049,8.326,1.69,16.377,4.572,23.831c3.032,7.829,7.53,14.911,13.121,20.9c5.616,5.988,12.35,10.885,19.88,14.238
			v0.025c7.43,3.305,15.482,5.119,23.831,5.119h62.162c8.299,0,16.35-1.814,23.781-5.119h0.074
			c7.529-3.355,14.314-8.25,19.954-14.264c5.492-5.891,9.967-12.997,13.048-20.9c2.883-7.454,4.498-15.505,4.548-23.831V186.017
			v-0.397c-0.05-8.3-1.665-16.376-4.548-23.831C1013.092,153.911,1008.617,146.803,1003.125,140.889 M964.757,185.819v0.198v258.07
			v12.773c0,1.143-0.174,2.137-0.497,2.981v0.076c-0.372,0.894-0.869,1.714-1.441,2.336h-0.075
			c-0.547,0.571-1.143,1.018-1.764,1.316c-0.448,0.174-0.994,0.299-1.664,0.299h-62.162c-0.67,0-1.217-0.125-1.639-0.299
			c-0.622-0.298-1.243-0.745-1.79-1.316l-0.049-0.076c-0.622-0.645-1.119-1.441-1.441-2.26v-0.076
			c-0.324-0.844-0.523-1.838-0.523-2.981v-12.773v-258.07v-0.198v-12.773c0-1.144,0.199-2.163,0.523-2.983v-0.074
			c0.322-0.845,0.819-1.64,1.441-2.286l0.049-0.05c0.547-0.597,1.143-1.044,1.79-1.317l-0.026-0.025
			c0.423-0.174,0.995-0.273,1.665-0.273h62.162c0.67,0,1.216,0.099,1.664,0.298l0.049,0.049c0.622,0.274,1.218,0.721,1.715,1.268
			c0.671,0.696,1.193,1.491,1.516,2.336v0.074c0.323,0.82,0.497,1.839,0.497,2.983V185.819z"/>
		<path clip-path="url(#SVGID_4_)" fill="#B51F2E" d="M959.316,131.795h-62.162c-12.251,0-23.383,5.367-31.46,13.99
			c-8.051,8.623-13.071,20.551-13.071,33.647v270.842c0,13.097,5.02,25.024,13.071,33.647c8.077,8.624,19.209,13.991,31.46,13.991
			h62.162c12.251,0,23.408-5.367,31.46-13.991c8.076-8.623,13.071-20.55,13.071-33.647V179.432c0-13.096-4.995-25.024-13.071-33.647
			C982.725,137.162,971.567,131.795,959.316,131.795 M981.631,450.274c0,6.561-2.51,12.524-6.561,16.849
			c-4.026,4.324-9.617,7.007-15.754,7.007h-62.162c-6.137,0-11.704-2.683-15.754-7.007c-4.051-4.325-6.561-10.288-6.561-16.849
			V179.432c0-6.56,2.51-12.524,6.561-16.848c4.05-4.325,9.617-7.033,15.754-7.033h62.162c6.137,0,11.728,2.708,15.754,7.033
			c4.05,4.324,6.561,10.288,6.561,16.848V450.274z"/>
		<path clip-path="url(#SVGID_4_)" fill="#F6A4B3" d="M959.316,133.708h-62.162c-12.251,0-23.383,5.019-31.46,13.096
			c-8.051,8.051-13.071,19.184-13.071,31.435v258.964c0,12.276,5.02,23.409,13.071,31.461c8.077,8.076,19.209,13.096,31.46,13.096
			h62.162c12.251,0,23.408-5.02,31.46-13.096c8.076-8.052,13.071-19.185,13.071-31.461V178.238c0-12.251-4.995-23.384-13.071-31.435
			C982.725,138.727,971.567,133.708,959.316,133.708 M981.631,437.203c0,6.139-2.51,11.729-6.561,15.756
			c-4.026,4.05-9.617,6.559-15.754,6.559h-62.162c-6.137,0-11.704-2.509-15.754-6.559c-4.051-4.027-6.561-9.617-6.561-15.756
			V178.238c0-6.113,2.51-11.704,6.561-15.755c4.05-4.025,9.617-6.535,15.754-6.535h62.162c6.137,0,11.728,2.484,15.754,6.535
			c4.05,4.051,6.561,9.642,6.561,15.755V437.203z"/>
		<path clip-path="url(#SVGID_4_)" fill="#E73545" d="M959.316,131.794h-62.162c-12.251,0-23.383,5.019-31.46,13.071
			c-8.051,8.076-13.071,19.209-13.071,31.46V435.29c0,12.251,5.02,23.409,13.071,31.46c8.077,8.052,19.209,13.071,31.46,13.071
			h62.162c12.251,0,23.408-5.019,31.46-13.071c8.076-8.051,13.071-19.209,13.071-31.46V176.326c0-12.251-4.995-23.409-13.071-31.46
			C982.725,136.813,971.567,131.794,959.316,131.794 M981.631,328.533H874.84V176.326c0-6.138,2.51-11.704,6.561-15.755
			c4.05-4.051,9.641-6.56,15.754-6.56h62.162c6.137,0,11.728,2.509,15.754,6.56c4.05,4.051,6.561,9.617,6.561,15.755V328.533z"/>
		<path clip-path="url(#SVGID_4_)" fill="#B51F2E" d="M852.624,389.988v45.302c0,12.251,5.02,23.409,13.071,31.46
			c8.076,8.051,19.209,13.071,31.46,13.071h62.161c12.251,0,23.384-5.02,31.46-13.071c8.077-8.051,13.072-19.209,13.072-31.46
			v-60.461C933.546,427.487,957.417,431.215,852.624,389.988"/>
		<path clip-path="url(#SVGID_4_)" fill="#B51F2E" d="M959.316,131.794h-62.161c-12.251,0-23.384,5.021-31.46,13.071
			c-8.052,8.076-13.071,19.209-13.071,31.46v63.666c6.858-4.075,14.289-8.1,22.215-11.977v-51.689c0-6.137,2.51-11.704,6.561-15.755
			c4.051-4.05,9.642-6.56,15.755-6.56h62.161c6.138,0,11.729,2.51,15.755,6.56c4.05,4.026,6.559,9.618,6.559,15.755v3.007
			c7.928,1.019,15.358,2.312,22.217,3.901v-6.908c0-12.251-4.995-23.409-13.071-31.46
			C982.724,136.814,971.567,131.794,959.316,131.794"/>
		<path clip-path="url(#SVGID_4_)" fill="#E73545" d="M953.625,149.04h-50.779c-17.445,0-31.734,14.288-31.734,31.733v157.774
			c0,17.47,14.314,31.734,31.734,31.734h50.779c17.445,0,31.733-14.289,31.733-31.734V180.773
			C985.357,163.354,971.095,149.04,953.625,149.04"/>
		<path clip-path="url(#SVGID_4_)" fill="#F6A4B3" d="M888.185,385.44h80.027c16.302,0,17.147,5.119,17.147,11.382v55.664
			c0,6.263-0.869,11.382-17.147,11.382h-80.027c-16.277,0-17.072-5.145-17.072-11.382v-55.664
			C871.112,390.585,871.882,385.44,888.185,385.44"/>
		<path clip-path="url(#SVGID_4_)" fill="#B51F2E" d="M889.576,385.44h77.244c17.072,0,18.538,4.995,18.538,11.108v35.983
			c0,6.113-1.515,11.108-18.538,11.108h-77.244c-17.022,0-18.464-4.995-18.464-11.108v-35.983
			C871.112,390.46,872.504,385.44,889.576,385.44"/>
		<path clip-path="url(#SVGID_4_)" fill="#EA5D6E" d="M889.576,397.144h77.244c17.072,0,18.538,4.995,18.538,11.084v36.008
			c0,6.113-1.515,11.107-18.538,11.107h-77.244c-17.022,0-18.464-4.994-18.464-11.107v-36.008
			C871.112,402.139,872.504,397.144,889.576,397.144"/>
		<path clip-path="url(#SVGID_4_)" fill="#F6A4B3" d="M888.185,149.338h80.027c16.302,0,17.147,5.119,17.147,11.381v55.665
			c0,6.262-0.869,11.381-17.147,11.381h-80.027c-16.277,0-17.072-5.144-17.072-11.381v-55.665
			C871.112,154.482,871.882,149.338,888.185,149.338"/>
		<path clip-path="url(#SVGID_4_)" fill="#931A28" d="M889.576,149.338h77.244c17.072,0,18.538,4.995,18.538,11.108v35.983
			c0,6.113-1.515,11.108-18.538,11.108h-77.244c-17.022,0-18.464-4.995-18.464-11.108v-35.983
			C871.112,154.358,872.504,149.338,889.576,149.338"/>
		<path clip-path="url(#SVGID_4_)" fill="#EA5D6E" d="M889.576,161.042h77.244c17.072,0,18.538,4.995,18.538,11.083v36.009
			c0,6.112-1.515,11.107-18.538,11.107h-77.244c-17.022,0-18.464-4.995-18.464-11.107v-36.009
			C871.112,166.037,872.504,161.042,889.576,161.042"/>
		<path clip-path="url(#SVGID_4_)" fill="#B51F2E" d="M973.645,240.526h-90.458c-4.61,0-8.348,3.737-8.348,8.348v3.685
			c0-4.61,3.738-8.347,8.348-8.347h90.458c4.61,0,8.348,3.737,8.348,8.347v-3.685C981.993,244.263,978.255,240.526,973.645,240.526"
			/>
		<path clip-path="url(#SVGID_4_)" fill="#B51F2E" d="M973.645,363.717h-90.458c-4.61,0-8.348-3.737-8.348-8.348v3.687
			c0,4.609,3.738,8.347,8.348,8.347h90.458c4.61,0,8.348-3.738,8.348-8.347v-3.687C981.993,359.98,978.255,363.717,973.645,363.717"
			/>
		<path clip-path="url(#SVGID_4_)" fill="#1C2A3F" d="M973.645,244.211h-90.458c-4.61,0-8.348,3.737-8.348,8.348v102.81
			c0,4.611,3.738,8.348,8.348,8.348h90.458c4.61,0,8.348-3.737,8.348-8.348v-102.81
			C981.993,247.948,978.255,244.211,973.645,244.211"/>

	
	
	
		
		<g opacity="0.2" clip-path="url(#SVGID_4_)">
			<g>
				<defs>
					<rect id="SVGID_19_" x="1442.01" y="136.285" width="388.641" height="392.846"/>
				</defs>
				<clipPath id="SVGID_20_">
					<use xlink:href="#SVGID_19_"  overflow="visible"/>
				</clipPath>
				<path clip-path="url(#SVGID_20_)" fill="#010101" d="M1813.06,155.693h-0.074c-5.665-6.039-12.426-10.935-19.88-14.264h-0.074
					c-7.432-3.306-15.482-5.145-23.781-5.145h-265.839c-8.276,0-16.327,1.839-23.782,5.145h-0.049
					c-7.481,3.329-14.24,8.225-19.881,14.264h-0.074c-5.517,5.889-9.965,12.997-13.047,20.874
					c-2.882,7.455-4.523,15.531-4.573,23.856v0.398v264.172c0.05,8.325,1.691,16.4,4.573,23.855
					c3.032,7.804,7.53,14.91,13.121,20.874c5.615,6.015,12.35,10.885,19.881,14.239v0.025c7.429,3.305,15.48,5.144,23.831,5.144
					h265.839c8.299,0,16.35-1.839,23.781-5.144h0.074c7.528-3.355,14.313-8.25,19.954-14.265c5.492-5.89,9.966-12.997,13.046-20.874
					c2.884-7.455,4.498-15.531,4.549-23.855V200.821v-0.398c-0.051-8.325-1.665-16.401-4.549-23.856
					C1823.025,168.69,1818.552,161.582,1813.06,155.693 M1774.691,200.597v0.224v263.998v12.772c0,1.145-0.175,2.162-0.497,2.983
					v0.074c-0.372,0.92-0.869,1.715-1.44,2.336h-0.076c-0.547,0.571-1.142,1.044-1.764,1.316c-0.448,0.174-0.994,0.298-1.664,0.298
					h-265.839c-0.671,0-1.218-0.124-1.642-0.298c-0.62-0.272-1.241-0.721-1.789-1.316l-0.05-0.075
					c-0.621-0.646-1.118-1.416-1.44-2.261v-0.074c-0.322-0.821-0.522-1.839-0.522-2.983v-12.772V200.821v-0.224v-12.773
					c0-1.143,0.2-2.137,0.522-2.982v-0.074c0.322-0.846,0.819-1.616,1.44-2.262l0.05-0.074c0.548-0.572,1.145-1.044,1.789-1.317
					l-0.023-0.026c0.423-0.174,0.994-0.272,1.665-0.272h265.839c0.67,0,1.216,0.124,1.664,0.298l0.049,0.074
					c0.623,0.273,1.218,0.696,1.715,1.243c0.671,0.695,1.193,1.516,1.517,2.336v0.074c0.322,0.845,0.497,1.839,0.497,2.982V200.597z
					"/>
			</g>
		</g>
		<path clip-path="url(#SVGID_4_)" fill="#E6E6E5" d="M1813.06,133.153h-0.074c-5.665-6.039-12.426-10.934-19.88-14.239h-0.074
			c-7.432-3.305-15.482-5.144-23.781-5.144h-265.839c-8.276,0-16.327,1.839-23.782,5.144h-0.049
			c-7.481,3.305-14.24,8.2-19.881,14.239h-0.074c-5.517,5.914-9.965,13.022-13.047,20.9c-2.932,7.579-4.573,15.779-4.573,24.228
			v276.796c0,8.449,1.642,16.674,4.573,24.253c3.032,7.804,7.53,14.886,13.121,20.874c5.615,5.988,12.35,10.885,19.881,14.215v0.024
			c7.429,3.33,15.48,5.169,23.831,5.169h265.839c8.299,0,16.35-1.839,23.781-5.169h0.074c7.528-3.33,14.313-8.225,19.954-14.239
			c5.492-5.89,9.966-12.996,13.046-20.874c2.934-7.58,4.549-15.805,4.549-24.253V178.282c0-8.449-1.615-16.649-4.549-24.228
			C1823.025,146.176,1818.552,139.067,1813.06,133.153 M1774.691,455.078c0,1.143-0.175,2.137-0.497,2.981v0.076
			c-0.372,0.894-0.869,1.714-1.44,2.336h-0.076c-0.547,0.571-1.142,1.018-1.764,1.316c-0.448,0.174-0.994,0.299-1.664,0.299
			h-265.839c-0.671,0-1.218-0.125-1.642-0.299c-0.62-0.298-1.241-0.745-1.789-1.316l-0.05-0.076c-0.621-0.645-1.118-1.441-1.44-2.26
			v-0.076c-0.322-0.844-0.522-1.838-0.522-2.981V178.282c0-1.118,0.2-2.137,0.522-2.957v-0.075c0.322-0.845,0.819-1.64,1.44-2.286
			l0.05-0.074c0.548-0.572,1.145-1.019,1.789-1.318h-0.023c0.423-0.174,0.994-0.273,1.665-0.273h265.839
			c0.67,0,1.216,0.099,1.664,0.299l0.049,0.049c0.623,0.274,1.218,0.721,1.715,1.243c0.671,0.72,1.193,1.515,1.517,2.36v0.075
			c0.322,0.82,0.497,1.839,0.497,2.957V455.078z"/>
		<path clip-path="url(#SVGID_4_)" fill="#FFFFFF" d="M1813.06,133.153h-0.074c-5.665-6.039-12.426-10.934-19.88-14.239h-0.074
			c-7.432-3.305-15.482-5.144-23.781-5.144h-265.839c-8.276,0-16.327,1.839-23.782,5.144h-0.049
			c-7.481,3.305-14.24,8.2-19.881,14.239h-0.074c-5.517,5.914-9.965,13.022-13.047,20.9c-2.882,7.454-4.523,15.531-4.573,23.855
			v0.373v264.197c0.05,8.325,1.691,16.376,4.573,23.832c3.032,7.827,7.53,14.911,13.121,20.898
			c5.615,5.989,12.35,10.885,19.881,14.239v0.026c7.429,3.304,15.48,5.119,23.831,5.119h265.839c8.299,0,16.35-1.815,23.781-5.119
			h0.074c7.528-3.356,14.313-8.251,19.954-14.266c5.492-5.89,9.966-12.996,13.046-20.898c2.884-7.456,4.498-15.507,4.549-23.832
			V178.281v-0.397c-0.051-8.3-1.665-16.377-4.549-23.831C1823.025,146.175,1818.552,139.067,1813.06,133.153 M1774.691,178.082
			v0.199v264.023v12.773c0,1.143-0.175,2.137-0.497,2.982v0.075c-0.372,0.894-0.869,1.714-1.44,2.336h-0.076
			c-0.547,0.571-1.142,1.018-1.764,1.316c-0.448,0.174-0.994,0.299-1.664,0.299h-265.839c-0.671,0-1.218-0.125-1.642-0.299
			c-0.62-0.298-1.241-0.745-1.789-1.316l-0.05-0.076c-0.621-0.646-1.118-1.441-1.44-2.26v-0.075
			c-0.322-0.845-0.522-1.839-0.522-2.982v-12.773V178.281v-0.199v-12.771c0-1.144,0.2-2.163,0.522-2.983v-0.074
			c0.322-0.845,0.819-1.641,1.44-2.286l0.05-0.05c0.548-0.597,1.145-1.044,1.789-1.317l-0.023-0.025
			c0.423-0.174,0.994-0.273,1.665-0.273h265.839c0.67,0,1.216,0.099,1.664,0.298l0.049,0.049c0.623,0.274,1.218,0.721,1.715,1.268
			c0.671,0.695,1.193,1.491,1.517,2.336v0.074c0.322,0.82,0.497,1.839,0.497,2.983V178.082z"/>
		<path clip-path="url(#SVGID_4_)" fill="#931A28" d="M1769.25,124.058h-265.839c-12.251,0-23.384,5.369-31.461,13.992
			c-8.051,8.623-13.071,20.55-13.071,33.646v276.795c0,13.097,5.021,25.024,13.071,33.647c8.077,8.624,19.21,13.992,31.461,13.992
			h265.839c12.251,0,23.408-5.368,31.46-13.992c8.076-8.623,13.071-20.55,13.071-33.647V171.696
			c0-13.097-4.995-25.024-13.071-33.646C1792.658,129.427,1781.501,124.058,1769.25,124.058 M1791.565,448.492
			c0,6.561-2.512,12.524-6.562,16.849c-4.025,4.324-9.617,7.007-15.754,7.007h-265.839c-6.138,0-11.705-2.683-15.755-7.007
			c-4.051-4.325-6.562-10.288-6.562-16.849V171.696c0-6.56,2.511-12.524,6.562-16.849c4.05-4.324,9.617-7.033,15.755-7.033h265.839
			c6.137,0,11.729,2.709,15.754,7.033c4.05,4.325,6.562,10.289,6.562,16.849V448.492z"/>
		<path clip-path="url(#SVGID_4_)" fill="#F6A4B3" d="M1769.25,125.972h-265.839c-12.251,0-23.384,5.019-31.461,13.095
			c-8.051,8.052-13.071,19.185-13.071,31.436V435.42c0,12.276,5.021,23.409,13.071,31.461c8.077,8.076,19.21,13.096,31.461,13.096
			h265.839c12.251,0,23.408-5.021,31.46-13.096c8.076-8.052,13.071-19.185,13.071-31.461V170.503
			c0-12.251-4.995-23.384-13.071-31.436C1792.658,130.991,1781.501,125.972,1769.25,125.972 M1791.565,435.42
			c0,6.139-2.512,11.729-6.562,15.756c-4.025,4.05-9.617,6.56-15.754,6.56h-265.839c-6.138,0-11.705-2.51-15.755-6.56
			c-4.051-4.027-6.562-9.617-6.562-15.756V170.503c0-6.113,2.511-11.704,6.562-15.755c4.05-4.025,9.617-6.535,15.755-6.535h265.839
			c6.137,0,11.729,2.484,15.754,6.535c4.05,4.051,6.562,9.642,6.562,15.755V435.42z"/>
		<path clip-path="url(#SVGID_4_)" fill="#E73545" d="M1769.25,124.058h-265.839c-12.251,0-23.384,5.021-31.461,13.071
			c-8.051,8.077-13.071,19.21-13.071,31.461v264.917c0,12.251,5.021,23.409,13.071,31.46c8.077,8.052,19.21,13.071,31.461,13.071
			h265.839c12.251,0,23.408-5.019,31.46-13.071c8.076-8.051,13.071-19.209,13.071-31.46V168.59c0-12.251-4.995-23.409-13.071-31.461
			C1792.658,129.079,1781.501,124.058,1769.25,124.058 M1791.565,263.184h-310.471V168.59c0-6.138,2.511-11.705,6.562-15.755
			c4.05-4.05,9.641-6.56,15.755-6.56h265.839c6.137,0,11.729,2.51,15.754,6.56c4.05,4.05,6.562,9.617,6.562,15.755V263.184z"/>
		<path clip-path="url(#SVGID_4_)" fill="#B51F2E" d="M1458.88,384.639v48.868c0,12.251,5.02,23.409,13.069,31.46
			c8.077,8.052,19.21,13.071,31.461,13.071h265.84c12.25,0,23.384-5.019,31.459-13.071c8.076-8.051,13.071-19.209,13.071-31.46
			V369.48C1743.479,422.137,1563.673,425.865,1458.88,384.639"/>
		<path clip-path="url(#SVGID_4_)" fill="#B51F2E" d="M1769.25,124.058h-265.84c-12.251,0-23.384,5.021-31.461,13.071
			c-8.051,8.077-13.069,19.21-13.069,31.461v63.666c6.857-4.075,14.288-8.101,22.216-11.977V168.59
			c0-6.138,2.509-11.705,6.56-15.755c4.05-4.05,9.643-6.56,15.755-6.56h265.84c6.138,0,11.729,2.51,15.755,6.56
			c4.05,4.026,6.56,9.617,6.56,15.755v3.007c7.927,1.02,15.358,2.312,22.216,3.901v-6.908c0-12.251-4.995-23.409-13.07-31.461
			C1792.657,129.079,1781.501,124.058,1769.25,124.058"/>
		<path clip-path="url(#SVGID_4_)" fill="#931A28" d="M1763.559,141.304h-254.457c-17.444,0-31.733,14.289-31.733,31.734v100.161
			c0,17.469,14.313,31.733,31.733,31.733h254.457c17.444,0,31.733-14.288,31.733-31.733V173.038
			C1795.292,155.618,1781.028,141.304,1763.559,141.304"/>
		<path clip-path="url(#SVGID_4_)" fill="#1C2A3F" d="M1765.671,156.214h-258.656c-16.302,0-29.647,13.469-29.647,29.945v88.828
			c0,16.476,13.369,29.945,29.647,29.945h258.656c16.276,0,29.622-13.493,29.622-29.945v-88.828
			C1795.293,169.708,1781.973,156.214,1765.671,156.214"/>
		<path clip-path="url(#SVGID_4_)" fill="#1C2A3F" d="M1764.255,156.214h-255.85c-17.071,0-31.038,13.146-31.038,29.199v37.115
			c0,16.079,13.991,29.225,31.038,29.225h255.85c17.047,0,31.038-13.146,31.038-29.225v-37.115
			C1795.293,169.385,1781.325,156.214,1764.255,156.214"/>
		<path clip-path="url(#SVGID_4_)" fill="#F6A4B3" d="M1778.221,320.091h-283.706c-16.303,0-17.147,5.119-17.147,11.381v119.231
			c0,6.263,0.87,11.382,17.147,11.382h283.706c16.275,0,17.071-5.144,17.071-11.382V331.472
			C1795.292,325.235,1794.522,320.091,1778.221,320.091"/>
		<path clip-path="url(#SVGID_4_)" fill="#B51F2E" d="M1776.829,320.091h-280.924c-17.071,0-18.538,4.995-18.538,11.107v35.984
			c0,6.113,1.517,74.675,18.538,74.675h280.924c17.021,0,18.464-68.562,18.464-74.675v-35.984
			C1795.293,325.111,1793.9,320.091,1776.829,320.091"/>
		<path clip-path="url(#SVGID_4_)" fill="#1C2A3F" d="M1776.829,331.795h-280.924c-17.071,0-18.538,4.995-18.538,11.083v99.575
			c0,6.113,1.517,11.108,18.538,11.108h280.924c17.021,0,18.464-4.995,18.464-11.108v-99.575
			C1795.293,336.79,1793.9,331.795,1776.829,331.795"/>
	</g>
	<g clip-path="url(#SVGID_2_)">
		<defs>
			<rect id="SVGID_21_" width="1990.034" height="954.079"/>
		</defs>
		<clipPath id="SVGID_22_">
			<use xlink:href="#SVGID_21_"  overflow="visible"/>
		</clipPath>
		<g opacity="0.2" clip-path="url(#SVGID_22_)">
			<g>
				<defs>
					<rect id="SVGID_23_" x="1130.43" y="408.821" width="41.91" height="41.921"/>
				</defs>
				<clipPath id="SVGID_24_">
					<use xlink:href="#SVGID_23_"  overflow="visible"/>
				</clipPath>
				<path clip-path="url(#SVGID_24_)" fill="#010101" d="M1151.378,408.821c-11.572,0-20.949,9.389-20.949,20.961
					c0,11.572,9.377,20.96,20.949,20.96c11.571,0,20.961-9.388,20.961-20.96C1172.339,418.209,1162.949,408.821,1151.378,408.821"/>
			</g>
		</g>
		<g opacity="0.2" clip-path="url(#SVGID_22_)">
			<g>
				<defs>
					<rect id="SVGID_25_" x="129.422" y="577.555" width="1701.188" height="109.981"/>
				</defs>
				<clipPath id="SVGID_26_">
					<use xlink:href="#SVGID_25_"  overflow="visible"/>
				</clipPath>
				<path clip-path="url(#SVGID_26_)" fill="#010101" d="M1796.367,577.556h-1632.7c-28.076,0-34.331,27.804-34.244,55.456
					c0.099,27.344,3.83,54.524,34.244,54.524h1632.7c30.427,0,34.156-27.181,34.243-54.524
					C1830.711,605.359,1824.443,577.556,1796.367,577.556"/>
			</g>
		</g>
		<path clip-path="url(#SVGID_22_)" fill="#FFFFFF" d="M1796.367,572.109h-1632.7c-28.076,0-34.331,27.815-34.244,55.456
			c0.099,27.344,3.83,54.524,34.244,54.524h1632.7c30.427,0,34.156-27.181,34.243-54.524
			C1830.711,599.925,1824.443,572.109,1796.367,572.109"/>
		<path clip-path="url(#SVGID_22_)" fill="#FDC231" d="M1786.656,579.955H173.378c-25.988,0-31.782,22.221-31.695,44.315
			c0.087,21.847,3.532,43.582,31.695,43.582h1613.278c28.164,0,31.619-21.735,31.707-43.582
			C1818.45,602.176,1812.656,579.955,1786.656,579.955"/>
		<path clip-path="url(#SVGID_22_)" fill="#E6E6E5" d="M1796.367,678.136h-1632.7c-29.867,0-33.995-26.199-34.232-53.031v0.036
			c-0.012,0.809-0.012,1.617-0.012,2.426c0.099,27.342,3.83,54.523,34.244,54.523h1632.7c30.427,0,34.156-27.182,34.243-54.523
			c0-0.809,0-1.643-0.013-2.462C1830.375,651.937,1826.233,678.136,1796.367,678.136"/>
		<path clip-path="url(#SVGID_22_)" fill="#FFE458" d="M1786.656,658.862H173.378c-26.248,0-31.036-18.888-31.633-39.143
			c-0.05,1.517-0.074,3.035-0.062,4.551c0.087,21.847,3.532,43.582,31.695,43.582h1613.278c28.164,0,31.619-21.735,31.707-43.582
			c0-1.516-0.024-3.034-0.074-4.551C1817.691,639.975,1812.917,658.862,1786.656,658.862"/>
		<path clip-path="url(#SVGID_22_)" fill="#D29829" d="M1786.656,659.684H173.378c-26.248,0-31.036-18.888-31.633-39.144
			c-0.037,1.182-0.062,2.375-0.062,3.557v0.174c0.087,21.848,3.532,43.582,31.695,43.582h1613.278
			c28.164,0,31.619-21.734,31.707-43.582v-0.174c-0.014-1.182-0.037-2.375-0.074-3.557
			C1817.691,640.796,1812.917,659.684,1786.656,659.684"/>
		<path clip-path="url(#SVGID_22_)" fill="#FDB714" d="M144.182,638.209c3.444,11.938,11.365,20.653,29.195,20.653h1613.279
			c18.527,0,26.36-9.387,29.568-22.033C1688.798,649.698,215.914,650.817,144.182,638.209"/>
		<path clip-path="url(#SVGID_22_)" fill="#FFE458" d="M1791.643,580.254c-1.566-0.198-3.232-0.299-4.986-0.299H173.377
			c-1.753,0-3.407,0.101-4.986,0.299c-20.155,2.499-25.962,20.454-26.646,39.466c0.025,0.659,0.049,1.318,0.075,1.977
			c1.044-19.869,8.008-38.11,31.557-38.11h1613.279c23.55,0,30.525,18.241,31.558,38.11c0.037-0.658,0.062-1.317,0.074-1.977
			C1817.605,600.708,1811.798,582.753,1791.643,580.254"/>
		<path clip-path="url(#SVGID_22_)" fill="#D29829" d="M1788.584,589.989H598.333c-15.966,0-19.521,15.829-19.459,31.56
			c0.05,15.554,2.163,31.021,19.459,31.021h1190.251c17.282,0,19.396-15.468,19.459-31.021
			C1808.093,605.818,1804.536,589.989,1788.584,589.989"/>
		<path clip-path="url(#SVGID_22_)" fill="#FFE458" d="M1788.584,593.546H598.333c-15.966,0-19.521,14.921-19.459,29.769
			c0.05,14.659,2.163,29.256,19.459,29.256h1190.251c17.282,0,19.396-14.597,19.459-29.256
			C1808.093,608.467,1804.536,593.546,1788.584,593.546"/>
		<path clip-path="url(#SVGID_22_)" fill="#1C2A3F" d="M1788.584,593.546H598.333c-15.966,0-19.521,14.102-19.459,28.126
			c0.05,13.864,2.163,27.653,19.459,27.653h1190.251c17.282,0,19.396-13.789,19.459-27.653
			C1808.093,607.647,1804.536,593.546,1788.584,593.546"/>
		<g opacity="0.2" clip-path="url(#SVGID_22_)">
			<g>
				<defs>
					<rect id="SVGID_27_" x="129.422" y="706.919" width="1701.188" height="109.98"/>
				</defs>
				<clipPath id="SVGID_28_">
					<use xlink:href="#SVGID_27_"  overflow="visible"/>
				</clipPath>
				<path clip-path="url(#SVGID_28_)" fill="#010101" d="M1796.367,706.919h-1632.7c-28.076,0-34.331,27.804-34.244,55.456
					c0.099,27.343,3.83,54.524,34.244,54.524h1632.7c30.427,0,34.156-27.182,34.243-54.524
					C1830.711,734.723,1824.443,706.919,1796.367,706.919"/>
			</g>
		</g>
		<path clip-path="url(#SVGID_22_)" fill="#FFFFFF" d="M1796.367,701.473h-1632.7c-28.076,0-34.331,27.815-34.244,55.456
			c0.099,27.343,3.83,54.524,34.244,54.524h1632.7c30.427,0,34.156-27.182,34.243-54.524
			C1830.711,729.288,1824.443,701.473,1796.367,701.473"/>
		<path clip-path="url(#SVGID_22_)" fill="#FDC231" d="M1786.656,709.318H173.378c-25.988,0-31.782,22.221-31.695,44.315
			c0.087,21.847,3.532,43.582,31.695,43.582h1613.278c28.164,0,31.619-21.735,31.707-43.582
			C1818.45,731.539,1812.656,709.318,1786.656,709.318"/>
		<path clip-path="url(#SVGID_22_)" fill="#E6E6E5" d="M1796.367,807.499h-1632.7c-29.867,0-33.995-26.198-34.232-53.031v0.036
			c-0.012,0.809-0.012,1.617-0.012,2.426c0.099,27.342,3.83,54.523,34.244,54.523h1632.7c30.427,0,34.156-27.182,34.243-54.523
			c0-0.809,0-1.642-0.013-2.462C1830.375,781.301,1826.233,807.499,1796.367,807.499"/>
		<path clip-path="url(#SVGID_22_)" fill="#FFE458" d="M1786.656,788.226H173.378c-26.248,0-31.036-18.888-31.633-39.143
			c-0.05,1.517-0.074,3.035-0.062,4.551c0.087,21.847,3.532,43.582,31.695,43.582h1613.278c28.164,0,31.619-21.735,31.707-43.582
			c0-1.516-0.024-3.034-0.074-4.551C1817.691,769.338,1812.917,788.226,1786.656,788.226"/>
		<path clip-path="url(#SVGID_22_)" fill="#D29829" d="M1786.656,789.047H173.378c-26.248,0-31.036-18.888-31.633-39.144
			c-0.037,1.182-0.062,2.375-0.062,3.557v0.174c0.087,21.848,3.532,43.582,31.695,43.582h1613.278
			c28.164,0,31.619-21.734,31.707-43.582v-0.174c-0.014-1.182-0.037-2.375-0.074-3.557
			C1817.691,770.159,1812.917,789.047,1786.656,789.047"/>
		<path clip-path="url(#SVGID_22_)" fill="#FDB714" d="M144.182,767.572c3.444,11.938,11.365,20.653,29.195,20.653h1613.279
			c18.527,0,26.36-9.387,29.568-22.033C1688.798,779.062,215.914,780.181,144.182,767.572"/>
		<path clip-path="url(#SVGID_22_)" fill="#FFE458" d="M1791.643,709.617c-1.566-0.198-3.232-0.299-4.986-0.299H173.377
			c-1.753,0-3.407,0.101-4.986,0.299c-20.155,2.499-25.962,20.454-26.646,39.467c0.025,0.658,0.049,1.317,0.075,1.976
			c1.044-19.869,8.008-38.11,31.557-38.11h1613.279c23.55,0,30.525,18.241,31.558,38.11c0.037-0.658,0.062-1.317,0.074-1.976
			C1817.605,730.071,1811.798,712.116,1791.643,709.617"/>
		<path clip-path="url(#SVGID_22_)" fill="#D29829" d="M1788.584,719.353H598.333c-15.966,0-19.521,15.829-19.459,31.56
			c0.05,15.554,2.163,31.022,19.459,31.022h1190.251c17.282,0,19.396-15.469,19.459-31.022
			C1808.093,735.182,1804.536,719.353,1788.584,719.353"/>
		<path clip-path="url(#SVGID_22_)" fill="#FFE458" d="M1788.584,722.909H598.333c-15.966,0-19.521,14.921-19.459,29.769
			c0.05,14.659,2.163,29.257,19.459,29.257h1190.251c17.282,0,19.396-14.598,19.459-29.257
			C1808.093,737.83,1804.536,722.909,1788.584,722.909"/>
		<path clip-path="url(#SVGID_22_)" fill="#1C2A3F" d="M1788.584,722.909H598.333c-15.966,0-19.521,14.102-19.459,28.126
			c0.05,13.864,2.163,27.653,19.459,27.653h1190.251c17.282,0,19.396-13.789,19.459-27.653
			C1808.093,737.011,1804.536,722.909,1788.584,722.909"/>
	</g>
	<g clip-path="url(#SVGID_2_)">
		<defs>
			<rect id="SVGID_29_" width="1990.034" height="954.079"/>
		</defs>
		<clipPath id="SVGID_30_">
			<use xlink:href="#SVGID_29_"  overflow="visible"/>
		</clipPath>
		<path clip-path="url(#SVGID_30_)" fill="none" stroke="#D29829" stroke-width="14" stroke-miterlimit="10" d="M275.407,609.151
			c0-2.098,1.858-3.756,4.209-3.756h13.554c4.373,0,7.816,1.073,10.001,3.023c1.75,1.562,2.624,3.465,2.624,5.807v0.097
			c0,3.855-2.295,6-5.027,7.367c4.426,1.512,7.159,3.805,7.159,8.391v0.099c0,6.243-5.684,9.366-14.32,9.366h-13.991
			c-2.351,0-4.209-1.658-4.209-3.757V609.151z M291.367,619.201c3.716,0,6.066-1.074,6.066-3.61v-0.098
			c0-2.244-1.968-3.513-5.52-3.513h-8.307v7.221H291.367z M293.607,632.959c3.717,0,5.958-1.172,5.958-3.708v-0.098
			c0-2.294-1.913-3.708-6.231-3.708h-9.728v7.514H293.607z"/>
		<path clip-path="url(#SVGID_30_)" fill="none" stroke="#D29829" stroke-width="14" stroke-miterlimit="10" d="M314.918,634.716
			l13.336-26.883c0.93-1.854,2.624-2.976,4.919-2.976h0.492c2.295,0,3.935,1.122,4.864,2.976l13.336,26.883
			c0.273,0.535,0.438,1.023,0.438,1.512c0,2.001-1.749,3.609-3.99,3.609c-1.968,0-3.28-1.023-4.045-2.585l-2.569-5.366h-16.835
			l-2.676,5.609c-0.711,1.464-2.132,2.342-3.881,2.342c-2.187,0-3.88-1.561-3.88-3.512
			C314.428,635.788,314.646,635.251,314.918,634.716z M338.584,625.25l-5.302-11.27l-5.302,11.27H338.584z"/>
		<path clip-path="url(#SVGID_30_)" fill="none" stroke="#D29829" stroke-width="14" stroke-miterlimit="10" d="M365.909,612.322
			h-8.09c-2.132,0-3.881-1.562-3.881-3.464c0-1.901,1.749-3.464,3.881-3.464h24.596c2.132,0,3.881,1.562,3.881,3.464
			c0,1.902-1.749,3.464-3.881,3.464h-8.089v23.76c0,2.097-1.859,3.756-4.208,3.756c-2.351,0-4.209-1.659-4.209-3.756V612.322z"/>
		<path clip-path="url(#SVGID_30_)" fill="none" stroke="#D29829" stroke-width="14" stroke-miterlimit="10" d="M403.508,612.322
			h-8.091c-2.131,0-3.88-1.562-3.88-3.464c0-1.901,1.749-3.464,3.88-3.464h24.596c2.132,0,3.881,1.562,3.881,3.464
			c0,1.902-1.749,3.464-3.881,3.464h-8.089v23.76c0,2.097-1.858,3.756-4.208,3.756c-2.351,0-4.208-1.659-4.208-3.756V612.322z"/>
		<path clip-path="url(#SVGID_30_)" fill="none" stroke="#D29829" stroke-width="14" stroke-miterlimit="10" d="M432.199,635.788
			v-26.637c0-2.098,1.857-3.757,4.208-3.757h21.207c2.077,0,3.772,1.512,3.772,3.366c0,1.854-1.695,3.317-3.772,3.317h-17.053v6.929
			h14.594c2.076,0,3.772,1.511,3.772,3.365c0,1.854-1.696,3.317-3.772,3.317h-14.594v7.172h17.326c2.077,0,3.771,1.512,3.771,3.365
			c0,1.854-1.694,3.319-3.771,3.319h-21.48C434.056,639.546,432.199,637.887,432.199,635.788z"/>
		<path clip-path="url(#SVGID_30_)" fill="none" stroke="#D29829" stroke-width="14" stroke-miterlimit="10" d="M471,609.151
			c0-2.099,1.858-3.757,4.209-3.757h13.281c4.864,0,8.636,1.22,11.149,3.464c2.132,1.902,3.28,4.585,3.28,7.807v0.097
			c0,5.366-3.006,8.684-7.652,10.391l5.848,6.344c0.82,0.927,1.366,1.707,1.366,2.879c0,2.097-1.968,3.462-3.989,3.462
			c-1.913,0-3.17-0.829-4.154-1.951l-8.199-9.27h-6.722v7.466c0,2.097-1.859,3.755-4.208,3.755c-2.351,0-4.209-1.658-4.209-3.755
			V609.151z M487.944,621.981c4.098,0,6.448-1.951,6.448-4.83v-0.097c0-3.219-2.513-4.88-6.613-4.88h-8.362v9.807H487.944z"/>
		<path clip-path="url(#SVGID_30_)" fill="none" stroke="#D29829" stroke-width="14" stroke-miterlimit="10" d="M524.086,610.755
			c2.733,0,4.756,1.805,4.756,4.148v0.096c0,2.342-2.023,4.146-4.756,4.146c-2.732,0-4.754-1.805-4.754-4.146v-0.096
			C519.333,612.56,521.354,610.755,524.086,610.755z M524.086,629.099c2.733,0,4.756,1.806,4.756,4.146v0.098
			c0,2.342-2.023,4.147-4.756,4.147c-2.732,0-4.754-1.806-4.754-4.147v-0.098C519.333,630.904,521.354,629.099,524.086,629.099z"/>
		<path clip-path="url(#SVGID_30_)" fill="#FFFFFF" d="M275.407,609.151c0-2.098,1.858-3.756,4.209-3.756h13.554
			c4.373,0,7.816,1.073,10.001,3.023c1.75,1.562,2.624,3.465,2.624,5.807v0.097c0,3.855-2.295,6-5.027,7.367
			c4.426,1.512,7.159,3.805,7.159,8.391v0.099c0,6.243-5.684,9.366-14.32,9.366h-13.991c-2.351,0-4.209-1.658-4.209-3.757V609.151z
			 M291.367,619.201c3.716,0,6.066-1.074,6.066-3.61v-0.098c0-2.244-1.968-3.513-5.52-3.513h-8.307v7.221H291.367z M293.607,632.959
			c3.717,0,5.958-1.172,5.958-3.708v-0.098c0-2.294-1.913-3.708-6.231-3.708h-9.728v7.514H293.607z"/>
		<path clip-path="url(#SVGID_30_)" fill="#FFFFFF" d="M314.918,634.716l13.336-26.883c0.93-1.854,2.624-2.976,4.919-2.976h0.492
			c2.295,0,3.935,1.122,4.864,2.976l13.336,26.883c0.273,0.535,0.438,1.023,0.438,1.512c0,2.001-1.749,3.609-3.99,3.609
			c-1.968,0-3.28-1.023-4.045-2.585l-2.569-5.366h-16.835l-2.676,5.609c-0.711,1.464-2.132,2.342-3.881,2.342
			c-2.187,0-3.88-1.561-3.88-3.512C314.428,635.788,314.646,635.251,314.918,634.716 M338.584,625.25l-5.302-11.27l-5.302,11.27
			H338.584z"/>
		<path clip-path="url(#SVGID_30_)" fill="#FFFFFF" d="M365.909,612.322h-8.09c-2.132,0-3.881-1.562-3.881-3.464
			c0-1.901,1.749-3.464,3.881-3.464h24.596c2.132,0,3.881,1.562,3.881,3.464c0,1.902-1.749,3.464-3.881,3.464h-8.089v23.76
			c0,2.097-1.859,3.756-4.208,3.756c-2.351,0-4.209-1.659-4.209-3.756V612.322z"/>
		<path clip-path="url(#SVGID_30_)" fill="#FFFFFF" d="M403.508,612.322h-8.091c-2.131,0-3.88-1.562-3.88-3.464
			c0-1.901,1.749-3.464,3.88-3.464h24.596c2.132,0,3.881,1.562,3.881,3.464c0,1.902-1.749,3.464-3.881,3.464h-8.089v23.76
			c0,2.097-1.858,3.756-4.208,3.756c-2.351,0-4.208-1.659-4.208-3.756V612.322z"/>
		<path clip-path="url(#SVGID_30_)" fill="#FFFFFF" d="M432.199,635.788v-26.637c0-2.098,1.857-3.757,4.208-3.757h21.207
			c2.077,0,3.772,1.512,3.772,3.366c0,1.854-1.695,3.317-3.772,3.317h-17.053v6.929h14.594c2.076,0,3.772,1.511,3.772,3.365
			c0,1.854-1.696,3.317-3.772,3.317h-14.594v7.172h17.326c2.077,0,3.771,1.512,3.771,3.365c0,1.854-1.694,3.319-3.771,3.319h-21.48
			C434.056,639.546,432.199,637.887,432.199,635.788"/>
		<path clip-path="url(#SVGID_30_)" fill="#FFFFFF" d="M471,609.151c0-2.099,1.858-3.757,4.209-3.757h13.281
			c4.864,0,8.636,1.22,11.149,3.464c2.132,1.902,3.28,4.585,3.28,7.807v0.097c0,5.366-3.006,8.684-7.652,10.391l5.848,6.344
			c0.82,0.927,1.366,1.707,1.366,2.879c0,2.097-1.968,3.462-3.989,3.462c-1.913,0-3.17-0.829-4.154-1.951l-8.199-9.27h-6.722v7.466
			c0,2.097-1.859,3.755-4.208,3.755c-2.351,0-4.209-1.658-4.209-3.755V609.151z M487.944,621.981c4.098,0,6.448-1.951,6.448-4.83
			v-0.097c0-3.219-2.513-4.88-6.613-4.88h-8.362v9.807H487.944z"/>
		<path clip-path="url(#SVGID_30_)" fill="#FFFFFF" d="M524.086,610.755c2.733,0,4.756,1.805,4.756,4.148v0.096
			c0,2.342-2.023,4.146-4.756,4.146c-2.732,0-4.754-1.805-4.754-4.146v-0.096C519.333,612.56,521.354,610.755,524.086,610.755
			 M524.086,629.099c2.733,0,4.756,1.806,4.756,4.146v0.098c0,2.342-2.023,4.147-4.756,4.147c-2.732,0-4.754-1.806-4.754-4.147
			v-0.098C519.333,630.904,521.354,629.099,524.086,629.099"/>
		<path clip-path="url(#SVGID_30_)" fill="none" stroke="#D29829" stroke-width="14" stroke-miterlimit="10" d="M186.798,738.046
			c0-2.351,1.858-4.209,4.209-4.209s4.208,1.858,4.208,4.209v26.727h15.577c2.132,0,3.826,1.693,3.826,3.826
			c0,2.131-1.694,3.825-3.826,3.825h-19.785c-2.351,0-4.209-1.857-4.209-4.209V738.046z"/>
		<path clip-path="url(#SVGID_30_)" fill="none" stroke="#D29829" stroke-width="14" stroke-miterlimit="10" d="M220.682,767.014
			l13.335-30.117c0.93-2.076,2.624-3.333,4.919-3.333h0.493c2.295,0,3.935,1.257,4.864,3.333l13.336,30.117
			c0.273,0.6,0.437,1.146,0.437,1.692c0,2.242-1.749,4.047-3.989,4.047c-1.968,0-3.281-1.148-4.045-2.897l-2.569-6.013h-16.835
			l-2.677,6.286c-0.71,1.639-2.131,2.624-3.88,2.624c-2.188,0-3.881-1.749-3.881-3.937
			C220.19,768.216,220.408,767.613,220.682,767.014z M244.348,756.409l-5.302-12.625l-5.302,12.625H244.348z"/>
		<path clip-path="url(#SVGID_30_)" fill="none" stroke="#D29829" stroke-width="14" stroke-miterlimit="10" d="M265.823,768.379
			c-0.93-0.654-1.586-1.857-1.586-3.17c0-2.186,1.749-3.881,3.937-3.881c1.092,0,1.857,0.383,2.404,0.765
			c2.896,2.134,6.066,3.443,9.784,3.443c3.442,0,5.519-1.366,5.519-3.605v-0.11c0-2.13-1.311-3.226-7.706-4.864
			c-7.706-1.968-12.68-4.099-12.68-11.696v-0.109c0-6.941,5.575-11.532,13.391-11.532c4.646,0,8.69,1.202,12.133,3.389
			c0.929,0.546,1.858,1.694,1.858,3.334c0,2.187-1.749,3.881-3.935,3.881c-0.819,0-1.475-0.219-2.132-0.602
			c-2.787-1.639-5.411-2.569-8.034-2.569c-3.224,0-4.919,1.477-4.919,3.335v0.108c0,2.515,1.64,3.335,8.252,5.03
			c7.763,2.021,12.134,4.808,12.134,11.476v0.11c0,7.596-5.792,11.861-14.046,11.861C275.17,772.972,270.086,771.44,265.823,768.379
			z"/>
		<path clip-path="url(#SVGID_30_)" fill="none" stroke="#D29829" stroke-width="14" stroke-miterlimit="10" d="M311.839,741.926
			h-8.09c-2.131,0-3.88-1.749-3.88-3.88c0-2.132,1.749-3.881,3.88-3.881h24.596c2.132,0,3.881,1.749,3.881,3.881
			c0,2.131-1.749,3.88-3.881,3.88h-8.089v26.617c0,2.352-1.859,4.209-4.208,4.209c-2.351,0-4.209-1.857-4.209-4.209V741.926z"/>
		<path clip-path="url(#SVGID_30_)" fill="none" stroke="#D29829" stroke-width="14" stroke-miterlimit="10" d="M359.111,738.373
			c0-2.35,1.858-4.208,4.208-4.208h11.424c9.127,0,14.647,5.41,14.647,13.227v0.109c0,8.854-6.886,13.444-15.467,13.444h-6.395
			v7.598c0,2.352-1.858,4.209-4.209,4.209c-2.35,0-4.208-1.857-4.208-4.209V738.373z M374.196,753.458
			c4.208,0,6.668-2.514,6.668-5.794v-0.107c0-3.772-2.623-5.794-6.832-5.794h-6.504v11.695H374.196z"/>
		<path clip-path="url(#SVGID_30_)" fill="none" stroke="#D29829" stroke-width="14" stroke-miterlimit="10" d="M397.803,738.046
			c0-2.351,1.857-4.209,4.208-4.209s4.209,1.858,4.209,4.209v26.727h15.577c2.131,0,3.825,1.693,3.825,3.826
			c0,2.131-1.694,3.825-3.825,3.825h-19.786c-2.351,0-4.208-1.857-4.208-4.209V738.046z"/>
		<path clip-path="url(#SVGID_30_)" fill="none" stroke="#D29829" stroke-width="14" stroke-miterlimit="10" d="M431.686,767.014
			l13.336-30.117c0.93-2.076,2.624-3.333,4.919-3.333h0.492c2.295,0,3.936,1.257,4.864,3.333l13.336,30.117
			c0.273,0.6,0.438,1.146,0.438,1.692c0,2.242-1.749,4.047-3.99,4.047c-1.968,0-3.28-1.148-4.044-2.897l-2.57-6.013h-16.834
			l-2.677,6.286c-0.711,1.639-2.132,2.624-3.881,2.624c-2.187,0-3.88-1.749-3.88-3.937
			C431.195,768.216,431.413,767.613,431.686,767.014z M455.352,756.409l-5.301-12.625l-5.303,12.625H455.352z"/>
		<path clip-path="url(#SVGID_30_)" fill="none" stroke="#D29829" stroke-width="14" stroke-miterlimit="10" d="M483.769,757.667
			l-12.353-16.778c-0.6-0.82-1.038-1.805-1.038-3.008c0-2.239,1.859-4.044,4.208-4.044c1.914,0,3.116,1.039,4.155,2.568
			l9.292,13.391l9.455-13.499c1.038-1.53,2.295-2.515,4.045-2.515c2.568,0,4.098,1.804,4.098,4.099c0,1.148-0.546,2.188-1.092,2.952
			l-12.353,16.669v11.041c0,2.352-1.858,4.209-4.208,4.209c-2.351,0-4.209-1.857-4.209-4.209V757.667z"/>
		<path clip-path="url(#SVGID_30_)" fill="none" stroke="#D29829" stroke-width="14" stroke-miterlimit="10" d="M524.086,741.434
			c2.733,0,4.756,2.023,4.756,4.647v0.107c0,2.623-2.023,4.646-4.756,4.646c-2.732,0-4.754-2.023-4.754-4.646v-0.107
			C519.333,743.457,521.354,741.434,524.086,741.434z M524.086,761.984c2.733,0,4.756,2.022,4.756,4.646v0.108
			c0,2.623-2.023,4.646-4.756,4.646c-2.732,0-4.754-2.022-4.754-4.646v-0.108C519.333,764.007,521.354,761.984,524.086,761.984z"/>
		<path clip-path="url(#SVGID_30_)" fill="#FFFFFF" d="M524.086,741.434c2.733,0,4.756,2.023,4.756,4.647v0.107
			c0,2.623-2.023,4.646-4.756,4.646c-2.732,0-4.754-2.023-4.754-4.646v-0.107C519.333,743.457,521.354,741.434,524.086,741.434
			 M524.086,761.984c2.733,0,4.756,2.022,4.756,4.646v0.108c0,2.623-2.023,4.646-4.756,4.646c-2.732,0-4.754-2.022-4.754-4.646
			v-0.108C519.333,764.007,521.354,761.984,524.086,761.984"/>
		<path clip-path="url(#SVGID_30_)" fill="#FFFFFF" d="M186.798,738.046c0-2.351,1.858-4.209,4.209-4.209s4.208,1.858,4.208,4.209
			v26.727h15.577c2.132,0,3.826,1.693,3.826,3.826c0,2.131-1.694,3.825-3.826,3.825h-19.785c-2.351,0-4.209-1.857-4.209-4.209
			V738.046z"/>
		<path clip-path="url(#SVGID_30_)" fill="#FFFFFF" d="M220.682,767.014l13.335-30.117c0.93-2.076,2.624-3.333,4.919-3.333h0.493
			c2.295,0,3.935,1.257,4.864,3.333l13.336,30.117c0.273,0.6,0.437,1.146,0.437,1.692c0,2.242-1.749,4.047-3.989,4.047
			c-1.968,0-3.281-1.148-4.045-2.897l-2.569-6.013h-16.835l-2.677,6.286c-0.71,1.639-2.131,2.624-3.88,2.624
			c-2.188,0-3.881-1.749-3.881-3.937C220.19,768.216,220.408,767.613,220.682,767.014 M244.348,756.409l-5.302-12.625l-5.302,12.625
			H244.348z"/>
		<path clip-path="url(#SVGID_30_)" fill="#FFFFFF" d="M265.823,768.379c-0.93-0.654-1.586-1.857-1.586-3.17
			c0-2.186,1.749-3.881,3.937-3.881c1.092,0,1.857,0.383,2.404,0.765c2.896,2.134,6.066,3.443,9.784,3.443
			c3.442,0,5.519-1.366,5.519-3.605v-0.11c0-2.13-1.311-3.226-7.706-4.864c-7.706-1.968-12.68-4.099-12.68-11.696v-0.109
			c0-6.941,5.575-11.532,13.391-11.532c4.646,0,8.69,1.202,12.133,3.389c0.929,0.546,1.858,1.694,1.858,3.334
			c0,2.187-1.749,3.881-3.935,3.881c-0.819,0-1.475-0.219-2.132-0.602c-2.787-1.639-5.411-2.569-8.034-2.569
			c-3.224,0-4.919,1.477-4.919,3.335v0.108c0,2.515,1.64,3.335,8.252,5.03c7.763,2.021,12.134,4.808,12.134,11.476v0.11
			c0,7.596-5.792,11.861-14.046,11.861C275.17,772.972,270.086,771.44,265.823,768.379"/>
		<path clip-path="url(#SVGID_30_)" fill="#FFFFFF" d="M311.839,741.926h-8.09c-2.131,0-3.88-1.749-3.88-3.88
			c0-2.132,1.749-3.881,3.88-3.881h24.596c2.132,0,3.881,1.749,3.881,3.881c0,2.131-1.749,3.88-3.881,3.88h-8.089v26.617
			c0,2.352-1.859,4.209-4.208,4.209c-2.351,0-4.209-1.857-4.209-4.209V741.926z"/>
		<path clip-path="url(#SVGID_30_)" fill="#FFFFFF" d="M359.111,738.373c0-2.35,1.858-4.208,4.208-4.208h11.424
			c9.127,0,14.647,5.41,14.647,13.227v0.109c0,8.854-6.886,13.444-15.467,13.444h-6.395v7.598c0,2.352-1.858,4.209-4.209,4.209
			c-2.35,0-4.208-1.857-4.208-4.209V738.373z M374.196,753.458c4.208,0,6.668-2.514,6.668-5.794v-0.107
			c0-3.772-2.623-5.794-6.832-5.794h-6.504v11.695H374.196z"/>
		<path clip-path="url(#SVGID_30_)" fill="#FFFFFF" d="M397.803,738.046c0-2.351,1.857-4.209,4.208-4.209s4.209,1.858,4.209,4.209
			v26.727h15.577c2.131,0,3.825,1.693,3.825,3.826c0,2.131-1.694,3.825-3.825,3.825h-19.786c-2.351,0-4.208-1.857-4.208-4.209
			V738.046z"/>
		<path clip-path="url(#SVGID_30_)" fill="#FFFFFF" d="M431.686,767.014l13.336-30.117c0.93-2.076,2.624-3.333,4.919-3.333h0.492
			c2.295,0,3.936,1.257,4.864,3.333l13.336,30.117c0.273,0.6,0.438,1.146,0.438,1.692c0,2.242-1.749,4.047-3.99,4.047
			c-1.968,0-3.28-1.148-4.044-2.897l-2.57-6.013h-16.834l-2.677,6.286c-0.711,1.639-2.132,2.624-3.881,2.624
			c-2.187,0-3.88-1.749-3.88-3.937C431.195,768.216,431.413,767.613,431.686,767.014 M455.352,756.409l-5.301-12.625l-5.303,12.625
			H455.352z"/>
		<path clip-path="url(#SVGID_30_)" fill="#FFFFFF" d="M483.769,757.667l-12.353-16.778c-0.6-0.82-1.038-1.805-1.038-3.008
			c0-2.239,1.859-4.044,4.208-4.044c1.914,0,3.116,1.039,4.155,2.568l9.292,13.391l9.455-13.499c1.038-1.53,2.295-2.515,4.045-2.515
			c2.568,0,4.098,1.804,4.098,4.099c0,1.148-0.546,2.188-1.092,2.952l-12.353,16.669v11.041c0,2.352-1.858,4.209-4.208,4.209
			c-2.351,0-4.209-1.857-4.209-4.209V757.667z"/>
	</g>
</g>
<g>
	
		<rect x="1133.807" y="259.798" transform="matrix(0.7071 -0.7071 0.7071 0.7071 132.6746 915.7189)" fill="#DCE0E5" width="75.815" height="75.816"/>
	
		<rect x="1133.807" y="252.616" transform="matrix(0.7071 -0.7071 0.7071 0.7071 137.7584 913.6248)" fill="#131D2C" width="75.815" height="75.817"/>
	
		<rect x="1133.807" y="256.397" transform="matrix(0.7071 -0.7071 0.7071 0.7071 135.0797 914.7227)" fill="#293951" width="75.815" height="75.816"/>
</g>
</svg>
