<?xml version="1.0" encoding="utf-8"?>
<!-- Generator: Adobe Illustrator 16.0.0, SVG Export Plug-In . SVG Version: 6.00 Build 0)  -->
<!DOCTYPE svg PUBLIC "-//W3C//DTD SVG 1.1//EN" "http://www.w3.org/Graphics/SVG/1.1/DTD/svg11.dtd">
<svg version="1.1" id="Layer_1" xmlns="http://www.w3.org/2000/svg" xmlns:xlink="http://www.w3.org/1999/xlink" x="0px" y="0px"
	 width="946.503px" height="1484.68px" viewBox="0 0 946.503 1484.68" enable-background="new 0 0 946.503 1484.68"
	 xml:space="preserve">
<g>
	<defs>
		<rect id="SVGID_1_" width="946.503" height="1484.68"/>
	</defs>
	<clipPath id="SVGID_2_">
		<use xlink:href="#SVGID_1_"  overflow="visible"/>
	</clipPath>
	<g clip-path="url(#SVGID_2_)">
		<defs>
			<rect id="SVGID_3_" y="-0.004" width="946.503" height="1484.684"/>
		</defs>
		<clipPath id="SVGID_4_">
			<use xlink:href="#SVGID_3_"  overflow="visible"/>
		</clipPath>
		<path clip-path="url(#SVGID_4_)" fill="#B51F2E" d="M769.228,0.875H162.227c-11.392,0-9.139,44.506-9.139,66.767h625.279
			C778.367,45.381,782.397,0.875,769.228,0.875"/>
		<path clip-path="url(#SVGID_4_)" fill="#CCCCCC" d="M152.912,42.487c2.485-0.104,5.01-0.217,7.559-0.321
			c0.088-16.994,1.034-34.422,5.724-39.689c-1.131-1.042-2.445-1.602-3.968-1.602C154.371,0.875,153,22.046,152.912,42.487"/>
		<path clip-path="url(#SVGID_4_)" fill="#CCCCCC" d="M769.228,0.875c-1.411,0-2.646,0.48-3.72,1.387
			c5.404,4.929,6.069,22.22,5.845,39.247c2.548,0.08,5.065,0.177,7.56,0.264C779.191,21.557,778.206,0.875,769.228,0.875"/>
		<path clip-path="url(#SVGID_4_)" fill="#C1DC87" d="M180.952,11.288c107.489-5.403,464.257-6.013,570.56-3.455
			c1.523-4.289,3.792-6.958,7.104-6.958H172.84C176.968,0.875,179.477,5.035,180.952,11.288"/>
		<g opacity="0.2" clip-path="url(#SVGID_4_)">
			<g>
				<defs>
					<rect id="SVGID_5_" y="39.31" width="946.503" height="1445.37"/>
				</defs>
				<clipPath id="SVGID_6_">
					<use xlink:href="#SVGID_5_"  overflow="visible"/>
				</clipPath>
				<path clip-path="url(#SVGID_6_)" fill="#010101" d="M851.259,56.78c-138.38-23.289-617.636-23.289-756.016,0
					C47.604,64.799,10.552,108.62,7.495,162.296C-2.719,341.073-2.5,1209.994,8.191,1378.051
					c2.94,46.168,37.258,88.561,76.747,100.212c29.017,8.556,747.607,8.556,776.624,0c39.489-11.665,73.807-54.044,76.747-100.212
					c10.692-168.058,10.911-1036.978,0.71-1215.755C935.949,108.62,898.91,64.799,851.259,56.78"/>
			</g>
		</g>
		<path clip-path="url(#SVGID_4_)" fill="#FFFFFF" d="M848.979,44.21c-137.799-23.289-613.65-23.289-751.437,0
			c-47.459,8.018-84.343,51.839-87.4,105.516c-10.162,178.776-9.956,1047.696,0.71,1215.755
			c2.914,46.167,37.104,88.546,76.424,100.199c28.889,8.554,743.08,8.554,771.956,0c39.334-11.639,73.497-54.032,76.426-100.199
			c10.651-168.059,10.87-1036.979,0.709-1215.755C933.322,96.049,896.425,52.228,848.979,44.21"/>
	</g>
	<g clip-path="url(#SVGID_2_)">
		<defs>
			<path id="SVGID_7_" d="M110.398,52.609C64.307,60.4,28.467,102.963,25.514,155.098c-9.879,173.659-9.672,1031.605,0.683,1194.856
				c2.838,44.854,36.033,86.016,74.233,97.327c28.063,8.315,717.583,8.315,745.646,0c38.2-11.312,71.396-52.503,74.231-97.327
				c10.344-163.266,10.563-1021.197,0.697-1194.856C918.039,102.977,882.2,60.4,836.107,52.609
				C769.18,41.296,621.217,35.64,473.253,35.64S177.325,41.296,110.398,52.609"/>
		</defs>
		<clipPath id="SVGID_8_">
			<use xlink:href="#SVGID_7_"  overflow="visible"/>
		</clipPath>
		
			<radialGradient id="SVGID_9_" cx="0" cy="1484.6802" r="1" gradientTransform="matrix(0 1308.2678 1434.4462 0 -2129235.75 -267.3198)" gradientUnits="userSpaceOnUse">
			<stop  offset="0" style="stop-color:#1B539D"/>
			<stop  offset="1" style="stop-color:#081B2F"/>
		</radialGradient>
		<rect x="15.635" y="35.64" clip-path="url(#SVGID_8_)" fill="url(#SVGID_9_)" width="915.236" height="1419.957"/>
	</g>
	<g clip-path="url(#SVGID_2_)">
		<defs>
			<rect id="SVGID_10_" y="-0.004" width="946.503" height="1484.684"/>
		</defs>
		<clipPath id="SVGID_11_">
			<use xlink:href="#SVGID_10_"  overflow="visible"/>
		</clipPath>
		<g opacity="0.2" clip-path="url(#SVGID_11_)">
			<g>
				<defs>
					<rect id="SVGID_12_" x="168.897" y="37.02" width="594.064" height="61.39"/>
				</defs>
				<clipPath id="SVGID_13_">
					<use xlink:href="#SVGID_12_"  overflow="visible"/>
				</clipPath>
				<path clip-path="url(#SVGID_13_)" fill="#010101" d="M169.899,39.661c-0.168,12.497-1.002,36.954-1.002,42.774
					c0,8.786,7.52,15.977,16.714,15.977h245.322h315.322c9.187,0,16.706-7.191,16.706-15.977c0-5.916-0.897-30.165-1.05-42.886
					C658.886,36.318,268.098,36.014,169.899,39.661"/>
			</g>
		</g>
		<path clip-path="url(#SVGID_11_)" fill="#FFFFFF" d="M162.429-0.003c15.351,0,9.611,57.813,9.611,73.308
			c0,9.026,7.383,16.401,16.41,16.401h242.483h312.485c9.018,0,16.4-7.375,16.4-16.401c0-15.495-5.74-73.308,9.611-73.308H430.933
			H162.429z"/>
		<path clip-path="url(#SVGID_11_)" fill="#E73545" d="M173.042-0.003c14.437,0,9.042,50.854,9.042,64.481
			c0,7.937,6.942,14.43,15.423,14.43h233.426h303.418c8.482,0,15.423-6.493,15.423-14.43c0-13.627-5.395-64.481,9.043-64.481
			H430.933H173.042z"/>
		<path clip-path="url(#SVGID_11_)" fill="#E6E6E5" d="M743.417,86.86H430.933H188.449c-8.73,0-15.921-6.902-16.386-15.52
			c-0.016,0.713-0.023,1.372-0.023,1.964c0,9.027,7.382,16.402,16.409,16.402h242.484h312.484c9.02,0,16.401-7.375,16.401-16.402
			c0-0.592-0.008-1.251-0.024-1.964C759.329,79.958,752.14,86.86,743.417,86.86"/>
		<path clip-path="url(#SVGID_11_)" fill="#CF3143" d="M417.029,66.764c-48.522-2.678-184.11-7.712-226.404-15.383
			c-2.621-0.473-5.234-0.963-7.832-1.459c-0.024,0.545-0.048,1.074-0.072,1.603c-0.248,5.443-0.489,10.045-0.489,12.954
			c0,0.778,0.065,1.539,0.193,2.285c1.178,6.862,7.575,12.145,15.23,12.145h233.426h303.418c7.439,0,13.7-4.995,15.127-11.576
			C688.775,69.81,471.074,69.745,417.029,66.764"/>
	</g>
	<g clip-path="url(#SVGID_2_)">
		<defs>
			<rect id="SVGID_14_" y="-0.004" width="946.503" height="1484.684"/>
		</defs>
		<clipPath id="SVGID_15_">
			<use xlink:href="#SVGID_14_"  overflow="visible"/>
		</clipPath>
		<g opacity="0.13" clip-path="url(#SVGID_15_)">
			<g>
				<defs>
					<rect id="SVGID_16_" x="117.769" y="317.8" width="631.857" height="145.93"/>
				</defs>
				<clipPath id="SVGID_17_">
					<use xlink:href="#SVGID_16_"  overflow="visible"/>
				</clipPath>
			</g>
		</g>
	</g>
	<g clip-path="url(#SVGID_2_)">
		<defs>
			<rect id="SVGID_18_" y="-0.004" width="946.503" height="1484.684"/>
		</defs>
		<clipPath id="SVGID_19_">
			<use xlink:href="#SVGID_18_"  overflow="visible"/>
		</clipPath>
	</g>
</g>
</svg>
