<svg xmlns="http://www.w3.org/2000/svg" xmlns:xlink="http://www.w3.org/1999/xlink" id="Group_319" width="168.9" height="23.4" data-name="Group 319" viewBox="0 0 168.9 23.4">
    <defs>
        <style>
            .cls-1{stroke:#fff;stroke-miterlimit:10;stroke-width:3px}.cls-2{fill:#e73545}.cls-3{fill:url(#linear-gradient)}.cls-4{fill:url(#linear-gradient-2)}.cls-5{fill:url(#linear-gradient-3)}.cls-6{fill:url(#linear-gradient-4)}.cls-7{fill:url(#linear-gradient-5)}.cls-8{fill:url(#linear-gradient-6)}.cls-9{fill:url(#linear-gradient-7)}.cls-10{fill:url(#linear-gradient-8)}.cls-11{fill:url(#linear-gradient-9)}.cls-12{fill:url(#linear-gradient-10)}.cls-13{fill:url(#linear-gradient-11)}
        </style>
        <linearGradient id="linear-gradient" x1=".504" x2=".504" y1=".017" y2=".997" gradientUnits="objectBoundingBox">
            <stop offset="0" stop-color="#e73545"/>
            <stop offset=".496" stop-color="#d2263f"/>
            <stop offset=".859" stop-color="#ca203c"/>
        </linearGradient>
        <linearGradient id="linear-gradient-2" x1=".507" x2=".507" y1=".018" y2="1.011" xlink:href="#linear-gradient"/>
        <linearGradient id="linear-gradient-3" x1=".493" x2=".493" y1=".004" y2="1.011" xlink:href="#linear-gradient"/>
        <linearGradient id="linear-gradient-4" x1=".488" x2=".488" y1=".017" y2=".997" xlink:href="#linear-gradient"/>
        <linearGradient id="linear-gradient-5" x1=".498" x2=".498" y1=".004" y2=".997" xlink:href="#linear-gradient"/>
        <linearGradient id="linear-gradient-6" x1=".492" x2=".492" y1=".004" y2="1.011" xlink:href="#linear-gradient"/>
        <linearGradient id="linear-gradient-7" x1=".507" x2=".507" y1=".004" y2=".997" xlink:href="#linear-gradient"/>
        <linearGradient id="linear-gradient-8" x1=".498" x2=".498" y1=".004" y2=".997" xlink:href="#linear-gradient"/>
        <linearGradient id="linear-gradient-9" x1=".5" x2=".5" y1=".004" y2=".997" xlink:href="#linear-gradient"/>
        <linearGradient id="linear-gradient-10" x1=".502" x2=".502" y1=".004" y2=".997" xlink:href="#linear-gradient"/>
        <linearGradient id="linear-gradient-11" x1=".494" x2=".494" y1=".004" y2="1.011" xlink:href="#linear-gradient"/>
    </defs>
    <g id="Group_319-2" data-name="Group 319">
        <path id="Path_920" d="M113.2 2.7c-1-.8-2.8-1.1-5.9-1.1H85v1.5a13.559 13.559 0 0 0-6.5-1.5 9.737 9.737 0 0 0-3.4.6 6.188 6.188 0 0 0-2.7 2 9.016 9.016 0 0 0-.9-1V3a8.648 8.648 0 0 0-4.8-1.3h-.9c-3.1 0-5.3.9-6.5 2.7-1.2-1.9-3.5-2.9-6.8-2.9h-8.8V3a8.648 8.648 0 0 0-4.8-1.3H38c-3.2 0-5.4 1-6.6 2.8A5.245 5.245 0 0 0 29 2.4c-.8-.4-2-.8-5.4-.8h-8.1v1.3a8.108 8.108 0 0 0-2.1-1 9.863 9.863 0 0 0-2.4-.3H1.5v4.8l.1 1 .6.3V16l-.6.3v5.6h9.6V17h.2a6.9 6.9 0 0 0 4.8-1.5v.6l-.6.2v5.5h16.9v-1.6a8.17 8.17 0 0 0 5.3 1.6h1a8.352 8.352 0 0 0 4.9-1.4v1.4h9.7v-4.9h.4a7.1 7.1 0 0 0 2.9-.5 5.071 5.071 0 0 0 1.6-.9 7.286 7.286 0 0 0 .8 3.1c1.1 2 3.3 3.1 6.6 3.2h1a8.136 8.136 0 0 0 5.1-1.5l.1-.1a1.756 1.756 0 0 0 .4-.5 7.1 7.1 0 0 0 1.4 1l.2.1a15.139 15.139 0 0 0 5 1.1 14.979 14.979 0 0 0 2.2-.2 6.068 6.068 0 0 0 3-.9 3.592 3.592 0 0 0 1-.7v1.7h23.8a7.544 7.544 0 0 0 4.9-1.5l.1-.1a6.329 6.329 0 0 0 1.9-4.8V8.2c0-3.2-1.4-4.7-2.6-5.5zm-15.7 10v-2h2.3v2z" class="cls-1" data-name="Path 920"/>
        <path id="Path_921" d="M167.4 12.3V1.5h-17.8v.1h-14v1.1a5.835 5.835 0 0 0-2.3-.9 20.568 20.568 0 0 0-3.9-.3h-8.1v6l.8.2v8l-.8.3v5.7h9.5a10.642 10.642 0 0 0 3.3-.4 5.226 5.226 0 0 0 1.5-.7v1.1h15.9v-9.1H148v-2h1.5v1.7h4.7v3.8l-.6.4v5.3h9.6v-5.5l-.6-.3v-3.7h4.8z" class="cls-1" data-name="Path 921"/>
    </g>
    <g id="Group_320" data-name="Group 320">
        <path id="Path_922" d="M113.2 2.7c-1-.8-2.8-1.1-5.9-1.1H85v1.5a13.559 13.559 0 0 0-6.5-1.5 9.737 9.737 0 0 0-3.4.6 6.188 6.188 0 0 0-2.7 2 9.016 9.016 0 0 0-.9-1V3a8.648 8.648 0 0 0-4.8-1.3h-.9c-3.1 0-5.3.9-6.5 2.7-1.2-1.9-3.5-2.9-6.8-2.9h-8.8V3a8.648 8.648 0 0 0-4.8-1.3H38c-3.2 0-5.4 1-6.6 2.8A5.245 5.245 0 0 0 29 2.4c-.8-.4-2-.8-5.4-.8h-8.1v1.3a8.108 8.108 0 0 0-2.1-1 9.863 9.863 0 0 0-2.4-.3H1.5v4.8l.1 1 .6.3V16l-.6.3v5.6h9.6V17h.2a6.9 6.9 0 0 0 4.8-1.5v.6l-.6.2v5.5h16.9v-1.6a8.17 8.17 0 0 0 5.3 1.6h1a8.352 8.352 0 0 0 4.9-1.4v1.4h9.7v-4.9h.4a7.1 7.1 0 0 0 2.9-.5 5.071 5.071 0 0 0 1.6-.9 7.286 7.286 0 0 0 .8 3.1c1.1 2 3.3 3.1 6.6 3.2h1a8.136 8.136 0 0 0 5.1-1.5l.1-.1a1.756 1.756 0 0 0 .4-.5 7.1 7.1 0 0 0 1.4 1l.2.1a15.139 15.139 0 0 0 5 1.1 14.979 14.979 0 0 0 2.2-.2 6.068 6.068 0 0 0 3-.9 3.592 3.592 0 0 0 1-.7v1.7h23.8a7.544 7.544 0 0 0 4.9-1.5l.1-.1a6.329 6.329 0 0 0 1.9-4.8V8.2c0-3.2-1.4-4.7-2.6-5.5zm-15.7 10v-2h2.3v2z" data-name="Path 922"/>
        <path id="Path_923" d="M167.4 12.3V1.5h-17.8v.1h-14v1.1a5.835 5.835 0 0 0-2.3-.9 20.568 20.568 0 0 0-3.9-.3h-8.1v6l.8.2v8l-.8.3v5.7h9.5a10.642 10.642 0 0 0 3.3-.4 5.226 5.226 0 0 0 1.5-.7v1.1h15.9v-9.1H148v-2h1.5v1.7h4.7v3.8l-.6.4v5.3h9.6v-5.5l-.6-.3v-3.7h4.8z" data-name="Path 923"/>
    </g>
    <g id="Group_321" data-name="Group 321">
        <path id="Path_924" d="M3 3.1h8a6.929 6.929 0 0 1 2 .3 9.819 9.819 0 0 1 1.8.8 4.708 4.708 0 0 1 1.3 1.5 4.767 4.767 0 0 1 .5 2.2v2.8c0 3.2-1.7 4.7-5.2 4.7H9.1v.8a1.268 1.268 0 0 0 .1.6c.1.1.2.3.4.4v3.2H3v-3.2a.821.821 0 0 0 .5-.5 1.949 1.949 0 0 0 .1-.8V7.5a1.483 1.483 0 0 0-.1-.7.7.7 0 0 0-.5-.4zm6.1 3.8v4.9h.5c.9 0 1.4-.5 1.4-1.5V8.5a1.7 1.7 0 0 0-.4-1.3c-.3-.3-.7-.3-1.5-.3z" class="cls-2" data-name="Path 924"/>
        <path id="Path_925" d="M17 3.1h6.6c2.4 0 3.9.2 4.6.6a4.016 4.016 0 0 1 2.4 4c0 2-.6 3.2-1.7 3.8 0 .1-.3.2-.8.3v.1a2.916 2.916 0 0 1 1.5.6q0 .15.3.3c.3.3.4 1.2.4 2.6 0 1.1.1 1.7.4 1.8.2.1.3.1.3.2v3h-5.8a14.239 14.239 0 0 1-.3-3.3v-1.6c0-.8-.2-1.2-.5-1.4a7.865 7.865 0 0 0-1.2-.4V16c0 .7.1 1.1.4 1.3a.367.367 0 0 0 .3.1v3H17v-3c.4-.2.7-.8.7-2v-8a1 1 0 0 0-.6-1H17zm3.6 3.6l2.4.5v3h.2Q25 10.2 25 9v-.3a2.86 2.86 0 0 0-.5-1.7 4.537 4.537 0 0 0-2.1-.3z" class="cls-2" data-name="Path 925"/>
        <path id="Path_926" d="M37.9 3.1h.9a7.482 7.482 0 0 1 4 1.1 4.192 4.192 0 0 1 1.5 3.4v8.2A4.08 4.08 0 0 1 43 19a6.562 6.562 0 0 1-4.2 1.2h-1c-2.7-.1-4.4-.9-5.3-2.4a8.911 8.911 0 0 1-.6-4V9.2a7.229 7.229 0 0 1 .6-3.6c.7-1.6 2.6-2.5 5.4-2.5zm0 3.7h-2.4v.1q1.65.3 1.8.3a2 2 0 0 0-.2.9v7c0 .9.2 1.5.6 1.6l.4.1a.761.761 0 0 0 .8-.7 5.313 5.313 0 0 0 .1-1.4V8.5c0-1-.1-1.5-.2-1.5 0-.1-.2-.2-.6-.2z" class="cls-2" data-name="Path 926"/>
        <path id="Path_927" d="M45.1 3h7.3q4.35 0 5.7 2.4a4.2 4.2 0 0 1 .6 2.1v3.4A3.958 3.958 0 0 1 56 15a8.6 8.6 0 0 1-2.4.4h-2.4v.9c0 .4.1.7.4.8a.1.1 0 0 1 .1.1v3.1H45v-3.1a.953.953 0 0 0 .6-.7.584.584 0 0 0 .1-.4V7.3a.963.963 0 0 0-.7-1V3zm3.7 3.8l2.4.5v4.4a.1.1 0 0 0 .1.1h.7a1.3 1.3 0 0 0 1.2-.8 1.087 1.087 0 0 0 .1-.5v-2c0-.9-.3-1.4-.8-1.5a6.66 6.66 0 0 0-1.6-.1h-2.1z" class="cls-2" data-name="Path 927"/>
        <path id="Path_928" d="M65.8 3.1h.9a7.482 7.482 0 0 1 4 1.1 4.192 4.192 0 0 1 1.5 3.4v8.2a4.08 4.08 0 0 1-1.3 3.2 6.562 6.562 0 0 1-4.2 1.2h-1c-2.7-.1-4.4-.9-5.3-2.4a8.911 8.911 0 0 1-.6-4V9.2a7.229 7.229 0 0 1 .6-3.6c.7-1.6 2.5-2.5 5.4-2.5zm0 3.7h-2.4v.1q1.65.3 1.8.3a1.292 1.292 0 0 0-.2.8v7c0 .9.2 1.5.6 1.6l.4.1a.761.761 0 0 0 .8-.7 5.313 5.313 0 0 0 .1-1.4V8.5c0-1-.1-1.5-.2-1.5 0-.1-.2-.2-.6-.2z" class="cls-2" data-name="Path 928"/>
        <path id="Path_929" d="M78.6 3.1A11.971 11.971 0 0 1 85 4.8v4h-4.9v-1c0-.8-.4-1.2-1.1-1.2h-2.2v.1c1 .2 1.5.3 1.6.3a1.421 1.421 0 0 0-.2.6v.2c0 .9.8 1.4 2.4 1.7a7.619 7.619 0 0 1 3 .9 4.522 4.522 0 0 1 2 2.5 6.882 6.882 0 0 1 .2 1.3v.6A8.347 8.347 0 0 1 85 18a3.814 3.814 0 0 1-1.6 1.5 5.289 5.289 0 0 1-2.5.7 14.919 14.919 0 0 1-2.1.2 11.844 11.844 0 0 1-4.4-1c-.8-.4-1.2-.8-1.2-1.1V14h5.2v1.2c0 .9.3 1.3.9 1.3.6-.1.9-.3.9-.7a1.213 1.213 0 0 0 .1-.5v-.4c0-.7-.7-1.3-2.2-1.7a10.279 10.279 0 0 1-3.1-1.1c-1.3-.6-2-2-2-4.1v-.3a4 4 0 0 1 2.8-4.1 6.632 6.632 0 0 1 2.8-.5z" class="cls-2" data-name="Path 929"/>
        <path id="Path_930" d="M86.6 3.1h12.9v6h-5V7.9a1.133 1.133 0 0 0-.9-1h-3.3V7l2.4.4v2.7H96v3.3h-3.4v3.3h.6a1.221 1.221 0 0 0 1.3-1.1v-1.4h5v6.1H86.6v-3.1a1.05 1.05 0 0 0 .5-.9V8.1a2.7 2.7 0 0 0-.5-1.9z" class="cls-2" data-name="Path 930"/>
        <path id="Path_931" d="M100.5 3.1h6.8c2.7 0 4.3.3 5 .8 1.3.8 1.9 2.2 1.9 4.2v7.2a5.384 5.384 0 0 1-1.4 3.8 5.867 5.867 0 0 1-3.9 1.2h-8.4v-3.1c.5-.2.7-.4.7-.7a1.213 1.213 0 0 0 .1-.5V7.7a1.557 1.557 0 0 0-.6-1.4l-.2-.1zm4 3.8l2.4.5v9.3h.7a1.222 1.222 0 0 0 .9-.4 1.689 1.689 0 0 0 .3-1V8.1a1.1 1.1 0 0 0-.5-1 3.6 3.6 0 0 0-1.1-.2h-2.7z" class="cls-2" data-name="Path 931"/>
        <path id="Path_932" d="M122.7 3.1h6.6a35.745 35.745 0 0 1 3.7.2 4.637 4.637 0 0 1 2.3 1.2 3.927 3.927 0 0 1 .9 2.8 5.822 5.822 0 0 1-.3 1.9 3.39 3.39 0 0 1-.9 1.4 2.928 2.928 0 0 1-1.6.7 3.33 3.33 0 0 1 1.5.5 4.3 4.3 0 0 1 1 .9 4.329 4.329 0 0 1 .5 1.2 6.752 6.752 0 0 1 .2 1.4v.5a8.418 8.418 0 0 1-.3 1.8 4.2 4.2 0 0 1-.9 1.4 5.011 5.011 0 0 1-1.8 1 10.883 10.883 0 0 1-2.8.3h-8v-3.2a.877.877 0 0 0 .7-.6 3.42 3.42 0 0 0 .1-1.1V8.3a4.512 4.512 0 0 0-.1-1.3.877.877 0 0 0-.7-.6V3.1zm6 3.6v3.2a5.945 5.945 0 0 0 1.7-.2 1 1 0 0 0 .5-1v-.3a1.76 1.76 0 0 0-.6-1.3 2.826 2.826 0 0 0-1.6-.4zm0 6.3v3.6a4.512 4.512 0 0 0 1.3-.1 1.157 1.157 0 0 0 .7-.5 1.5 1.5 0 0 0 .2-1v-.5c-.1-.7-.2-1.1-.5-1.3a1.737 1.737 0 0 0-1.2-.3h-.5z" class="cls-2" data-name="Path 932"/>
        <path id="Path_933" d="M137.1 3.1H150v6h-5V7.9a1.133 1.133 0 0 0-.9-1h-3.3V7l2.4.4v2.7h3.4v3.3h-3.4v3.3h.6a1.221 1.221 0 0 0 1.3-1.1v-1.4h5v6.1h-12.9v-3.1a1.05 1.05 0 0 0 .5-.9V8.1a2.7 2.7 0 0 0-.5-1.9V3.1z" class="cls-2" data-name="Path 933"/>
        <path id="Path_934" d="M151.1 3h14.8v7.8H162V7.6c0-.4-.3-.7-.8-.8h-2.4V7l2.4.4v8.3q0 1.2.6 1.5v3.1h-6.6v-3a1.557 1.557 0 0 0 .6-1.4v-9c-.5 0-.7.3-.7.9v3.1h-3.9V3z" class="cls-2" data-name="Path 934"/>
    </g>
    <g id="Group_322" data-name="Group 322">
        <path id="Path_935" d="M9.6 12.8H9l-.9-.1V12H4.6v3.9a4.3 4.3 0 0 1-.2 1.2 2.092 2.092 0 0 1-.4.6v1.6h4.6v-1.7a2.186 2.186 0 0 1-.3-.5 2.958 2.958 0 0 1-.2-1v-1.8h3.2c2.3 0 3.6-.8 4-2.4h-3.9a1.912 1.912 0 0 1-1.8.9z" class="cls-3" data-name="Path 935"/>
        <path id="Path_936" d="M52 12.8h-1.5l-.2-.8h-3.6v4a1.483 1.483 0 0 1-.1.7 1.59 1.59 0 0 1-.6.9v1.6h4.7v-1.7a1.813 1.813 0 0 1-.5-1.4v-1.9h3.4a6.448 6.448 0 0 0 2-.3 2.927 2.927 0 0 0 1.9-2h-4a1.65 1.65 0 0 1-1.5.9z" class="cls-4" data-name="Path 936"/>
        <path id="Path_937" d="M68 14.6a7.115 7.115 0 0 1-.1 1.6 1.734 1.734 0 0 1-1.8 1.4h-.2l-.6-.1c-.9-.2-1.3-1.1-1.3-2.5v-3h-3.3v1.9c0 2.3.3 3.1.5 3.4.7 1.3 2.1 1.9 4.5 1.9h1a5.219 5.219 0 0 0 3.5-1 3.317 3.317 0 0 0 1-2.5V12H68z" class="cls-5" data-name="Path 937"/>
        <path id="Path_938" d="M78.3 12.2q3 .75 3 2.7v.4a1.483 1.483 0 0 1-.1.7 1.832 1.832 0 0 1-1.8 1.5h-.1c-.9 0-1.9-.6-1.9-2.3V15h-3.2v3a5.923 5.923 0 0 0 .6.4 11.722 11.722 0 0 0 4 .9 13.552 13.552 0 0 0 2-.2h.2a4.145 4.145 0 0 0 2-.6 3.1 3.1 0 0 0 1.2-1.1 7.711 7.711 0 0 0 .7-2.7v-.6a6.529 6.529 0 0 0-.2-1.1 2.384 2.384 0 0 0-.6-1.1h-6.4a.6.6 0 0 0 .6.3z" class="cls-6" data-name="Path 938"/>
        <path id="Path_939" d="M88.1 16.3a2.389 2.389 0 0 1-.5 1.4v1.6h10.9v-4.1h-3v.6a2.192 2.192 0 0 1-2.3 1.9h-1.6v-5.3H95V12h-6.9z" class="cls-7" data-name="Path 939"/>
        <path id="Path_940" d="M109.8 15.4a2.271 2.271 0 0 1-.6 1.6 2.13 2.13 0 0 1-1.6.7h-.8l-.9-.1V12h-3.5v3.9a1.483 1.483 0 0 1-.1.7 1.394 1.394 0 0 1-.7 1.1v1.5h7.4a4.826 4.826 0 0 0 3.3-1 4.081 4.081 0 0 0 1.1-3V12h-3.5v3.4z" class="cls-8" data-name="Path 940"/>
        <path id="Path_941" d="M131.1 12.5a2.829 2.829 0 0 1 .9 2v.6a2.292 2.292 0 0 1-1.7 2.5 6.267 6.267 0 0 1-1.6.2h-1V12h-3.2v3.4a4.636 4.636 0 0 1-.2 1.4 2.361 2.361 0 0 1-.6.9v1.6h7a8.524 8.524 0 0 0 2.5-.3 3.653 3.653 0 0 0 1.4-.7 2.075 2.075 0 0 0 .6-1c.1-.4.2-1 .3-1.6v-.4a3.749 3.749 0 0 0-.1-1.1 3.552 3.552 0 0 0-.4-.9 4.349 4.349 0 0 0-.7-.6 1.8 1.8 0 0 0-1.1-.3l-2.3-.3h-1.8a3 3 0 0 1 2 .4z" class="cls-9" data-name="Path 941"/>
        <path id="Path_942" d="M138.6 16.3a2.389 2.389 0 0 1-.5 1.4v1.6H149v-4.1h-3v.6a2.192 2.192 0 0 1-2.3 1.9h-1.6v-5.3h3.4V12h-6.9v4.3z" class="cls-10" data-name="Path 942"/>
        <path id="Path_943" d="M156.8 12v3.9a3.052 3.052 0 0 1-.6 1.9v1.5h4.6v-1.6a3.052 3.052 0 0 1-.6-1.9V12z" class="cls-11" data-name="Path 943"/>
        <path id="Path_944" d="M18.7 15.3a3.7 3.7 0 0 1-.7 2.5v1.5h4.6v-1.4a2.814 2.814 0 0 1-.6-2v-3.3h1a4.507 4.507 0 0 1 1.6.4 2.419 2.419 0 0 1 1.2 2.4V17a15.52 15.52 0 0 0 .1 2.3h4v-1.4a3.575 3.575 0 0 1-.6-2.5c0-1.4-.1-1.8-.2-1.9s-.1-.2-.2-.2a1.688 1.688 0 0 0-.7-.3h-1v-1h-8.4v3.3z" class="cls-12" data-name="Path 944"/>
        <path id="Path_945" d="M40.1 14.6a7.115 7.115 0 0 1-.1 1.6 1.734 1.734 0 0 1-1.8 1.4H38l-.6-.1c-.9-.3-1.3-1.2-1.3-2.5v-3h-3.3v1.9c0 2.3.3 3.1.5 3.4.7 1.3 2.1 1.9 4.5 1.9h1a5.219 5.219 0 0 0 3.5-1 3.317 3.317 0 0 0 1-2.5V12h-3.1v2.6z" class="cls-13" data-name="Path 945"/>
    </g>
</svg>
