<svg version="1.2" baseProfile="tiny-ps" xmlns="http://www.w3.org/2000/svg" viewBox="0 0 241 25" width="241" height="25">
	<title>Layer 1</title>
	<defs>
		<linearGradient id="grd1" gradientUnits="userSpaceOnUse"  x1="237.864" y1="10.881" x2="237.864" y2="20.076">
			<stop offset="0" stop-color="#fb393c"  />
			<stop offset="0.859" stop-color="#dc2a34"  />
		</linearGradient>
		<linearGradient id="grd2" gradientUnits="userSpaceOnUse"  x1="97.701" y1="10.881" x2="97.701" y2="20.076">
			<stop offset="0" stop-color="#fb393c"  />
			<stop offset="0.859" stop-color="#dc2a34"  />
		</linearGradient>
		<linearGradient id="grd3" gradientUnits="userSpaceOnUse"  x1="83.783" y1="10.881" x2="83.783" y2="20.076">
			<stop offset="0" stop-color="#fb393c"  />
			<stop offset="0.859" stop-color="#dc2a34"  />
		</linearGradient>
		<linearGradient id="grd4" gradientUnits="userSpaceOnUse"  x1="61.951" y1="10.881" x2="61.951" y2="20.076">
			<stop offset="0" stop-color="#fb393c"  />
			<stop offset="0.859" stop-color="#dc2a34"  />
		</linearGradient>
		<linearGradient id="grd5" gradientUnits="userSpaceOnUse"  x1="18.883" y1="10.881" x2="18.883" y2="20.076">
			<stop offset="0" stop-color="#fb393c"  />
			<stop offset="0.859" stop-color="#dc2a34"  />
		</linearGradient>
		<linearGradient id="grd6" gradientUnits="userSpaceOnUse"  x1="33.836" y1="10.881" x2="33.836" y2="20.076">
			<stop offset="0" stop-color="#fb393c"  />
			<stop offset="0.859" stop-color="#dc2a34"  />
		</linearGradient>
		<linearGradient id="grd7" gradientUnits="userSpaceOnUse"  x1="47.286" y1="10.881" x2="47.286" y2="20.076">
			<stop offset="0" stop-color="#fb393c"  />
			<stop offset="0.859" stop-color="#dc2a34"  />
		</linearGradient>
		<linearGradient id="grd8" gradientUnits="userSpaceOnUse"  x1="178.101" y1="10.881" x2="178.101" y2="20.076">
			<stop offset="0" stop-color="#fb393c"  />
			<stop offset="0.859" stop-color="#dc2a34"  />
		</linearGradient>
		<linearGradient id="grd9" gradientUnits="userSpaceOnUse"  x1="191.67" y1="10.881" x2="191.67" y2="20.076">
			<stop offset="0" stop-color="#fb393c"  />
			<stop offset="0.859" stop-color="#dc2a34"  />
		</linearGradient>
		<linearGradient id="grd10" gradientUnits="userSpaceOnUse"  x1="209.789" y1="10.881" x2="209.789" y2="20.076">
			<stop offset="0" stop-color="#fb393c"  />
			<stop offset="0.859" stop-color="#dc2a34"  />
		</linearGradient>
		<linearGradient id="grd11" gradientUnits="userSpaceOnUse"  x1="223.876" y1="10.881" x2="223.876" y2="20.076">
			<stop offset="0" stop-color="#fb393c"  />
			<stop offset="0.859" stop-color="#dc2a34"  />
		</linearGradient>
		<linearGradient id="grd12" gradientUnits="userSpaceOnUse"  x1="109.667" y1="10.881" x2="109.667" y2="20.076">
			<stop offset="0" stop-color="#fb393c"  />
			<stop offset="0.859" stop-color="#dc2a34"  />
		</linearGradient>
		<linearGradient id="grd13" gradientUnits="userSpaceOnUse"  x1="134.078" y1="10.881" x2="134.078" y2="20.076">
			<stop offset="0" stop-color="#fb393c"  />
			<stop offset="0.859" stop-color="#dc2a34"  />
		</linearGradient>
		<linearGradient id="grd14" gradientUnits="userSpaceOnUse"  x1="147.886" y1="10.881" x2="147.886" y2="20.076">
			<stop offset="0" stop-color="#fb393c"  />
			<stop offset="0.859" stop-color="#dc2a34"  />
		</linearGradient>
		<linearGradient id="grd15" gradientUnits="userSpaceOnUse"  x1="160.45" y1="10.881" x2="160.45" y2="20.076">
			<stop offset="0" stop-color="#fb393c"  />
			<stop offset="0.859" stop-color="#dc2a34"  />
		</linearGradient>
	</defs>
	<style>
		tspan { white-space:pre }
		.shp0 { fill: #ffffff } 
		.shp1 { fill: #0f1b30 } 
		.shp2 { fill: #e63444 } 
		.shp3 { fill: url(#grd1) } 
		.shp4 { fill: url(#grd2) } 
		.shp5 { fill: url(#grd3) } 
		.shp6 { fill: url(#grd4) } 
		.shp7 { fill: url(#grd5) } 
		.shp8 { fill: url(#grd6) } 
		.shp9 { fill: url(#grd7) } 
		.shp10 { fill: url(#grd8) } 
		.shp11 { fill: url(#grd9) } 
		.shp12 { fill: url(#grd10) } 
		.shp13 { fill: url(#grd11) } 
		.shp14 { fill: url(#grd12) } 
		.shp15 { fill: url(#grd13) } 
		.shp16 { fill: url(#grd14) } 
		.shp17 { fill: url(#grd15) } 
	</style>
	<g id="Layer 1">
		<g id="&lt;Group&gt;">
			<path id="&lt;Compound Path&gt;" class="shp0" d="M229.81 24.58C228.76 24.58 227.62 24.41 226.38 24.09L226.38 24.58L188.04 24.58L188.04 24.24C187.13 24.46 186.14 24.58 185.1 24.58L184.05 24.58C181.62 24.52 179.64 23.98 178.11 22.98C177.48 23.36 176.74 23.68 175.86 23.95L175.66 24C173.99 24.39 172.61 24.58 171.39 24.58L170.53 24.58C168.19 24.58 166.09 23.97 164.28 22.78C163.78 22.42 163.34 22.03 162.95 21.6L162.95 24.58L149.23 24.58L149.23 20.54C148.25 22.24 146.67 23.48 144.59 24.11C143.51 24.42 142.46 24.58 141.43 24.58L140.37 24.58C138.59 24.58 136.94 24.22 135.46 23.53C134.9 23.24 134.4 22.92 133.95 22.57L133.9 22.61C132.23 23.91 130.08 24.58 127.5 24.58L126.46 24.58C122.36 24.48 119.55 23.04 118.05 20.31C117.33 19.14 116.99 17.37 116.99 14.62L116.99 9.86C116.99 7.34 117.31 5.69 118.03 4.48C119.08 2.58 121.45 0.26 126.67 0.26L127.57 0.26C128.58 0.26 129.54 0.38 130.44 0.6L130.44 0.21L145.07 0.21L146.57 0.16L167.07 0.16L167.07 0.46C167.96 0.23 168.93 0.11 169.96 0.11L170.71 0.11C173.4 0.11 175.88 0.69 178.08 1.84C179.68 0.79 181.75 0.26 184.26 0.26L185.16 0.26C186.17 0.26 187.13 0.38 188.04 0.6L188.04 0.21L212.29 0.21L212.29 0.26L226.38 0.26L226.38 0.66C227.47 0.35 228.54 0.21 229.67 0.21C232.44 0.21 234.94 0.79 237.08 1.92L239.62 1.92L239.69 5.39L239.69 11.74C239.8 12.01 239.9 12.28 239.99 12.57C240.25 13.47 240.36 14.21 240.36 14.94L240.36 15.51C240.36 17.02 239.99 18.59 239.25 20.18L239.15 20.39L239.03 20.59C238.25 21.81 237.24 22.73 236.04 23.33C234.76 23.97 233.5 24.33 232.3 24.39C231.5 24.51 230.67 24.58 229.85 24.58L229.81 24.58ZM80.17 24.58L80.17 24.25C79.26 24.47 78.31 24.58 77.33 24.58L65.24 24.58L65.24 15.99L66.03 15.5L66.03 10.6L65.24 10.6L65.24 0.21L73.14 0.21C76.75 0.21 78.84 0.34 80.17 0.6L80.17 0.26L94.29 0.26L95.79 0.16L116.29 0.16L116.29 15.01L111.54 15.01L111.54 15.55L112.17 15.91L112.17 24.58L80.17 24.58ZM43.65 24.58L43.65 24.24C42.74 24.46 41.76 24.58 40.71 24.58L39.67 24.58C38.44 24.55 37.33 24.4 36.34 24.13L36.34 24.58L15.32 24.58L15.32 19.32C15 19.39 14.68 19.45 14.35 19.49L14.35 24.58L0.59 24.58L0.59 15.93L1.17 15.59L1.17 13.69L1.24 13.69L1.24 9.62L0.59 9.36L0.59 0.11L11.51 0.11C12.92 0.11 14.19 0.27 15.32 0.58L15.32 0.21L25.44 0.21C29.33 0.21 30.78 0.7 31.68 1.17C32.25 1.43 32.78 1.76 33.26 2.15C34.9 0.9 37.12 0.26 39.88 0.26L40.78 0.26C41.79 0.26 42.75 0.38 43.65 0.6L43.65 0.11L54.58 0.11C58.87 0.11 61.84 1.53 63.39 4.33C64.07 5.45 64.45 6.77 64.45 8.11L64.45 11.56C64.45 15.06 62.65 17.77 59.51 18.99C58.81 19.23 58.12 19.4 57.42 19.49L57.42 24.58L43.65 24.58Z" />
			<path id="&lt;Compound Path&gt;" class="shp1" d="M200.51 1.71L210.79 1.71L210.79 1.76L224.88 1.76L224.88 2.92C225.25 2.69 225.65 2.49 226.09 2.31C227.27 1.9 228.44 1.71 229.67 1.71C232.34 1.71 234.7 2.29 236.7 3.42L238.15 3.42L238.19 5.42L238.19 11.46L237.85 11.46C238.15 11.93 238.38 12.45 238.56 13.01C238.77 13.75 238.86 14.37 238.86 14.94L238.86 15.51C238.86 16.8 238.54 18.16 237.89 19.55L237.84 19.67L237.76 19.78C237.13 20.77 236.33 21.51 235.37 21.98C234.25 22.55 233.16 22.86 232.15 22.89C231.4 23.01 230.63 23.08 229.85 23.08L229.81 23.08C228.4 23.08 226.78 22.74 224.88 22.04L224.88 23.08L189.54 23.08L189.54 22.09C188.3 22.75 186.82 23.08 185.1 23.08L184.05 23.08C181.45 23.01 179.48 22.35 178.14 21.11C177.51 21.69 176.62 22.14 175.42 22.52L175.27 22.56C173.76 22.91 172.49 23.08 171.39 23.08L170.53 23.08C168.49 23.08 166.66 22.56 165.11 21.53C164.01 20.74 163.27 19.73 162.84 18.5C162.63 17.97 162.43 17.09 162.43 14.86L162.43 13.51L160.82 13.51L160.82 16.42L161.45 16.78L161.45 23.08L150.73 23.08L150.73 16.98L151.38 16.57C151.36 16.08 151.35 15.69 151.35 15.42L151.35 13.51L148.89 13.51L148.89 15.84C148.89 19.32 147.2 21.75 144.15 22.67C143.22 22.94 142.31 23.08 141.43 23.08L140.37 23.08C138.81 23.08 137.38 22.77 136.09 22.17C135.17 21.69 134.44 21.1 133.9 20.4C133.67 20.72 133.42 21.01 133.14 21.29L133.06 21.36L132.98 21.43C131.58 22.52 129.74 23.08 127.5 23.08L126.46 23.08C122.96 22.99 120.59 21.82 119.37 19.59C118.78 18.63 118.49 17.07 118.49 14.62L118.49 9.86C118.49 7.63 118.75 6.21 119.32 5.25C120.59 2.94 123.07 1.76 126.67 1.76L127.57 1.76C129.19 1.76 130.66 2.09 131.94 2.74L131.94 1.71L146.57 1.71L146.57 1.66L165.57 1.66L165.57 2.67C166.61 2.06 168.03 1.61 169.96 1.61L170.71 1.61C173.46 1.61 175.96 2.28 178.13 3.58L178.21 3.63C179.6 2.39 181.63 1.76 184.26 1.76L185.16 1.76C186.79 1.76 188.25 2.09 189.54 2.74L189.54 1.71L200.22 1.71L200.51 1.71ZM99.95 23.08L99.95 16.98L100.59 16.57C100.58 16.08 100.56 15.69 100.56 15.42L100.56 13.51L98.7 13.51L98.7 23.08L81.67 23.08L81.67 22.12C81.45 22.24 81.22 22.34 81.01 22.43C79.87 22.86 78.64 23.08 77.33 23.08L66.74 23.08L66.74 16.83L67.53 16.34L67.53 9.1L66.74 9.1L66.74 1.71L73.14 1.71C78.89 1.71 80.52 2.05 81.32 2.6C81.44 2.65 81.55 2.71 81.67 2.78L81.67 1.76L95.79 1.76L95.79 1.66L114.79 1.66L114.79 13.51L110.04 13.51L110.04 16.42L110.67 16.78L110.67 23.08L99.95 23.08ZM45.15 23.08L45.15 22.09C43.92 22.75 42.43 23.08 40.71 23.08L39.67 23.08C37.7 23.03 36.09 22.64 34.84 21.9L34.84 23.08L16.82 23.08L16.82 17.16C16.53 17.32 16.23 17.47 15.9 17.59C14.91 17.93 13.91 18.09 12.85 18.1L12.85 23.08L2.09 23.08L2.09 16.79L2.67 16.44L2.67 15.19L2.74 15.19L2.74 8.6L2.09 8.34L2.09 1.61L11.51 1.61C13.7 1.61 15.47 2.02 16.82 2.82L16.82 1.71L25.44 1.71C28.97 1.71 30.27 2.12 30.99 2.5C31.9 2.92 32.66 3.51 33.23 4.23C34.62 2.59 36.85 1.76 39.88 1.76L40.78 1.76C42.4 1.76 43.87 2.09 45.15 2.74L45.15 1.61L54.58 1.61C58.29 1.61 60.81 2.77 62.08 5.06C62.65 5.99 62.95 7.04 62.95 8.11L62.95 11.56C62.95 14.45 61.54 16.59 58.97 17.59C57.98 17.93 56.98 18.09 55.92 18.1L55.92 23.08L45.15 23.08Z" />
			<path id="&lt;Compound Path&gt;" fill-rule="evenodd" class="shp2" d="M4.09 3.61L11.51 3.61C14.45 3.61 16.37 4.42 17.27 6.03C17.68 6.71 17.88 7.4 17.88 8.11L17.88 11.56C17.88 13.64 16.98 15.03 15.18 15.73C14.45 15.98 13.66 16.1 12.8 16.1L10.35 16.1L10.35 17.01C10.35 17.41 10.48 17.68 10.75 17.82C10.79 17.82 10.82 17.86 10.85 17.93L10.85 21.08L4.09 21.08L4.09 17.93C4.48 17.7 4.67 17.45 4.67 17.19C4.72 17.19 4.74 17.07 4.74 16.82L4.74 7.97C4.74 7.48 4.52 7.15 4.09 6.98L4.09 3.61ZM7.89 7.46L7.89 7.53L10.35 7.97L10.35 12.4C10.35 12.45 10.38 12.47 10.42 12.47L11.04 12.47C11.61 12.47 12 12.19 12.21 11.63C12.26 11.4 12.29 11.22 12.29 11.08L12.29 9.11C12.29 8.24 12.02 7.74 11.48 7.61C11.16 7.51 10.61 7.46 9.83 7.46L7.89 7.46ZM18.82 3.71L25.44 3.71C27.85 3.71 29.4 3.91 30.1 4.29C31.72 5.02 32.54 6.37 32.54 8.33C32.54 10.35 31.96 11.61 30.8 12.13C30.8 12.18 30.54 12.29 30.03 12.44L30.03 12.52C30.4 12.52 30.9 12.72 31.52 13.1C31.52 13.15 31.61 13.26 31.78 13.43C32.07 13.76 32.21 14.63 32.21 16.05C32.21 17.16 32.33 17.78 32.58 17.91C32.75 17.99 32.84 18.05 32.84 18.09L32.84 21.08L26.93 21.08C26.74 20.29 26.64 19.16 26.64 17.69L26.64 16.09C26.64 15.32 26.46 14.83 26.1 14.63C25.52 14.39 25.12 14.27 24.9 14.27L24.9 16.6C24.9 17.27 25.02 17.72 25.26 17.95C25.38 18.02 25.47 18.06 25.52 18.06L25.52 21.08L18.82 21.08L18.82 18.06C19.26 17.9 19.48 17.23 19.48 16.05L19.48 8.08C19.48 7.62 19.28 7.29 18.89 7.1L18.82 7.1L18.82 3.71ZM22.46 7.39L22.46 7.47L24.9 7.89L24.9 10.88L25.15 10.88C26.34 10.88 26.93 10.49 26.93 9.72C26.96 9.63 26.97 9.52 26.97 9.39C26.97 8.65 26.79 8.08 26.43 7.69C26.1 7.49 25.4 7.39 24.31 7.39L22.46 7.39ZM39.88 3.76L40.78 3.76C42.34 3.76 43.68 4.12 44.81 4.85C45.8 5.68 46.29 6.84 46.29 8.31L46.29 16.59C46.29 17.9 45.84 18.99 44.95 19.85C43.91 20.67 42.5 21.08 40.71 21.08L39.67 21.08C36.97 21.01 35.19 20.19 34.33 18.63C33.91 17.94 33.7 16.61 33.7 14.62L33.7 9.86C33.7 8.05 33.89 6.85 34.26 6.25C35.16 4.59 37.03 3.76 39.88 3.76ZM39.88 7.44L37.49 7.44L37.49 7.51C38.62 7.72 39.23 7.83 39.31 7.83C39.17 8 39.1 8.3 39.1 8.7L39.1 15.75C39.1 16.68 39.31 17.22 39.74 17.36L40.15 17.43C40.61 17.43 40.88 17.21 40.99 16.77C41.06 16.47 41.1 16 41.1 15.36L41.1 9.16C41.1 8.15 41.02 7.65 40.85 7.65C40.84 7.54 40.63 7.46 40.22 7.41L39.88 7.44ZM47.15 3.61L54.58 3.61C57.52 3.61 59.44 4.42 60.33 6.03C60.74 6.71 60.95 7.4 60.95 8.11L60.95 11.56C60.95 13.64 60.05 15.03 58.24 15.73C57.52 15.98 56.73 16.1 55.86 16.1L53.41 16.1L53.41 17.01C53.41 17.41 53.55 17.68 53.81 17.82C53.85 17.82 53.89 17.86 53.92 17.93L53.92 21.08L47.15 21.08L47.15 17.93C47.54 17.7 47.74 17.45 47.74 17.19C47.79 17.19 47.81 17.07 47.81 16.82L47.81 7.97C47.81 7.48 47.59 7.15 47.15 6.98L47.15 3.61ZM50.96 7.46L50.96 7.53L53.41 7.97L53.41 12.4C53.42 12.45 53.44 12.47 53.48 12.47L54.11 12.47C54.68 12.47 55.07 12.19 55.28 11.63C55.33 11.4 55.36 11.22 55.36 11.08L55.36 9.11C55.36 8.24 55.09 7.74 54.55 7.61C54.22 7.51 53.67 7.46 52.9 7.46L50.96 7.46ZM68.74 3.71L73.14 3.71C77.5 3.71 79.88 3.92 80.27 4.33C81.06 4.63 81.66 5.16 82.06 5.93C82.32 6.5 82.45 7.2 82.45 8.04C82.45 9.88 81.85 11.1 80.64 11.69C80.22 11.88 79.88 11.98 79.62 11.98L79.62 12.02C80 12.02 80.53 12.2 81.22 12.55C82.26 13.3 82.78 14.4 82.78 15.84L82.78 16.13C82.78 18.43 81.95 19.91 80.27 20.57C79.38 20.91 78.4 21.08 77.33 21.08L68.74 21.08L68.74 17.95C69.09 17.73 69.32 17.52 69.42 17.32C69.5 16.98 69.53 16.7 69.53 16.49L69.53 8.63C69.53 7.95 69.4 7.49 69.13 7.25C68.94 7.15 68.81 7.1 68.74 7.1L68.74 3.71ZM72.38 7.43L72.38 7.5L74.82 7.93L74.82 10.55L75.22 10.55C76.43 10.55 77.04 10.21 77.04 9.54C77.06 9.44 77.07 9.35 77.07 9.25C77.07 8.72 76.91 8.24 76.6 7.79C76.25 7.55 75.74 7.43 75.07 7.43L72.38 7.43ZM72.38 13.72L72.38 13.8L74.82 14.24L74.82 17.4L75.25 17.4C76.24 17.4 76.83 17.09 77 16.46C77.05 16.18 77.07 15.96 77.07 15.8C77.07 14.85 76.86 14.23 76.45 13.94C76.2 13.79 75.58 13.72 74.6 13.72L72.38 13.72ZM83.67 3.76L96.7 3.76L96.7 9.83L91.61 9.83L91.61 8.59C91.61 8.14 91.3 7.81 90.68 7.61C90.55 7.59 90.42 7.58 90.31 7.58L87.33 7.58L87.33 7.65L89.73 8.08L89.73 10.77L93.22 10.77L93.22 14.11L89.73 14.11L89.73 17.44L90.31 17.44C91.05 17.44 91.49 17.08 91.61 16.36L91.61 14.9L96.7 14.9L96.7 21.08L83.67 21.08L83.67 17.95C84.01 17.74 84.18 17.43 84.18 17.01L84.18 8.73C84.18 7.72 84.01 7.06 83.67 6.78L83.67 3.76ZM97.79 3.66L112.79 3.66L112.79 11.51L108.81 11.51L108.81 8.3C108.81 7.86 108.54 7.61 108.01 7.54L105.6 7.54L105.6 7.61L108.04 8.04L108.04 16.44C108.04 17.2 108.25 17.7 108.67 17.94L108.67 21.08L101.95 21.08L101.95 18.08C102.39 17.8 102.6 17.34 102.6 16.7C102.58 16.12 102.56 15.7 102.56 15.42L102.56 7.54L102.53 7.54C102.04 7.54 101.8 7.84 101.8 8.44C101.78 8.59 101.77 8.88 101.77 9.32L101.77 11.51L97.79 11.51L97.79 3.66ZM126.67 3.76L127.57 3.76C129.13 3.76 130.48 4.12 131.6 4.85C132.59 5.68 133.08 6.84 133.08 8.31L133.08 16.59C133.08 17.9 132.63 18.99 131.74 19.85C130.7 20.67 129.29 21.08 127.5 21.08L126.46 21.08C123.76 21.01 121.98 20.19 121.12 18.63C120.7 17.94 120.49 16.61 120.49 14.62L120.49 9.86C120.49 8.05 120.68 6.85 121.05 6.25C121.95 4.59 123.82 3.76 126.67 3.76ZM126.67 7.44L124.28 7.44L124.28 7.51C125.41 7.72 126.02 7.83 126.1 7.83C125.96 8 125.89 8.3 125.89 8.7L125.89 15.75C125.89 16.68 126.1 17.22 126.53 17.36L126.95 17.43C127.4 17.43 127.68 17.21 127.78 16.77C127.85 16.47 127.89 16 127.89 15.36L127.89 9.16C127.89 8.15 127.81 7.65 127.64 7.65C127.64 7.54 127.43 7.46 127.02 7.41L126.67 7.44ZM133.94 3.71L140.54 3.71L140.54 6.82C140.11 7.06 139.9 7.52 139.9 8.2L139.9 15.69C139.9 16.46 140.03 16.92 140.29 17.08C140.45 17.2 140.7 17.27 141.04 17.29C141.63 17.29 141.93 16.94 141.93 16.23L141.93 7.92C141.93 7.41 141.73 7.05 141.32 6.85L141.32 3.71L147.67 3.71L147.67 6.89L145.28 6.89L145.28 6.96L147.2 7.32C146.99 7.46 146.89 8.52 146.89 10.48L146.89 15.84C146.89 18.45 145.78 20.09 143.57 20.76C142.84 20.97 142.13 21.08 141.43 21.08L140.37 21.08C139.1 21.08 137.96 20.84 136.94 20.36C135.97 19.85 135.32 19.17 134.98 18.3C134.77 17.87 134.63 17.16 134.55 16.19C134.57 15.56 134.58 15.04 134.58 14.62L134.58 8.67C134.58 7.69 134.39 7.1 134.01 6.92L133.94 6.82L133.94 3.71ZM148.57 3.66L163.57 3.66L163.57 11.51L159.59 11.51L159.59 8.3C159.59 7.86 159.32 7.61 158.79 7.54L156.38 7.54L156.38 7.61L158.82 8.04L158.82 16.44C158.82 17.2 159.03 17.7 159.45 17.94L159.45 21.08L152.73 21.08L152.73 18.08C153.17 17.8 153.39 17.34 153.39 16.7C153.36 16.12 153.35 15.7 153.35 15.42L153.35 7.54L153.32 7.54C152.83 7.54 152.58 7.84 152.58 8.44C152.56 8.59 152.55 8.88 152.55 9.32L152.55 11.51L148.57 11.51L148.57 3.66ZM169.96 3.61L170.71 3.61C173.11 3.61 175.24 4.17 177.1 5.3L177.1 10.14L171.78 10.14L171.78 8.4C171.78 7.87 171.63 7.54 171.32 7.4C171.32 7.34 171.17 7.3 170.89 7.29L168.32 7.29L168.32 7.37C169.48 7.58 170.09 7.69 170.17 7.69C170.01 7.92 169.92 8.21 169.92 8.54L169.92 16.47C169.92 17.06 170.21 17.43 170.78 17.57L171 17.57C171.52 17.57 171.78 17.16 171.78 16.33L171.78 13.76L177.1 13.76L177.1 19.25C176.78 19.78 176.02 20.24 174.82 20.61C173.47 20.92 172.33 21.08 171.39 21.08L170.53 21.08C168.88 21.08 167.44 20.67 166.21 19.86C165.5 19.35 165 18.66 164.72 17.79C164.52 17.35 164.43 16.38 164.43 14.86L164.43 10.01C164.43 7.74 164.7 6.3 165.24 5.68C166.13 4.3 167.71 3.61 169.96 3.61ZM184.26 3.76L185.16 3.76C186.72 3.76 188.07 4.12 189.2 4.85C190.18 5.68 190.67 6.84 190.67 8.31L190.67 16.59C190.67 17.9 190.23 18.99 189.34 19.85C188.29 20.67 186.88 21.08 185.1 21.08L184.05 21.08C181.35 21.01 179.57 20.19 178.71 18.63C178.3 17.94 178.09 16.61 178.09 14.62L178.09 9.86C178.09 8.05 178.27 6.85 178.64 6.25C179.54 4.59 181.41 3.76 184.26 3.76ZM184.26 7.44L181.87 7.44L181.87 7.51C183 7.72 183.61 7.83 183.69 7.83C183.55 8 183.48 8.3 183.48 8.7L183.48 15.75C183.48 16.68 183.7 17.22 184.12 17.36L184.54 17.43C184.99 17.43 185.27 17.21 185.37 16.77C185.45 16.47 185.48 16 185.48 15.36L185.48 9.16C185.48 8.15 185.4 7.65 185.23 7.65C185.23 7.54 185.02 7.46 184.61 7.41L184.26 7.44ZM191.54 3.71L198.56 3.71C198.61 3.96 199.19 6.18 200.31 10.37L200.35 10.37L202.06 3.71L208.79 3.71L208.79 6.77L206.35 6.77L206.35 6.84L208.35 7.21C208.21 7.41 208.13 7.95 208.13 8.81L208.13 16.38C208.13 17.07 208.24 17.5 208.46 17.69C208.68 17.84 208.79 17.92 208.79 17.95L208.79 21.08L202.24 21.08L202.24 17.95C202.65 17.7 202.86 17.42 202.86 17.1L202.86 11.98L202.82 11.98L200.49 21.08L198.85 21.08L196.48 12.02L196.45 12.02L196.45 14.59C196.45 16.47 196.51 17.4 196.63 17.4C196.65 17.53 196.81 17.71 197.1 17.95L197.1 21.08L191.54 21.08L191.54 17.95C191.54 17.92 191.67 17.85 191.93 17.73C192.06 17.64 192.15 17.42 192.19 17.07C192.17 16.2 192.15 15.57 192.15 15.18L192.15 9.65C192.15 9.21 192.17 8.59 192.19 7.79C192.19 7.43 192.07 7.14 191.82 6.92C191.63 6.83 191.54 6.77 191.54 6.73L191.54 3.71ZM209.84 3.76L222.88 3.76L222.88 9.83L217.79 9.83L217.79 8.59C217.79 8.14 217.48 7.81 216.85 7.61C216.72 7.59 216.6 7.58 216.48 7.58L213.51 7.58L213.51 7.65L215.91 8.08L215.91 10.77L219.39 10.77L219.39 14.11L215.91 14.11L215.91 17.44L216.48 17.44C217.23 17.44 217.66 17.08 217.79 16.36L217.79 14.9L222.88 14.9L222.88 21.08L209.84 21.08L209.84 17.95C210.18 17.74 210.35 17.43 210.35 17.01L210.35 8.73C210.35 7.72 210.18 7.06 209.84 6.78L209.84 3.76ZM229.67 3.71C232.2 3.71 234.36 4.28 236.15 5.42L236.19 5.42L236.19 9.46L231.23 9.46L231.23 8.46C231.23 7.68 230.86 7.29 230.12 7.29L227.89 7.29L227.89 7.37C228.9 7.55 229.46 7.65 229.56 7.65C229.42 7.88 229.35 8.07 229.35 8.21L229.35 8.39C229.35 9.27 230.16 9.85 231.8 10.12C233.13 10.4 234.09 10.71 234.66 11.05C235.65 11.65 236.31 12.5 236.64 13.6C236.79 14.11 236.86 14.56 236.86 14.94L236.86 15.51C236.86 16.51 236.6 17.58 236.08 18.71C235.65 19.38 235.11 19.88 234.48 20.19C233.56 20.66 232.72 20.9 231.97 20.9C231.28 21.02 230.57 21.08 229.85 21.08L229.81 21.08C228.6 21.08 227.11 20.74 225.35 20.08C224.58 19.68 224.16 19.32 224.1 18.98L224.1 14.73L229.39 14.73L229.39 15.94C229.39 16.81 229.71 17.25 230.34 17.25C230.98 17.17 231.3 16.93 231.3 16.54C231.34 16.54 231.37 16.36 231.37 16.01L231.37 15.62C231.37 14.86 230.61 14.3 229.1 13.92C227.28 13.45 226.23 13.09 225.94 12.85C224.62 12.2 223.96 10.82 223.96 8.71L223.96 8.32C223.96 6.32 224.92 4.93 226.83 4.17C227.71 3.87 228.66 3.71 229.67 3.71Z" />
			<g id="&lt;Group&gt;">
				<path id="&lt;Path&gt;" class="shp3" d="M235.69 13.89C235.8 14.29 235.86 14.65 235.86 14.94L235.86 15.51C235.86 16.34 235.64 17.26 235.2 18.22C234.87 18.72 234.49 19.07 234.04 19.29C233.25 19.69 232.55 19.9 231.97 19.9L231.88 19.9L231.8 19.91C231.17 20.02 230.51 20.08 229.85 20.08L229.81 20.08C228.74 20.08 227.37 19.77 225.75 19.17C225.37 18.96 225.18 18.82 225.1 18.74L225.1 15.73L228.39 15.73L228.39 15.94C228.39 17.65 229.4 18.25 230.34 18.25L230.41 18.25L230.47 18.25C231.92 18.06 232.23 17.2 232.29 16.73C232.34 16.53 232.37 16.29 232.37 16.01L232.37 15.62C232.37 14.35 231.35 13.45 229.34 12.95C227.08 12.36 226.63 12.11 226.56 12.07L226.47 11.99L226.38 11.96C226.17 11.85 225.7 11.61 225.36 10.88L230.66 10.88C230.95 10.97 231.27 11.05 231.63 11.11C233.11 11.42 233.83 11.72 234.16 11.91C234.92 12.38 235.42 13.03 235.69 13.89Z" />
				<path id="&lt;Path&gt;" class="shp4" d="M92.61 15.9L95.7 15.9L95.7 20.08L84.67 20.08L84.67 18.41C85 18.04 85.18 17.56 85.18 17.01L85.18 10.88L88.73 10.88L88.73 11.77L92.22 11.77L92.22 13.11L88.73 13.11L88.73 18.44L90.31 18.44C91.53 18.44 92.39 17.73 92.6 16.53L92.61 16.44L92.61 15.9Z" />
				<path id="&lt;Compound Path&gt;" fill-rule="evenodd" class="shp5" d="M81.78 15.84L81.78 16.13C81.78 18.61 80.71 19.32 79.91 19.64C79.15 19.93 78.28 20.08 77.33 20.08L69.74 20.08L69.74 18.47C70 18.25 70.19 18.02 70.32 17.77L70.38 17.65L70.4 17.53C70.49 17.11 70.53 16.77 70.53 16.49L70.53 10.88L73.82 10.88L73.82 11.55L75.22 11.55C76.38 11.55 77.06 11.26 77.47 10.88L79.98 10.88C79.73 10.97 79.62 10.98 79.62 10.98L78.62 10.98L78.62 12.98L79.62 13.02C79.67 13.02 79.96 13.04 80.69 13.41C81.44 13.97 81.78 14.74 81.78 15.84ZM78.07 15.8C78.07 14.49 77.73 13.62 77.03 13.12C76.52 12.82 75.84 12.72 74.6 12.72L71.38 12.72L71.38 14.63L73.82 15.07L73.82 18.4L75.25 18.4C77.21 18.4 77.79 17.35 77.96 16.72L77.99 16.62C78.04 16.29 78.07 16.02 78.07 15.8Z" />
				<path id="&lt;Path&gt;" class="shp6" d="M59.95 10.88L59.95 11.56C59.95 13.22 59.29 14.25 57.88 14.8C57.3 14.99 56.61 15.1 55.86 15.1L52.41 15.1L52.41 17.01C52.41 17.69 52.66 18.12 52.92 18.39L52.92 20.08L48.15 20.08L48.15 18.43C48.5 18.11 48.65 17.78 48.71 17.49C48.77 17.31 48.81 17.1 48.81 16.82L48.81 10.88L52.41 10.88L52.41 12.47L52.54 13.4L53.48 13.47L54.11 13.47C55.1 13.47 55.87 12.93 56.22 11.97L56.24 11.91L56.25 11.86C56.32 11.55 56.36 11.3 56.36 11.08L56.36 10.88L59.95 10.88Z" />
				<path id="&lt;Path&gt;" class="shp7" d="M16.88 10.88L16.88 11.56C16.88 13.22 16.23 14.25 14.81 14.8C14.24 14.99 13.54 15.1 12.8 15.1L9.35 15.1L9.35 17.01C9.35 17.69 9.59 18.12 9.85 18.39L9.85 20.08L5.09 20.08L5.09 18.43C5.43 18.11 5.59 17.78 5.64 17.49C5.7 17.31 5.74 17.1 5.74 16.82L5.74 10.88L9.35 10.88L9.35 12.47L9.47 13.4L10.42 13.47L11.04 13.47C12.03 13.47 12.8 12.93 13.15 11.97L13.17 11.92L13.18 11.86C13.25 11.55 13.29 11.3 13.29 11.08L13.29 10.88L16.88 10.88Z" />
				<path id="&lt;Path&gt;" class="shp8" d="M31.21 16.05C31.21 17.22 31.32 18.12 31.84 18.6L31.84 20.08L27.77 20.08C27.69 19.44 27.64 18.64 27.64 17.69L27.64 16.09C27.64 14.93 27.28 14.14 26.58 13.76C25.75 13.4 25.27 13.27 24.9 13.27L23.9 13.27L23.9 16.6C23.9 17.53 24.1 18.19 24.52 18.62L24.52 20.08L19.82 20.08L19.82 18.56C20.48 17.83 20.48 16.58 20.48 16.05L20.48 10.88L23.9 10.88L23.9 11.88L25.15 11.88C26.54 11.88 27.22 11.4 27.58 10.88L30.85 10.88C30.71 11.02 30.56 11.13 30.39 11.21L29.82 11.46C29.8 11.47 29.54 11.55 29.03 11.71L29.03 13.44L30.03 13.52C30.05 13.52 30.27 13.53 30.79 13.83C30.86 13.92 30.94 14 31.01 14.08C31.06 14.18 31.21 14.64 31.21 16.05Z" />
				<path id="&lt;Path&gt;" class="shp9" d="M45.29 10.88L45.29 16.59C45.29 17.61 44.96 18.43 44.29 19.1C43.44 19.75 42.23 20.08 40.71 20.08L39.67 20.08C37.35 20.02 35.89 19.39 35.21 18.15C35 17.81 34.7 16.97 34.7 14.62L34.7 10.88L38.1 10.88C38.1 12.27 38.1 13.89 38.1 15.75C38.1 17.15 38.54 18.01 39.41 18.31L39.49 18.33L40.07 18.43L40.15 18.43C41.07 18.43 41.75 17.9 41.96 17C42.05 16.62 42.1 16.08 42.1 15.36L42.1 10.88L45.29 10.88Z" />
				<path id="&lt;Path&gt;" class="shp10" d="M172.78 14.76L176.1 14.76L176.1 18.9C175.9 19.08 175.46 19.36 174.52 19.65C173.33 19.93 172.25 20.08 171.39 20.08L170.53 20.08C169.06 20.08 167.83 19.73 166.76 19.03C166.26 18.66 165.89 18.15 165.67 17.48C165.6 17.31 165.43 16.82 165.43 14.86L165.43 10.88L168.92 10.88C168.92 12.45 168.92 14.31 168.92 16.47C168.92 17.51 169.52 18.28 170.53 18.54L170.65 18.57L171 18.57C171.3 18.57 172.78 18.46 172.78 16.33L172.78 14.76Z" />
				<path id="&lt;Path&gt;" class="shp11" d="M189.67 10.88L189.67 16.59C189.67 17.61 189.35 18.43 188.68 19.1C187.82 19.75 186.62 20.08 185.1 20.08L184.05 20.08C181.74 20.02 180.27 19.39 179.59 18.15C179.39 17.81 179.09 16.97 179.09 14.62L179.09 10.88L182.48 10.88C182.48 12.27 182.48 13.89 182.48 15.75C182.48 17.15 182.92 18.01 183.79 18.31L183.87 18.33L184.45 18.43L184.54 18.43C185.46 18.43 186.13 17.9 186.35 17C186.44 16.62 186.48 16.08 186.48 15.36L186.48 10.88L189.67 10.88Z" />
				<path id="&lt;Path&gt;" class="shp12" d="M207.13 16.38C207.13 17.01 207.2 17.91 207.79 18.43L207.79 20.08L203.24 20.08L203.24 18.45C203.74 17.98 203.86 17.48 203.86 17.1L203.86 10.98L202.08 10.98L201.85 11.73L199.71 20.08L199.63 20.08L197.26 11.02L195.48 11.02L195.45 12.02L195.45 14.59C195.45 16.6 195.45 17.69 195.9 18.15C195.96 18.23 196.03 18.31 196.1 18.39L196.1 20.08L192.54 20.08L192.54 18.53C193 18.18 193.13 17.61 193.18 17.21L193.2 17.13L193.19 17.04C193.17 16.18 193.15 15.56 193.15 15.18L193.15 10.88L199.41 10.88L199.54 11.37L201.08 11.37L201.24 10.88L207.13 10.88L207.13 16.38Z" />
				<path id="&lt;Path&gt;" class="shp13" d="M218.79 15.9L221.88 15.9L221.88 20.08L210.84 20.08L210.84 18.41C211.18 18.04 211.35 17.56 211.35 17.01L211.35 10.88L214.91 10.88L214.91 11.77L218.39 11.77L218.39 13.11L214.91 13.11L214.91 18.44L216.48 18.44C217.71 18.44 218.57 17.73 218.77 16.53L218.79 16.44L218.79 15.9Z" />
				<path id="&lt;Path&gt;" class="shp14" d="M107.04 16.44C107.04 17.4 107.32 18.02 107.67 18.4L107.67 20.08L102.95 20.08L102.95 18.54C103.3 18.16 103.6 17.57 103.6 16.7C103.58 16.1 103.56 15.69 103.56 15.42L103.56 10.88L107.04 10.88L107.04 16.44Z" />
				<path id="&lt;Path&gt;" class="shp15" d="M132.08 10.88L132.08 16.59C132.08 17.61 131.75 18.43 131.09 19.1C130.23 19.75 129.03 20.08 127.5 20.08L126.46 20.08C124.14 20.02 122.68 19.39 122 18.15C121.8 17.81 121.49 16.97 121.49 14.62L121.49 10.88L124.89 10.88C124.89 12.27 124.89 13.89 124.89 15.75C124.89 17.15 125.33 18.01 126.2 18.31L126.28 18.33L126.86 18.43L126.95 18.43C127.86 18.43 128.54 17.9 128.75 17C128.85 16.62 128.89 16.08 128.89 15.36L128.89 10.88L132.08 10.88Z" />
				<path id="&lt;Path&gt;" class="shp16" d="M145.89 10.88L145.89 15.84C145.89 18 145.06 19.26 143.28 19.8C142.66 19.98 142.03 20.08 141.43 20.08L140.37 20.08C139.26 20.08 138.25 19.87 137.36 19.45C136.65 19.08 136.16 18.58 135.91 17.94C135.8 17.69 135.64 17.24 135.55 16.16C135.57 15.55 135.58 15.04 135.58 14.62L135.58 10.88L138.9 10.88L138.9 15.69C138.9 16.43 138.99 17.46 139.76 17.94C140.01 18.13 140.43 18.26 140.98 18.29C140.99 18.29 140.99 18.29 140.99 18.29C141.92 18.29 142.93 17.75 142.93 16.23L142.93 10.88L145.89 10.88Z" />
				<path id="&lt;Path&gt;" class="shp17" d="M157.82 16.44C157.82 17.4 158.11 18.02 158.45 18.4L158.45 20.08L153.73 20.08L153.73 18.54C154.09 18.16 154.39 17.57 154.39 16.7C154.36 16.1 154.35 15.69 154.35 15.42L154.35 10.88L157.82 10.88L157.82 16.44Z" />
			</g>
		</g>
	</g>
</svg>