<?xml version="1.0" encoding="utf-8"?>
<!-- Generator: Adobe Illustrator 16.0.0, SVG Export Plug-In . SVG Version: 6.00 Build 0)  -->
<!DOCTYPE svg PUBLIC "-//W3C//DTD SVG 1.1//EN" "http://www.w3.org/Graphics/SVG/1.1/DTD/svg11.dtd">
<svg version="1.1" id="Layer_1" xmlns="http://www.w3.org/2000/svg" xmlns:xlink="http://www.w3.org/1999/xlink" x="0px" y="0px"
	 width="272.636px" height="311.712px" viewBox="0 0 272.636 311.712" enable-background="new 0 0 272.636 311.712"
	 xml:space="preserve">
<g>
	<defs>
		<rect id="SVGID_1_" x="0" y="0" width="272.635" height="311.711"/>
	</defs>
	<clipPath id="SVGID_2_">
		<use xlink:href="#SVGID_1_"  overflow="visible"/>
	</clipPath>
	<g clip-path="url(#SVGID_2_)">
		<defs>
			<rect id="SVGID_3_" x="0" y="0" width="272.635" height="311.711"/>
		</defs>
		<clipPath id="SVGID_4_">
			<use xlink:href="#SVGID_3_"  overflow="visible"/>
		</clipPath>
		<path clip-path="url(#SVGID_4_)" fill="#B51F2E" d="M210.363,0.364H62.104c-4.73,0-3.795,18.483-3.795,27.728h155.849
			C214.158,18.847,215.832,0.364,210.363,0.364"/>
		<path clip-path="url(#SVGID_4_)" fill="#CCCCCC" d="M58.236,17.646c1.032-0.043,2.081-0.09,3.14-0.133
			c0.036-7.057,0.428-14.295,2.377-16.482c-0.47-0.433-1.016-0.666-1.649-0.666C58.841,0.365,58.272,9.157,58.236,17.646"/>
		<path clip-path="url(#SVGID_4_)" fill="#CCCCCC" d="M210.363,0.364c-0.586,0-1.1,0.2-1.545,0.576
			c2.242,2.048,2.52,9.229,2.426,16.299c1.059,0.033,2.104,0.073,3.139,0.11C214.5,8.954,214.092,0.364,210.363,0.364"/>
		<path clip-path="url(#SVGID_4_)" fill="#C1DC87" d="M69.881,4.689c44.639-2.244,88.978-2.497,133.125-1.436
			c0.633-1.78,1.574-2.889,2.949-2.889H66.513C68.227,0.365,69.269,2.092,69.881,4.689"/>
		<g opacity="0.2" clip-path="url(#SVGID_4_)">
			<g>
				<defs>
					<rect id="SVGID_5_" x="0" y="16.329" width="272.635" height="290.922"/>
				</defs>
				<clipPath id="SVGID_6_">
					<use xlink:href="#SVGID_5_"  overflow="visible"/>
				</clipPath>
				<path clip-path="url(#SVGID_6_)" fill="#010101" d="M233.082,23.582c-57.467-9.672-136.062-9.672-193.529,0
					C19.77,26.911,4.381,45.109,3.112,67.4c-4.242,74.244-4.151,125.777,0.289,195.57c1.221,19.172,15.473,36.777,31.872,41.615
					c12.05,3.553,190.037,3.553,202.086,0c16.4-4.844,30.652-22.443,31.873-41.615c4.441-69.793,4.531-121.326,0.295-195.57
					C268.254,45.109,252.871,26.911,233.082,23.582"/>
			</g>
		</g>
		<path clip-path="url(#SVGID_4_)" fill="#FFFFFF" d="M232.135,18.361c-57.227-9.672-134.407-9.672-191.628,0
			C20.798,21.69,5.481,39.888,4.211,62.18c-4.22,74.244-4.135,125.776,0.295,195.569c1.21,19.172,15.408,36.771,31.738,41.609
			c11.996,3.555,188.158,3.555,200.148,0c16.336-4.832,30.521-22.438,31.738-41.609c4.424-69.793,4.516-121.325,0.295-195.569
			C267.16,39.888,251.84,21.69,232.135,18.361"/>
	</g>
	<g clip-path="url(#SVGID_2_)">
		<defs>
			<path id="SVGID_7_" d="M45.848,21.85c-19.142,3.235-34.026,20.912-35.252,42.562C6.493,136.529,6.579,183.505,10.878,251.3
				c1.178,18.627,14.965,35.721,30.828,40.42c11.654,3.453,177.569,3.453,189.223,0c15.863-4.699,29.65-21.805,30.828-40.42
				c4.295-67.801,4.385-114.771,0.289-186.888c-1.232-21.645-16.117-39.327-35.258-42.562c-27.793-4.698-59.133-7.046-90.471-7.046
				C104.979,14.803,73.641,17.151,45.848,21.85"/>
		</defs>
		<clipPath id="SVGID_8_">
			<use xlink:href="#SVGID_7_"  overflow="visible"/>
		</clipPath>
		
			<radialGradient id="SVGID_9_" cx="0" cy="311.7119" r="1" gradientTransform="matrix(0 268.9049 294.8399 0 -91772.8672 -44.7881)" gradientUnits="userSpaceOnUse">
			<stop  offset="0" style="stop-color:#1B539D"/>
			<stop  offset="1" style="stop-color:#081B2F"/>
		</radialGradient>
		<rect x="6.493" y="14.803" clip-path="url(#SVGID_8_)" fill="url(#SVGID_9_)" width="259.65" height="280.37"/>
	</g>
	<g clip-path="url(#SVGID_2_)">
		<defs>
			<rect id="SVGID_10_" x="0" y="0" width="272.635" height="311.711"/>
		</defs>
		<clipPath id="SVGID_11_">
			<use xlink:href="#SVGID_10_"  overflow="visible"/>
		</clipPath>
		<path clip-path="url(#SVGID_11_)" fill="#081B2F" d="M254.688,235.774c-1.184,18.627-14.971,35.721-30.832,40.42
			c-11.648,3.451-166.35,3.938-177.998,0.492c-15.864-4.697-29.649-21.799-30.833-40.426c-3.439-54.258-6.845-82.895-5.961-161.725
			C6.6,153.629,7.206,193.376,10.879,251.3c1.178,18.627,14.969,35.723,30.828,40.42c11.654,3.451,177.569,3.451,189.223,0
			c15.863-4.697,29.65-21.805,30.826-40.42c3.842-60.561,4.328-108.845,1.457-187.287
			C263.883,143.136,258.281,179.06,254.688,235.774"/>
	</g>
	<g clip-path="url(#SVGID_2_)">
		<defs>
			<rect id="SVGID_12_" x="0" y="0" width="272.635" height="311.711"/>
		</defs>
		<clipPath id="SVGID_13_">
			<use xlink:href="#SVGID_12_"  overflow="visible"/>
		</clipPath>
		<g opacity="0.2" clip-path="url(#SVGID_13_)">
			<g>
				<defs>
					<rect id="SVGID_14_" x="64.792" y="15.377" width="142.884" height="25.493"/>
				</defs>
				<clipPath id="SVGID_15_">
					<use xlink:href="#SVGID_14_"  overflow="visible"/>
				</clipPath>
				<path clip-path="url(#SVGID_15_)" fill="#010101" d="M65.207,16.472c-0.069,5.19-0.416,15.347-0.416,17.764
					c0,3.648,3.123,6.634,6.941,6.634h64.502h64.504c3.814,0,6.938-2.986,6.938-6.634c0-2.457-0.373-12.527-0.438-17.81
					C164.455,15.084,105.987,14.957,65.207,16.472"/>
			</g>
		</g>
		<path clip-path="url(#SVGID_13_)" fill="#FFFFFF" d="M62.104,0c6.375,0,3.991,24.009,3.991,30.443
			c0,3.749,3.067,6.812,6.815,6.812h63.326h63.324c3.744,0,6.811-3.063,6.811-6.812c0-6.434-2.383-30.443,3.992-30.443h-74.127
			H62.104z"/>
		<path clip-path="url(#SVGID_13_)" fill="#E73545" d="M66.513,0c5.995,0,3.755,21.119,3.755,26.778
			c0,3.296,2.883,5.993,6.404,5.993h59.564h59.557c3.523,0,6.406-2.697,6.406-5.993c0-5.659-2.24-26.778,3.754-26.778h-69.717
			H66.513z"/>
		<path clip-path="url(#SVGID_13_)" fill="#E6E6E5" d="M199.561,36.073h-63.324H72.911c-3.625,0-6.612-2.866-6.804-6.445
			c-0.007,0.297-0.011,0.569-0.011,0.815c0,3.749,3.067,6.812,6.815,6.812h63.326h63.324c3.744,0,6.811-3.063,6.811-6.812
			c0-0.246-0.004-0.518-0.01-0.815C206.166,33.208,203.182,36.073,199.561,36.073"/>
		<path clip-path="url(#SVGID_13_)" fill="#CF3143" d="M130.399,27.728c-20.15-1.112-39.083-3.203-56.646-6.389
			c-1.089-0.196-2.174-0.399-3.253-0.605c-0.01,0.226-0.02,0.445-0.03,0.666c-0.103,2.26-0.203,4.171-0.203,5.379
			c0,0.323,0.027,0.639,0.08,0.949c0.489,2.85,3.146,5.043,6.324,5.043h59.565h59.559c3.088,0,5.689-2.073,6.281-4.807
			C176.805,28.993,152.844,28.966,130.399,27.728"/>
	</g>
	<g clip-path="url(#SVGID_2_)">
		<defs>
			<rect id="SVGID_16_" x="0" y="0" width="272.635" height="311.711"/>
		</defs>
		<clipPath id="SVGID_17_">
			<use xlink:href="#SVGID_16_"  overflow="visible"/>
		</clipPath>
	</g>
</g>
</svg>
