<?xml version="1.0" encoding="utf-8"?>
<!-- Generator: Adobe Illustrator 16.0.0, SVG Export Plug-In . SVG Version: 6.00 Build 0)  -->
<!DOCTYPE svg PUBLIC "-//W3C//DTD SVG 1.1//EN" "http://www.w3.org/Graphics/SVG/1.1/DTD/svg11.dtd">
<svg version="1.1" id="Layer_1" xmlns="http://www.w3.org/2000/svg" xmlns:xlink="http://www.w3.org/1999/xlink" x="0px" y="0px"
	 width="111.751px" height="24.579px" viewBox="0 0 111.751 24.579" enable-background="new 0 0 111.751 24.579"
	 xml:space="preserve">
<g>
	<path fill="#FFFFFF" d="M111.407,12.012l-0.021-0.069c-0.082-0.266-0.176-0.525-0.283-0.778V1.676h-2.582
		c-2.061-1.081-4.455-1.628-7.117-1.628c-1.348,0-2.641,0.212-3.846,0.629l-0.154,0.056c-0.643,0.258-1.234,0.575-1.768,0.95
		c-2.082-1.085-4.25-1.635-6.461-1.635H88.46c-0.975,0-1.887,0.104-2.729,0.311V0.048H71.446V0.029h-7.365V0H27.646v0.096H14.152
		V0.57c-1.321-0.347-2.736-0.522-4.232-0.522c-1.347,0-2.641,0.212-3.846,0.629L5.922,0.733C2.794,1.982,1,4.602,1,7.921v0.371
		c0,0.818,0.079,1.583,0.235,2.291H1.134v7.841l0.054,0.303c0.388,2.158,2.362,3.179,3.01,3.514l0.097,0.05l0.274,0.116
		c2.102,0.789,3.895,1.173,5.484,1.173h0.038c0.794,0,1.586-0.06,2.356-0.179c0.558-0.027,1.128-0.12,1.705-0.279v0.458h30.829
		v-8.476l-0.599-0.342v-0.328h2.992v0.273c0,0.078,0.001,0.165,0.003,0.262l-0.593,0.377v8.233h38.318v-0.466
		c1,0.311,2.121,0.466,3.357,0.466h0.543c1.805,0,3.574-0.274,5.256-0.813l0.107-0.035c0.482-0.174,0.9-0.344,1.268-0.514
		c0.016,0.008,0.031,0.016,0.047,0.023l0.096,0.05l0.277,0.116c2.1,0.789,3.893,1.173,5.482,1.173h0.037
		c0.793,0,1.586-0.06,2.357-0.179c1.164-0.057,2.385-0.404,3.615-1.028c1.176-0.581,2.154-1.477,2.908-2.661l0.125-0.195
		l0.098-0.207c0.711-1.535,1.074-3.055,1.074-4.516v-0.544C111.751,13.551,111.638,12.82,111.407,12.012"/>
	<path fill="#0F1B30" d="M109.851,12.457l-0.01-0.037c-0.176-0.569-0.416-1.091-0.725-1.565h0.369V3.294h-1.375
		c-1.902-1.081-4.156-1.627-6.707-1.627c-1.166,0-2.281,0.181-3.316,0.539l-0.082,0.03c-0.875,0.35-1.611,0.824-2.201,1.403
		c-2.127-1.308-4.357-1.972-6.629-1.972H88.46c-1.914,0-3.318,0.451-4.346,1.089V1.667h-9.027v0.104
		c-0.189-0.067-0.406-0.104-0.654-0.104h-4.602v-0.02h-7.367V1.619h-15.16h-2.879h-15.16v0.095H15.77v1.145
		c-1.712-0.79-3.672-1.192-5.85-1.192c-1.166,0-2.283,0.181-3.317,0.539l-0.082,0.03C4.004,3.241,2.618,5.261,2.618,7.922v0.371
		c0,1.76,0.413,3.014,0.995,3.908H2.751v6.078l0.029,0.162c0.222,1.23,1.339,1.938,2.16,2.361l0.097,0.051l0.101,0.037
		c1.916,0.721,3.524,1.071,4.915,1.071h0.038c0.743,0,1.481-0.06,2.197-0.175c0.959-0.031,1.992-0.324,3.057-0.865
		c0.146-0.07,0.287-0.152,0.425-0.236v1.276h16.155v-9.146h1.907v1.891c0,0.264,0.011,0.635,0.032,1.13l-0.622,0.396v5.729h10.122
		v-5.92l-0.6-0.343v-0.022v-2.86h1.66h2.879h1.688v1.891c0,0.264,0.011,0.635,0.032,1.13l-0.622,0.396v5.729h10.122v-5.92
		l-0.6-0.343c0-0.008,0-0.014,0-0.022v-2.86h2.287v3.049l-0.627,0.494v5.603h7.432h2.814h13.654v-1.504
		c1.039,0.862,2.607,1.504,4.975,1.504h0.543c1.637,0,3.24-0.248,4.762-0.735l0.057-0.021c0.801-0.285,1.396-0.558,1.844-0.849
		c0.26,0.176,0.52,0.322,0.76,0.445l0.096,0.051l0.102,0.037c1.916,0.721,3.521,1.071,4.914,1.071h0.037
		c0.742,0,1.48-0.06,2.197-0.175c0.959-0.031,1.992-0.324,3.059-0.865c0.906-0.447,1.668-1.148,2.262-2.082l0.066-0.104l0.051-0.11
		c0.613-1.319,0.924-2.608,0.924-3.833V14.25C110.132,13.704,110.04,13.118,109.851,12.457 M28.594,11.208h0.67v1.155h-0.67V11.208z
		"/>
	<path fill="#E73445" d="M9.92,3.515c2.424,0,4.488,0.542,6.195,1.627h0.038v3.864h-4.739V8.055c0-0.749-0.352-1.123-1.057-1.123
		h-2.13v0.076C9.191,7.185,9.72,7.274,9.816,7.274C9.682,7.502,9.615,7.683,9.615,7.817v0.171c0,0.838,0.781,1.389,2.342,1.656
		c1.275,0.267,2.189,0.561,2.74,0.885c0.939,0.577,1.571,1.389,1.894,2.436c0.14,0.489,0.21,0.918,0.21,1.285v0.543
		c0,0.957-0.251,1.975-0.752,3.055c-0.413,0.646-0.92,1.119-1.523,1.418c-0.888,0.451-1.691,0.676-2.408,0.676
		c-0.66,0.113-1.335,0.171-2.027,0.171h-0.037c-1.155,0-2.576-0.317-4.264-0.951c-0.736-0.381-1.133-0.729-1.189-1.047v-4.063h5.052
		v1.151c0,0.837,0.305,1.255,0.914,1.255c0.609-0.074,0.914-0.304,0.914-0.685c0.044,0,0.067-0.168,0.067-0.505v-0.37
		c0-0.724-0.724-1.267-2.171-1.627c-1.737-0.451-2.743-0.79-3.017-1.019C5.098,11.63,4.467,10.31,4.467,8.293V7.921
		c0-1.916,0.914-3.239,2.741-3.968C8.052,3.661,8.955,3.515,9.92,3.515"/>
	<path fill="#E73445" d="M17.619,3.563h12.457v5.795h-4.863v-1.18c0-0.431-0.298-0.745-0.895-0.942
		c-0.127-0.019-0.244-0.028-0.351-0.028h-2.846v0.066l2.293,0.419v2.569h3.331v3.189h-3.331v3.188h0.553
		c0.71,0,1.126-0.346,1.246-1.037v-1.39h4.863v5.9H17.619v-2.988c0.323-0.196,0.485-0.495,0.485-0.894V8.312
		c0-0.971-0.162-1.593-0.485-1.866V3.563z"/>
	<path fill="#E73445" d="M31.113,3.468h14.342v7.499h-3.807V7.903c0-0.419-0.254-0.663-0.762-0.733h-2.302v0.067l2.331,0.418v8.022
		c0,0.729,0.2,1.209,0.599,1.438v2.998h-6.423v-2.865c0.418-0.266,0.628-0.707,0.628-1.323c-0.025-0.545-0.038-0.952-0.038-1.218
		V7.17h-0.029c-0.469,0-0.704,0.289-0.704,0.866c-0.019,0.14-0.028,0.418-0.028,0.837v2.094h-3.807V3.468z"/>
	<path fill="#E73445" d="M46.273,3.468h14.341v7.499h-3.807V7.903c0-0.419-0.254-0.663-0.762-0.733h-2.302v0.067l2.331,0.418v8.022
		c0,0.729,0.199,1.209,0.6,1.438v2.998h-6.424v-2.865c0.418-0.266,0.627-0.707,0.627-1.323c-0.024-0.545-0.037-0.952-0.037-1.218
		V7.17h-0.028c-0.47,0-0.704,0.289-0.704,0.866c-0.02,0.14-0.027,0.418-0.027,0.837v2.094h-3.808V3.468z"/>
	<path fill="#E73445" d="M61.433,3.496h6.547v2.96h-2.33v0.076l1.912,0.342c-0.113,0.35-0.172,0.781-0.172,1.295v7.204
		c0,1.01,0.197,1.615,0.59,1.816v2.923h-6.547v-2.854c0.418-0.33,0.629-0.759,0.629-1.285V7.474c0-0.482-0.211-0.831-0.629-1.047
		V3.496z"/>
	<path fill="#E73445" d="M68.864,3.515h5.568c0.051,0,0.48,1.066,1.285,3.198c1.09,2.74,1.637,4.133,1.637,4.177h0.037V9.292
		c0-0.47,0.014-1.11,0.039-1.923c0-0.33-0.166-0.653-0.496-0.97V3.515h5.33v2.922h-2.332v0.066l1.914,0.352
		c-0.127,0-0.197,0.718-0.211,2.151v11.106h-5.004c-1.904-4.39-2.973-6.874-3.207-7.451h-0.039v1.427c0,1.58,0.061,2.369,0.18,2.369
		c0,0.129,0.15,0.28,0.449,0.457v3.198h-5.15v-2.997c0.42-0.355,0.629-0.762,0.629-1.219c-0.025-0.704-0.037-1.225-0.037-1.561V9.32
		c0-0.418,0.012-1.009,0.037-1.77c0-0.463-0.209-0.847-0.629-1.151V3.515z"/>
	<path fill="#E73445" d="M88.46,3.515h0.713c1.992,0,3.934,0.6,5.824,1.799v3.997h-4.881V8.254c0-0.729-0.248-1.18-0.742-1.351
		h-2.645V6.97c0.918,0.158,1.506,0.273,1.76,0.342c-0.203,0.261-0.305,0.724-0.305,1.39v6.366c0,0.768,0.193,1.24,0.58,1.418
		c0.113,0.07,0.225,0.105,0.334,0.105h0.209c0.412,0,0.682-0.317,0.809-0.953v-1.76h-0.742v-3.112h5.623v7.718
		c-0.15,0.278-0.75,0.606-1.799,0.979c-1.344,0.432-2.742,0.647-4.195,0.647H88.46c-2.551,0-4.166-0.847-4.844-2.541
		c-0.318-0.597-0.475-1.938-0.475-4.024V9.073c0-1.618,0.168-2.69,0.504-3.217C84.501,4.295,86.106,3.515,88.46,3.515"/>
	<path fill="#E73445" d="M101.403,3.515c2.424,0,4.488,0.542,6.195,1.627h0.037v3.864h-4.738V8.055c0-0.749-0.352-1.123-1.057-1.123
		H99.71v0.076c0.963,0.177,1.494,0.266,1.588,0.266c-0.133,0.228-0.199,0.409-0.199,0.543v0.171c0,0.838,0.781,1.389,2.34,1.656
		c1.277,0.267,2.189,0.561,2.742,0.885c0.939,0.577,1.57,1.389,1.895,2.436c0.139,0.489,0.209,0.918,0.209,1.285v0.543
		c0,0.957-0.252,1.975-0.754,3.055c-0.41,0.646-0.92,1.119-1.521,1.418c-0.889,0.451-1.691,0.676-2.408,0.676
		c-0.66,0.113-1.336,0.171-2.025,0.171h-0.039c-1.154,0-2.576-0.317-4.264-0.951c-0.736-0.381-1.133-0.729-1.189-1.047v-4.063h5.053
		v1.151c0,0.837,0.305,1.255,0.914,1.255c0.609-0.074,0.914-0.304,0.914-0.685c0.043,0,0.066-0.168,0.066-0.505v-0.37
		c0-0.724-0.725-1.267-2.17-1.627c-1.738-0.451-2.744-0.79-3.018-1.019c-1.262-0.622-1.893-1.942-1.893-3.958V7.921
		c0-1.916,0.912-3.239,2.74-3.968C99.534,3.661,100.438,3.515,101.403,3.515"/>
	<g>
		<defs>
			<path id="SVGID_1_" d="M8.515,11.837c0.314,0.091,0.692,0.194,1.151,0.313c2.013,0.504,3.037,1.429,3.037,2.746v0.371
				c0,0.225-0.009,0.394-0.026,0.531c-0.016,0.112-0.041,0.217-0.074,0.312c-0.132,0.673-0.678,1.342-1.894,1.492l-0.071,0.01
				h-0.071c-1,0-2.068-0.631-2.069-2.407H5.756v2.583c0.086,0.068,0.242,0.174,0.506,0.314c1.52,0.566,2.795,0.854,3.791,0.854
				h0.037c0.622,0,1.239-0.053,1.832-0.155l0.097-0.017h0.099c0.53,0,1.165-0.184,1.885-0.551c0.405-0.2,0.74-0.508,1.03-0.946
				c0.406-0.894,0.611-1.731,0.611-2.495V14.25c0-0.256-0.054-0.577-0.161-0.955c-0.184-0.592-0.498-1.072-0.947-1.458H8.515z"/>
		</defs>
		<clipPath id="SVGID_2_">
			<use xlink:href="#SVGID_1_"  overflow="visible"/>
		</clipPath>
		
			<linearGradient id="SVGID_3_" gradientUnits="userSpaceOnUse" x1="-62.8804" y1="273.6309" x2="-61.8804" y2="273.6309" gradientTransform="matrix(-0.1965 8.8446 8.8446 0.1965 -2421.6406 510.5547)">
			<stop  offset="0" style="stop-color:#E63545"/>
			<stop  offset="0.5046" style="stop-color:#D2263F"/>
			<stop  offset="0.8588" style="stop-color:#C9203C"/>
			<stop  offset="1" style="stop-color:#C9203C"/>
		</linearGradient>
		<polygon clip-path="url(#SVGID_2_)" fill="url(#SVGID_3_)" points="15.802,11.84 15.639,19.177 5.598,18.953 5.761,11.617 		"/>
	</g>
	<g>
		<defs>
			<path id="SVGID_4_" d="M19.259,11.837v4.394c0,0.543-0.169,1.025-0.485,1.406v1.32h10.147v-3.589h-2.552v0.233v0.101L26.352,15.8
				c-0.218,1.249-1.11,1.994-2.385,1.994h-0.553h-1.156v-1.155v-3.188v-1.156h1.156h2.175v-0.458H19.259z"/>
		</defs>
		<clipPath id="SVGID_5_">
			<use xlink:href="#SVGID_4_"  overflow="visible"/>
		</clipPath>
		
			<linearGradient id="SVGID_6_" gradientUnits="userSpaceOnUse" x1="-62.8799" y1="273.623" x2="-61.8799" y2="273.623" gradientTransform="matrix(-0.1965 8.8446 8.8446 0.1965 -2408.4297 510.8438)">
			<stop  offset="0" style="stop-color:#E63545"/>
			<stop  offset="0.5046" style="stop-color:#D2263F"/>
			<stop  offset="0.8588" style="stop-color:#C9203C"/>
			<stop  offset="1" style="stop-color:#C9203C"/>
		</linearGradient>
		<polygon clip-path="url(#SVGID_5_)" fill="url(#SVGID_6_)" points="29.079,11.84 28.916,19.182 18.616,18.953 18.779,11.612 		"/>
	</g>
	<g>
		<defs>
			<path id="SVGID_7_" d="M36.836,11.837v2.869c0,0.248,0.013,0.64,0.037,1.165l0.001,0.027v0.026c0,0.86-0.281,1.445-0.627,1.841
				v1.191h4.112V17.63c-0.333-0.399-0.599-1.015-0.599-1.953v-3.84H36.836z"/>
		</defs>
		<clipPath id="SVGID_8_">
			<use xlink:href="#SVGID_7_"  overflow="visible"/>
		</clipPath>
		
			<linearGradient id="SVGID_9_" gradientUnits="userSpaceOnUse" x1="-62.8804" y1="273.6221" x2="-61.8804" y2="273.6221" gradientTransform="matrix(-0.1965 8.8446 8.8446 0.1965 -2393.9844 511.1719)">
			<stop  offset="0" style="stop-color:#E63545"/>
			<stop  offset="0.5046" style="stop-color:#D2263F"/>
			<stop  offset="0.8588" style="stop-color:#C9203C"/>
			<stop  offset="1" style="stop-color:#C9203C"/>
		</linearGradient>
		<polygon clip-path="url(#SVGID_8_)" fill="url(#SVGID_9_)" points="40.517,11.84 40.357,19.049 36.089,18.953 36.249,11.746 		"/>
	</g>
	<g>
		<defs>
			<path id="SVGID_10_" d="M51.997,11.837v2.869c0,0.249,0.012,0.64,0.037,1.165l0.001,0.027v0.026c0,0.86-0.282,1.445-0.629,1.841
				v1.191h4.114V17.63c-0.334-0.399-0.602-1.015-0.602-1.953v-3.84H51.997z"/>
		</defs>
		<clipPath id="SVGID_11_">
			<use xlink:href="#SVGID_10_"  overflow="visible"/>
		</clipPath>
		
			<linearGradient id="SVGID_12_" gradientUnits="userSpaceOnUse" x1="-62.8804" y1="273.623" x2="-61.8804" y2="273.623" gradientTransform="matrix(-0.1965 8.8446 8.8446 0.1965 -2378.8281 511.5)">
			<stop  offset="0" style="stop-color:#E63545"/>
			<stop  offset="0.5046" style="stop-color:#D2263F"/>
			<stop  offset="0.8588" style="stop-color:#C9203C"/>
			<stop  offset="1" style="stop-color:#C9203C"/>
		</linearGradient>
		<polygon clip-path="url(#SVGID_11_)" fill="url(#SVGID_12_)" points="55.679,11.84 55.519,19.049 51.248,18.953 51.408,11.746 		
			"/>
	</g>
	<g>
		<defs>
			<path id="SVGID_13_" d="M63.216,11.837v4.136c0,0.674-0.215,1.275-0.627,1.768v1.217h4.236v-1.266
				c-0.59-0.764-0.59-1.889-0.59-2.318v-3.536H63.216z"/>
		</defs>
		<clipPath id="SVGID_14_">
			<use xlink:href="#SVGID_13_"  overflow="visible"/>
		</clipPath>
		
			<linearGradient id="SVGID_15_" gradientUnits="userSpaceOnUse" x1="-62.8799" y1="273.6211" x2="-61.8805" y2="273.6211" gradientTransform="matrix(-0.1965 8.8446 8.8446 0.1965 -2367.5859 511.75)">
			<stop  offset="0" style="stop-color:#E63545"/>
			<stop  offset="0.5046" style="stop-color:#D2263F"/>
			<stop  offset="0.8588" style="stop-color:#C9203C"/>
			<stop  offset="1" style="stop-color:#C9203C"/>
		</linearGradient>
		<polygon clip-path="url(#SVGID_14_)" fill="url(#SVGID_15_)" points="66.983,11.84 66.823,19.051 62.431,18.953 62.591,11.743 		
			"/>
	</g>
	<g>
		<defs>
			<path id="SVGID_16_" d="M78.548,11.837v0.21h-1.156h-0.037h-1.156v-0.21h-1.861l0.158,0.39c0.215,0.527,1.188,2.791,2.895,6.73
				h3.092v-7.12H78.548z"/>
		</defs>
		<clipPath id="SVGID_17_">
			<use xlink:href="#SVGID_16_"  overflow="visible"/>
		</clipPath>
		
			<linearGradient id="SVGID_18_" gradientUnits="userSpaceOnUse" x1="-62.8799" y1="273.6289" x2="-61.8805" y2="273.6289" gradientTransform="matrix(-0.1965 8.8446 8.8446 0.1965 -2354.9531 512.0312)">
			<stop  offset="0" style="stop-color:#E63545"/>
			<stop  offset="0.5046" style="stop-color:#D2263F"/>
			<stop  offset="0.8588" style="stop-color:#C9203C"/>
			<stop  offset="1" style="stop-color:#C9203C"/>
		</linearGradient>
		<polygon clip-path="url(#SVGID_17_)" fill="url(#SVGID_18_)" points="80.64,11.84 80.478,19.094 74.179,18.953 74.341,11.701 		
			"/>
	</g>
	<g>
		<defs>
			<path id="SVGID_19_" d="M70.61,11.837v2.499c0,0.326,0.014,0.837,0.039,1.52v0.02v0.021c0,0.455-0.121,1.08-0.629,1.689v1.371
				h2.838v-1.475c-0.09-0.092-0.176-0.196-0.248-0.316c-0.381-0.562-0.381-1.632-0.381-3.077v-1.428v-0.824H70.61z"/>
		</defs>
		<clipPath id="SVGID_20_">
			<use xlink:href="#SVGID_19_"  overflow="visible"/>
		</clipPath>
		
			<linearGradient id="SVGID_21_" gradientUnits="userSpaceOnUse" x1="-62.8799" y1="273.623" x2="-61.8805" y2="273.623" gradientTransform="matrix(-0.1965 8.8446 8.8446 0.1965 -2360.8594 511.9062)">
			<stop  offset="0" style="stop-color:#E63545"/>
			<stop  offset="0.5046" style="stop-color:#D2263F"/>
			<stop  offset="0.8588" style="stop-color:#C9203C"/>
			<stop  offset="1" style="stop-color:#C9203C"/>
		</linearGradient>
		<polygon clip-path="url(#SVGID_20_)" fill="url(#SVGID_21_)" points="73.017,11.84 72.856,19.02 69.862,18.953 70.022,11.774 		
			"/>
	</g>
	<g>
		<defs>
			<path id="SVGID_22_" d="M84.296,11.837v1.709c0,2.706,0.285,3.375,0.34,3.481l0.031,0.056l0.021,0.06
				c0.18,0.448,0.729,1.814,3.771,1.814h0.543c1.32,0,2.607-0.198,3.826-0.586c0.518-0.186,0.83-0.329,1.014-0.426v-6.022h-3.314
				v0.802h0.744v1.154v1.762v0.113l-0.021,0.111c-0.352,1.746-1.576,1.882-1.943,1.882h-0.209c-0.305,0-0.598-0.081-0.879-0.241
				c-0.559-0.279-1.191-0.93-1.191-2.438v-3.231H84.296z"/>
		</defs>
		<clipPath id="SVGID_23_">
			<use xlink:href="#SVGID_22_"  overflow="visible"/>
		</clipPath>
		
			<linearGradient id="SVGID_24_" gradientUnits="userSpaceOnUse" x1="-62.8799" y1="273.6309" x2="-61.8799" y2="273.6309" gradientTransform="matrix(-0.1965 8.8446 8.8446 0.1965 -2343.3125 512.2969)">
			<stop  offset="0" style="stop-color:#E63545"/>
			<stop  offset="0.5046" style="stop-color:#D2263F"/>
			<stop  offset="0.8588" style="stop-color:#C9203C"/>
			<stop  offset="1" style="stop-color:#C9203C"/>
		</linearGradient>
		<polygon clip-path="url(#SVGID_23_)" fill="url(#SVGID_24_)" points="94.001,11.84 93.837,19.169 84.138,18.953 84.3,11.625 		"/>
	</g>
	<g>
		<defs>
			<path id="SVGID_25_" d="M99.999,11.837c0.314,0.091,0.691,0.194,1.15,0.313c2.012,0.504,3.035,1.429,3.035,2.746v0.371
				c0,0.225-0.008,0.394-0.025,0.531c-0.016,0.112-0.041,0.217-0.074,0.312c-0.131,0.673-0.678,1.342-1.893,1.492l-0.07,0.01h-0.072
				c-0.998,0-2.068-0.631-2.07-2.407h-2.742v2.583c0.088,0.068,0.242,0.174,0.508,0.314c1.52,0.566,2.797,0.854,3.791,0.854h0.037
				c0.623,0,1.238-0.053,1.83-0.155l0.098-0.017h0.1c0.531,0,1.166-0.184,1.885-0.551c0.406-0.2,0.74-0.508,1.031-0.946
				c0.404-0.894,0.611-1.731,0.611-2.495V14.25c0-0.256-0.055-0.577-0.162-0.955c-0.186-0.592-0.496-1.072-0.947-1.458H99.999z"/>
		</defs>
		<clipPath id="SVGID_26_">
			<use xlink:href="#SVGID_25_"  overflow="visible"/>
		</clipPath>
		
			<linearGradient id="SVGID_27_" gradientUnits="userSpaceOnUse" x1="-62.8799" y1="273.6309" x2="-61.8805" y2="273.6309" gradientTransform="matrix(-0.1965 8.8446 8.8446 0.1965 -2330.2031 512.5859)">
			<stop  offset="0" style="stop-color:#E63545"/>
			<stop  offset="0.5046" style="stop-color:#D2263F"/>
			<stop  offset="0.8588" style="stop-color:#C9203C"/>
			<stop  offset="1" style="stop-color:#C9203C"/>
		</linearGradient>
		<polygon clip-path="url(#SVGID_26_)" fill="url(#SVGID_27_)" points="107.286,11.84 107.122,19.177 97.079,18.953 97.243,11.617 
					"/>
	</g>
</g>
</svg>
