<svg xmlns="http://www.w3.org/2000/svg" viewBox="0 0 66.79 21.18"><defs><style>.cls-1{fill:#fff;}.cls-2,.cls-3{fill:#e73545;}.cls-3{stroke:#231f20;stroke-miterlimit:10;stroke-width:2.5px;}</style></defs><g id="Layer_2" data-name="Layer 2"><g id="Layer_1-2" data-name="Layer 1"><path class="cls-1" d="M13.72,0H10.86l-.19.73L10.48,0H0V6.37l.63.24v7.65L0,14.39v6.79H21V14.81l-.63-.33v-7c0-.45,0-.8,0-1.06L21,6V0h-7.3ZM5.52,17.18H4v-.1a2.81,2.81,0,0,0,.27-.4,3.23,3.23,0,0,0,.37-1.6c0-.15,0-.29,0-.4V6.49c0-.1,0-.23,0-.39a3.54,3.54,0,0,0-.33-1.56A2.13,2.13,0,0,0,4,4l.89,0V14.14c0,.47,0,.84,0,1.09a3.44,3.44,0,0,0,.42,1.36,1.75,1.75,0,0,0,.18.29ZM10,14.28,7.32,4h.07l2.67,10.17ZM17,4.2a2.5,2.5,0,0,0-.21.35A3.5,3.5,0,0,0,16.43,6c0,.29,0,.81,0,1.55v6.62c0,.52,0,.91,0,1.16a3.3,3.3,0,0,0,.44,1.38l.15.23v.27H14.56V17a2.87,2.87,0,0,0,.56-1.18,5.5,5.5,0,0,0,.08-1V4H17Z"/><path class="cls-2" d="M19.81,2.05h12.9v6h-5V6.83c0-.45-.31-.77-.92-1l-.37,0H23.44v.07l2.37.43V9h3.45v3.3H25.81v3.3h.57a1.16,1.16,0,0,0,1.29-1.07V13.07h5v6.11H19.81V16.09a1,1,0,0,0,.5-.93V7c0-1-.16-1.65-.5-1.94Z"/><path class="cls-1" d="M34.71,21.18H17.81V15l.5-.3V7a6.09,6.09,0,0,0,0-.61L17.81,6V.05h16.9v10H31.26v1h3.45Z"/><path class="cls-2" d="M33.78,2h5.76a29.41,29.41,0,0,1,1.33,3.31q1.7,4.26,1.7,4.32h0V8c0-.49,0-1.15,0-2a1.41,1.41,0,0,0-.52-1V2h5.52V5H45.24v.07l2,.37c-.13,0-.21.74-.22,2.22v11.5H41.82c-2-4.54-3.08-7.12-3.32-7.71h0v1.47c0,1.64.06,2.46.19,2.46s.15.29.46.47v3.31H33.78v-3.1a1.64,1.64,0,0,0,.65-1.26c0-.73,0-1.27,0-1.62V8c0-.43,0-1,0-1.83A1.45,1.45,0,0,0,33.78,5Z"/><path class="cls-1" d="M49,21.18H31.78v-6l.64-.54c0-.6,0-1.08,0-1.41V8c0-.38,0-.9,0-1.54L31.79,6V0h7.76a3.42,3.42,0,0,1,.59,0V0h9.52V7H49c0,.19,0,.42,0,.68Zm-5.87-4H45V7.68c0-.19,0-.39,0-.6L44.62,7c0,.39,0,.71,0,1v3.65H40.74C41.13,12.55,41.84,14.21,43.13,17.18Zm-7.35,0h1.33v-.43h0a1.73,1.73,0,0,1-.2-.32c0-.09-.09-.19-.13-.28a10,10,0,0,1-.31-3.2V9.47h3.35l.54,1.24c0,.11.12.29.25.6l0-1.31C40.42,9.61,40,8.6,39,6.05l-.79-2H35.78v.18a3.37,3.37,0,0,1,.65,2c0,.82,0,1.41,0,1.83V13.2c0,.33,0,.85,0,1.54a3.57,3.57,0,0,1-.65,2.1ZM47.26,7l0,.44A1.94,1.94,0,0,0,48.45,7Z"/><path class="cls-2" d="M48.56,2h6.53V5.07a1.43,1.43,0,0,0-.64,1.37v7.41c0,.76.13,1.22.38,1.38a1.4,1.4,0,0,0,.75.21c.59,0,.88-.35.88-1.06V6.17a1.09,1.09,0,0,0-.6-1.07V2h6.28V5.14H59.78v.07l1.9.36c-.21.14-.32,1.18-.32,3.13V14q0,3.87-3.28,4.87a7.49,7.49,0,0,1-2.11.31H54.91a7.94,7.94,0,0,1-3.39-.71,3.91,3.91,0,0,1-1.94-2,6.53,6.53,0,0,1-.42-2.09c0-.61,0-1.13,0-1.54V6.91c0-1-.19-1.55-.56-1.74l-.07-.1Z"/><path class="cls-1" d="M56,21.18H54.91a9.81,9.81,0,0,1-4.23-.9,5.93,5.93,0,0,1-2.94-3.06,8.24,8.24,0,0,1-.57-2.71v-.23c0-.59,0-1.09,0-1.48V6.91c0-.14,0-.24,0-.32l-.62-.88V0H64.14V4l2.65.5L64.14,6.3v.84H63.4c0,.36,0,.86,0,1.56V14c0,3.45-1.66,5.86-4.7,6.78A9.54,9.54,0,0,1,56,21.18Zm-4.81-6.89a4.21,4.21,0,0,0,.23,1.28l.06.14a1.85,1.85,0,0,0,1,1,5.17,5.17,0,0,0,1.72.44,2.68,2.68,0,0,1-.47-.26,3.53,3.53,0,0,1-1.25-3V6.44a3.67,3.67,0,0,1,.64-2.2V4H50.56v.3a4.71,4.71,0,0,1,.63,2.61V12.8C51.19,13.2,51.18,13.7,51.16,14.29ZM58.46,7v7.38a3,3,0,0,1-1.41,2.68l.47-.12c.95-.28,1.84-.84,1.84-2.94V8.7c0-.58,0-1.08,0-1.53Z"/><path class="cls-3" d="M2,2H8.94l1.73,6.62L12.4,2H19V5a1.51,1.51,0,0,0-.44.49,1.58,1.58,0,0,0-.16.64c0,.27,0,.73,0,1.4v6.62c0,.44,0,.76,0,1a1.43,1.43,0,0,0,.16.54A1.12,1.12,0,0,0,19,16v3.15H12.56V16a1.12,1.12,0,0,0,.41-.27.7.7,0,0,0,.19-.36,3,3,0,0,0,0-.57v-.51c0-.15,0-.31,0-.5V10l-2.36,9.14H9.25l-2.36-9v3.94c0,.39,0,.69,0,.91a1.35,1.35,0,0,0,.17.57,1,1,0,0,0,.43.41v3.15H2V16a.71.71,0,0,0,.52-.31,1.37,1.37,0,0,0,.12-.64v-.33a2.81,2.81,0,0,1,0-.3V6.73a2.81,2.81,0,0,1,0-.3V6.1a1.55,1.55,0,0,0-.13-.69A.85.85,0,0,0,2,5Z"/><path class="cls-3" d="M19.81,2.05h12.9v6h-5V6.83c0-.45-.31-.77-.92-1l-.37,0H23.44v.07l2.37.43V9h3.45v3.3H25.81v3.3h.57a1.16,1.16,0,0,0,1.29-1.07V13.07h5v6.11H19.81V16.09a1,1,0,0,0,.5-.93V7c0-1-.16-1.65-.5-1.94Z"/><path class="cls-3" d="M33.78,2h5.76a29.41,29.41,0,0,1,1.33,3.31q1.7,4.26,1.7,4.32h0V8c0-.49,0-1.15,0-2a1.41,1.41,0,0,0-.52-1V2h5.52V5H45.24v.07l2,.37c-.13,0-.21.74-.22,2.22v11.5H41.82c-2-4.54-3.08-7.12-3.32-7.71h0v1.47c0,1.64.06,2.46.19,2.46s.15.29.46.47v3.31H33.78v-3.1a1.64,1.64,0,0,0,.65-1.26c0-.73,0-1.27,0-1.62V8c0-.43,0-1,0-1.83A1.45,1.45,0,0,0,33.78,5Z"/><path class="cls-3" d="M48.56,2h6.53V5.07a1.43,1.43,0,0,0-.64,1.37v7.41c0,.76.13,1.22.38,1.38a1.4,1.4,0,0,0,.75.21c.59,0,.88-.35.88-1.06V6.17a1.09,1.09,0,0,0-.6-1.07V2h6.28V5.14H59.78v.07l1.9.36c-.21.14-.32,1.18-.32,3.13V14q0,3.87-3.28,4.87a7.49,7.49,0,0,1-2.11.31H54.91a7.94,7.94,0,0,1-3.39-.71,3.91,3.91,0,0,1-1.94-2,6.53,6.53,0,0,1-.42-2.09c0-.61,0-1.13,0-1.54V6.91c0-1-.19-1.55-.56-1.74l-.07-.1Z"/><path class="cls-2" d="M2,2H8.94l1.73,6.62L12.4,2H19V5a1.51,1.51,0,0,0-.44.49,1.58,1.58,0,0,0-.16.64c0,.27,0,.73,0,1.4v6.62c0,.44,0,.76,0,1a1.43,1.43,0,0,0,.16.54A1.12,1.12,0,0,0,19,16v3.15H12.56V16a1.12,1.12,0,0,0,.41-.27.7.7,0,0,0,.19-.36,3,3,0,0,0,0-.57v-.51c0-.15,0-.31,0-.5V10l-2.36,9.14H9.25l-2.36-9v3.94c0,.39,0,.69,0,.91a1.35,1.35,0,0,0,.17.57,1,1,0,0,0,.43.41v3.15H2V16a.71.71,0,0,0,.52-.31,1.37,1.37,0,0,0,.12-.64v-.33a2.81,2.81,0,0,1,0-.3V6.73a2.81,2.81,0,0,1,0-.3V6.1a1.55,1.55,0,0,0-.13-.69A.85.85,0,0,0,2,5Z"/><path class="cls-2" d="M19.81,2.05h12.9v6h-5V6.83c0-.45-.31-.77-.92-1l-.37,0H23.44v.07l2.37.43V9h3.45v3.3H25.81v3.3h.57a1.16,1.16,0,0,0,1.29-1.07V13.07h5v6.11H19.81V16.09a1,1,0,0,0,.5-.93V7c0-1-.16-1.65-.5-1.94Z"/><path class="cls-2" d="M33.78,2h5.76a29.41,29.41,0,0,1,1.33,3.31q1.7,4.26,1.7,4.32h0V8c0-.49,0-1.15,0-2a1.41,1.41,0,0,0-.52-1V2h5.52V5H45.24v.07l2,.37c-.13,0-.21.74-.22,2.22v11.5H41.82c-2-4.54-3.08-7.12-3.32-7.71h0v1.47c0,1.64.06,2.46.19,2.46s.15.29.46.47v3.31H33.78v-3.1a1.64,1.64,0,0,0,.65-1.26c0-.73,0-1.27,0-1.62V8c0-.43,0-1,0-1.83A1.45,1.45,0,0,0,33.78,5Z"/><path class="cls-2" d="M48.56,2h6.53V5.07a1.43,1.43,0,0,0-.64,1.37v7.41c0,.76.13,1.22.38,1.38a1.4,1.4,0,0,0,.75.21c.59,0,.88-.35.88-1.06V6.17a1.09,1.09,0,0,0-.6-1.07V2h6.28V5.14H59.78v.07l1.9.36c-.21.14-.32,1.18-.32,3.13V14q0,3.87-3.28,4.87a7.49,7.49,0,0,1-2.11.31H54.91a7.94,7.94,0,0,1-3.39-.71,3.91,3.91,0,0,1-1.94-2,6.53,6.53,0,0,1-.42-2.09c0-.61,0-1.13,0-1.54V6.91c0-1-.19-1.55-.56-1.74l-.07-.1Z"/></g></g></svg>