<svg xmlns="http://www.w3.org/2000/svg" viewBox="0 0 198.63 21.65"><defs><style>.cls-1{fill:none;stroke:#fff;stroke-width:4px;}.cls-1,.cls-2{stroke-miterlimit:10;}.cls-2,.cls-3{fill:#e73545;}.cls-2{stroke:#231f20;stroke-width:2.5px;}</style></defs><g id="Layer_2" data-name="Layer 2"><g id="Layer_1-2" data-name="Layer 1"><path class="cls-1" d="M9.41,8.62V6.73A1.05,1.05,0,0,0,9.15,6a.85.85,0,0,0-.62-.28.94.94,0,0,0-.71.35,1.5,1.5,0,0,0-.3,1v7.88a1.23,1.23,0,0,0,.3.87,1,1,0,0,0,.71.32.79.79,0,0,0,.62-.3,1.35,1.35,0,0,0,.26-.89V12.25h5.36v5.51a3.94,3.94,0,0,1-2.36,1.4,14.89,14.89,0,0,1-3.95.49A8,8,0,0,1,3.77,18.4,4.52,4.52,0,0,1,2,14.45V7.36A7,7,0,0,1,2.36,5,4.2,4.2,0,0,1,3.44,3.31a4.7,4.7,0,0,1,1.82-1A9.35,9.35,0,0,1,7.83,2a15.86,15.86,0,0,1,3.79.4,10.81,10.81,0,0,1,3.15,1.33V8.62Z"/><path class="cls-1" d="M21.35,2.36h.89a7.17,7.17,0,0,1,4,1.08,4.24,4.24,0,0,1,1.46,3.43v8.18a4.3,4.3,0,0,1-1.32,3.23,6.62,6.62,0,0,1-4.2,1.22h-1q-4-.11-5.28-2.43a8.5,8.5,0,0,1-.62-4V8.39a7.59,7.59,0,0,1,.55-3.56C16.68,3.19,18.53,2.36,21.35,2.36Zm0,3.64H19v.07c1.13.21,1.73.31,1.81.31a1.43,1.43,0,0,0-.21.87v7c0,.92.21,1.46.63,1.6l.41.07a.77.77,0,0,0,.83-.66,6.58,6.58,0,0,0,.11-1.39V7.7c0-1-.08-1.49-.25-1.49,0-.11-.21-.19-.62-.24Z"/><path class="cls-1" d="M28.55,2.31h5.76a33.42,33.42,0,0,1,1.33,3.31q1.7,4.26,1.7,4.33h0V8.29c0-.48,0-1.14,0-2a1.43,1.43,0,0,0-.52-1v-3h5.52v3H40v.07l2,.36c-.14,0-.21.74-.22,2.23V19.5H36.59q-3-6.83-3.32-7.72h0v1.48c0,1.63.06,2.45.19,2.45s.15.29.46.48V19.5H28.55V16.39a1.64,1.64,0,0,0,.65-1.26c0-.73,0-1.27,0-1.61V8.32c0-.43,0-1,0-1.83a1.43,1.43,0,0,0-.65-1.19Z"/><path class="cls-1" d="M43.33,2.27H58.17V10H54.23V6.86c0-.44-.26-.69-.79-.76H51.06v.07l2.41.43v8.3a1.57,1.57,0,0,0,.62,1.49V19.5H47.44v-3a1.49,1.49,0,0,0,.65-1.37c0-.56,0-1,0-1.26V6.1h0c-.48,0-.73.3-.73.89,0,.15,0,.44,0,.87V10H43.33Z"/><path class="cls-1" d="M59,2.36H71.91v6h-5V7.14c0-.44-.31-.77-.93-1l-.36,0h-3v.07L65,6.64V9.3h3.45v3.3H65v3.3h.57a1.18,1.18,0,0,0,1.29-1.07V13.39h5V19.5H59V16.4a1,1,0,0,0,.5-.92V7.28A2.61,2.61,0,0,0,59,5.35Z"/><path class="cls-1" d="M78.63,2.31A11.71,11.71,0,0,1,85,4h0V8h-4.9V7c0-.77-.37-1.16-1.1-1.16h-2.2v.08c1,.18,1.54.28,1.64.28a1.26,1.26,0,0,0-.2.56V7c0,.86.8,1.43,2.42,1.71a9.74,9.74,0,0,1,2.84.92,4.37,4.37,0,0,1,2,2.52,5,5,0,0,1,.21,1.33V14A7.5,7.5,0,0,1,85,17.15a4,4,0,0,1-1.58,1.47,5.69,5.69,0,0,1-2.49.7,12.15,12.15,0,0,1-2.1.18h0a12.89,12.89,0,0,1-4.41-1c-.77-.39-1.18-.76-1.24-1.08V13.22h5.24v1.19c0,.87.31,1.3.94,1.3s1-.31,1-.71c0,0,.07-.17.07-.52V14.1c0-.75-.75-1.31-2.25-1.69A12,12,0,0,1,75,11.36c-1.31-.65-2-2-2-4.1V6.88a4.1,4.1,0,0,1,2.83-4.11A8.62,8.62,0,0,1,78.63,2.31Z"/><path class="cls-1" d="M86.6,2.27h14.85V10H97.51V6.86c0-.44-.26-.69-.79-.76H94.34v.07l2.41.43v8.3a1.57,1.57,0,0,0,.62,1.49V19.5H90.72v-3a1.51,1.51,0,0,0,.65-1.37c0-.56,0-1,0-1.26V6.1h0c-.48,0-.73.3-.73.89a8,8,0,0,0,0,.87V10H86.6Z"/><path class="cls-1" d="M109.7,2.31h6.78v3A1.35,1.35,0,0,0,116,6a4.07,4.07,0,0,0-.1,1v7.57a5.5,5.5,0,0,0,0,.77,3.37,3.37,0,0,0,.09.46,1.52,1.52,0,0,0,.17.3c.08.09.19.22.33.36v3H109.7v-3a1.51,1.51,0,0,0,.51-.63,2.06,2.06,0,0,0,.13-.78v-.34a2.81,2.81,0,0,1,0-.3V7a2,2,0,0,1,0-.25V6.51a1.6,1.6,0,0,0-.13-.69,1.13,1.13,0,0,0-.51-.51Z"/><path class="cls-1" d="M117,2.31h5.77s.49,1.11,1.33,3.31q1.7,4.26,1.69,4.33h0V8.29c0-.48,0-1.14,0-2a1.41,1.41,0,0,0-.51-1v-3h5.51v3h-2.41v.07l2,.36c-.13,0-.2.74-.22,2.23V19.5H125c-2-4.55-3.07-7.12-3.32-7.72h0v1.48c0,1.63.07,2.45.19,2.45s.15.29.46.48V19.5H117V16.39a1.61,1.61,0,0,0,.65-1.26c0-.73,0-1.27,0-1.61V8.32c0-.43,0-1,0-1.83A1.41,1.41,0,0,0,117,5.3Z"/><path class="cls-1" d="M131.73,2.31h6.81V5.48h-2.42v.08c1.16.21,1.8.32,1.92.32v0a2.12,2.12,0,0,0-.11.58c0,.3.4,2.83,1.22,7.57h0l1-7.57a1,1,0,0,0-.57-1s0,0,0,0V2.31h6v3.1a2.24,2.24,0,0,1-.39.65,57,57,0,0,0-1.41,6.7c-.07.29-.52,2.54-1.33,6.74H135q-2.31-11.25-2.55-12.61a3.92,3.92,0,0,0-.76-1.44Z"/><path class="cls-1" d="M146.51,2.29h6.78V5.36h-2.42v.08l2,.35a4.3,4.3,0,0,0-.18,1.34v7.46c0,1,.21,1.67.62,1.88v3h-6.78v-3a1.63,1.63,0,0,0,.65-1.33V6.41a1.13,1.13,0,0,0-.65-1.08Z"/><path class="cls-1" d="M154.2,2.27h14.85V10h-3.94V6.86c0-.44-.27-.69-.79-.76h-2.39v.07l2.42.43v8.3c0,.76.2,1.26.62,1.49V19.5h-6.65v-3a1.51,1.51,0,0,0,.65-1.37c0-.56,0-1,0-1.26V6.1h0c-.49,0-.73.3-.73.89a8,8,0,0,0,0,.87V10H154.2Z"/><path class="cls-1" d="M169.89,2.36h12.9v6h-5V7.14c0-.44-.31-.77-.93-1l-.37,0h-2.94v.07l2.37.43V9.3h3.45v3.3h-3.45v3.3h.57a1.19,1.19,0,0,0,1.3-1.07V13.39h5V19.5h-12.9V16.4a1,1,0,0,0,.51-.92V7.28a2.56,2.56,0,0,0-.51-1.93Z"/><path class="cls-1" d="M189.51,2.31A11.73,11.73,0,0,1,195.92,4h0V8h-4.91V7c0-.77-.36-1.16-1.09-1.16h-2.21v.08c1,.18,1.55.28,1.65.28a1.18,1.18,0,0,0-.21.56V7q0,1.29,2.43,1.71a9.65,9.65,0,0,1,2.83.92,4.34,4.34,0,0,1,2,2.52,4.71,4.71,0,0,1,.22,1.33V14a7.52,7.52,0,0,1-.78,3.16,4,4,0,0,1-1.57,1.47,5.69,5.69,0,0,1-2.5.7,12,12,0,0,1-2.09.18h0a13,13,0,0,1-4.42-1c-.76-.39-1.17-.76-1.23-1.08V13.22h5.23v1.19c0,.87.32,1.3,1,1.3s.94-.31.94-.71c0,0,.07-.17.07-.52V14.1c0-.75-.75-1.31-2.24-1.69a12.3,12.3,0,0,1-3.13-1.05c-1.3-.65-2-2-2-4.1V6.88a4.1,4.1,0,0,1,2.84-4.11A8.58,8.58,0,0,1,189.51,2.31Z"/><path class="cls-2" d="M9.41,8.62V6.73A1.05,1.05,0,0,0,9.15,6a.85.85,0,0,0-.62-.28.94.94,0,0,0-.71.35,1.5,1.5,0,0,0-.3,1v7.88a1.23,1.23,0,0,0,.3.87,1,1,0,0,0,.71.32.79.79,0,0,0,.62-.3,1.35,1.35,0,0,0,.26-.89V12.25h5.36v5.51a3.94,3.94,0,0,1-2.36,1.4,14.89,14.89,0,0,1-3.95.49A8,8,0,0,1,3.77,18.4,4.52,4.52,0,0,1,2,14.45V7.36A7,7,0,0,1,2.36,5,4.2,4.2,0,0,1,3.44,3.31a4.7,4.7,0,0,1,1.82-1A9.35,9.35,0,0,1,7.83,2a15.86,15.86,0,0,1,3.79.4,10.81,10.81,0,0,1,3.15,1.33V8.62Z"/><path class="cls-2" d="M21.35,2.36h.89a7.17,7.17,0,0,1,4,1.08,4.24,4.24,0,0,1,1.46,3.43v8.18a4.3,4.3,0,0,1-1.32,3.23,6.62,6.62,0,0,1-4.2,1.22h-1q-4-.11-5.28-2.43a8.5,8.5,0,0,1-.62-4V8.39a7.59,7.59,0,0,1,.55-3.56C16.68,3.19,18.53,2.36,21.35,2.36Zm0,3.64H19v.07c1.13.21,1.73.31,1.81.31a1.43,1.43,0,0,0-.21.87v7c0,.92.21,1.46.63,1.6l.41.07a.77.77,0,0,0,.83-.66,6.58,6.58,0,0,0,.11-1.39V7.7c0-1-.08-1.49-.25-1.49,0-.11-.21-.19-.62-.24Z"/><path class="cls-2" d="M28.55,2.31h5.76a33.42,33.42,0,0,1,1.33,3.31q1.7,4.26,1.7,4.33h0V8.29c0-.48,0-1.14,0-2a1.43,1.43,0,0,0-.52-1v-3h5.52v3H40v.07l2,.36c-.14,0-.21.74-.22,2.23V19.5H36.59q-3-6.83-3.32-7.72h0v1.48c0,1.63.06,2.45.19,2.45s.15.29.46.48V19.5H28.55V16.39a1.64,1.64,0,0,0,.65-1.26c0-.73,0-1.27,0-1.61V8.32c0-.43,0-1,0-1.83a1.43,1.43,0,0,0-.65-1.19Z"/><path class="cls-2" d="M43.33,2.27H58.17V10H54.23V6.86c0-.44-.26-.69-.79-.76H51.06v.07l2.41.43v8.3a1.57,1.57,0,0,0,.62,1.49V19.5H47.44v-3a1.49,1.49,0,0,0,.65-1.37c0-.56,0-1,0-1.26V6.1h0c-.48,0-.73.3-.73.89,0,.15,0,.44,0,.87V10H43.33Z"/><path class="cls-2" d="M59,2.36H71.91v6h-5V7.14c0-.44-.31-.77-.93-1l-.36,0h-3v.07L65,6.64V9.3h3.45v3.3H65v3.3h.57a1.18,1.18,0,0,0,1.29-1.07V13.39h5V19.5H59V16.4a1,1,0,0,0,.5-.92V7.28A2.61,2.61,0,0,0,59,5.35Z"/><path class="cls-2" d="M78.63,2.31A11.71,11.71,0,0,1,85,4h0V8h-4.9V7c0-.77-.37-1.16-1.1-1.16h-2.2v.08c1,.18,1.54.28,1.64.28a1.26,1.26,0,0,0-.2.56V7c0,.86.8,1.43,2.42,1.71a9.74,9.74,0,0,1,2.84.92,4.37,4.37,0,0,1,2,2.52,5,5,0,0,1,.21,1.33V14A7.5,7.5,0,0,1,85,17.15a4,4,0,0,1-1.58,1.47,5.69,5.69,0,0,1-2.49.7,12.15,12.15,0,0,1-2.1.18h0a12.89,12.89,0,0,1-4.41-1c-.77-.39-1.18-.76-1.24-1.08V13.22h5.24v1.19c0,.87.31,1.3.94,1.3s1-.31,1-.71c0,0,.07-.17.07-.52V14.1c0-.75-.75-1.31-2.25-1.69A12,12,0,0,1,75,11.36c-1.31-.65-2-2-2-4.1V6.88a4.1,4.1,0,0,1,2.83-4.11A8.62,8.62,0,0,1,78.63,2.31Z"/><path class="cls-2" d="M86.6,2.27h14.85V10H97.51V6.86c0-.44-.26-.69-.79-.76H94.34v.07l2.41.43v8.3a1.57,1.57,0,0,0,.62,1.49V19.5H90.72v-3a1.51,1.51,0,0,0,.65-1.37c0-.56,0-1,0-1.26V6.1h0c-.48,0-.73.3-.73.89a8,8,0,0,0,0,.87V10H86.6Z"/><path class="cls-2" d="M109.7,2.31h6.78v3A1.35,1.35,0,0,0,116,6a4.07,4.07,0,0,0-.1,1v7.57a5.5,5.5,0,0,0,0,.77,3.37,3.37,0,0,0,.09.46,1.52,1.52,0,0,0,.17.3c.08.09.19.22.33.36v3H109.7v-3a1.51,1.51,0,0,0,.51-.63,2.06,2.06,0,0,0,.13-.78v-.34a2.81,2.81,0,0,1,0-.3V7a2,2,0,0,1,0-.25V6.51a1.6,1.6,0,0,0-.13-.69,1.13,1.13,0,0,0-.51-.51Z"/><path class="cls-2" d="M117,2.31h5.77s.49,1.11,1.33,3.31q1.7,4.26,1.69,4.33h0V8.29c0-.48,0-1.14,0-2a1.41,1.41,0,0,0-.51-1v-3h5.51v3h-2.41v.07l2,.36c-.13,0-.2.74-.22,2.23V19.5H125c-2-4.55-3.07-7.12-3.32-7.72h0v1.48c0,1.63.07,2.45.19,2.45s.15.29.46.48V19.5H117V16.39a1.61,1.61,0,0,0,.65-1.26c0-.73,0-1.27,0-1.61V8.32c0-.43,0-1,0-1.83A1.41,1.41,0,0,0,117,5.3Z"/><path class="cls-2" d="M131.73,2.31h6.81V5.48h-2.42v.08c1.16.21,1.8.32,1.92.32v0a2.12,2.12,0,0,0-.11.58c0,.3.4,2.83,1.22,7.57h0l1-7.57a1,1,0,0,0-.57-1s0,0,0,0V2.31h6v3.1a2.24,2.24,0,0,1-.39.65,57,57,0,0,0-1.41,6.7c-.07.29-.52,2.54-1.33,6.74H135q-2.31-11.25-2.55-12.61a3.92,3.92,0,0,0-.76-1.44Z"/><path class="cls-2" d="M146.51,2.29h6.78V5.36h-2.42v.08l2,.35a4.3,4.3,0,0,0-.18,1.34v7.46c0,1,.21,1.67.62,1.88v3h-6.78v-3a1.63,1.63,0,0,0,.65-1.33V6.41a1.13,1.13,0,0,0-.65-1.08Z"/><path class="cls-2" d="M154.2,2.27h14.85V10h-3.94V6.86c0-.44-.27-.69-.79-.76h-2.39v.07l2.42.43v8.3c0,.76.2,1.26.62,1.49V19.5h-6.65v-3a1.51,1.51,0,0,0,.65-1.37c0-.56,0-1,0-1.26V6.1h0c-.49,0-.73.3-.73.89a8,8,0,0,0,0,.87V10H154.2Z"/><path class="cls-2" d="M169.89,2.36h12.9v6h-5V7.14c0-.44-.31-.77-.93-1l-.37,0h-2.94v.07l2.37.43V9.3h3.45v3.3h-3.45v3.3h.57a1.19,1.19,0,0,0,1.3-1.07V13.39h5V19.5h-12.9V16.4a1,1,0,0,0,.51-.92V7.28a2.56,2.56,0,0,0-.51-1.93Z"/><path class="cls-2" d="M189.51,2.31A11.73,11.73,0,0,1,195.92,4h0V8h-4.91V7c0-.77-.36-1.16-1.09-1.16h-2.21v.08c1,.18,1.55.28,1.65.28a1.18,1.18,0,0,0-.21.56V7q0,1.29,2.43,1.71a9.65,9.65,0,0,1,2.83.92,4.34,4.34,0,0,1,2,2.52,4.71,4.71,0,0,1,.22,1.33V14a7.52,7.52,0,0,1-.78,3.16,4,4,0,0,1-1.57,1.47,5.69,5.69,0,0,1-2.5.7,12,12,0,0,1-2.09.18h0a13,13,0,0,1-4.42-1c-.76-.39-1.17-.76-1.23-1.08V13.22h5.23v1.19c0,.87.32,1.3,1,1.3s.94-.31.94-.71c0,0,.07-.17.07-.52V14.1c0-.75-.75-1.31-2.24-1.69a12.3,12.3,0,0,1-3.13-1.05c-1.3-.65-2-2-2-4.1V6.88a4.1,4.1,0,0,1,2.84-4.11A8.58,8.58,0,0,1,189.51,2.31Z"/><path class="cls-3" d="M9.41,8.62V6.73A1.05,1.05,0,0,0,9.15,6a.85.85,0,0,0-.62-.28.94.94,0,0,0-.71.35,1.5,1.5,0,0,0-.3,1v7.88a1.23,1.23,0,0,0,.3.87,1,1,0,0,0,.71.32.79.79,0,0,0,.62-.3,1.35,1.35,0,0,0,.26-.89V12.25h5.36v5.51a3.94,3.94,0,0,1-2.36,1.4,14.89,14.89,0,0,1-3.95.49A8,8,0,0,1,3.77,18.4,4.52,4.52,0,0,1,2,14.45V7.36A7,7,0,0,1,2.36,5,4.2,4.2,0,0,1,3.44,3.31a4.7,4.7,0,0,1,1.82-1A9.35,9.35,0,0,1,7.83,2a15.86,15.86,0,0,1,3.79.4,10.81,10.81,0,0,1,3.15,1.33V8.62Z"/><path class="cls-3" d="M21.35,2.36h.89a7.17,7.17,0,0,1,4,1.08,4.24,4.24,0,0,1,1.46,3.43v8.18a4.3,4.3,0,0,1-1.32,3.23,6.62,6.62,0,0,1-4.2,1.22h-1q-4-.11-5.28-2.43a8.5,8.5,0,0,1-.62-4V8.39a7.59,7.59,0,0,1,.55-3.56C16.68,3.19,18.53,2.36,21.35,2.36Zm0,3.64H19v.07c1.13.21,1.73.31,1.81.31a1.43,1.43,0,0,0-.21.87v7c0,.92.21,1.46.63,1.6l.41.07a.77.77,0,0,0,.83-.66,6.58,6.58,0,0,0,.11-1.39V7.7c0-1-.08-1.49-.25-1.49,0-.11-.21-.19-.62-.24Z"/><path class="cls-3" d="M28.55,2.31h5.76a33.42,33.42,0,0,1,1.33,3.31q1.7,4.26,1.7,4.33h0V8.29c0-.48,0-1.14,0-2a1.43,1.43,0,0,0-.52-1v-3h5.52v3H40v.07l2,.36c-.14,0-.21.74-.22,2.23V19.5H36.59q-3-6.83-3.32-7.72h0v1.48c0,1.63.06,2.45.19,2.45s.15.29.46.48V19.5H28.55V16.39a1.64,1.64,0,0,0,.65-1.26c0-.73,0-1.27,0-1.61V8.32c0-.43,0-1,0-1.83a1.43,1.43,0,0,0-.65-1.19Z"/><path class="cls-3" d="M43.33,2.27H58.17V10H54.23V6.86c0-.44-.26-.69-.79-.76H51.06v.07l2.41.43v8.3a1.57,1.57,0,0,0,.62,1.49V19.5H47.44v-3a1.49,1.49,0,0,0,.65-1.37c0-.56,0-1,0-1.26V6.1h0c-.48,0-.73.3-.73.89,0,.15,0,.44,0,.87V10H43.33Z"/><path class="cls-3" d="M59,2.36H71.91v6h-5V7.14c0-.44-.31-.77-.93-1l-.36,0h-3v.07L65,6.64V9.3h3.45v3.3H65v3.3h.57a1.18,1.18,0,0,0,1.29-1.07V13.39h5V19.5H59V16.4a1,1,0,0,0,.5-.92V7.28A2.61,2.61,0,0,0,59,5.35Z"/><path class="cls-3" d="M78.63,2.31A11.71,11.71,0,0,1,85,4h0V8h-4.9V7c0-.77-.37-1.16-1.1-1.16h-2.2v.08c1,.18,1.54.28,1.64.28a1.26,1.26,0,0,0-.2.56V7c0,.86.8,1.43,2.42,1.71a9.74,9.74,0,0,1,2.84.92,4.37,4.37,0,0,1,2,2.52,5,5,0,0,1,.21,1.33V14A7.5,7.5,0,0,1,85,17.15a4,4,0,0,1-1.58,1.47,5.69,5.69,0,0,1-2.49.7,12.15,12.15,0,0,1-2.1.18h0a12.89,12.89,0,0,1-4.41-1c-.77-.39-1.18-.76-1.24-1.08V13.22h5.24v1.19c0,.87.31,1.3.94,1.3s1-.31,1-.71c0,0,.07-.17.07-.52V14.1c0-.75-.75-1.31-2.25-1.69A12,12,0,0,1,75,11.36c-1.31-.65-2-2-2-4.1V6.88a4.1,4.1,0,0,1,2.83-4.11A8.62,8.62,0,0,1,78.63,2.31Z"/><path class="cls-3" d="M86.6,2.27h14.85V10H97.51V6.86c0-.44-.26-.69-.79-.76H94.34v.07l2.41.43v8.3a1.57,1.57,0,0,0,.62,1.49V19.5H90.72v-3a1.51,1.51,0,0,0,.65-1.37c0-.56,0-1,0-1.26V6.1h0c-.48,0-.73.3-.73.89a8,8,0,0,0,0,.87V10H86.6Z"/><path class="cls-3" d="M109.7,2.31h6.78v3A1.35,1.35,0,0,0,116,6a4.07,4.07,0,0,0-.1,1v7.57a5.5,5.5,0,0,0,0,.77,3.37,3.37,0,0,0,.09.46,1.52,1.52,0,0,0,.17.3c.08.09.19.22.33.36v3H109.7v-3a1.51,1.51,0,0,0,.51-.63,2.06,2.06,0,0,0,.13-.78v-.34a2.81,2.81,0,0,1,0-.3V7a2,2,0,0,1,0-.25V6.51a1.6,1.6,0,0,0-.13-.69,1.13,1.13,0,0,0-.51-.51Z"/><path class="cls-3" d="M117,2.31h5.77s.49,1.11,1.33,3.31q1.7,4.26,1.69,4.33h0V8.29c0-.48,0-1.14,0-2a1.41,1.41,0,0,0-.51-1v-3h5.51v3h-2.41v.07l2,.36c-.13,0-.2.74-.22,2.23V19.5H125c-2-4.55-3.07-7.12-3.32-7.72h0v1.48c0,1.63.07,2.45.19,2.45s.15.29.46.48V19.5H117V16.39a1.61,1.61,0,0,0,.65-1.26c0-.73,0-1.27,0-1.61V8.32c0-.43,0-1,0-1.83A1.41,1.41,0,0,0,117,5.3Z"/><path class="cls-3" d="M131.73,2.31h6.81V5.48h-2.42v.08c1.16.21,1.8.32,1.92.32v0a2.12,2.12,0,0,0-.11.58c0,.3.4,2.83,1.22,7.57h0l1-7.57a1,1,0,0,0-.57-1s0,0,0,0V2.31h6v3.1a2.24,2.24,0,0,1-.39.65,57,57,0,0,0-1.41,6.7c-.07.29-.52,2.54-1.33,6.74H135q-2.31-11.25-2.55-12.61a3.92,3.92,0,0,0-.76-1.44Z"/><path class="cls-3" d="M146.51,2.29h6.78V5.36h-2.42v.08l2,.35a4.3,4.3,0,0,0-.18,1.34v7.46c0,1,.21,1.67.62,1.88v3h-6.78v-3a1.63,1.63,0,0,0,.65-1.33V6.41a1.13,1.13,0,0,0-.65-1.08Z"/><path class="cls-3" d="M154.2,2.27h14.85V10h-3.94V6.86c0-.44-.27-.69-.79-.76h-2.39v.07l2.42.43v8.3c0,.76.2,1.26.62,1.49V19.5h-6.65v-3a1.51,1.51,0,0,0,.65-1.37c0-.56,0-1,0-1.26V6.1h0c-.49,0-.73.3-.73.89a8,8,0,0,0,0,.87V10H154.2Z"/><path class="cls-3" d="M169.89,2.36h12.9v6h-5V7.14c0-.44-.31-.77-.93-1l-.37,0h-2.94v.07l2.37.43V9.3h3.45v3.3h-3.45v3.3h.57a1.19,1.19,0,0,0,1.3-1.07V13.39h5V19.5h-12.9V16.4a1,1,0,0,0,.51-.92V7.28a2.56,2.56,0,0,0-.51-1.93Z"/><path class="cls-3" d="M189.51,2.31A11.73,11.73,0,0,1,195.92,4h0V8h-4.91V7c0-.77-.36-1.16-1.09-1.16h-2.21v.08c1,.18,1.55.28,1.65.28a1.18,1.18,0,0,0-.21.56V7q0,1.29,2.43,1.71a9.65,9.65,0,0,1,2.83.92,4.34,4.34,0,0,1,2,2.52,4.71,4.71,0,0,1,.22,1.33V14a7.52,7.52,0,0,1-.78,3.16,4,4,0,0,1-1.57,1.47,5.69,5.69,0,0,1-2.5.7,12,12,0,0,1-2.09.18h0a13,13,0,0,1-4.42-1c-.76-.39-1.17-.76-1.23-1.08V13.22h5.23v1.19c0,.87.32,1.3,1,1.3s.94-.31.94-.71c0,0,.07-.17.07-.52V14.1c0-.75-.75-1.31-2.24-1.69a12.3,12.3,0,0,1-3.13-1.05c-1.3-.65-2-2-2-4.1V6.88a4.1,4.1,0,0,1,2.84-4.11A8.58,8.58,0,0,1,189.51,2.31Z"/></g></g></svg>