<svg xmlns="http://www.w3.org/2000/svg" xmlns:xlink="http://www.w3.org/1999/xlink" viewBox="0 0 128.54 21.46"><defs><style>.cls-1{fill:#0f1b30;}.cls-2{fill:#e63444;}.cls-3{fill:url(#linear-gradient);}.cls-4{fill:url(#linear-gradient-2);}.cls-5{fill:url(#linear-gradient-3);}.cls-6{fill:url(#linear-gradient-4);}.cls-7{fill:url(#linear-gradient-5);}.cls-8{fill:url(#linear-gradient-6);}.cls-9{fill:url(#linear-gradient-7);}.cls-10{fill:url(#linear-gradient-8);}.cls-11{fill:url(#linear-gradient-9);}.cls-12{fill:url(#linear-gradient-10);}</style><linearGradient id="linear-gradient" x1="48.34" y1="9.59" x2="48.34" y2="18.46" gradientUnits="userSpaceOnUse"><stop offset="0" stop-color="#e63444"/><stop offset="0.5" stop-color="#d2263e"/><stop offset="0.86" stop-color="#c9203c"/></linearGradient><linearGradient id="linear-gradient-2" x1="27.54" y1="9.59" x2="27.54" y2="18.46" xlink:href="#linear-gradient"/><linearGradient id="linear-gradient-3" x1="15.98" y1="9.59" x2="15.98" y2="18.46" xlink:href="#linear-gradient"/><linearGradient id="linear-gradient-4" x1="10.12" y1="9.59" x2="10.12" y2="18.46" xlink:href="#linear-gradient"/><linearGradient id="linear-gradient-5" x1="4.78" y1="9.59" x2="4.78" y2="18.46" xlink:href="#linear-gradient"/><linearGradient id="linear-gradient-6" x1="120.16" y1="9.59" x2="120.16" y2="18.46" xlink:href="#linear-gradient"/><linearGradient id="linear-gradient-7" x1="62.96" y1="9.59" x2="62.96" y2="18.46" xlink:href="#linear-gradient"/><linearGradient id="linear-gradient-8" x1="105.8" y1="9.59" x2="105.8" y2="18.46" xlink:href="#linear-gradient"/><linearGradient id="linear-gradient-9" x1="91.06" y1="9.59" x2="91.06" y2="18.46" xlink:href="#linear-gradient"/><linearGradient id="linear-gradient-10" x1="77.12" y1="9.59" x2="77.12" y2="18.46" xlink:href="#linear-gradient"/></defs><g id="Layer_2" data-name="Layer 2"><g id="Layer_1-2" data-name="Layer 1"><path class="cls-1" d="M119.48,21.46a15.05,15.05,0,0,1-5.16-1.12l-.11,0-.11-.06a3.87,3.87,0,0,1-2.29-2.51l0-.18V15.47a8,8,0,0,1-1.06.51,9.23,9.23,0,0,1-3,.5v5H96.91V19.79a6.89,6.89,0,0,1-2.42,1.27,9.74,9.74,0,0,1-2.72.4H90.7a10,10,0,0,1-4.27-.9,6.55,6.55,0,0,1-2.2-1.77,5.71,5.71,0,0,1-.76.88l-.07.08-.09.06a8.61,8.61,0,0,1-5.47,1.65h-1A10,10,0,0,1,72,20.29v1.17H54v-1l-.61.23a16.57,16.57,0,0,1-5.07.79h-.56c-4.36,0-6.15-2.06-6.89-3.82-.48-1-.68-2.5-.68-5.05V7.91a8.55,8.55,0,0,1,.8-4.37C41.83,2,43.72.1,47.71.1h.74A12.85,12.85,0,0,1,54,1.37V.1h8.62c3.52,0,4.83.41,5.55.78a6.1,6.1,0,0,1,2.24,1.74C71.75,1,74,.15,77,.15h.91a9.56,9.56,0,0,1,4.37,1V.1H96.91V0h9.42c3.14,0,5.43.83,6.83,2.47A6.78,6.78,0,0,1,115.77.7a10.66,10.66,0,0,1,3.57-.6,14.11,14.11,0,0,1,7,1.7h1.45l0,2v6h-.33a6.3,6.3,0,0,1,.7,1.56,6.59,6.59,0,0,1,.31,1.93v.57a9.7,9.7,0,0,1-1,4l-.06.12-.07.11a6.06,6.06,0,0,1-2.39,2.2,7.69,7.69,0,0,1-3.22.91,14.69,14.69,0,0,1-2.31.18ZM36.42,5.9V7.21h-1.1a24.75,24.75,0,0,0-1.51,3c-1,1.94-1.37,2.77-1.53,3.12v.93c0,.37,0,.62,0,.79l.63.63v5.81H22.24v-6l.62-.46V13.42c-.24-.5-.84-1.73-2.26-4.6v6a2,2,0,0,1,.65,1.49v5.12H0V16.34a1.9,1.9,0,0,1,.64-1.46c0-.58,0-1,0-1.31V8c0-.36,0-.84,0-1.43A2,2,0,0,1,0,5.12V.1H10.69l.12.64L11,.1H21.25v0H36.42V5.9Z"/><path class="cls-2" d="M2,2.1H9c0,.25.63,2.47,1.74,6.66h0L12.52,2.1h6.73V5.16H16.81v.07l2,.36A3.63,3.63,0,0,0,18.6,7.2v7.56a1.87,1.87,0,0,0,.32,1.32c.22.14.33.23.33.26v3.12H12.7V16.34a1,1,0,0,0,.62-.85V10.36h0L11,19.46H9.32L7,10.4h0V13c0,1.87.06,2.81.18,2.81s.17.31.46.55v3.12H2V16.34s.13-.1.4-.22a1.05,1.05,0,0,0,.26-.66c0-.88,0-1.51,0-1.89V8c0-.43,0-1.06,0-1.86a1.13,1.13,0,0,0-.37-.86C2.1,5.22,2,5.16,2,5.12Zm18.72,0h6.22V3.75a6.28,6.28,0,0,0,.47,2.77,11,11,0,0,1,.47,1,5.25,5.25,0,0,0,1-3.13V2.12h5.56V5.21H32v.08l2,.35a18.62,18.62,0,0,0-2,3.72c-1.14,2.27-1.71,3.45-1.71,3.56v1.31a4,4,0,0,0,.22,1.82l.43.43v3H24.24v-3a1.39,1.39,0,0,0,.62-1.13V13q0-.08-2.94-6c-.47-1.21-.87-1.81-1.2-1.81Zm27,0h.74A11.23,11.23,0,0,1,54.54,4V8.16h-5.1V7.06c0-.77-.26-1.24-.78-1.42H45.89v.07c1,.17,1.58.29,1.84.36a2.49,2.49,0,0,0-.31,1.46v6.66c0,.8.2,1.29.6,1.48a.71.71,0,0,0,.35.11h.22c.43,0,.71-.33.85-1V12.94h-.78V9.69h5.88v8.07c-.15.29-.78.63-1.88,1a14.29,14.29,0,0,1-4.39.67h-.56c-2.67,0-4.36-.88-5.07-2.66a11,11,0,0,1-.5-4.21V7.91a7.07,7.07,0,0,1,.53-3.36Q44,2.11,47.71,2.1ZM56,2.1h6.62c2.41,0,4,.19,4.66.58a4,4,0,0,1,2.44,4c0,2-.58,3.28-1.75,3.79,0,.05-.25.16-.76.32v.08a3.08,3.08,0,0,1,1.49.58s.09.16.26.33a4.78,4.78,0,0,1,.43,2.61c0,1.11.12,1.73.37,1.87s.25.14.25.18v3h-5.9a15.16,15.16,0,0,1-.29-3.38V14.47c0-.77-.18-1.25-.54-1.45a4,4,0,0,0-1.2-.37V15a1.9,1.9,0,0,0,.36,1.36.62.62,0,0,0,.26.11v3H56v-3c.44-.16.65-.83.65-2v-8a1,1,0,0,0-.58-1H56Zm3.64,3.67v.08L62,6.28v3h.25c1.19,0,1.78-.39,1.78-1.17a1,1,0,0,0,0-.33,2.42,2.42,0,0,0-.55-1.7,4.71,4.71,0,0,0-2.11-.3ZM77,2.15h.91a7.33,7.33,0,0,1,4,1.08A4.33,4.33,0,0,1,83.41,6.7V15a4.36,4.36,0,0,1-1.33,3.27,6.72,6.72,0,0,1-4.24,1.22h-1q-4-.09-5.33-2.45a8.51,8.51,0,0,1-.63-4V8.24a7.72,7.72,0,0,1,.56-3.6C72.28,3,74.16,2.15,77,2.15Zm0,3.67H74.61v.07c1.14.21,1.75.32,1.83.32a1.44,1.44,0,0,0-.21.88v7.05c0,.92.21,1.46.63,1.61l.42.07a.79.79,0,0,0,.84-.67,6.69,6.69,0,0,0,.11-1.4V7.55c0-1-.08-1.52-.25-1.52q0-.15-.63-.24ZM84.28,2.1h6.6V5.21a1.43,1.43,0,0,0-.65,1.38v7.49c0,.77.13,1.23.39,1.39a1.41,1.41,0,0,0,.76.21c.59,0,.89-.36.89-1.07V6.31a1.08,1.08,0,0,0-.61-1.07V2.1H98V5.28H95.62v.07l1.92.35c-.21.15-.32,1.2-.32,3.17v5.36q0,3.9-3.31,4.91a7.41,7.41,0,0,1-2.14.32H90.7a8.08,8.08,0,0,1-3.42-.71,4,4,0,0,1-2-2.07,6.36,6.36,0,0,1-.43-2.11q0-.93,0-1.56V7.06c0-1-.19-1.57-.57-1.75l-.07-.1ZM98.91,2h7.42q4.41,0,5.76,2.42a4,4,0,0,1,.61,2.08V9.94a4.08,4.08,0,0,1-2.7,4.18,7.56,7.56,0,0,1-2.38.36h-2.45v.92a.82.82,0,0,0,.4.81s.07,0,.11.11v3.14H98.91V16.32c.39-.24.58-.48.58-.74.05,0,.07-.12.07-.37V6.36a1,1,0,0,0-.65-1Zm3.8,3.84v.07l2.46.45v4.43a.06.06,0,0,0,.07.07h.62A1.15,1.15,0,0,0,107,10a2.6,2.6,0,0,0,.08-.54v-2c0-.87-.27-1.37-.81-1.51a6.24,6.24,0,0,0-1.65-.15ZM119.34,2.1a11.91,11.91,0,0,1,6.49,1.7h0v4h-5v-1c0-.78-.37-1.18-1.11-1.18h-2.23v.08c1,.19,1.57.28,1.66.28a1.34,1.34,0,0,0-.2.57v.18c0,.87.81,1.45,2.44,1.73a10.15,10.15,0,0,1,2.87.93,4.43,4.43,0,0,1,2,2.55,4.78,4.78,0,0,1,.22,1.34v.57a7.64,7.64,0,0,1-.78,3.19,4.12,4.12,0,0,1-1.6,1.49,5.67,5.67,0,0,1-2.52.7,12.29,12.29,0,0,1-2.12.18h0a13.28,13.28,0,0,1-4.46-1c-.77-.4-1.18-.77-1.24-1.1V13.12h5.29v1.2c0,.88.31,1.32,1,1.32s1-.32,1-.72c0,0,.07-.17.07-.53V14c0-.76-.76-1.33-2.27-1.71a12.23,12.23,0,0,1-3.16-1.06q-2-1-2-4.14V6.71a4.15,4.15,0,0,1,2.87-4.15A8.44,8.44,0,0,1,119.34,2.1Z"/><path class="cls-3" d="M49.66,11.94h.78v2.94l0,.1c-.33,1.62-1.39,1.8-1.83,1.8h-.22a1.64,1.64,0,0,1-.82-.23,2.35,2.35,0,0,1-1.13-2.36V9.59H43.14v3c0,2.73.27,3.53.38,3.74l0,.1c.2.5.81,2,4.14,2h.56a13.26,13.26,0,0,0,4.06-.62,7.19,7.19,0,0,0,1.21-.52V10.69H49.66Z"/><path class="cls-4" d="M29.28,14.23V12.92c0-.28,0-.38,1.47-3.33H27.64l-.76,1v-1H24.32c1.53,3.09,1.54,3.15,1.54,3.4v2.36a2.28,2.28,0,0,1-.62,1.57v1.54h4.69V16.89l-.17-.17C29.45,16.38,29.28,15.88,29.28,14.23Z"/><path class="cls-5" d="M17.6,9.59H14.32v5.9a1.78,1.78,0,0,1-.62,1.34v1.63h4.55V16.82a2.71,2.71,0,0,1-.65-2.06Z"/><polygon class="cls-6" points="11.6 9.59 11.55 9.76 10 9.76 9.96 9.59 7.77 9.59 10.09 18.46 10.17 18.46 12.31 10.12 12.47 9.59 11.6 9.59"/><path class="cls-7" d="M5.92,13V10.4l0-.81H3.62v4c0,.38,0,1,0,1.86v.16A1.94,1.94,0,0,1,3,16.92v1.54H6.56V16.78a2.43,2.43,0,0,1-.2-.25C5.92,16.08,5.92,15,5.92,13Z"/><path class="cls-8" d="M123.84,10.3a7.61,7.61,0,0,0-2.13-.71h-6.5a2,2,0,0,0,.85.75l.08,0,.1.07a11.9,11.9,0,0,0,2.78.88c2,.51,3,1.41,3,2.68v.38a2.6,2.6,0,0,1-.09.73c0,.47-.36,1.33-1.81,1.51H120c-.94,0-2-.61-2-2.32v-.2h-3.29v3a2.93,2.93,0,0,0,.65.42,12,12,0,0,0,4,.91h0a11.32,11.32,0,0,0,2-.16l.09,0h.08a4.76,4.76,0,0,0,2.08-.6,2.94,2.94,0,0,0,1.16-1.07,6.62,6.62,0,0,0,.66-2.71v-.57a4.13,4.13,0,0,0-.17-1.05A3.49,3.49,0,0,0,123.84,10.3Z"/><path class="cls-9" d="M68.14,12.46a2.61,2.61,0,0,1-.22-.24,1.85,1.85,0,0,0-.76-.31l-1-.08V10.09L67,9.85l.57-.25H64.43a3,3,0,0,1-2.15.68H61V9.59H57.6v4.84A3.93,3.93,0,0,1,57,16.94v1.52h4.7V17A2.79,2.79,0,0,1,61,15V11.65h1a4.62,4.62,0,0,1,1.67.49,2.42,2.42,0,0,1,1.07,2.33v1.61a17.49,17.49,0,0,0,.13,2.38H69V17a3.5,3.5,0,0,1-.62-2.55A5.61,5.61,0,0,0,68.14,12.46Z"/><path class="cls-10" d="M108.1,9.59a3.56,3.56,0,0,1-.1.65v.06l0,.06a2.17,2.17,0,0,1-2.11,1.5h-.62l-.95-.07-.12-.93V9.59h-3.61v5.62a1.86,1.86,0,0,1-.1.67,1.7,1.7,0,0,1-.55.94v1.64h4.77V16.78a1.9,1.9,0,0,1-.51-1.38V13.48h3.45a6.16,6.16,0,0,0,2-.3,3.08,3.08,0,0,0,2.07-3.24V9.59Z"/><path class="cls-11" d="M93.27,9.59v5a1.87,1.87,0,0,1-1.94,2.07h0a2.23,2.23,0,0,1-1.22-.36,2.51,2.51,0,0,1-.87-2.24V9.59H85.92V13c0,.41,0,.93,0,1.54a5.26,5.26,0,0,0,.36,1.77,2.93,2.93,0,0,0,1.45,1.52,7.06,7.06,0,0,0,3,.62h1.07a6.73,6.73,0,0,0,1.85-.27c1.78-.54,2.6-1.8,2.6-4V9.59Z"/><path class="cls-12" d="M79.23,9.59v4.16a7.3,7.3,0,0,1-.14,1.63,1.77,1.77,0,0,1-1.81,1.44H77.2l-.58-.1-.08,0c-.87-.29-1.31-1.16-1.31-2.55V9.59h-3.4V13c0,2.35.3,3.19.51,3.52.67,1.24,2.14,1.87,4.45,1.93h1a5.81,5.81,0,0,0,3.58-1,3.35,3.35,0,0,0,1-2.51V9.59Z"/></g></g></svg>