<svg xmlns="http://www.w3.org/2000/svg" xmlns:xlink="http://www.w3.org/1999/xlink" viewBox="0 0 88.4 21.46"><defs><style>.cls-1{fill:#0f1b30;}.cls-2{fill:#e63444;}.cls-3{fill:url(#linear-gradient);}.cls-4{fill:url(#linear-gradient-2);}.cls-5{fill:url(#linear-gradient-3);}.cls-6{fill:url(#linear-gradient-4);}.cls-7{fill:url(#linear-gradient-5);}.cls-8{fill:url(#linear-gradient-6);}</style><linearGradient id="linear-gradient" x1="22.82" y1="10.59" x2="22.82" y2="18.46" gradientUnits="userSpaceOnUse"><stop offset="0" stop-color="#e63444"/><stop offset="0.5" stop-color="#d2263e"/><stop offset="0.86" stop-color="#c9203c"/></linearGradient><linearGradient id="linear-gradient-2" x1="36.98" y1="10.59" x2="36.98" y2="18.46" xlink:href="#linear-gradient"/><linearGradient id="linear-gradient-3" x1="8.2" y1="10.59" x2="8.2" y2="18.46" xlink:href="#linear-gradient"/><linearGradient id="linear-gradient-4" x1="80.02" y1="10.59" x2="80.02" y2="18.46" xlink:href="#linear-gradient"/><linearGradient id="linear-gradient-5" x1="50.92" y1="10.59" x2="50.92" y2="18.46" xlink:href="#linear-gradient"/><linearGradient id="linear-gradient-6" x1="65.64" y1="10.59" x2="65.64" y2="18.46" xlink:href="#linear-gradient"/></defs><g id="Layer_2" data-name="Layer 2"><g id="Layer_1-2" data-name="Layer 1"><path class="cls-1" d="M88.09,11.4a6.3,6.3,0,0,0-.7-1.56h.33v-6l0-2H86.24a14.11,14.11,0,0,0-7-1.7,10.66,10.66,0,0,0-3.57.6A6.74,6.74,0,0,0,73,2.49C71.62.84,69.34,0,66.19,0H56.77V.1H42.14v1a9.6,9.6,0,0,0-4.37-1h-.91c-3,0-5.25.84-6.64,2.49A6.06,6.06,0,0,0,28,.88C27.26.51,26,.1,22.43.1H13.81V1.37A12.85,12.85,0,0,0,8.31.1H7.56C3.58.1,1.69,2,.8,3.54A8.55,8.55,0,0,0,0,7.91v4.68c0,2.55.2,4.08.68,5.05.74,1.76,2.53,3.82,6.88,3.82h.57a16.57,16.57,0,0,0,5.07-.79l.61-.23v1h18V20.27a9.92,9.92,0,0,0,4.83,1.19H37.7a8.59,8.59,0,0,0,5.47-1.65l.09-.06.07-.08a6.62,6.62,0,0,0,.78-.9,6.54,6.54,0,0,0,2.18,1.79,10,10,0,0,0,4.27.9h1.07a9.74,9.74,0,0,0,2.72-.4,7,7,0,0,0,2.42-1.3v1.7H67.54v-5a9.23,9.23,0,0,0,3-.5,7,7,0,0,0,1.06-.53v2.1l0,.18A3.87,3.87,0,0,0,74,20.24l.11.06.11,0a15.05,15.05,0,0,0,5.16,1.12h0a14.69,14.69,0,0,0,2.31-.18,7.69,7.69,0,0,0,3.22-.91,6.06,6.06,0,0,0,2.39-2.2l.07-.11.06-.12a9.7,9.7,0,0,0,1-4v-.57A6.59,6.59,0,0,0,88.09,11.4Z"/><path class="cls-2" d="M7.56,2.1h.75A11.23,11.23,0,0,1,14.4,4V8.16H9.3V7.06c0-.77-.26-1.24-.78-1.42H5.75v.07c1,.17,1.58.29,1.84.36a2.49,2.49,0,0,0-.31,1.46v6.66c0,.8.2,1.29.6,1.48a.71.71,0,0,0,.35.11h.22c.43,0,.71-.33.85-1V12.94H8.52V9.69H14.4v8.07c-.15.29-.78.63-1.88,1a14.29,14.29,0,0,1-4.39.67H7.56c-2.66,0-4.35-.88-5.06-2.66A11,11,0,0,1,2,12.59V7.91a7.07,7.07,0,0,1,.53-3.36Q3.87,2.11,7.56,2.1Zm8.25,0h6.62c2.41,0,4,.19,4.66.58a4,4,0,0,1,2.44,4c0,2-.58,3.28-1.75,3.79,0,.05-.25.16-.76.32v.08a3.08,3.08,0,0,1,1.49.58s.09.16.26.33a4.78,4.78,0,0,1,.43,2.61c0,1.11.12,1.73.37,1.87s.25.14.25.18v3h-5.9a15.16,15.16,0,0,1-.29-3.38V14.47c0-.77-.18-1.25-.55-1.45a3.91,3.91,0,0,0-1.19-.37V15a1.9,1.9,0,0,0,.36,1.36.62.62,0,0,0,.26.11v3h-6.7v-3c.44-.16.65-.83.65-2v-8a1,1,0,0,0-.58-1h-.07Zm3.64,3.67v.08l2.44.43v3h.25c1.19,0,1.78-.39,1.78-1.17a1,1,0,0,0,0-.33,2.42,2.42,0,0,0-.55-1.7,4.71,4.71,0,0,0-2.11-.3ZM36.86,2.15h.91a7.33,7.33,0,0,1,4,1.08A4.33,4.33,0,0,1,43.27,6.7V15a4.36,4.36,0,0,1-1.33,3.27,6.72,6.72,0,0,1-4.24,1.22H36.65q-4-.09-5.33-2.45a8.51,8.51,0,0,1-.63-4V8.24a7.72,7.72,0,0,1,.56-3.6Q32.6,2.15,36.86,2.15Zm0,3.67H34.47v.07c1.14.21,1.75.32,1.83.32a1.44,1.44,0,0,0-.21.88v7.05c0,.92.21,1.46.63,1.61l.42.07a.79.79,0,0,0,.84-.67,6.69,6.69,0,0,0,.11-1.4V7.55c0-1-.08-1.52-.25-1.52q0-.15-.63-.24ZM44.14,2.1h6.6V5.21a1.43,1.43,0,0,0-.65,1.38v7.49c0,.77.13,1.23.39,1.39a1.41,1.41,0,0,0,.76.21c.59,0,.89-.36.89-1.07V6.31a1.08,1.08,0,0,0-.61-1.07V2.1h6.35V5.28H55.48v.07l1.92.35c-.21.15-.32,1.2-.32,3.17v5.36q0,3.9-3.31,4.91a7.41,7.41,0,0,1-2.14.32H50.56a8.08,8.08,0,0,1-3.42-.71,4,4,0,0,1-2-2.07,6.36,6.36,0,0,1-.43-2.11q0-.93,0-1.56V7.06c0-1-.19-1.57-.57-1.75l-.07-.1ZM58.77,2h7.42Q70.6,2,72,4.42a4,4,0,0,1,.61,2.08V9.94a4.08,4.08,0,0,1-2.7,4.18,7.56,7.56,0,0,1-2.38.36H65v.92a.82.82,0,0,0,.4.81s.07,0,.11.11v3.14H58.77V16.32c.39-.24.58-.48.58-.74,0,0,.07-.12.07-.37V6.36a1,1,0,0,0-.65-1Zm3.8,3.84v.07L65,6.36v4.43a.06.06,0,0,0,.07.07h.62A1.15,1.15,0,0,0,66.89,10,2.6,2.6,0,0,0,67,9.47v-2c0-.87-.27-1.37-.81-1.51a6.24,6.24,0,0,0-1.65-.15ZM79.2,2.1a11.91,11.91,0,0,1,6.49,1.7h0v4h-5v-1c0-.78-.37-1.18-1.11-1.18H77.43v.08c1,.19,1.57.28,1.66.28a1.34,1.34,0,0,0-.2.57v.18c0,.87.81,1.45,2.44,1.73a10.15,10.15,0,0,1,2.87.93,4.43,4.43,0,0,1,2,2.55,4.78,4.78,0,0,1,.22,1.34v.57a7.64,7.64,0,0,1-.78,3.19A4.12,4.12,0,0,1,84,18.58a5.67,5.67,0,0,1-2.52.7,12.29,12.29,0,0,1-2.12.18h0a13.28,13.28,0,0,1-4.46-1c-.77-.4-1.18-.77-1.24-1.1V13.12h5.29v1.2c0,.88.31,1.32.95,1.32s1-.32,1-.72c0,0,.07-.17.07-.53V14c0-.76-.76-1.33-2.27-1.71a12.23,12.23,0,0,1-3.16-1.06q-2-1-2-4.14V6.71a4.15,4.15,0,0,1,2.87-4.15A8.44,8.44,0,0,1,79.2,2.1Z"/><path class="cls-3" d="M28,12.46a1.7,1.7,0,0,1-.22-.24,1.85,1.85,0,0,0-.76-.31l-1-.08V10.59H17.46v3.84a3.93,3.93,0,0,1-.65,2.51v1.52h4.7V17a2.79,2.79,0,0,1-.62-2V11.65h1a4.62,4.62,0,0,1,1.67.49,2.42,2.42,0,0,1,1.07,2.33v1.61a17.49,17.49,0,0,0,.13,2.38h4.06V17a3.5,3.5,0,0,1-.62-2.55A5.61,5.61,0,0,0,28,12.46Z"/><path class="cls-4" d="M39.09,10.59v3.16A7.3,7.3,0,0,1,39,15.38a1.77,1.77,0,0,1-1.81,1.44h-.08l-.58-.1-.08,0c-.87-.29-1.31-1.16-1.31-2.55V10.59h-3.4V13c0,2.35.3,3.19.51,3.52.67,1.24,2.14,1.87,4.45,1.93H37.7a5.81,5.81,0,0,0,3.58-1,3.34,3.34,0,0,0,1-2.51V10.59Z"/><path class="cls-5" d="M9.52,11.94h.78v2.94l0,.1c-.33,1.62-1.39,1.8-1.83,1.8H8.23a1.64,1.64,0,0,1-.82-.23,2.35,2.35,0,0,1-1.13-2.36v-3.6H3v2c0,2.73.27,3.53.38,3.74l.05.1c.2.5.81,2,4.13,2h.57a13.26,13.26,0,0,0,4.06-.62,7.19,7.19,0,0,0,1.21-.52V10.69H9.52Z"/><path class="cls-6" d="M84.08,10.59H76.39a23.34,23.34,0,0,0,2.49.74c2,.51,3,1.41,3,2.68v.38a2.6,2.6,0,0,1-.09.73c-.06.47-.36,1.33-1.82,1.51h-.12c-.94,0-1.95-.61-1.95-2.32v-.2H74.64v3a2.93,2.93,0,0,0,.65.42,12,12,0,0,0,4,.91h0a11.32,11.32,0,0,0,2-.16l.09,0h.08a4.76,4.76,0,0,0,2.08-.6,2.94,2.94,0,0,0,1.16-1.07,6.62,6.62,0,0,0,.66-2.71v-.57a4.13,4.13,0,0,0-.17-1.05A3.36,3.36,0,0,0,84.08,10.59Z"/><path class="cls-7" d="M53.13,10.59v4a1.87,1.87,0,0,1-1.94,2.07h0A2.23,2.23,0,0,1,50,16.32a2.51,2.51,0,0,1-.87-2.24V10.59H45.78V13c0,.41,0,.93,0,1.54a5.26,5.26,0,0,0,.36,1.77,2.93,2.93,0,0,0,1.45,1.52,7.06,7.06,0,0,0,3,.62h1.07a6.73,6.73,0,0,0,1.85-.27c1.78-.54,2.6-1.8,2.6-4V10.59Z"/><path class="cls-8" d="M67.71,10.59a2.14,2.14,0,0,1-2,1.27H65.1l-.95-.07L64,10.86v-.27H60.42v4.62a1.86,1.86,0,0,1-.1.67,1.7,1.7,0,0,1-.55.94v1.64h4.77V16.78A1.9,1.9,0,0,1,64,15.4V13.48h3.45a6.16,6.16,0,0,0,2-.3,2.94,2.94,0,0,0,2-2.59Z"/></g></g></svg>