<svg xmlns="http://www.w3.org/2000/svg" xmlns:xlink="http://www.w3.org/1999/xlink" viewBox="0 0 78.31 21.41"><defs><style>.cls-1{fill:#0f1b30;}.cls-2{fill:#e63444;}.cls-3{fill:url(#linear-gradient);}.cls-4{fill:url(#linear-gradient-2);}.cls-5{fill:url(#linear-gradient-3);}.cls-6{fill:url(#linear-gradient-4);}.cls-7{fill:url(#linear-gradient-5);}.cls-8{fill:url(#linear-gradient-6);}</style><linearGradient id="linear-gradient" x1="5.42" y1="9.54" x2="5.42" y2="18.41" gradientUnits="userSpaceOnUse"><stop offset="0" stop-color="#e63444"/><stop offset="0.5" stop-color="#d2263e"/><stop offset="0.86" stop-color="#c9203c"/></linearGradient><linearGradient id="linear-gradient-2" x1="16.46" y1="9.54" x2="16.46" y2="18.41" xlink:href="#linear-gradient"/><linearGradient id="linear-gradient-3" x1="31.76" y1="9.54" x2="31.76" y2="18.41" xlink:href="#linear-gradient"/><linearGradient id="linear-gradient-4" x1="54.94" y1="9.54" x2="54.94" y2="18.41" xlink:href="#linear-gradient"/><linearGradient id="linear-gradient-5" x1="43.07" y1="9.54" x2="43.07" y2="18.41" xlink:href="#linear-gradient"/><linearGradient id="linear-gradient-6" x1="69.79" y1="9.54" x2="69.79" y2="18.41" xlink:href="#linear-gradient"/></defs><g id="Layer_2" data-name="Layer 2"><g id="Layer_1-2" data-name="Layer 1"><path class="cls-1" d="M61.28,21.41V15.16l.5-.31v-3H59.67v2.92l.63.36v6.29H49.58V15.32l.65-.41c0-.5,0-.89,0-1.15V11.84H47.87v2.61a3.63,3.63,0,0,0,0,.38l.6.31v6.27H37.64V19.18l-.43,2.23H26.42l-1.28-6.28v6.28H0v-6l.66-.51V6.65L0,6.32V0H10.85v0H15.6a3.79,3.79,0,0,1,.62,0v0H37.64V0h7.78V0h19V.1H78.31V10.16H74.82v1.08h3.49V21.41Z"/><path class="cls-2" d="M2,2H8.85v3.1H6.41v.08l2,.35a4.44,4.44,0,0,0-.18,1.36v7.53c0,1.06.21,1.69.62,1.91v3.05H2v-3a1.65,1.65,0,0,0,.66-1.35V6.19A1.14,1.14,0,0,0,2,5.1Zm7.78,0H15.6A33.39,33.39,0,0,1,16.94,5.4c1.14,2.86,1.72,4.32,1.72,4.37h0V8.09c0-.49,0-1.16,0-2a1.45,1.45,0,0,0-.52-1v-3h5.57V5.11H21.35v.07l2,.36q-.2,0-.21,2.25V19.41H17.9q-3-6.88-3.36-7.79h0v1.49c0,1.65.07,2.48.19,2.48s.16.29.47.48v3.34H9.78V16.28A1.68,1.68,0,0,0,10.43,15c0-.73,0-1.28,0-1.63V8.12c0-.44,0-1,0-1.85a1.44,1.44,0,0,0-.65-1.2Zm14.93,0h6.88v3.2H29.15v.08c1.17.21,1.81.32,1.93.32v0a2.7,2.7,0,0,0-.11.59q0,.47,1.24,7.65h0L33.3,6.27a1,1,0,0,0-.58-1s0,0,0,0V2.05h6V5.18a2.42,2.42,0,0,1-.4.65A61.58,61.58,0,0,0,36.9,12.6q-.1.45-1.34,6.81H28.05Q25.73,8,25.48,6.67a4.13,4.13,0,0,0-.77-1.45ZM39.64,2h6.85v3.1H44.05v.08l2,.35a4.44,4.44,0,0,0-.18,1.36v7.53c0,1.06.21,1.69.62,1.91v3.05H39.64v-3a1.65,1.65,0,0,0,.66-1.35V6.19a1.14,1.14,0,0,0-.66-1.09Zm7.78,0h15V9.84h-4V6.64c0-.44-.27-.69-.8-.77H55.23v.07l2.44.44v8.39a1.59,1.59,0,0,0,.63,1.51v3.13H51.58v-3A1.52,1.52,0,0,0,52.24,15c0-.57,0-1,0-1.27V5.87h0c-.5,0-.74.3-.74.91a7.91,7.91,0,0,0,0,.87V9.84h-4Zm15.86.1h13V8.16H71.22V6.93c0-.45-.31-.78-.94-1l-.36,0h-3V6l2.4.44V9.11h3.48v3.33H69.34v3.34h.58a1.19,1.19,0,0,0,1.3-1.09V13.24h5.09v6.17h-13V16.29a1,1,0,0,0,.5-.94V7.07a2.64,2.64,0,0,0-.5-1.95Z"/><path class="cls-3" d="M7.23,9.54H3.66v5.54A2.6,2.6,0,0,1,3,16.85v1.56H7.85v-1.6a3.84,3.84,0,0,1-.62-2.36Z"/><path class="cls-4" d="M19.7,9.54v.23l0,1h-2V9.93l-.16-.39H11.39v3.83c0,.34,0,.88,0,1.63a2.54,2.54,0,0,1-.65,1.69v1.72h3.38V16.57a1.69,1.69,0,0,1-.27-.32c-.39-.5-.39-1.55-.39-3.14V11.62l0-1h1.68l.25.62c.23.57,1.27,3,3.09,7.17h3.58V9.54Z"/><path class="cls-5" d="M33.86,9.54l-.62,4.51-.16.87H31.36l-.14-.83c-.34-2-.59-3.46-.77-4.55H27.06q.61,3,1.81,8.87h5.87c1.08-5.59,1.16-5.93,1.18-6,.21-1.15.38-2.1.54-2.89Z"/><path class="cls-6" d="M56.67,9.54H53.2v4.22c0,.27,0,.68,0,1.27a2.65,2.65,0,0,1-.66,1.85v1.53H57.3V16.74a2.82,2.82,0,0,1-.63-2Z"/><path class="cls-7" d="M44.87,9.54H41.3v5.54a2.6,2.6,0,0,1-.66,1.77v1.56h4.85v-1.6a3.84,3.84,0,0,1-.62-2.36Z"/><path class="cls-8" d="M72.22,14.78v.08a2.19,2.19,0,0,1-2.29,1.92H68.34V11.44h3.48V10.11H68.34V9.54H64.78v5.81a2,2,0,0,1-.5,1.39v1.67h11V14.24H72.22Z"/></g></g></svg>