<svg xmlns="http://www.w3.org/2000/svg" xmlns:xlink="http://www.w3.org/1999/xlink" viewBox="0 0 96.7 21.41"><defs><style>.cls-1{fill:#0f1b30;}.cls-2{fill:#e63444;}.cls-3{fill:url(#linear-gradient);}.cls-4{fill:url(#linear-gradient-2);}.cls-5{fill:url(#linear-gradient-3);}.cls-6{fill:url(#linear-gradient-4);}.cls-7{fill:url(#linear-gradient-5);}.cls-8{fill:url(#linear-gradient-6);}.cls-9{fill:url(#linear-gradient-7);}</style><linearGradient id="linear-gradient" x1="22.72" y1="9.54" x2="22.72" y2="18.41" gradientUnits="userSpaceOnUse"><stop offset="0" stop-color="#e63444"/><stop offset="0.5" stop-color="#d2263e"/><stop offset="0.86" stop-color="#c9203c"/></linearGradient><linearGradient id="linear-gradient-2" x1="6.86" y1="9.54" x2="6.86" y2="18.41" xlink:href="#linear-gradient"/><linearGradient id="linear-gradient-3" x1="34.02" y1="9.54" x2="34.02" y2="18.41" xlink:href="#linear-gradient"/><linearGradient id="linear-gradient-4" x1="74.35" y1="9.54" x2="74.35" y2="18.41" xlink:href="#linear-gradient"/><linearGradient id="linear-gradient-5" x1="44.88" y1="9.54" x2="44.88" y2="18.41" xlink:href="#linear-gradient"/><linearGradient id="linear-gradient-6" x1="88.31" y1="9.54" x2="88.31" y2="18.41" xlink:href="#linear-gradient"/><linearGradient id="linear-gradient-7" x1="59.16" y1="9.54" x2="59.16" y2="18.41" xlink:href="#linear-gradient"/></defs><g id="Layer_2" data-name="Layer 2"><g id="Layer_1-2" data-name="Layer 1"><path class="cls-1" d="M96.39,11.35a7.35,7.35,0,0,0-.7-1.56H96v-6l0-2H94.53a14.1,14.1,0,0,0-7-1.7,10.72,10.72,0,0,0-3.58.6,7,7,0,0,0-2.36,1.52,5.65,5.65,0,0,0-1.1-.92c-1.11-.83-3-1.19-6.2-1.19H58.93v0a3.87,3.87,0,0,0-.62,0H50.48V.1h-11V0H28.59v1.2a6.16,6.16,0,0,0-.71-.4c-.72-.37-2-.78-5.55-.78H16.74V0H0V5.18A2.08,2.08,0,0,0,.81,6.81v7.74a1.25,1.25,0,0,1,0,.24l-.64.47v6.15H10.68V15.2l-.46-.32c0-.11,0-.25,0-.44v0h3.37V10.09h.8v4.29a3.79,3.79,0,0,1,0,.38l-.64.23v6.42H75.86a7.93,7.93,0,0,0,5.25-1.67l.11-.1,0-.05a7.69,7.69,0,0,0,1,.6l.1.06.11,0a15.1,15.1,0,0,0,5.17,1.12h0a14.57,14.57,0,0,0,2.3-.18,7.69,7.69,0,0,0,3.22-.91,6.08,6.08,0,0,0,2.4-2.2l.07-.11,0-.12a9.57,9.57,0,0,0,1-4v-.57A6.94,6.94,0,0,0,96.39,11.35Zm-46.48-.11V10.16H51.1v1.08Z"/><path class="cls-2" d="M2,2H14.74V8.09H10V6.82A.86.86,0,0,0,9.49,6,4.34,4.34,0,0,0,8,5.68H5.76v.08L8.2,6.2V9.05h3.37V12.4H8.2v2q0,1.46.48,1.8v3.17H2.15V16.28a2,2,0,0,0,.66-1.73V6.86c0-.87-.21-1.4-.63-1.57-.12,0-.18-.06-.18-.11Zm13.71,0h6.62c2.41,0,4,.19,4.66.58a4,4,0,0,1,2.44,4c0,2-.58,3.28-1.74,3.79,0,.06-.26.16-.77.32v.08a3.08,3.08,0,0,1,1.49.58c0,.05.09.16.26.33a4.68,4.68,0,0,1,.43,2.61c0,1.11.12,1.73.37,1.87s.26.14.26.18v3H23.82A15.16,15.16,0,0,1,23.53,16V14.42c0-.77-.18-1.25-.54-1.45a4,4,0,0,0-1.2-.37v2.33a1.9,1.9,0,0,0,.36,1.36.68.68,0,0,0,.26.11v3h-6.7v-3c.44-.16.66-.83.66-2v-8a1,1,0,0,0-.59-1h-.07Zm3.64,3.67V5.8l2.44.43v3H22c1.19,0,1.78-.39,1.78-1.17a1,1,0,0,0,0-.33A2.42,2.42,0,0,0,23.31,6a4.68,4.68,0,0,0-2.11-.3ZM30.59,2h6.85v3.1H35v.08l2,.35a4.44,4.44,0,0,0-.18,1.36v7.53c0,1.06.21,1.69.62,1.91v3.05H30.59v-3a1.65,1.65,0,0,0,.66-1.35V6.19a1.14,1.14,0,0,0-.66-1.09Zm7.78.07h13V8.16H46.31V6.93q0-.67-.93-1l-.37,0H42V6l2.4.44V9.11h3.48v3.33H44.43v3.34H45a1.18,1.18,0,0,0,1.3-1.09V13.24H51.4v6.17h-13V16.29a1,1,0,0,0,.51-.94V7.07q0-1.53-.51-1.95Zm14.11-.05h5.83A33.39,33.39,0,0,1,59.65,5.4q1.71,4.29,1.71,4.37h0V8.09c0-.49,0-1.16,0-2a1.43,1.43,0,0,0-.51-1v-3H66.5V5.11H64.06v.07l2,.36c-.13,0-.2.75-.22,2.25V19.41H60.61q-3-6.88-3.36-7.79h0v1.49c0,1.65.07,2.48.19,2.48s.16.29.47.48v3.34H52.48V16.28A1.66,1.66,0,0,0,53.14,15c0-.73,0-1.28,0-1.63V8.12c0-.44,0-1,0-1.85a1.42,1.42,0,0,0-.66-1.2Zm14.94,0h6.84c2.7,0,4.39.28,5,.84q2,1.17,2,4.26v7.23a5.09,5.09,0,0,1-1.46,3.82,6,6,0,0,1-4,1.2H67.42V16.25c.48-.17.72-.41.72-.73,0,0,.07-.18.07-.55V6.72a1.54,1.54,0,0,0-.57-1.39l-.22-.06Zm4,3.86V6l2.44.44v9.35l.26,0h.43a1.19,1.19,0,0,0,.87-.36,1.5,1.5,0,0,0,.33-1V7.12a1,1,0,0,0-.51-1,3.24,3.24,0,0,0-1.09-.18ZM87.5,2.05A11.89,11.89,0,0,1,94,3.75h0v4h-5v-1c0-.78-.37-1.18-1.1-1.18H85.73V5.7c1,.19,1.56.28,1.66.28a1.25,1.25,0,0,0-.21.57v.18c0,.87.82,1.45,2.45,1.73a10.27,10.27,0,0,1,2.87.93,4.43,4.43,0,0,1,2,2.55,5.17,5.17,0,0,1,.22,1.34v.57A7.67,7.67,0,0,1,93.91,17a4,4,0,0,1-1.59,1.49,5.67,5.67,0,0,1-2.52.7,12.38,12.38,0,0,1-2.12.18h0a13.18,13.18,0,0,1-4.46-1c-.77-.4-1.19-.77-1.25-1.1V13.07h5.29v1.2c0,.88.32,1.32,1,1.32s1-.32,1-.72c.05,0,.07-.17.07-.53V14c0-.76-.76-1.33-2.27-1.71a12.23,12.23,0,0,1-3.16-1.06q-2-1-2-4.14V6.66a4.15,4.15,0,0,1,2.87-4.15A8.5,8.5,0,0,1,87.5,2.05Z"/><path class="cls-3" d="M27.9,12.41a2.61,2.61,0,0,1-.22-.24,1.85,1.85,0,0,0-.76-.31l-1-.08V10l.79-.24.57-.25H24.19a3,3,0,0,1-2.15.68H20.79V9.54H17.37v4.84a3.88,3.88,0,0,1-.66,2.51v1.52h4.7V17a2.79,2.79,0,0,1-.62-2V11.6h1a4.62,4.62,0,0,1,1.67.49,2.42,2.42,0,0,1,1.07,2.33V16a17.49,17.49,0,0,0,.13,2.38h4.07V16.94a3.49,3.49,0,0,1-.63-2.56A5.61,5.61,0,0,0,27.9,12.41Z"/><path class="cls-4" d="M7.2,9.54H3.81v5a3.2,3.2,0,0,1-.66,2.15v1.71H7.68V16.62a4,4,0,0,1-.48-2.18v-3h3.37V10.05H7.2Z"/><path class="cls-5" d="M35.82,9.54H32.25v5.54a2.6,2.6,0,0,1-.66,1.77v1.56h4.85v-1.6a3.84,3.84,0,0,1-.62-2.36Z"/><path class="cls-6" d="M76.71,9.54v4.92a2.55,2.55,0,0,1-.62,1.7,2.22,2.22,0,0,1-1.58.65H74l-1.2-.14V9.54H69.21V15a2.63,2.63,0,0,1-.08.73,1.66,1.66,0,0,1-.71,1.16v1.55h7.44a5,5,0,0,0,3.26-.92,4.06,4.06,0,0,0,1.16-3.1V9.54Z"/><path class="cls-7" d="M47.31,14.78v.08A2.19,2.19,0,0,1,45,16.78H43.43V11.44h3.48V10.11H43.43V9.54H39.88v5.81a2,2,0,0,1-.51,1.39v1.67h11V14.24H47.31Z"/><path class="cls-8" d="M92,10.25a7.61,7.61,0,0,0-2.13-.71h-6.5a2.07,2.07,0,0,0,.86.75l.08,0,.09.07a12.18,12.18,0,0,0,2.78.88c2,.51,3,1.41,3,2.68v.38a3,3,0,0,1-.08.73c-.06.47-.37,1.33-1.82,1.51h-.13c-.94,0-2-.61-2-2.32v-.2H82.93v3a3.11,3.11,0,0,0,.66.42,12,12,0,0,0,4,.91h0a11.4,11.4,0,0,0,1.95-.16l.08,0h.09a4.72,4.72,0,0,0,2.07-.6A2.94,2.94,0,0,0,93,16.56a6.65,6.65,0,0,0,.67-2.71v-.57a4.19,4.19,0,0,0-.18-1A3.45,3.45,0,0,0,92,10.25Z"/><path class="cls-9" d="M62.4,9.54v.23l0,1h-2V9.93c0-.08-.07-.2-.15-.39H54.1v3.83c0,.34,0,.88,0,1.63a2.5,2.5,0,0,1-.66,1.69v1.72h3.39V16.57a1.69,1.69,0,0,1-.27-.32c-.39-.5-.39-1.55-.39-3.14V11.62l0-1h1.68l.25.62c.23.57,1.27,3,3.08,7.17h3.58V9.54Z"/></g></g></svg>