<svg xmlns="http://www.w3.org/2000/svg" xmlns:xlink="http://www.w3.org/1999/xlink" viewBox="0 0 136.84 21.41"><defs><style>.cls-1{fill:#0f1b30;}.cls-2{fill:#e63444;}.cls-3{fill:url(#linear-gradient);}.cls-4{fill:url(#linear-gradient-2);}.cls-5{fill:url(#linear-gradient-3);}.cls-6{fill:url(#linear-gradient-4);}.cls-7{fill:url(#linear-gradient-5);}.cls-8{fill:url(#linear-gradient-6);}.cls-9{fill:url(#linear-gradient-7);}.cls-10{fill:url(#linear-gradient-8);}.cls-11{fill:url(#linear-gradient-9);}.cls-12{fill:url(#linear-gradient-10);}.cls-13{fill:url(#linear-gradient-11);}</style><linearGradient id="linear-gradient" x1="46.59" y1="9.54" x2="46.59" y2="18.41" gradientUnits="userSpaceOnUse"><stop offset="0" stop-color="#e63444"/><stop offset="0.5" stop-color="#d2263e"/><stop offset="0.86" stop-color="#c9203c"/></linearGradient><linearGradient id="linear-gradient-2" x1="15.98" y1="9.54" x2="15.98" y2="18.41" xlink:href="#linear-gradient"/><linearGradient id="linear-gradient-3" x1="27.13" y1="9.54" x2="27.13" y2="18.41" xlink:href="#linear-gradient"/><linearGradient id="linear-gradient-4" x1="4.78" y1="9.54" x2="4.78" y2="18.41" xlink:href="#linear-gradient"/><linearGradient id="linear-gradient-5" x1="10.12" y1="9.54" x2="10.12" y2="18.41" xlink:href="#linear-gradient"/><linearGradient id="linear-gradient-6" x1="73.75" y1="9.54" x2="73.75" y2="18.41" xlink:href="#linear-gradient"/><linearGradient id="linear-gradient-7" x1="62.45" y1="9.54" x2="62.45" y2="18.41" xlink:href="#linear-gradient"/><linearGradient id="linear-gradient-8" x1="128.45" y1="9.54" x2="128.45" y2="18.41" xlink:href="#linear-gradient"/><linearGradient id="linear-gradient-9" x1="114.08" y1="9.54" x2="114.08" y2="18.41" xlink:href="#linear-gradient"/><linearGradient id="linear-gradient-10" x1="98.9" y1="9.54" x2="98.9" y2="18.41" xlink:href="#linear-gradient"/><linearGradient id="linear-gradient-11" x1="84.62" y1="9.54" x2="84.62" y2="18.41" xlink:href="#linear-gradient"/></defs><g id="Layer_2" data-name="Layer 2"><g id="Layer_1-2" data-name="Layer 1"><path class="cls-1" d="M127.78,21.41a15.1,15.1,0,0,1-5.17-1.12l-.11,0-.1-.06a6.53,6.53,0,0,1-1.22-.78l-.28.28-.06,0a7.93,7.93,0,0,1-5.25,1.67H53.44V15l.65-.23c0-.1,0-.23,0-.38V10.09h-.8V14.4H49.93v0c0,.19,0,.33,0,.44l.46.32v6.21H39.88V15.26l.65-.47s0-.13,0-.24V6.81a2.08,2.08,0,0,1-.81-1.63V0H56.48V.05h5.58c3.53,0,4.83.41,5.55.78a6.85,6.85,0,0,1,.71.39V0H79.17V.1h11v0H98a3.79,3.79,0,0,1,.62,0v0H114c3.22,0,5.09.36,6.2,1.19a5.78,5.78,0,0,1,1.3,1.13A6.82,6.82,0,0,1,124.06.65a10.72,10.72,0,0,1,3.58-.6,14.1,14.1,0,0,1,7,1.7h1.45l0,2v6h-.33a7.35,7.35,0,0,1,.7,1.56,6.94,6.94,0,0,1,.31,1.93v.57a9.57,9.57,0,0,1-1,4l-.05.12-.07.11a6.08,6.08,0,0,1-2.4,2.2,7.65,7.65,0,0,1-3.22.91,14.57,14.57,0,0,1-2.3.18ZM36,5.85V7.16H34.91a24.75,24.75,0,0,0-1.51,3c-1,1.94-1.36,2.77-1.52,3.12v.93c0,.37,0,.62,0,.79l.62.63v5.81H21.83v-6l.62-.46V13.37L20.6,9.59V14.8a2,2,0,0,1,.65,1.49v5.12H0V16.29a1.9,1.9,0,0,1,.64-1.46c0-.58,0-1,0-1.31V8c0-.36,0-.83,0-1.43A2,2,0,0,1,0,5.07v-5H10.69l.12.64L11,.05H21.25v0H36V5.85Z"/><path class="cls-2" d="M2,2.05H9c0,.25.63,2.47,1.74,6.66h0l1.71-6.66h6.73V5.11H16.81v.07l2,.36a3.63,3.63,0,0,0-.21,1.61v7.56A1.87,1.87,0,0,0,18.92,16c.22.14.33.23.33.26v3.12H12.7V16.29a1,1,0,0,0,.62-.85V10.31h0L11,19.41H9.32L7,10.35h0v2.58c0,1.87.06,2.81.18,2.81s.17.31.46.55v3.12H2V16.29s.13-.1.4-.22a1.05,1.05,0,0,0,.26-.66c0-.88,0-1.51,0-1.89V8c0-.43,0-1.06,0-1.86a1.13,1.13,0,0,0-.37-.86C2.1,5.17,2,5.11,2,5.07Zm18.31,0h6.22V3.7A6.43,6.43,0,0,0,27,6.47a9.91,9.91,0,0,1,.48,1,5.24,5.24,0,0,0,1-3.13V2.07H34V5.16H31.58v.08l2,.35a18.62,18.62,0,0,0-2,3.72c-1.14,2.27-1.7,3.46-1.7,3.56v1.31A4.11,4.11,0,0,0,30.09,16l.43.43v3H23.83v-3a1.38,1.38,0,0,0,.62-1.13V12.94s-1-2-2.94-6c-.47-1.21-.87-1.81-1.2-1.81ZM41.73,2H54.48V8.09H49.69V6.82A.87.87,0,0,0,49.22,6a4.33,4.33,0,0,0-1.53-.3H45.5v.08l2.43.44V9.05H51.3V12.4H47.93v2q0,1.46.48,1.8v3.17H41.88V16.28a2,2,0,0,0,.66-1.73V6.86c0-.87-.21-1.4-.63-1.57-.12,0-.18-.06-.18-.11Zm13.71,0h6.62c2.41,0,4,.19,4.66.58a4,4,0,0,1,2.44,4c0,2-.58,3.28-1.74,3.79,0,.06-.26.16-.77.32v.08a3.08,3.08,0,0,1,1.49.58c0,.05.09.16.26.33a4.68,4.68,0,0,1,.43,2.61c0,1.11.12,1.73.37,1.87s.26.14.26.18v3H63.55A15.27,15.27,0,0,1,63.27,16V14.42c0-.77-.19-1.25-.55-1.45a4,4,0,0,0-1.2-.37v2.33a1.9,1.9,0,0,0,.36,1.36.68.68,0,0,0,.26.11v3h-6.7v-3c.44-.16.66-.83.66-2v-8a1,1,0,0,0-.59-1h-.07Zm3.64,3.67V5.8l2.44.43v3h.25c1.19,0,1.78-.39,1.78-1.17a1,1,0,0,0,0-.33A2.46,2.46,0,0,0,63.05,6a4.74,4.74,0,0,0-2.11-.3ZM70.32,2h6.85v3.1H74.73v.08l2,.35a4.44,4.44,0,0,0-.18,1.36v7.53c0,1.06.2,1.69.61,1.91v3.05H70.32v-3A1.65,1.65,0,0,0,71,15.08V6.19a1.14,1.14,0,0,0-.66-1.09Zm7.78.07h13V8.16H86V6.93q0-.67-.93-1l-.37,0h-3V6l2.4.44V9.11h3.49v3.33H84.16v3.34h.58A1.18,1.18,0,0,0,86,14.69V13.24h5.09v6.17h-13V16.29a1,1,0,0,0,.51-.94V7.07q0-1.53-.51-1.95Zm14.12-.05H98A33.39,33.39,0,0,1,99.38,5.4q1.73,4.29,1.72,4.37h0V8.09c0-.49,0-1.16,0-2a1.45,1.45,0,0,0-.52-1v-3h5.57V5.11h-2.44v.07l2,.36c-.14,0-.21.75-.22,2.25V19.41h-5.24q-3-6.88-3.36-7.79h0v1.49c0,1.65.06,2.48.18,2.48s.16.29.47.48v3.34H92.22V16.28A1.68,1.68,0,0,0,92.87,15c0-.73,0-1.28,0-1.63V8.12c0-.44,0-1,0-1.85a1.44,1.44,0,0,0-.65-1.2Zm14.93,0H114c2.71,0,4.39.28,5.06.84,1.3.78,2,2.2,2,4.26v7.23a5.09,5.09,0,0,1-1.46,3.82,6,6,0,0,1-4,1.2h-8.44V16.25c.48-.17.73-.41.73-.73,0,0,.07-.18.07-.55V6.72a1.54,1.54,0,0,0-.58-1.39l-.22-.06Zm4,3.86V6l2.44.44v9.35l.26,0h.43a1.17,1.17,0,0,0,.87-.36,1.5,1.5,0,0,0,.33-1V7.12a1,1,0,0,0-.51-1,3.2,3.2,0,0,0-1.09-.18Zm16.53-3.87a11.89,11.89,0,0,1,6.48,1.7h0v4h-5v-1c0-.78-.37-1.18-1.1-1.18h-2.23V5.7c1,.19,1.56.28,1.66.28a1.25,1.25,0,0,0-.21.57v.18c0,.87.82,1.45,2.45,1.73a10.27,10.27,0,0,1,2.87.93,4.43,4.43,0,0,1,2,2.55,5.17,5.17,0,0,1,.22,1.34v.57a7.67,7.67,0,0,1-.79,3.19,4,4,0,0,1-1.59,1.49,5.67,5.67,0,0,1-2.52.7,12.38,12.38,0,0,1-2.12.18h0a13.18,13.18,0,0,1-4.46-1c-.77-.4-1.19-.77-1.25-1.1V13.07h5.29v1.2c0,.88.32,1.32,1,1.32s1-.32,1-.72c0,0,.07-.17.07-.53V14c0-.76-.76-1.33-2.27-1.71a12.23,12.23,0,0,1-3.16-1.06q-2-1-2-4.14V6.66a4.15,4.15,0,0,1,2.87-4.15A8.5,8.5,0,0,1,127.64,2.05Z"/><path class="cls-3" d="M46.93,9.54H43.54v5a3.2,3.2,0,0,1-.66,2.15v1.71h4.53V16.62a4,4,0,0,1-.48-2.18v-3H50.3V10.05H46.93Z"/><path class="cls-4" d="M17.6,9.54H14.32v5.9a1.78,1.78,0,0,1-.62,1.34v1.63h4.55V16.77a2.71,2.71,0,0,1-.65-2.06Z"/><path class="cls-5" d="M28.88,14.18V12.87c0-.28,0-.38,1.47-3.33H27.23l-.75,1v-1H23.92c1.52,3.09,1.53,3.15,1.53,3.4V15.3a2.28,2.28,0,0,1-.62,1.57v1.54h4.69V16.84l-.16-.17C29,16.33,28.88,15.83,28.88,14.18Z"/><path class="cls-6" d="M5.92,12.93V10.35l0-.81H3.62v4c0,.38,0,1,0,1.86v.16A1.94,1.94,0,0,1,3,16.87v1.54H6.56V16.73a2.43,2.43,0,0,1-.2-.25C5.92,16,5.92,14.93,5.92,12.93Z"/><polygon class="cls-7" points="11.6 9.54 11.55 9.71 10 9.71 9.96 9.54 7.77 9.54 10.09 18.41 10.17 18.41 12.31 10.06 12.47 9.54 11.6 9.54"/><path class="cls-8" d="M75.56,9.54H72v5.54a2.56,2.56,0,0,1-.66,1.77v1.56h4.85v-1.6a3.89,3.89,0,0,1-.61-2.36Z"/><path class="cls-9" d="M67.63,12.41a2.61,2.61,0,0,1-.22-.24,1.8,1.8,0,0,0-.76-.31l-1-.08V10l.79-.24L67,9.55H63.92a3,3,0,0,1-2.15.68H60.52V9.54H57.1v4.84a3.88,3.88,0,0,1-.66,2.51v1.52h4.7V17a2.83,2.83,0,0,1-.62-2V11.6h1a4.65,4.65,0,0,1,1.68.49,2.42,2.42,0,0,1,1.07,2.33V16a19.54,19.54,0,0,0,.12,2.38h4.07V16.94a3.54,3.54,0,0,1-.63-2.56A5.61,5.61,0,0,0,67.63,12.41Z"/><path class="cls-10" d="M132.13,10.25A7.61,7.61,0,0,0,130,9.54h-6.5a2.07,2.07,0,0,0,.86.75l.08,0,.09.07a12.18,12.18,0,0,0,2.78.88c2,.51,3,1.41,3,2.68v.38a3,3,0,0,1-.08.73c-.06.47-.37,1.33-1.82,1.51h-.13c-.94,0-2-.61-2-2.32v-.2h-3.29v3a3.11,3.11,0,0,0,.66.42,12,12,0,0,0,4,.91h0a11.4,11.4,0,0,0,2-.16l.08,0h.09a4.72,4.72,0,0,0,2.07-.6,2.94,2.94,0,0,0,1.16-1.07,6.65,6.65,0,0,0,.67-2.71v-.57a4.19,4.19,0,0,0-.18-1A3.45,3.45,0,0,0,132.13,10.25Z"/><path class="cls-11" d="M116.44,9.54v4.92a2.55,2.55,0,0,1-.62,1.7,2.2,2.2,0,0,1-1.58.65h-.49l-1.2-.14V9.54H109V15a2.6,2.6,0,0,1-.09.73,1.63,1.63,0,0,1-.71,1.16v1.55h7.44a5.06,5.06,0,0,0,3.27-.92,4.09,4.09,0,0,0,1.15-3.1V9.54Z"/><path class="cls-12" d="M102.14,9.54v.23l0,1h-2V9.93L100,9.54H93.83v3.83c0,.34,0,.88,0,1.63a2.54,2.54,0,0,1-.65,1.69v1.72H96.6V16.57a1.69,1.69,0,0,1-.27-.32C96,15.75,96,14.7,96,13.11V11.62l0-1h1.68l.25.62c.23.57,1.27,3,3.09,7.17h3.58V9.54Z"/><path class="cls-13" d="M87,14.78v.09a2.19,2.19,0,0,1-2.29,1.91H83.16V11.44h3.49V10.11H83.16V9.54H79.61v5.81a2,2,0,0,1-.51,1.39v1.67h11V14.24H87Z"/></g></g></svg>