<svg xmlns="http://www.w3.org/2000/svg" viewBox="0 0 156.71 27.02"><defs><style>.cls-1{fill:none;stroke:#fff;stroke-width:4px;}.cls-1,.cls-2{stroke-miterlimit:10;}.cls-2,.cls-3{fill:#e73545;}.cls-2{stroke:#231f20;stroke-width:2.5px;}</style></defs><g id="Layer_2" data-name="Layer 2"><g id="Layer_1-2" data-name="Layer 1"><path class="cls-1" d="M2,7.68H8.94l1.73,6.62L12.4,7.68H19v3a1.6,1.6,0,0,0-.44.48,1.63,1.63,0,0,0-.16.65c0,.26,0,.73,0,1.39v6.62c0,.44,0,.77,0,1a1.32,1.32,0,0,0,.16.53,1,1,0,0,0,.44.38v3.15H12.56V21.71a1.26,1.26,0,0,0,.41-.26.69.69,0,0,0,.19-.37,2.91,2.91,0,0,0,0-.57V20c0-.14,0-.31,0-.49V15.72l-2.36,9.14H9.25l-2.36-9v3.94c0,.39,0,.7,0,.91a1.36,1.36,0,0,0,.17.58,1,1,0,0,0,.43.4v3.15H2V21.71a.7.7,0,0,0,.52-.3,1.4,1.4,0,0,0,.12-.64v-.34a2.71,2.71,0,0,1,0-.29V12.41a2.81,2.81,0,0,1,0-.3v-.33a1.55,1.55,0,0,0-.13-.69A.87.87,0,0,0,2,10.68Z"/><path class="cls-1" d="M19.81,7.7H26V9.32a6.33,6.33,0,0,0,.46,2.74,10.57,10.57,0,0,1,.47,1,5.1,5.1,0,0,0,1-3.09V7.7h5.51v3.06H31v.08l2,.35a19.38,19.38,0,0,0-2,3.68c-1.12,2.24-1.68,3.42-1.68,3.52v1.29a3.84,3.84,0,0,0,.22,1.81l.42.42v2.95H23.3V21.91a1.33,1.33,0,0,0,.61-1.11V18.46q0-.08-2.91-5.94c-.46-1.19-.86-1.79-1.19-1.79Z"/><path class="cls-1" d="M49.05,14V12.1a1.05,1.05,0,0,0-.26-.75.8.8,0,0,0-.62-.28.94.94,0,0,0-.71.35,1.5,1.5,0,0,0-.3,1v7.88a1.23,1.23,0,0,0,.3.87,1,1,0,0,0,.71.32.78.78,0,0,0,.62-.3,1.35,1.35,0,0,0,.26-.89V17.61h5.36v5.52a3.91,3.91,0,0,1-2.36,1.4A14.84,14.84,0,0,1,48.1,25a8,8,0,0,1-4.69-1.25,4.52,4.52,0,0,1-1.77-3.95V12.73A7,7,0,0,1,42,10.36a4.2,4.2,0,0,1,1.08-1.68,4.7,4.7,0,0,1,1.82-1,9.35,9.35,0,0,1,2.57-.32,15.86,15.86,0,0,1,3.79.4A10.81,10.81,0,0,1,54.41,9.1V14Z"/><path class="cls-1" d="M61,7.73h.9a7.22,7.22,0,0,1,4,1.08,4.25,4.25,0,0,1,1.45,3.43v8.18A4.3,4.3,0,0,1,66,23.65a6.61,6.61,0,0,1-4.19,1.21h-1q-4-.09-5.28-2.42a8.5,8.5,0,0,1-.62-4V13.76a7.72,7.72,0,0,1,.55-3.56Q56.77,7.73,61,7.73Zm0,3.64H58.62v.07c1.13.21,1.73.31,1.81.31a1.43,1.43,0,0,0-.21.87v7c0,.92.21,1.46.63,1.6l.42.07a.77.77,0,0,0,.82-.66,6,6,0,0,0,.11-1.39V13.07q0-1.5-.24-1.5c0-.1-.22-.18-.63-.23Z"/><path class="cls-1" d="M68.19,7.68H74A30.52,30.52,0,0,1,75.28,11Q77,15.25,77,15.32h0V13.66c0-.48,0-1.15,0-2a1.39,1.39,0,0,0-.52-1v-3h5.52v3H79.65v.07l2,.36c-.13,0-.21.74-.22,2.23V24.86H76.23q-3-6.81-3.32-7.71h0v1.48c0,1.63.06,2.45.19,2.45s.15.29.46.47v3.31H68.19v-3.1a1.64,1.64,0,0,0,.65-1.26c0-.73,0-1.27,0-1.61v-5.2c0-.43,0-1,0-1.83a1.42,1.42,0,0,0-.65-1.19Z"/><path class="cls-1" d="M83,7.63H97.81V15.4H93.87V12.23c0-.44-.26-.69-.79-.76H90.7v.07l2.41.43v8.3a1.55,1.55,0,0,0,.63,1.49v3.1H87.09v-3a1.51,1.51,0,0,0,.65-1.37c0-.56,0-1,0-1.26v-7.8h0c-.49,0-.73.3-.73.89a8,8,0,0,0,0,.87V15.4H83Z"/><path class="cls-1" d="M98.66,7.73h12.9v6h-5V12.51c0-.44-.31-.77-.92-1l-.37,0h-2.94v.06l2.37.44v2.66h3.45V18h-3.45v3.3h.57a1.17,1.17,0,0,0,1.29-1.07V18.76h5v6.1H98.66V21.77a1,1,0,0,0,.5-.92v-8.2c0-1-.16-1.65-.5-1.93Z"/><path class="cls-1" d="M118.27,7.68a11.77,11.77,0,0,1,6.42,1.69h0v4h-4.91v-1c0-.77-.36-1.16-1.09-1.16h-2.21v.08q1.5.27,1.65.27a1.25,1.25,0,0,0-.21.57v.17c0,.87.81,1.44,2.42,1.72a10.11,10.11,0,0,1,2.84.91,4.39,4.39,0,0,1,2,2.53,4.71,4.71,0,0,1,.22,1.33v.56a7.52,7.52,0,0,1-.78,3.16A4,4,0,0,1,123,24a5.69,5.69,0,0,1-2.49.7,12.07,12.07,0,0,1-2.1.17h0a12.94,12.94,0,0,1-4.41-1c-.76-.39-1.17-.76-1.23-1.08V18.59H118v1.19c0,.87.31,1.3.94,1.3s1-.31,1-.71c0,0,.07-.17.07-.52v-.38c0-.75-.75-1.31-2.25-1.69a12,12,0,0,1-3.12-1.05c-1.31-.65-2-2-2-4.1v-.39a4.1,4.1,0,0,1,2.84-4.1A8.56,8.56,0,0,1,118.27,7.68Z"/><path class="cls-1" d="M126.24,7.63h14.85V15.4h-3.94V12.23c0-.44-.26-.69-.79-.76H134v.07l2.41.43v8.3a1.57,1.57,0,0,0,.62,1.49v3.1h-6.65v-3a1.49,1.49,0,0,0,.65-1.37c0-.56,0-1,0-1.26v-7.8h0c-.48,0-.73.3-.73.89a8,8,0,0,0,0,.87V15.4h-3.94Z"/><path class="cls-1" d="M147.58,7.68A11.77,11.77,0,0,1,154,9.37h0v4h-4.91v-1c0-.77-.37-1.16-1.09-1.16h-2.21v.08c1,.18,1.55.27,1.64.27a1.34,1.34,0,0,0-.2.57v.17c0,.87.81,1.44,2.42,1.72a10.11,10.11,0,0,1,2.84.91,4.43,4.43,0,0,1,2,2.53,5.1,5.1,0,0,1,.22,1.33v.56a7.52,7.52,0,0,1-.78,3.16A4,4,0,0,1,152.35,24a5.69,5.69,0,0,1-2.49.7,12.15,12.15,0,0,1-2.1.17h0a12.85,12.85,0,0,1-4.41-1c-.77-.39-1.18-.76-1.23-1.08V18.59h5.23v1.19c0,.87.31,1.3.94,1.3s.95-.31.95-.71c0,0,.07-.17.07-.52v-.38c0-.75-.75-1.31-2.25-1.69a12,12,0,0,1-3.12-1.05c-1.31-.65-2-2-2-4.1v-.39a4.09,4.09,0,0,1,2.83-4.1A8.62,8.62,0,0,1,147.58,7.68Z"/><path class="cls-2" d="M2,7.68H8.94l1.73,6.62L12.4,7.68H19v3a1.6,1.6,0,0,0-.44.48,1.63,1.63,0,0,0-.16.65c0,.26,0,.73,0,1.39v6.62c0,.44,0,.77,0,1a1.32,1.32,0,0,0,.16.53,1,1,0,0,0,.44.38v3.15H12.56V21.71a1.26,1.26,0,0,0,.41-.26.69.69,0,0,0,.19-.37,2.91,2.91,0,0,0,0-.57V20c0-.14,0-.31,0-.49V15.72l-2.36,9.14H9.25l-2.36-9v3.94c0,.39,0,.7,0,.91a1.36,1.36,0,0,0,.17.58,1,1,0,0,0,.43.4v3.15H2V21.71a.7.7,0,0,0,.52-.3,1.4,1.4,0,0,0,.12-.64v-.34a2.71,2.71,0,0,1,0-.29V12.41a2.81,2.81,0,0,1,0-.3v-.33a1.55,1.55,0,0,0-.13-.69A.87.87,0,0,0,2,10.68Z"/><path class="cls-2" d="M19.81,7.7H26V9.32a6.33,6.33,0,0,0,.46,2.74,10.57,10.57,0,0,1,.47,1,5.1,5.1,0,0,0,1-3.09V7.7h5.51v3.06H31v.08l2,.35a19.38,19.38,0,0,0-2,3.68c-1.12,2.24-1.68,3.42-1.68,3.52v1.29a3.84,3.84,0,0,0,.22,1.81l.42.42v2.95H23.3V21.91a1.33,1.33,0,0,0,.61-1.11V18.46q0-.08-2.91-5.94c-.46-1.19-.86-1.79-1.19-1.79Z"/><path class="cls-2" d="M49.05,14V12.1a1.05,1.05,0,0,0-.26-.75.8.8,0,0,0-.62-.28.94.94,0,0,0-.71.35,1.5,1.5,0,0,0-.3,1v7.88a1.23,1.23,0,0,0,.3.87,1,1,0,0,0,.71.32.78.78,0,0,0,.62-.3,1.35,1.35,0,0,0,.26-.89V17.61h5.36v5.52a3.91,3.91,0,0,1-2.36,1.4A14.84,14.84,0,0,1,48.1,25a8,8,0,0,1-4.69-1.25,4.52,4.52,0,0,1-1.77-3.95V12.73A7,7,0,0,1,42,10.36a4.2,4.2,0,0,1,1.08-1.68,4.7,4.7,0,0,1,1.82-1,9.35,9.35,0,0,1,2.57-.32,15.86,15.86,0,0,1,3.79.4A10.81,10.81,0,0,1,54.41,9.1V14Z"/><path class="cls-2" d="M61,7.73h.9a7.22,7.22,0,0,1,4,1.08,4.25,4.25,0,0,1,1.45,3.43v8.18A4.3,4.3,0,0,1,66,23.65a6.61,6.61,0,0,1-4.19,1.21h-1q-4-.09-5.28-2.42a8.5,8.5,0,0,1-.62-4V13.76a7.72,7.72,0,0,1,.55-3.56Q56.77,7.73,61,7.73Zm0,3.64H58.62v.07c1.13.21,1.73.31,1.81.31a1.43,1.43,0,0,0-.21.87v7c0,.92.21,1.46.63,1.6l.42.07a.77.77,0,0,0,.82-.66,6,6,0,0,0,.11-1.39V13.07q0-1.5-.24-1.5c0-.1-.22-.18-.63-.23Z"/><path class="cls-2" d="M68.19,7.68H74A30.52,30.52,0,0,1,75.28,11Q77,15.25,77,15.32h0V13.66c0-.48,0-1.15,0-2a1.39,1.39,0,0,0-.52-1v-3h5.52v3H79.65v.07l2,.36c-.13,0-.21.74-.22,2.23V24.86H76.23q-3-6.81-3.32-7.71h0v1.48c0,1.63.06,2.45.19,2.45s.15.29.46.47v3.31H68.19v-3.1a1.64,1.64,0,0,0,.65-1.26c0-.73,0-1.27,0-1.61v-5.2c0-.43,0-1,0-1.83a1.42,1.42,0,0,0-.65-1.19Z"/><path class="cls-2" d="M83,7.63H97.81V15.4H93.87V12.23c0-.44-.26-.69-.79-.76H90.7v.07l2.41.43v8.3a1.55,1.55,0,0,0,.63,1.49v3.1H87.09v-3a1.51,1.51,0,0,0,.65-1.37c0-.56,0-1,0-1.26v-7.8h0c-.49,0-.73.3-.73.89a8,8,0,0,0,0,.87V15.4H83Z"/><path class="cls-2" d="M98.66,7.73h12.9v6h-5V12.51c0-.44-.31-.77-.92-1l-.37,0h-2.94v.06l2.37.44v2.66h3.45V18h-3.45v3.3h.57a1.17,1.17,0,0,0,1.29-1.07V18.76h5v6.1H98.66V21.77a1,1,0,0,0,.5-.92v-8.2c0-1-.16-1.65-.5-1.93Z"/><path class="cls-2" d="M118.27,7.68a11.77,11.77,0,0,1,6.42,1.69h0v4h-4.91v-1c0-.77-.36-1.16-1.09-1.16h-2.21v.08q1.5.27,1.65.27a1.25,1.25,0,0,0-.21.57v.17c0,.87.81,1.44,2.42,1.72a10.11,10.11,0,0,1,2.84.91,4.39,4.39,0,0,1,2,2.53,4.71,4.71,0,0,1,.22,1.33v.56a7.52,7.52,0,0,1-.78,3.16A4,4,0,0,1,123,24a5.69,5.69,0,0,1-2.49.7,12.07,12.07,0,0,1-2.1.17h0a12.94,12.94,0,0,1-4.41-1c-.76-.39-1.17-.76-1.23-1.08V18.59H118v1.19c0,.87.31,1.3.94,1.3s1-.31,1-.71c0,0,.07-.17.07-.52v-.38c0-.75-.75-1.31-2.25-1.69a12,12,0,0,1-3.12-1.05c-1.31-.65-2-2-2-4.1v-.39a4.1,4.1,0,0,1,2.84-4.1A8.56,8.56,0,0,1,118.27,7.68Z"/><path class="cls-2" d="M126.24,7.63h14.85V15.4h-3.94V12.23c0-.44-.26-.69-.79-.76H134v.07l2.41.43v8.3a1.57,1.57,0,0,0,.62,1.49v3.1h-6.65v-3a1.49,1.49,0,0,0,.65-1.37c0-.56,0-1,0-1.26v-7.8h0c-.48,0-.73.3-.73.89a8,8,0,0,0,0,.87V15.4h-3.94Z"/><path class="cls-2" d="M147.58,7.68A11.77,11.77,0,0,1,154,9.37h0v4h-4.91v-1c0-.77-.37-1.16-1.09-1.16h-2.21v.08c1,.18,1.55.27,1.64.27a1.34,1.34,0,0,0-.2.57v.17c0,.87.81,1.44,2.42,1.72a10.11,10.11,0,0,1,2.84.91,4.43,4.43,0,0,1,2,2.53,5.1,5.1,0,0,1,.22,1.33v.56a7.52,7.52,0,0,1-.78,3.16A4,4,0,0,1,152.35,24a5.69,5.69,0,0,1-2.49.7,12.15,12.15,0,0,1-2.1.17h0a12.85,12.85,0,0,1-4.41-1c-.77-.39-1.18-.76-1.23-1.08V18.59h5.23v1.19c0,.87.31,1.3.94,1.3s.95-.31.95-.71c0,0,.07-.17.07-.52v-.38c0-.75-.75-1.31-2.25-1.69a12,12,0,0,1-3.12-1.05c-1.31-.65-2-2-2-4.1v-.39a4.09,4.09,0,0,1,2.83-4.1A8.62,8.62,0,0,1,147.58,7.68Z"/><path class="cls-3" d="M2,7.68H8.94l1.73,6.62L12.4,7.68H19v3a1.6,1.6,0,0,0-.44.48,1.63,1.63,0,0,0-.16.65c0,.26,0,.73,0,1.39v6.62c0,.44,0,.77,0,1a1.32,1.32,0,0,0,.16.53,1,1,0,0,0,.44.38v3.15H12.56V21.71a1.26,1.26,0,0,0,.41-.26.69.69,0,0,0,.19-.37,2.91,2.91,0,0,0,0-.57V20c0-.14,0-.31,0-.49V15.72l-2.36,9.14H9.25l-2.36-9v3.94c0,.39,0,.7,0,.91a1.36,1.36,0,0,0,.17.58,1,1,0,0,0,.43.4v3.15H2V21.71a.7.7,0,0,0,.52-.3,1.4,1.4,0,0,0,.12-.64v-.34a2.71,2.71,0,0,1,0-.29V12.41a2.81,2.81,0,0,1,0-.3v-.33a1.55,1.55,0,0,0-.13-.69A.87.87,0,0,0,2,10.68Z"/><path class="cls-3" d="M19.81,7.7H26V9.32a6.33,6.33,0,0,0,.46,2.74,10.57,10.57,0,0,1,.47,1,5.1,5.1,0,0,0,1-3.09V7.7h5.51v3.06H31v.08l2,.35a19.38,19.38,0,0,0-2,3.68c-1.12,2.24-1.68,3.42-1.68,3.52v1.29a3.84,3.84,0,0,0,.22,1.81l.42.42v2.95H23.3V21.91a1.33,1.33,0,0,0,.61-1.11V18.46q0-.08-2.91-5.94c-.46-1.19-.86-1.79-1.19-1.79Z"/><path class="cls-3" d="M49.05,14V12.1a1.05,1.05,0,0,0-.26-.75.8.8,0,0,0-.62-.28.94.94,0,0,0-.71.35,1.5,1.5,0,0,0-.3,1v7.88a1.23,1.23,0,0,0,.3.87,1,1,0,0,0,.71.32.78.78,0,0,0,.62-.3,1.35,1.35,0,0,0,.26-.89V17.61h5.36v5.52a3.91,3.91,0,0,1-2.36,1.4A14.84,14.84,0,0,1,48.1,25a8,8,0,0,1-4.69-1.25,4.52,4.52,0,0,1-1.77-3.95V12.73A7,7,0,0,1,42,10.36a4.2,4.2,0,0,1,1.08-1.68,4.7,4.7,0,0,1,1.82-1,9.35,9.35,0,0,1,2.57-.32,15.86,15.86,0,0,1,3.79.4A10.81,10.81,0,0,1,54.41,9.1V14Z"/><path class="cls-3" d="M61,7.73h.9a7.22,7.22,0,0,1,4,1.08,4.25,4.25,0,0,1,1.45,3.43v8.18A4.3,4.3,0,0,1,66,23.65a6.61,6.61,0,0,1-4.19,1.21h-1q-4-.09-5.28-2.42a8.5,8.5,0,0,1-.62-4V13.76a7.72,7.72,0,0,1,.55-3.56Q56.77,7.73,61,7.73Zm0,3.64H58.62v.07c1.13.21,1.73.31,1.81.31a1.43,1.43,0,0,0-.21.87v7c0,.92.21,1.46.63,1.6l.42.07a.77.77,0,0,0,.82-.66,6,6,0,0,0,.11-1.39V13.07q0-1.5-.24-1.5c0-.1-.22-.18-.63-.23Z"/><path class="cls-3" d="M68.19,7.68H74A30.52,30.52,0,0,1,75.28,11Q77,15.25,77,15.32h0V13.66c0-.48,0-1.15,0-2a1.39,1.39,0,0,0-.52-1v-3h5.52v3H79.65v.07l2,.36c-.13,0-.21.74-.22,2.23V24.86H76.23q-3-6.81-3.32-7.71h0v1.48c0,1.63.06,2.45.19,2.45s.15.29.46.47v3.31H68.19v-3.1a1.64,1.64,0,0,0,.65-1.26c0-.73,0-1.27,0-1.61v-5.2c0-.43,0-1,0-1.83a1.42,1.42,0,0,0-.65-1.19Z"/><path class="cls-3" d="M83,7.63H97.81V15.4H93.87V12.23c0-.44-.26-.69-.79-.76H90.7v.07l2.41.43v8.3a1.55,1.55,0,0,0,.63,1.49v3.1H87.09v-3a1.51,1.51,0,0,0,.65-1.37c0-.56,0-1,0-1.26v-7.8h0c-.49,0-.73.3-.73.89a8,8,0,0,0,0,.87V15.4H83Z"/><path class="cls-3" d="M98.66,7.73h12.9v6h-5V12.51c0-.44-.31-.77-.92-1l-.37,0h-2.94v.06l2.37.44v2.66h3.45V18h-3.45v3.3h.57a1.17,1.17,0,0,0,1.29-1.07V18.76h5v6.1H98.66V21.77a1,1,0,0,0,.5-.92v-8.2c0-1-.16-1.65-.5-1.93Z"/><path class="cls-3" d="M118.27,7.68a11.77,11.77,0,0,1,6.42,1.69h0v4h-4.91v-1c0-.77-.36-1.16-1.09-1.16h-2.21v.08q1.5.27,1.65.27a1.25,1.25,0,0,0-.21.57v.17c0,.87.81,1.44,2.42,1.72a10.11,10.11,0,0,1,2.84.91,4.39,4.39,0,0,1,2,2.53,4.71,4.71,0,0,1,.22,1.33v.56a7.52,7.52,0,0,1-.78,3.16A4,4,0,0,1,123,24a5.69,5.69,0,0,1-2.49.7,12.07,12.07,0,0,1-2.1.17h0a12.94,12.94,0,0,1-4.41-1c-.76-.39-1.17-.76-1.23-1.08V18.59H118v1.19c0,.87.31,1.3.94,1.3s1-.31,1-.71c0,0,.07-.17.07-.52v-.38c0-.75-.75-1.31-2.25-1.69a12,12,0,0,1-3.12-1.05c-1.31-.65-2-2-2-4.1v-.39a4.1,4.1,0,0,1,2.84-4.1A8.56,8.56,0,0,1,118.27,7.68Z"/><path class="cls-3" d="M126.24,7.63h14.85V15.4h-3.94V12.23c0-.44-.26-.69-.79-.76H134v.07l2.41.43v8.3a1.57,1.57,0,0,0,.62,1.49v3.1h-6.65v-3a1.49,1.49,0,0,0,.65-1.37c0-.56,0-1,0-1.26v-7.8h0c-.48,0-.73.3-.73.89a8,8,0,0,0,0,.87V15.4h-3.94Z"/><path class="cls-3" d="M147.58,7.68A11.77,11.77,0,0,1,154,9.37h0v4h-4.91v-1c0-.77-.37-1.16-1.09-1.16h-2.21v.08c1,.18,1.55.27,1.64.27a1.34,1.34,0,0,0-.2.57v.17c0,.87.81,1.44,2.42,1.72a10.11,10.11,0,0,1,2.84.91,4.43,4.43,0,0,1,2,2.53,5.1,5.1,0,0,1,.22,1.33v.56a7.52,7.52,0,0,1-.78,3.16A4,4,0,0,1,152.35,24a5.69,5.69,0,0,1-2.49.7,12.15,12.15,0,0,1-2.1.17h0a12.85,12.85,0,0,1-4.41-1c-.77-.39-1.18-.76-1.23-1.08V18.59h5.23v1.19c0,.87.31,1.3.94,1.3s.95-.31.95-.71c0,0,.07-.17.07-.52v-.38c0-.75-.75-1.31-2.25-1.69a12,12,0,0,1-3.12-1.05c-1.31-.65-2-2-2-4.1v-.39a4.09,4.09,0,0,1,2.83-4.1A8.62,8.62,0,0,1,147.58,7.68Z"/></g></g></svg>