<svg xmlns="http://www.w3.org/2000/svg" xmlns:xlink="http://www.w3.org/1999/xlink" viewBox="0 0 191.26 23.91"><defs><style>.cls-1{fill:#0f1b30;}.cls-2{fill:#e63444;}.cls-3{fill:url(#linear-gradient);}.cls-4{fill:url(#linear-gradient-2);}.cls-5{fill:url(#linear-gradient-3);}.cls-6{fill:url(#linear-gradient-4);}.cls-7{fill:url(#linear-gradient-5);}.cls-8{fill:url(#linear-gradient-6);}.cls-9{fill:url(#linear-gradient-7);}.cls-10{fill:url(#linear-gradient-8);}.cls-11{fill:url(#linear-gradient-9);}.cls-12{fill:url(#linear-gradient-10);}.cls-13{fill:url(#linear-gradient-11);}.cls-14{fill:url(#linear-gradient-12);}.cls-15{fill:url(#linear-gradient-13);}</style><linearGradient id="linear-gradient" x1="59.16" y1="9.54" x2="59.16" y2="18.41" gradientUnits="userSpaceOnUse"><stop offset="0" stop-color="#e63444"/><stop offset="0.5" stop-color="#d2263e"/><stop offset="0.86" stop-color="#c9203c"/></linearGradient><linearGradient id="linear-gradient-2" x1="74.35" y1="9.54" x2="74.35" y2="18.41" xlink:href="#linear-gradient"/><linearGradient id="linear-gradient-3" x1="44.88" y1="9.54" x2="44.88" y2="18.41" xlink:href="#linear-gradient"/><linearGradient id="linear-gradient-4" x1="34.02" y1="9.54" x2="34.02" y2="18.41" xlink:href="#linear-gradient"/><linearGradient id="linear-gradient-5" x1="22.72" y1="9.54" x2="22.72" y2="18.41" xlink:href="#linear-gradient"/><linearGradient id="linear-gradient-6" x1="6.86" y1="9.54" x2="6.86" y2="18.41" xlink:href="#linear-gradient"/><linearGradient id="linear-gradient-7" x1="96.06" y1="9.54" x2="96.06" y2="18.41" xlink:href="#linear-gradient"/><linearGradient id="linear-gradient-8" x1="152.9" y1="9.54" x2="152.9" y2="18.41" xlink:href="#linear-gradient"/><linearGradient id="linear-gradient-9" x1="167.02" y1="9.54" x2="167.02" y2="18.41" xlink:href="#linear-gradient"/><linearGradient id="linear-gradient-10" x1="181.78" y1="9.54" x2="181.78" y2="18.41" xlink:href="#linear-gradient"/><linearGradient id="linear-gradient-11" x1="138.53" y1="9.54" x2="138.53" y2="18.41" xlink:href="#linear-gradient"/><linearGradient id="linear-gradient-12" x1="110.45" y1="9.54" x2="110.45" y2="18.41" xlink:href="#linear-gradient"/><linearGradient id="linear-gradient-13" x1="124.42" y1="9.54" x2="124.42" y2="20.32" xlink:href="#linear-gradient"/></defs><g id="Layer_2" data-name="Layer 2"><g id="Layer_1-2" data-name="Layer 1"><path class="cls-1" d="M128.53,23.47a14.44,14.44,0,0,1-3.31-1.57l-.09-.06-.56-.41h-.14A10.37,10.37,0,0,1,119,20.19v1.22H87.05V15l.65-.23c0-.1,0-.23,0-.38v-7h-.59l-.07-2V.05h8.62c3.53,0,4.83.41,5.55.78a6.85,6.85,0,0,1,.71.39V.1h17V1.31a9,9,0,0,1,5-1.26h.89a9.78,9.78,0,0,1,4.9,1.2V.05h17.73V.1h13.93V1.26a7.21,7.21,0,0,1,1.21-.61,10.68,10.68,0,0,1,3.58-.6,14.49,14.49,0,0,1,6,1.21V0h19V11.84h-4.75v2.92l.63.36v6.29H176.42V15.32l.65-.41c0-.5,0-.89,0-1.15V11.84h-1.82a6,6,0,0,1,.18,1.44v.57a9.55,9.55,0,0,1-1,4l-.06.12-.07.11a6.06,6.06,0,0,1-2.39,2.2,7.69,7.69,0,0,1-3.22.91,14.6,14.6,0,0,1-2.31.18h0a14.68,14.68,0,0,1-4.92-1v1h-17V19.74A6.84,6.84,0,0,1,142,21a9.74,9.74,0,0,1-2.72.4h-1.07a10,10,0,0,1-4.27-.9,7.14,7.14,0,0,1-1.43-1c-.24.49-.71,1.34-1.66,3L130,23.91ZM13.71,21.41V15l.64-.23a3.79,3.79,0,0,0,0-.38V10.09h-.8V14.4H10.2v0c0,.19,0,.33,0,.44l.46.32v6.21H.15V15.26l.64-.47a1.25,1.25,0,0,0,0-.24V6.81A2.08,2.08,0,0,1,0,5.18V0H16.74V.05h5.59c3.53,0,4.83.41,5.55.78a6.85,6.85,0,0,1,.71.39V0H39.44V.1h11v0h7.83a3.87,3.87,0,0,1,.62,0v0H74.26c3.22,0,5.09.36,6.2,1.19,1.31.83,2.82,2.52,2.82,5.91v7.23a7,7,0,0,1-2.06,5.25l-.11.1a7.93,7.93,0,0,1-5.25,1.67Z"/><path class="cls-2" d="M2,2H14.74V8.09H10V6.82A.86.86,0,0,0,9.49,6,4.34,4.34,0,0,0,8,5.68H5.76v.08L8.2,6.2V9.05h3.37V12.4H8.2v2q0,1.46.48,1.8v3.17H2.15V16.28a2,2,0,0,0,.66-1.73V6.86c0-.87-.21-1.4-.63-1.57-.12,0-.18-.06-.18-.11Zm13.71,0h6.62c2.41,0,4,.19,4.66.58a4,4,0,0,1,2.44,4c0,2-.58,3.28-1.74,3.79,0,.06-.26.16-.77.32v.08a3.08,3.08,0,0,1,1.49.58c0,.05.09.16.26.33a4.68,4.68,0,0,1,.43,2.61c0,1.11.12,1.73.37,1.87s.26.14.26.18v3H23.82A15.16,15.16,0,0,1,23.53,16V14.42c0-.77-.18-1.25-.54-1.45a4,4,0,0,0-1.2-.37v2.33a1.9,1.9,0,0,0,.36,1.36.68.68,0,0,0,.26.11v3h-6.7v-3c.44-.16.66-.83.66-2v-8a1,1,0,0,0-.59-1h-.07Zm3.64,3.67V5.8l2.44.43v3H22c1.19,0,1.78-.39,1.78-1.17a1,1,0,0,0,0-.33A2.42,2.42,0,0,0,23.31,6a4.68,4.68,0,0,0-2.11-.3ZM30.59,2h6.85v3.1H35v.08l2,.35a4.44,4.44,0,0,0-.18,1.36v7.53c0,1.06.21,1.69.62,1.91v3.05H30.59v-3a1.65,1.65,0,0,0,.66-1.35V6.19a1.14,1.14,0,0,0-.66-1.09Zm7.78.07h13V8.16H46.31V6.93q0-.67-.93-1l-.37,0H42V6l2.4.44V9.11h3.48v3.33H44.43v3.34H45a1.18,1.18,0,0,0,1.3-1.09V13.24H51.4v6.17h-13V16.29a1,1,0,0,0,.51-.94V7.07q0-1.53-.51-1.95Zm14.11-.05h5.83A33.39,33.39,0,0,1,59.65,5.4q1.71,4.29,1.71,4.37h0V8.09c0-.49,0-1.16,0-2a1.43,1.43,0,0,0-.51-1v-3H66.5V5.11H64.06v.07l2,.36c-.13,0-.2.75-.22,2.25V19.41H60.61q-3-6.88-3.36-7.79h0v1.49c0,1.65.07,2.48.19,2.48s.16.29.47.48v3.34H52.48V16.28A1.66,1.66,0,0,0,53.14,15c0-.73,0-1.28,0-1.63V8.12c0-.44,0-1,0-1.85a1.42,1.42,0,0,0-.66-1.2Zm14.94,0h6.84c2.7,0,4.39.28,5,.84q2,1.17,2,4.26v7.23a5.09,5.09,0,0,1-1.46,3.82,6,6,0,0,1-4,1.2H67.42V16.25c.48-.17.72-.41.72-.73,0,0,.07-.18.07-.55V6.72a1.54,1.54,0,0,0-.57-1.39l-.22-.06Zm4,3.86V6l2.44.44v9.35l.26,0h.43a1.19,1.19,0,0,0,.87-.36,1.5,1.5,0,0,0,.33-1V7.12a1,1,0,0,0-.51-1,3.24,3.24,0,0,0-1.09-.18ZM89.05,2.05h6.62c2.41,0,4,.19,4.66.58a4,4,0,0,1,2.44,4c0,2-.58,3.28-1.74,3.79,0,.06-.26.16-.77.32v.08a3.08,3.08,0,0,1,1.49.58c0,.05.09.16.26.33a4.68,4.68,0,0,1,.43,2.61c0,1.11.12,1.73.37,1.87s.26.14.26.18v3H97.16A15.27,15.27,0,0,1,96.88,16V14.42c0-.77-.19-1.25-.55-1.45a4,4,0,0,0-1.2-.37v2.33a1.9,1.9,0,0,0,.36,1.36.68.68,0,0,0,.26.11v3h-6.7v-3c.44-.16.66-.83.66-2v-8a1,1,0,0,0-.59-1h-.07Zm3.64,3.67V5.8l2.44.43v3h.25c1.19,0,1.78-.39,1.78-1.17a1,1,0,0,0,0-.33A2.46,2.46,0,0,0,96.66,6a4.74,4.74,0,0,0-2.11-.3ZM103.93,2.1h13V8.16h-5.09V6.93c0-.45-.31-.78-.94-1l-.37,0h-3V6l2.4.44V9.11h3.48v3.33H110v3.34h.57a1.19,1.19,0,0,0,1.31-1.09V13.24H117v6.17h-13V16.29a1,1,0,0,0,.51-.94V7.07q0-1.53-.51-1.95Zm20-.05h.89a7.57,7.57,0,0,1,4.4,1.24,4.34,4.34,0,0,1,1.52,3.48v7.55a4.3,4.3,0,0,1-.92,3h0l-.79-.47h0v.07a3.87,3.87,0,0,1,.82.72c.57.49.89.75.95.78a33,33,0,0,1-1.7,3.11,13.35,13.35,0,0,1-2.84-1.37,10,10,0,0,0-1.06-.75h-.75a8.27,8.27,0,0,1-4.72-1.13,4.54,4.54,0,0,1-1.34-2.09,8.35,8.35,0,0,1-.32-3V8.68c0-2.13.19-3.49.57-4.07C119.44,2.9,121.23,2.05,124,2.05Zm0,3.72h-2.17c0,.06.35.13,1,.21a2.23,2.23,0,0,0,.71.15,3.28,3.28,0,0,0-.25,1.66v5.54c0,1.27.1,2,.32,2.06a1,1,0,0,0,.81.32c.59,0,.89-.35.89-1V7.16c0-1-.33-1.42-1-1.42Zm7.75-3.72h6.6V5.16a1.44,1.44,0,0,0-.65,1.38V14c0,.77.13,1.23.39,1.39a1.41,1.41,0,0,0,.76.21c.59,0,.88-.36.88-1.07V6.26a1.08,1.08,0,0,0-.6-1.07V2.05h6.35V5.23H143.1V5.3l1.92.35c-.21.15-.32,1.2-.32,3.17v5.36q0,3.9-3.31,4.91a7.41,7.41,0,0,1-2.14.32h-1.07a8.08,8.08,0,0,1-3.42-.71,4,4,0,0,1-2-2.07,6.68,6.68,0,0,1-.42-2.11q0-.93,0-1.56V7c0-1-.19-1.57-.57-1.75l-.07-.1Zm14.62.05h13V8.16h-5.09V6.93c0-.45-.31-.78-.94-1l-.37,0h-3V6l2.4.44V9.11h3.48v3.33h-3.48v3.34H153a1.19,1.19,0,0,0,1.31-1.09V13.24h5.09v6.17h-13V16.29a1,1,0,0,0,.51-.94V7.07q0-1.53-.51-1.95Zm19.83-.05a11.89,11.89,0,0,1,6.48,1.7h0v4h-5v-1c0-.78-.37-1.18-1.11-1.18h-2.23V5.7c1,.19,1.57.28,1.67.28a1.25,1.25,0,0,0-.21.57v.18c0,.87.81,1.45,2.45,1.73a10.06,10.06,0,0,1,2.86.93,4.35,4.35,0,0,1,2,2.55,4.78,4.78,0,0,1,.22,1.34v.57a7.64,7.64,0,0,1-.78,3.19,4.06,4.06,0,0,1-1.6,1.49,5.67,5.67,0,0,1-2.51.7,12.5,12.5,0,0,1-2.13.18h0a13.28,13.28,0,0,1-4.46-1c-.77-.4-1.18-.77-1.24-1.1V13.07h5.29v1.2c0,.88.32,1.32.95,1.32s1-.32,1-.72c0,0,.07-.17.07-.53V14c0-.76-.76-1.33-2.27-1.71a12.23,12.23,0,0,1-3.16-1.06q-2-1-2-4.14V6.66a4.15,4.15,0,0,1,2.87-4.15A8.5,8.5,0,0,1,166.21,2.05Zm8,0h15V9.84h-4V6.64c0-.44-.27-.69-.8-.77h-2.41v.07l2.44.44v8.39a1.59,1.59,0,0,0,.63,1.51v3.13h-6.72v-3a1.52,1.52,0,0,0,.66-1.39c0-.57,0-1,0-1.27V5.87h0c-.49,0-.74.3-.74.91a7.91,7.91,0,0,0,0,.87V9.84h-4Z"/><path class="cls-3" d="M62.4,9.54v.23l0,1h-2V9.93c0-.08-.07-.2-.15-.39H54.1v3.83c0,.34,0,.88,0,1.63a2.5,2.5,0,0,1-.66,1.69v1.72h3.39V16.57a1.69,1.69,0,0,1-.27-.32c-.39-.5-.39-1.55-.39-3.14V11.62l0-1h1.68l.25.62c.23.57,1.27,3,3.08,7.17h3.58V9.54Z"/><path class="cls-4" d="M76.71,9.54v4.92a2.55,2.55,0,0,1-.62,1.7,2.22,2.22,0,0,1-1.58.65H74l-1.2-.14V9.54H69.21V15a2.63,2.63,0,0,1-.08.73,1.66,1.66,0,0,1-.71,1.16v1.55h7.44a5,5,0,0,0,3.26-.92,4.06,4.06,0,0,0,1.16-3.1V9.54Z"/><path class="cls-5" d="M47.31,14.78v.08A2.19,2.19,0,0,1,45,16.78H43.43V11.44h3.48V10.11H43.43V9.54H39.88v5.81a2,2,0,0,1-.51,1.39v1.67h11V14.24H47.31Z"/><path class="cls-6" d="M35.82,9.54H32.25v5.54a2.6,2.6,0,0,1-.66,1.77v1.56h4.85v-1.6a3.84,3.84,0,0,1-.62-2.36Z"/><path class="cls-7" d="M27.9,12.41a2.61,2.61,0,0,1-.22-.24,1.85,1.85,0,0,0-.76-.31l-1-.08V10l.79-.24.57-.25H24.19a3,3,0,0,1-2.15.68H20.79V9.54H17.37v4.84a3.88,3.88,0,0,1-.66,2.51v1.52h4.7V17a2.79,2.79,0,0,1-.62-2V11.6h1a4.62,4.62,0,0,1,1.67.49,2.42,2.42,0,0,1,1.07,2.33V16a17.49,17.49,0,0,0,.13,2.38h4.07V16.94a3.49,3.49,0,0,1-.63-2.56A5.61,5.61,0,0,0,27.9,12.41Z"/><path class="cls-8" d="M7.2,9.54H3.81v5a3.2,3.2,0,0,1-.66,2.15v1.71H7.68V16.62a4,4,0,0,1-.48-2.18v-3h3.37V10.05H7.2Z"/><path class="cls-9" d="M101.24,12.41a2.61,2.61,0,0,1-.22-.24,1.8,1.8,0,0,0-.76-.31l-1-.08V10l.79-.24.57-.25H97.53a3,3,0,0,1-2.15.68H94.13V9.54H90.71v4.84a3.88,3.88,0,0,1-.66,2.51v1.52h4.7V17a2.83,2.83,0,0,1-.62-2V11.6h1a4.65,4.65,0,0,1,1.68.49,2.42,2.42,0,0,1,1.07,2.33V16A19.54,19.54,0,0,0,98,18.41h4.07V16.94a3.49,3.49,0,0,1-.63-2.56A5.61,5.61,0,0,0,101.24,12.41Z"/><path class="cls-10" d="M155.33,14.78l0,.08A2.19,2.19,0,0,1,153,16.78h-1.57V11.44h3.48V10.11h-3.48V9.54h-3.56v5.81a2,2,0,0,1-.51,1.39v1.67h11V14.24h-3.09Z"/><path class="cls-11" d="M170.7,10.25a7.61,7.61,0,0,0-2.13-.71h-6.5a2.06,2.06,0,0,0,.85.75l.09,0,.09.07a12.18,12.18,0,0,0,2.78.88c2,.51,3,1.41,3,2.68v.38a3,3,0,0,1-.08.73c-.06.47-.37,1.33-1.82,1.51h-.13c-.94,0-1.95-.61-1.95-2.32v-.2h-3.29v3a2.93,2.93,0,0,0,.65.42,12.07,12.07,0,0,0,4.05.91h0a11.32,11.32,0,0,0,2-.16l.09,0h.09a4.76,4.76,0,0,0,2.07-.6,2.94,2.94,0,0,0,1.16-1.07,6.62,6.62,0,0,0,.66-2.71v-.57a4.13,4.13,0,0,0-.17-1A3.45,3.45,0,0,0,170.7,10.25Z"/><path class="cls-12" d="M183.51,9.54H180v4.22c0,.27,0,.68,0,1.27a2.61,2.61,0,0,1-.66,1.85v1.53h4.72V16.74a2.87,2.87,0,0,1-.63-2Z"/><path class="cls-13" d="M140.74,9.54v5a1.86,1.86,0,0,1-1.94,2.07h0a2.23,2.23,0,0,1-1.22-.36,2.51,2.51,0,0,1-.87-2.24V9.54H133.4V13c0,.41,0,.93,0,1.54a5,5,0,0,0,.36,1.77,2.89,2.89,0,0,0,1.45,1.52,7.06,7.06,0,0,0,3,.62h1.07a6.73,6.73,0,0,0,1.85-.27c1.77-.54,2.6-1.8,2.6-4V9.54Z"/><path class="cls-14" d="M112.88,14.78l0,.08a2.19,2.19,0,0,1-2.29,1.92H109V11.44h3.48V10.11H109V9.54h-3.56v5.81a2,2,0,0,1-.51,1.39v1.67h11V14.24h-3.09Z"/><path class="cls-15" d="M128,15.87h1.28l.2.13a4.49,4.49,0,0,0,.26-1.68V9.54h-3.42v5.13a1.84,1.84,0,0,1-1.89,2,2,2,0,0,1-1.44-.54c-.58-.42-.69-1.32-.69-2.84V9.54h-3.29v3.68a7.92,7.92,0,0,0,.2,2.52l.08.15,0,.16c0,.12.14.57,1,1.48a7.49,7.49,0,0,0,4.07.9h.75c.38,0,.55.12,1.62.92a18.09,18.09,0,0,0,1.84,1l.89-1.6-.35-.3-.08-.07a3.05,3.05,0,0,0-.56-.52l-.53-.36v-.6Z"/></g></g></svg>