<svg xmlns="http://www.w3.org/2000/svg" viewBox="0 0 117.06 21.65"><defs><style>.cls-1{fill:none;stroke:#fff;stroke-width:4px;}.cls-1,.cls-2{stroke-miterlimit:10;}.cls-2,.cls-3{fill:#e73545;}.cls-2{stroke:#231f20;stroke-width:2.5px;}</style></defs><g id="Layer_2" data-name="Layer 2"><g id="Layer_1-2" data-name="Layer 1"><path class="cls-1" d="M9.41,8.62V6.73A1.05,1.05,0,0,0,9.15,6a.85.85,0,0,0-.62-.28.94.94,0,0,0-.71.35,1.5,1.5,0,0,0-.3,1v7.88a1.23,1.23,0,0,0,.3.87,1,1,0,0,0,.71.32.79.79,0,0,0,.62-.3,1.35,1.35,0,0,0,.26-.89V12.25h5.36v5.51a3.94,3.94,0,0,1-2.36,1.4,14.89,14.89,0,0,1-3.95.49A8,8,0,0,1,3.77,18.4,4.51,4.51,0,0,1,2,14.45V7.36A7,7,0,0,1,2.36,5,4.1,4.1,0,0,1,3.44,3.32a4.45,4.45,0,0,1,1.82-1A9,9,0,0,1,7.83,2a15.86,15.86,0,0,1,3.79.4,11.09,11.09,0,0,1,3.15,1.33V8.62Z"/><path class="cls-1" d="M21.35,2.36h.89a7.17,7.17,0,0,1,4,1.08,4.24,4.24,0,0,1,1.46,3.43v8.18a4.3,4.3,0,0,1-1.32,3.23,6.62,6.62,0,0,1-4.2,1.22h-1q-4-.11-5.28-2.43a8.5,8.5,0,0,1-.62-4V8.39a7.59,7.59,0,0,1,.55-3.56C16.68,3.19,18.53,2.36,21.35,2.36Zm0,3.64H19v.07c1.13.21,1.73.31,1.81.31a1.43,1.43,0,0,0-.21.87v7c0,.91.21,1.45.63,1.59l.41.07a.77.77,0,0,0,.83-.66,6.58,6.58,0,0,0,.11-1.39V7.7c0-1-.08-1.49-.25-1.49,0-.11-.21-.19-.62-.24Z"/><path class="cls-1" d="M28.55,2.32h5.76a32.37,32.37,0,0,1,1.33,3.3q1.7,4.26,1.7,4.33h0V8.29c0-.48,0-1.14,0-2a1.43,1.43,0,0,0-.52-1v-3h5.52v3H40v.07l2,.36c-.14,0-.21.75-.22,2.23V19.5H36.59q-3-6.83-3.32-7.72h0v1.48c0,1.64.06,2.45.19,2.45s.15.29.46.48V19.5H28.55V16.39a1.63,1.63,0,0,0,.65-1.26c0-.73,0-1.27,0-1.61V8.32c0-.43,0-1,0-1.83a1.43,1.43,0,0,0-.65-1.19Z"/><path class="cls-1" d="M43.33,2.27H58.17V10H54.23V6.86c0-.44-.26-.69-.79-.76H51.06v.07l2.41.43v8.31a1.56,1.56,0,0,0,.62,1.48V19.5H47.44v-3a1.49,1.49,0,0,0,.65-1.37c0-.56,0-1,0-1.26V6.1h0c-.48,0-.73.3-.73.89,0,.15,0,.44,0,.87V10H43.33Z"/><path class="cls-1" d="M59,2.36H71.91v6h-5V7.14c0-.44-.31-.77-.93-1l-.36,0h-3v.07L65,6.64V9.3h3.45v3.3H65v3.3h.57a1.18,1.18,0,0,0,1.29-1.07V13.39h5V19.5H59V16.4a1,1,0,0,0,.5-.92V7.28A2.61,2.61,0,0,0,59,5.35Z"/><path class="cls-1" d="M78.63,2.32A11.7,11.7,0,0,1,85,4h0V8h-4.9V7c0-.77-.37-1.16-1.1-1.16h-2.2v.08c1,.18,1.54.28,1.64.28a1.26,1.26,0,0,0-.2.56V7c0,.86.8,1.43,2.42,1.71a10.05,10.05,0,0,1,2.84.92,4.37,4.37,0,0,1,2,2.52,5,5,0,0,1,.21,1.33V14A7.46,7.46,0,0,1,85,17.15a4,4,0,0,1-1.58,1.47,5.56,5.56,0,0,1-2.49.7,12.15,12.15,0,0,1-2.1.18h0a12.89,12.89,0,0,1-4.41-1c-.77-.39-1.18-.75-1.24-1.08V13.22h5.24v1.19c0,.87.31,1.3.94,1.3s1-.31,1-.71c0,0,.07-.17.07-.52V14.1c0-.75-.75-1.31-2.25-1.69A12,12,0,0,1,75,11.36c-1.31-.65-2-2-2-4.1V6.88a4.1,4.1,0,0,1,2.83-4.11A8.62,8.62,0,0,1,78.63,2.32Z"/><path class="cls-1" d="M86.6,2.27h14.85V10H97.51V6.86c0-.44-.26-.69-.79-.76H94.34v.07l2.41.43v8.31a1.56,1.56,0,0,0,.62,1.48V19.5H90.72v-3a1.51,1.51,0,0,0,.65-1.37c0-.56,0-1,0-1.26V6.1h0c-.48,0-.73.3-.73.89a8,8,0,0,0,0,.87V10H86.6Z"/><path class="cls-1" d="M107.94,2.32A11.7,11.7,0,0,1,114.35,4h0V8h-4.9V7c0-.77-.37-1.16-1.1-1.16h-2.2v.08c1,.18,1.54.28,1.64.28a1.18,1.18,0,0,0-.21.56V7q0,1.29,2.43,1.71a10,10,0,0,1,2.83.92,4.35,4.35,0,0,1,2,2.52,5,5,0,0,1,.21,1.33V14a7.48,7.48,0,0,1-.78,3.16,3.93,3.93,0,0,1-1.57,1.47,5.56,5.56,0,0,1-2.5.7,12,12,0,0,1-2.09.18h0a13,13,0,0,1-4.42-1q-1.14-.59-1.23-1.08V13.22h5.23v1.19c0,.87.32,1.3,1,1.3s1-.31,1-.71c0,0,.06-.17.06-.52V14.1c0-.75-.74-1.31-2.24-1.69a12.3,12.3,0,0,1-3.13-1.05c-1.3-.65-2-2-2-4.1V6.88a4.1,4.1,0,0,1,2.84-4.11A8.62,8.62,0,0,1,107.94,2.32Z"/><path class="cls-2" d="M9.41,8.62V6.73A1.05,1.05,0,0,0,9.15,6a.85.85,0,0,0-.62-.28.94.94,0,0,0-.71.35,1.5,1.5,0,0,0-.3,1v7.88a1.23,1.23,0,0,0,.3.87,1,1,0,0,0,.71.32.79.79,0,0,0,.62-.3,1.35,1.35,0,0,0,.26-.89V12.25h5.36v5.51a3.94,3.94,0,0,1-2.36,1.4,14.89,14.89,0,0,1-3.95.49A8,8,0,0,1,3.77,18.4,4.51,4.51,0,0,1,2,14.45V7.36A7,7,0,0,1,2.36,5,4.1,4.1,0,0,1,3.44,3.32a4.45,4.45,0,0,1,1.82-1A9,9,0,0,1,7.83,2a15.86,15.86,0,0,1,3.79.4,11.09,11.09,0,0,1,3.15,1.33V8.62Z"/><path class="cls-2" d="M21.35,2.36h.89a7.17,7.17,0,0,1,4,1.08,4.24,4.24,0,0,1,1.46,3.43v8.18a4.3,4.3,0,0,1-1.32,3.23,6.62,6.62,0,0,1-4.2,1.22h-1q-4-.11-5.28-2.43a8.5,8.5,0,0,1-.62-4V8.39a7.59,7.59,0,0,1,.55-3.56C16.68,3.19,18.53,2.36,21.35,2.36Zm0,3.64H19v.07c1.13.21,1.73.31,1.81.31a1.43,1.43,0,0,0-.21.87v7c0,.91.21,1.45.63,1.59l.41.07a.77.77,0,0,0,.83-.66,6.58,6.58,0,0,0,.11-1.39V7.7c0-1-.08-1.49-.25-1.49,0-.11-.21-.19-.62-.24Z"/><path class="cls-2" d="M28.55,2.32h5.76a32.37,32.37,0,0,1,1.33,3.3q1.7,4.26,1.7,4.33h0V8.29c0-.48,0-1.14,0-2a1.43,1.43,0,0,0-.52-1v-3h5.52v3H40v.07l2,.36c-.14,0-.21.75-.22,2.23V19.5H36.59q-3-6.83-3.32-7.72h0v1.48c0,1.64.06,2.45.19,2.45s.15.29.46.48V19.5H28.55V16.39a1.63,1.63,0,0,0,.65-1.26c0-.73,0-1.27,0-1.61V8.32c0-.43,0-1,0-1.83a1.43,1.43,0,0,0-.65-1.19Z"/><path class="cls-2" d="M43.33,2.27H58.17V10H54.23V6.86c0-.44-.26-.69-.79-.76H51.06v.07l2.41.43v8.31a1.56,1.56,0,0,0,.62,1.48V19.5H47.44v-3a1.49,1.49,0,0,0,.65-1.37c0-.56,0-1,0-1.26V6.1h0c-.48,0-.73.3-.73.89,0,.15,0,.44,0,.87V10H43.33Z"/><path class="cls-2" d="M59,2.36H71.91v6h-5V7.14c0-.44-.31-.77-.93-1l-.36,0h-3v.07L65,6.64V9.3h3.45v3.3H65v3.3h.57a1.18,1.18,0,0,0,1.29-1.07V13.39h5V19.5H59V16.4a1,1,0,0,0,.5-.92V7.28A2.61,2.61,0,0,0,59,5.35Z"/><path class="cls-2" d="M78.63,2.32A11.7,11.7,0,0,1,85,4h0V8h-4.9V7c0-.77-.37-1.16-1.1-1.16h-2.2v.08c1,.18,1.54.28,1.64.28a1.26,1.26,0,0,0-.2.56V7c0,.86.8,1.43,2.42,1.71a10.05,10.05,0,0,1,2.84.92,4.37,4.37,0,0,1,2,2.52,5,5,0,0,1,.21,1.33V14A7.46,7.46,0,0,1,85,17.15a4,4,0,0,1-1.58,1.47,5.56,5.56,0,0,1-2.49.7,12.15,12.15,0,0,1-2.1.18h0a12.89,12.89,0,0,1-4.41-1c-.77-.39-1.18-.75-1.24-1.08V13.22h5.24v1.19c0,.87.31,1.3.94,1.3s1-.31,1-.71c0,0,.07-.17.07-.52V14.1c0-.75-.75-1.31-2.25-1.69A12,12,0,0,1,75,11.36c-1.31-.65-2-2-2-4.1V6.88a4.1,4.1,0,0,1,2.83-4.11A8.62,8.62,0,0,1,78.63,2.32Z"/><path class="cls-2" d="M86.6,2.27h14.85V10H97.51V6.86c0-.44-.26-.69-.79-.76H94.34v.07l2.41.43v8.31a1.56,1.56,0,0,0,.62,1.48V19.5H90.72v-3a1.51,1.51,0,0,0,.65-1.37c0-.56,0-1,0-1.26V6.1h0c-.48,0-.73.3-.73.89a8,8,0,0,0,0,.87V10H86.6Z"/><path class="cls-2" d="M107.94,2.32A11.7,11.7,0,0,1,114.35,4h0V8h-4.9V7c0-.77-.37-1.16-1.1-1.16h-2.2v.08c1,.18,1.54.28,1.64.28a1.18,1.18,0,0,0-.21.56V7q0,1.29,2.43,1.71a10,10,0,0,1,2.83.92,4.35,4.35,0,0,1,2,2.52,5,5,0,0,1,.21,1.33V14a7.48,7.48,0,0,1-.78,3.16,3.93,3.93,0,0,1-1.57,1.47,5.56,5.56,0,0,1-2.5.7,12,12,0,0,1-2.09.18h0a13,13,0,0,1-4.42-1q-1.14-.59-1.23-1.08V13.22h5.23v1.19c0,.87.32,1.3,1,1.3s1-.31,1-.71c0,0,.06-.17.06-.52V14.1c0-.75-.74-1.31-2.24-1.69a12.3,12.3,0,0,1-3.13-1.05c-1.3-.65-2-2-2-4.1V6.88a4.1,4.1,0,0,1,2.84-4.11A8.62,8.62,0,0,1,107.94,2.32Z"/><path class="cls-3" d="M9.41,8.62V6.73A1.05,1.05,0,0,0,9.15,6a.85.85,0,0,0-.62-.28.94.94,0,0,0-.71.35,1.5,1.5,0,0,0-.3,1v7.88a1.23,1.23,0,0,0,.3.87,1,1,0,0,0,.71.32.79.79,0,0,0,.62-.3,1.35,1.35,0,0,0,.26-.89V12.25h5.36v5.51a3.94,3.94,0,0,1-2.36,1.4,14.89,14.89,0,0,1-3.95.49A8,8,0,0,1,3.77,18.4,4.51,4.51,0,0,1,2,14.45V7.36A7,7,0,0,1,2.36,5,4.1,4.1,0,0,1,3.44,3.32a4.45,4.45,0,0,1,1.82-1A9,9,0,0,1,7.83,2a15.86,15.86,0,0,1,3.79.4,11.09,11.09,0,0,1,3.15,1.33V8.62Z"/><path class="cls-3" d="M21.35,2.36h.89a7.17,7.17,0,0,1,4,1.08,4.24,4.24,0,0,1,1.46,3.43v8.18a4.3,4.3,0,0,1-1.32,3.23,6.62,6.62,0,0,1-4.2,1.22h-1q-4-.11-5.28-2.43a8.5,8.5,0,0,1-.62-4V8.39a7.59,7.59,0,0,1,.55-3.56C16.68,3.19,18.53,2.36,21.35,2.36Zm0,3.64H19v.07c1.13.21,1.73.31,1.81.31a1.43,1.43,0,0,0-.21.87v7c0,.91.21,1.45.63,1.59l.41.07a.77.77,0,0,0,.83-.66,6.58,6.58,0,0,0,.11-1.39V7.7c0-1-.08-1.49-.25-1.49,0-.11-.21-.19-.62-.24Z"/><path class="cls-3" d="M28.55,2.32h5.76a32.37,32.37,0,0,1,1.33,3.3q1.7,4.26,1.7,4.33h0V8.29c0-.48,0-1.14,0-2a1.43,1.43,0,0,0-.52-1v-3h5.52v3H40v.07l2,.36c-.14,0-.21.75-.22,2.23V19.5H36.59q-3-6.83-3.32-7.72h0v1.48c0,1.64.06,2.45.19,2.45s.15.29.46.48V19.5H28.55V16.39a1.63,1.63,0,0,0,.65-1.26c0-.73,0-1.27,0-1.61V8.32c0-.43,0-1,0-1.83a1.43,1.43,0,0,0-.65-1.19Z"/><path class="cls-3" d="M43.33,2.27H58.17V10H54.23V6.86c0-.44-.26-.69-.79-.76H51.06v.07l2.41.43v8.31a1.56,1.56,0,0,0,.62,1.48V19.5H47.44v-3a1.49,1.49,0,0,0,.65-1.37c0-.56,0-1,0-1.26V6.1h0c-.48,0-.73.3-.73.89,0,.15,0,.44,0,.87V10H43.33Z"/><path class="cls-3" d="M59,2.36H71.91v6h-5V7.14c0-.44-.31-.77-.93-1l-.36,0h-3v.07L65,6.64V9.3h3.45v3.3H65v3.3h.57a1.18,1.18,0,0,0,1.29-1.07V13.39h5V19.5H59V16.4a1,1,0,0,0,.5-.92V7.28A2.61,2.61,0,0,0,59,5.35Z"/><path class="cls-3" d="M78.63,2.32A11.7,11.7,0,0,1,85,4h0V8h-4.9V7c0-.77-.37-1.16-1.1-1.16h-2.2v.08c1,.18,1.54.28,1.64.28a1.26,1.26,0,0,0-.2.56V7c0,.86.8,1.43,2.42,1.71a10.05,10.05,0,0,1,2.84.92,4.37,4.37,0,0,1,2,2.52,5,5,0,0,1,.21,1.33V14A7.46,7.46,0,0,1,85,17.15a4,4,0,0,1-1.58,1.47,5.56,5.56,0,0,1-2.49.7,12.15,12.15,0,0,1-2.1.18h0a12.89,12.89,0,0,1-4.41-1c-.77-.39-1.18-.75-1.24-1.08V13.22h5.24v1.19c0,.87.31,1.3.94,1.3s1-.31,1-.71c0,0,.07-.17.07-.52V14.1c0-.75-.75-1.31-2.25-1.69A12,12,0,0,1,75,11.36c-1.31-.65-2-2-2-4.1V6.88a4.1,4.1,0,0,1,2.83-4.11A8.62,8.62,0,0,1,78.63,2.32Z"/><path class="cls-3" d="M86.6,2.27h14.85V10H97.51V6.86c0-.44-.26-.69-.79-.76H94.34v.07l2.41.43v8.31a1.56,1.56,0,0,0,.62,1.48V19.5H90.72v-3a1.51,1.51,0,0,0,.65-1.37c0-.56,0-1,0-1.26V6.1h0c-.48,0-.73.3-.73.89a8,8,0,0,0,0,.87V10H86.6Z"/><path class="cls-3" d="M107.94,2.32A11.7,11.7,0,0,1,114.35,4h0V8h-4.9V7c0-.77-.37-1.16-1.1-1.16h-2.2v.08c1,.18,1.54.28,1.64.28a1.18,1.18,0,0,0-.21.56V7q0,1.29,2.43,1.71a10,10,0,0,1,2.83.92,4.35,4.35,0,0,1,2,2.52,5,5,0,0,1,.21,1.33V14a7.48,7.48,0,0,1-.78,3.16,3.93,3.93,0,0,1-1.57,1.47,5.56,5.56,0,0,1-2.5.7,12,12,0,0,1-2.09.18h0a13,13,0,0,1-4.42-1q-1.14-.59-1.23-1.08V13.22h5.23v1.19c0,.87.32,1.3,1,1.3s1-.31,1-.71c0,0,.06-.17.06-.52V14.1c0-.75-.74-1.31-2.24-1.69a12.3,12.3,0,0,1-3.13-1.05c-1.3-.65-2-2-2-4.1V6.88a4.1,4.1,0,0,1,2.84-4.11A8.62,8.62,0,0,1,107.94,2.32Z"/></g></g></svg>