<svg xmlns="http://www.w3.org/2000/svg" viewBox="0 0 173.65 21.65"><defs><style>.cls-1{fill:none;stroke:#fff;stroke-width:4px;}.cls-1,.cls-2{stroke-miterlimit:10;}.cls-2,.cls-3{fill:#e73545;}.cls-2{stroke:#231f20;stroke-width:2.5px;}</style></defs><g id="Layer_2" data-name="Layer 2"><g id="Layer_1-2" data-name="Layer 1"><path class="cls-1" d="M2,2.32H7.83l3,7.72V7c0-.1,0-.2,0-.29s0-.2,0-.33a1.28,1.28,0,0,0-.5-1.11v-3h5.52v3a1.3,1.3,0,0,0-.53.68,3.92,3.92,0,0,0-.1,1V19.5H10L6.73,11.77v2.68c0,.34,0,.6,0,.8a1.37,1.37,0,0,0,.17.54,1,1,0,0,0,.43.4V19.5H2V16.34A1.39,1.39,0,0,0,2.64,15v-.31a2.17,2.17,0,0,1,0-.26V7.2a2.81,2.81,0,0,1,0-.3V6.56a1.94,1.94,0,0,0-.12-.72A1.15,1.15,0,0,0,2,5.31Z"/><path class="cls-1" d="M16.66,2.36H29.55v6h-5V7.14c0-.44-.31-.77-.93-1l-.36,0H20.28v.07l2.38.43V9.3h3.45v3.3H22.66v3.3h.57a1.17,1.17,0,0,0,1.29-1.07V13.39h5V19.5H16.66V16.4a1,1,0,0,0,.5-.92V7.28a2.61,2.61,0,0,0-.5-1.93Z"/><path class="cls-1" d="M30.63,2.32h6.63v3H34.84v.07a14.15,14.15,0,0,1,2,.4,2.28,2.28,0,0,0-.07.47v.65c0,.13.2,1.63.61,4.5h0l1.73-9.11h3.31l1.87,9.15h0L45,6.78c0-.91-.23-1.37-.54-1.37,0,0,0-.07-.11-.07v-3h5.83v3a3.32,3.32,0,0,0-.61,1.26L47.05,19.5H41.83l-1.37-8.07h-.07c-.1.61-.61,3.3-1.55,8.07H33.69a3.68,3.68,0,0,1-.25-1.3L31.5,6.93a7.08,7.08,0,0,0-.87-1.63Z"/><path class="cls-1" d="M66,8.62V6.73A1,1,0,0,0,65.73,6a.83.83,0,0,0-.61-.28.92.92,0,0,0-.71.35,1.45,1.45,0,0,0-.31,1v7.88a1.19,1.19,0,0,0,.31.87,1,1,0,0,0,.71.32.79.79,0,0,0,.62-.3,1.35,1.35,0,0,0,.25-.89V12.25h5.36v5.51A3.91,3.91,0,0,1,69,19.16a14.81,14.81,0,0,1-3.94.49,8,8,0,0,1-4.7-1.25,4.5,4.5,0,0,1-1.76-3.95V7.36A7,7,0,0,1,59,5,4,4,0,0,1,60,3.32a4.39,4.39,0,0,1,1.82-1A8.91,8.91,0,0,1,64.42,2a15.86,15.86,0,0,1,3.79.4,11.15,11.15,0,0,1,3.14,1.33V8.62Z"/><path class="cls-1" d="M77.93,2.36h.9a7.22,7.22,0,0,1,4,1.08,4.27,4.27,0,0,1,1.46,3.43v8.18A4.3,4.3,0,0,1,83,18.28a6.62,6.62,0,0,1-4.2,1.22h-1q-4-.11-5.28-2.43a8.37,8.37,0,0,1-.62-4V8.39a7.59,7.59,0,0,1,.55-3.56C73.26,3.19,75.12,2.36,77.93,2.36Zm0,3.64H75.57v.07c1.12.21,1.72.31,1.8.31a1.43,1.43,0,0,0-.2.87v7c0,.91.21,1.45.63,1.59l.41.07a.78.78,0,0,0,.83-.66,6.58,6.58,0,0,0,.11-1.39V7.7c0-1-.09-1.49-.25-1.49S78.69,6,78.28,6Z"/><path class="cls-1" d="M85.13,2.32H90.9s.49,1.1,1.33,3.3Q93.93,9.88,93.92,10h0V8.29c0-.48,0-1.14,0-2a1.41,1.41,0,0,0-.51-1v-3H99v3H96.59v.07l2,.36c-.13,0-.2.75-.21,2.23V19.5H93.17c-2-4.55-3.07-7.12-3.32-7.72h0v1.48c0,1.64.07,2.45.19,2.45s.16.29.46.48V19.5H85.13V16.39a1.61,1.61,0,0,0,.66-1.26c0-.73,0-1.27,0-1.61V8.32c0-.43,0-1,0-1.83a1.42,1.42,0,0,0-.66-1.19Z"/><path class="cls-1" d="M99.91,2.27h14.85V10h-3.94V6.86c0-.44-.27-.69-.79-.76h-2.38v.07l2.41.43v8.31a1.56,1.56,0,0,0,.62,1.48V19.5H104v-3a1.51,1.51,0,0,0,.65-1.37c0-.56,0-1,0-1.26V6.1h0c-.49,0-.73.3-.73.89a8,8,0,0,0,0,.87V10H99.91Z"/><path class="cls-1" d="M115.6,2.36h12.9v6h-5V7.14c0-.44-.31-.77-.93-1l-.37,0h-2.94v.07l2.37.43V9.3h3.45v3.3H121.6v3.3h.57a1.19,1.19,0,0,0,1.3-1.07V13.39h5V19.5H115.6V16.4a1,1,0,0,0,.51-.92V7.28a2.56,2.56,0,0,0-.51-1.93Z"/><path class="cls-1" d="M135.22,2.32A11.7,11.7,0,0,1,141.63,4h0V8h-4.9V7c0-.77-.37-1.16-1.1-1.16h-2.2v.08c1,.18,1.54.28,1.64.28a1.18,1.18,0,0,0-.21.56V7q0,1.29,2.43,1.71a10,10,0,0,1,2.83.92,4.3,4.3,0,0,1,2,2.52,4.71,4.71,0,0,1,.22,1.33V14a7.48,7.48,0,0,1-.78,3.16A3.93,3.93,0,0,1,140,18.62a5.56,5.56,0,0,1-2.5.7,12,12,0,0,1-2.09.18h0a13,13,0,0,1-4.42-1q-1.14-.59-1.23-1.08V13.22h5.23v1.19c0,.87.32,1.3.95,1.3s.94-.31.94-.71c0,0,.07-.17.07-.52V14.1c0-.75-.74-1.31-2.24-1.69a12.3,12.3,0,0,1-3.13-1.05c-1.3-.65-2-2-2-4.1V6.88a4.1,4.1,0,0,1,2.84-4.11A8.62,8.62,0,0,1,135.22,2.32Z"/><path class="cls-1" d="M143.19,2.27H158V10h-3.94V6.86c0-.44-.26-.69-.78-.76h-2.39v.07l2.41.43v8.31a1.55,1.55,0,0,0,.63,1.48V19.5h-6.65v-3a1.51,1.51,0,0,0,.65-1.37c0-.56,0-1,0-1.26V6.1h0c-.49,0-.73.3-.73.89a8,8,0,0,0,0,.87V10h-3.94Z"/><path class="cls-1" d="M164.53,2.32A11.73,11.73,0,0,1,170.94,4h0V8h-4.91V7c0-.77-.36-1.16-1.09-1.16h-2.21v.08c1,.18,1.55.28,1.65.28a1.18,1.18,0,0,0-.21.56V7c0,.86.81,1.43,2.42,1.71a9.94,9.94,0,0,1,2.84.92,4.34,4.34,0,0,1,2,2.52,4.71,4.71,0,0,1,.22,1.33V14a7.48,7.48,0,0,1-.78,3.16,4,4,0,0,1-1.58,1.47,5.52,5.52,0,0,1-2.49.7,12.06,12.06,0,0,1-2.1.18h0a13,13,0,0,1-4.41-1q-1.14-.59-1.23-1.08V13.22h5.23v1.19c0,.87.32,1.3.95,1.3s.94-.31.94-.71c.05,0,.07-.17.07-.52V14.1c0-.75-.75-1.31-2.25-1.69a12.15,12.15,0,0,1-3.12-1.05c-1.3-.65-2-2-2-4.1V6.88a4.1,4.1,0,0,1,2.84-4.11A8.58,8.58,0,0,1,164.53,2.32Z"/><path class="cls-2" d="M2,2.32H7.83l3,7.72V7c0-.1,0-.2,0-.29s0-.2,0-.33a1.28,1.28,0,0,0-.5-1.11v-3h5.52v3a1.3,1.3,0,0,0-.53.68,3.92,3.92,0,0,0-.1,1V19.5H10L6.73,11.77v2.68c0,.34,0,.6,0,.8a1.37,1.37,0,0,0,.17.54,1,1,0,0,0,.43.4V19.5H2V16.34A1.39,1.39,0,0,0,2.64,15v-.31a2.17,2.17,0,0,1,0-.26V7.2a2.81,2.81,0,0,1,0-.3V6.56a1.94,1.94,0,0,0-.12-.72A1.15,1.15,0,0,0,2,5.31Z"/><path class="cls-2" d="M16.66,2.36H29.55v6h-5V7.14c0-.44-.31-.77-.93-1l-.36,0H20.28v.07l2.38.43V9.3h3.45v3.3H22.66v3.3h.57a1.17,1.17,0,0,0,1.29-1.07V13.39h5V19.5H16.66V16.4a1,1,0,0,0,.5-.92V7.28a2.61,2.61,0,0,0-.5-1.93Z"/><path class="cls-2" d="M30.63,2.32h6.63v3H34.84v.07a14.15,14.15,0,0,1,2,.4,2.28,2.28,0,0,0-.07.47v.65c0,.13.2,1.63.61,4.5h0l1.73-9.11h3.31l1.87,9.15h0L45,6.78c0-.91-.23-1.37-.54-1.37,0,0,0-.07-.11-.07v-3h5.83v3a3.32,3.32,0,0,0-.61,1.26L47.05,19.5H41.83l-1.37-8.07h-.07c-.1.61-.61,3.3-1.55,8.07H33.69a3.68,3.68,0,0,1-.25-1.3L31.5,6.93a7.08,7.08,0,0,0-.87-1.63Z"/><path class="cls-2" d="M66,8.62V6.73A1,1,0,0,0,65.73,6a.83.83,0,0,0-.61-.28.92.92,0,0,0-.71.35,1.45,1.45,0,0,0-.31,1v7.88a1.19,1.19,0,0,0,.31.87,1,1,0,0,0,.71.32.79.79,0,0,0,.62-.3,1.35,1.35,0,0,0,.25-.89V12.25h5.36v5.51A3.91,3.91,0,0,1,69,19.16a14.81,14.81,0,0,1-3.94.49,8,8,0,0,1-4.7-1.25,4.5,4.5,0,0,1-1.76-3.95V7.36A7,7,0,0,1,59,5,4,4,0,0,1,60,3.32a4.39,4.39,0,0,1,1.82-1A8.91,8.91,0,0,1,64.42,2a15.86,15.86,0,0,1,3.79.4,11.15,11.15,0,0,1,3.14,1.33V8.62Z"/><path class="cls-2" d="M77.93,2.36h.9a7.22,7.22,0,0,1,4,1.08,4.27,4.27,0,0,1,1.46,3.43v8.18A4.3,4.3,0,0,1,83,18.28a6.62,6.62,0,0,1-4.2,1.22h-1q-4-.11-5.28-2.43a8.37,8.37,0,0,1-.62-4V8.39a7.59,7.59,0,0,1,.55-3.56C73.26,3.19,75.12,2.36,77.93,2.36Zm0,3.64H75.57v.07c1.12.21,1.72.31,1.8.31a1.43,1.43,0,0,0-.2.87v7c0,.91.21,1.45.63,1.59l.41.07a.78.78,0,0,0,.83-.66,6.58,6.58,0,0,0,.11-1.39V7.7c0-1-.09-1.49-.25-1.49S78.69,6,78.28,6Z"/><path class="cls-2" d="M85.13,2.32H90.9s.49,1.1,1.33,3.3Q93.93,9.88,93.92,10h0V8.29c0-.48,0-1.14,0-2a1.41,1.41,0,0,0-.51-1v-3H99v3H96.59v.07l2,.36c-.13,0-.2.75-.21,2.23V19.5H93.17c-2-4.55-3.07-7.12-3.32-7.72h0v1.48c0,1.64.07,2.45.19,2.45s.16.29.46.48V19.5H85.13V16.39a1.61,1.61,0,0,0,.66-1.26c0-.73,0-1.27,0-1.61V8.32c0-.43,0-1,0-1.83a1.42,1.42,0,0,0-.66-1.19Z"/><path class="cls-2" d="M99.91,2.27h14.85V10h-3.94V6.86c0-.44-.27-.69-.79-.76h-2.38v.07l2.41.43v8.31a1.56,1.56,0,0,0,.62,1.48V19.5H104v-3a1.51,1.51,0,0,0,.65-1.37c0-.56,0-1,0-1.26V6.1h0c-.49,0-.73.3-.73.89a8,8,0,0,0,0,.87V10H99.91Z"/><path class="cls-2" d="M115.6,2.36h12.9v6h-5V7.14c0-.44-.31-.77-.93-1l-.37,0h-2.94v.07l2.37.43V9.3h3.45v3.3H121.6v3.3h.57a1.19,1.19,0,0,0,1.3-1.07V13.39h5V19.5H115.6V16.4a1,1,0,0,0,.51-.92V7.28a2.56,2.56,0,0,0-.51-1.93Z"/><path class="cls-2" d="M135.22,2.32A11.7,11.7,0,0,1,141.63,4h0V8h-4.9V7c0-.77-.37-1.16-1.1-1.16h-2.2v.08c1,.18,1.54.28,1.64.28a1.18,1.18,0,0,0-.21.56V7q0,1.29,2.43,1.71a10,10,0,0,1,2.83.92,4.3,4.3,0,0,1,2,2.52,4.71,4.71,0,0,1,.22,1.33V14a7.48,7.48,0,0,1-.78,3.16A3.93,3.93,0,0,1,140,18.62a5.56,5.56,0,0,1-2.5.7,12,12,0,0,1-2.09.18h0a13,13,0,0,1-4.42-1q-1.14-.59-1.23-1.08V13.22h5.23v1.19c0,.87.32,1.3.95,1.3s.94-.31.94-.71c0,0,.07-.17.07-.52V14.1c0-.75-.74-1.31-2.24-1.69a12.3,12.3,0,0,1-3.13-1.05c-1.3-.65-2-2-2-4.1V6.88a4.1,4.1,0,0,1,2.84-4.11A8.62,8.62,0,0,1,135.22,2.32Z"/><path class="cls-2" d="M143.19,2.27H158V10h-3.94V6.86c0-.44-.26-.69-.78-.76h-2.39v.07l2.41.43v8.31a1.55,1.55,0,0,0,.63,1.48V19.5h-6.65v-3a1.51,1.51,0,0,0,.65-1.37c0-.56,0-1,0-1.26V6.1h0c-.49,0-.73.3-.73.89a8,8,0,0,0,0,.87V10h-3.94Z"/><path class="cls-2" d="M164.53,2.32A11.73,11.73,0,0,1,170.94,4h0V8h-4.91V7c0-.77-.36-1.16-1.09-1.16h-2.21v.08c1,.18,1.55.28,1.65.28a1.18,1.18,0,0,0-.21.56V7c0,.86.81,1.43,2.42,1.71a9.94,9.94,0,0,1,2.84.92,4.34,4.34,0,0,1,2,2.52,4.71,4.71,0,0,1,.22,1.33V14a7.48,7.48,0,0,1-.78,3.16,4,4,0,0,1-1.58,1.47,5.52,5.52,0,0,1-2.49.7,12.06,12.06,0,0,1-2.1.18h0a13,13,0,0,1-4.41-1q-1.14-.59-1.23-1.08V13.22h5.23v1.19c0,.87.32,1.3.95,1.3s.94-.31.94-.71c.05,0,.07-.17.07-.52V14.1c0-.75-.75-1.31-2.25-1.69a12.15,12.15,0,0,1-3.12-1.05c-1.3-.65-2-2-2-4.1V6.88a4.1,4.1,0,0,1,2.84-4.11A8.58,8.58,0,0,1,164.53,2.32Z"/><path class="cls-3" d="M2,2.32H7.83l3,7.72V7c0-.1,0-.2,0-.29s0-.2,0-.33a1.28,1.28,0,0,0-.5-1.11v-3h5.52v3a1.3,1.3,0,0,0-.53.68,3.92,3.92,0,0,0-.1,1V19.5H10L6.73,11.77v2.68c0,.34,0,.6,0,.8a1.37,1.37,0,0,0,.17.54,1,1,0,0,0,.43.4V19.5H2V16.34A1.39,1.39,0,0,0,2.64,15v-.31a2.17,2.17,0,0,1,0-.26V7.2a2.81,2.81,0,0,1,0-.3V6.56a1.94,1.94,0,0,0-.12-.72A1.15,1.15,0,0,0,2,5.31Z"/><path class="cls-3" d="M16.66,2.36H29.55v6h-5V7.14c0-.44-.31-.77-.93-1l-.36,0H20.28v.07l2.38.43V9.3h3.45v3.3H22.66v3.3h.57a1.17,1.17,0,0,0,1.29-1.07V13.39h5V19.5H16.66V16.4a1,1,0,0,0,.5-.92V7.28a2.61,2.61,0,0,0-.5-1.93Z"/><path class="cls-3" d="M30.63,2.32h6.63v3H34.84v.07a14.15,14.15,0,0,1,2,.4,2.28,2.28,0,0,0-.07.47v.65c0,.13.2,1.63.61,4.5h0l1.73-9.11h3.31l1.87,9.15h0L45,6.78c0-.91-.23-1.37-.54-1.37,0,0,0-.07-.11-.07v-3h5.83v3a3.32,3.32,0,0,0-.61,1.26L47.05,19.5H41.83l-1.37-8.07h-.07c-.1.61-.61,3.3-1.55,8.07H33.69a3.68,3.68,0,0,1-.25-1.3L31.5,6.93a7.08,7.08,0,0,0-.87-1.63Z"/><path class="cls-3" d="M66,8.62V6.73A1,1,0,0,0,65.73,6a.83.83,0,0,0-.61-.28.92.92,0,0,0-.71.35,1.45,1.45,0,0,0-.31,1v7.88a1.19,1.19,0,0,0,.31.87,1,1,0,0,0,.71.32.79.79,0,0,0,.62-.3,1.35,1.35,0,0,0,.25-.89V12.25h5.36v5.51A3.91,3.91,0,0,1,69,19.16a14.81,14.81,0,0,1-3.94.49,8,8,0,0,1-4.7-1.25,4.5,4.5,0,0,1-1.76-3.95V7.36A7,7,0,0,1,59,5,4,4,0,0,1,60,3.32a4.39,4.39,0,0,1,1.82-1A8.91,8.91,0,0,1,64.42,2a15.86,15.86,0,0,1,3.79.4,11.15,11.15,0,0,1,3.14,1.33V8.62Z"/><path class="cls-3" d="M77.93,2.36h.9a7.22,7.22,0,0,1,4,1.08,4.27,4.27,0,0,1,1.46,3.43v8.18A4.3,4.3,0,0,1,83,18.28a6.62,6.62,0,0,1-4.2,1.22h-1q-4-.11-5.28-2.43a8.37,8.37,0,0,1-.62-4V8.39a7.59,7.59,0,0,1,.55-3.56C73.26,3.19,75.12,2.36,77.93,2.36Zm0,3.64H75.57v.07c1.12.21,1.72.31,1.8.31a1.43,1.43,0,0,0-.2.87v7c0,.91.21,1.45.63,1.59l.41.07a.78.78,0,0,0,.83-.66,6.58,6.58,0,0,0,.11-1.39V7.7c0-1-.09-1.49-.25-1.49S78.69,6,78.28,6Z"/><path class="cls-3" d="M85.13,2.32H90.9s.49,1.1,1.33,3.3Q93.93,9.88,93.92,10h0V8.29c0-.48,0-1.14,0-2a1.41,1.41,0,0,0-.51-1v-3H99v3H96.59v.07l2,.36c-.13,0-.2.75-.21,2.23V19.5H93.17c-2-4.55-3.07-7.12-3.32-7.72h0v1.48c0,1.64.07,2.45.19,2.45s.16.29.46.48V19.5H85.13V16.39a1.61,1.61,0,0,0,.66-1.26c0-.73,0-1.27,0-1.61V8.32c0-.43,0-1,0-1.83a1.42,1.42,0,0,0-.66-1.19Z"/><path class="cls-3" d="M99.91,2.27h14.85V10h-3.94V6.86c0-.44-.27-.69-.79-.76h-2.38v.07l2.41.43v8.31a1.56,1.56,0,0,0,.62,1.48V19.5H104v-3a1.51,1.51,0,0,0,.65-1.37c0-.56,0-1,0-1.26V6.1h0c-.49,0-.73.3-.73.89a8,8,0,0,0,0,.87V10H99.91Z"/><path class="cls-3" d="M115.6,2.36h12.9v6h-5V7.14c0-.44-.31-.77-.93-1l-.37,0h-2.94v.07l2.37.43V9.3h3.45v3.3H121.6v3.3h.57a1.19,1.19,0,0,0,1.3-1.07V13.39h5V19.5H115.6V16.4a1,1,0,0,0,.51-.92V7.28a2.56,2.56,0,0,0-.51-1.93Z"/><path class="cls-3" d="M135.22,2.32A11.7,11.7,0,0,1,141.63,4h0V8h-4.9V7c0-.77-.37-1.16-1.1-1.16h-2.2v.08c1,.18,1.54.28,1.64.28a1.18,1.18,0,0,0-.21.56V7q0,1.29,2.43,1.71a10,10,0,0,1,2.83.92,4.3,4.3,0,0,1,2,2.52,4.71,4.71,0,0,1,.22,1.33V14a7.48,7.48,0,0,1-.78,3.16A3.93,3.93,0,0,1,140,18.62a5.56,5.56,0,0,1-2.5.7,12,12,0,0,1-2.09.18h0a13,13,0,0,1-4.42-1q-1.14-.59-1.23-1.08V13.22h5.23v1.19c0,.87.32,1.3.95,1.3s.94-.31.94-.71c0,0,.07-.17.07-.52V14.1c0-.75-.74-1.31-2.24-1.69a12.3,12.3,0,0,1-3.13-1.05c-1.3-.65-2-2-2-4.1V6.88a4.1,4.1,0,0,1,2.84-4.11A8.62,8.62,0,0,1,135.22,2.32Z"/><path class="cls-3" d="M143.19,2.27H158V10h-3.94V6.86c0-.44-.26-.69-.78-.76h-2.39v.07l2.41.43v8.31a1.55,1.55,0,0,0,.63,1.48V19.5h-6.65v-3a1.51,1.51,0,0,0,.65-1.37c0-.56,0-1,0-1.26V6.1h0c-.49,0-.73.3-.73.89a8,8,0,0,0,0,.87V10h-3.94Z"/><path class="cls-3" d="M164.53,2.32A11.73,11.73,0,0,1,170.94,4h0V8h-4.91V7c0-.77-.36-1.16-1.09-1.16h-2.21v.08c1,.18,1.55.28,1.65.28a1.18,1.18,0,0,0-.21.56V7c0,.86.81,1.43,2.42,1.71a9.94,9.94,0,0,1,2.84.92,4.34,4.34,0,0,1,2,2.52,4.71,4.71,0,0,1,.22,1.33V14a7.48,7.48,0,0,1-.78,3.16,4,4,0,0,1-1.58,1.47,5.52,5.52,0,0,1-2.49.7,12.06,12.06,0,0,1-2.1.18h0a13,13,0,0,1-4.41-1q-1.14-.59-1.23-1.08V13.22h5.23v1.19c0,.87.32,1.3.95,1.3s.94-.31.94-.71c.05,0,.07-.17.07-.52V14.1c0-.75-.75-1.31-2.25-1.69a12.15,12.15,0,0,1-3.12-1.05c-1.3-.65-2-2-2-4.1V6.88a4.1,4.1,0,0,1,2.84-4.11A8.58,8.58,0,0,1,164.53,2.32Z"/></g></g></svg>