<svg xmlns="http://www.w3.org/2000/svg" xmlns:xlink="http://www.w3.org/1999/xlink" viewBox="0 0 111.57 21.36"><defs><style>.cls-1{fill:#0f1b30;}.cls-2{fill:#e63444;}.cls-3{fill:url(#linear-gradient);}.cls-4{fill:url(#linear-gradient-2);}.cls-5{fill:url(#linear-gradient-3);}.cls-6{fill:url(#linear-gradient-4);}.cls-7{fill:url(#linear-gradient-5);}.cls-8{fill:url(#linear-gradient-6);}.cls-9{fill:url(#linear-gradient-7);}.cls-10{fill:url(#linear-gradient-8);}.cls-11{fill:url(#linear-gradient-9);}.cls-12{fill:url(#linear-gradient-10);}.cls-13{fill:url(#linear-gradient-11);}</style><linearGradient id="linear-gradient" x1="15.98" y1="10.49" x2="15.98" y2="18.36" gradientUnits="userSpaceOnUse"><stop offset="0" stop-color="#e63444"/><stop offset="0.5" stop-color="#d2263e"/><stop offset="0.86" stop-color="#c9203c"/></linearGradient><linearGradient id="linear-gradient-2" x1="88.79" y1="10.49" x2="88.79" y2="18.36" xlink:href="#linear-gradient"/><linearGradient id="linear-gradient-3" x1="26.82" y1="10.49" x2="26.82" y2="18.36" xlink:href="#linear-gradient"/><linearGradient id="linear-gradient-4" x1="4.78" y1="10.49" x2="4.78" y2="18.36" xlink:href="#linear-gradient"/><linearGradient id="linear-gradient-5" x1="10.11" y1="10.49" x2="10.11" y2="18.36" xlink:href="#linear-gradient"/><linearGradient id="linear-gradient-6" x1="37.21" y1="10.49" x2="37.21" y2="18.36" xlink:href="#linear-gradient"/><linearGradient id="linear-gradient-7" x1="74.18" y1="10.49" x2="74.18" y2="18.36" xlink:href="#linear-gradient"/><linearGradient id="linear-gradient-8" x1="59.76" y1="10.49" x2="59.76" y2="18.36" xlink:href="#linear-gradient"/><linearGradient id="linear-gradient-9" x1="103.19" y1="10.49" x2="103.19" y2="18.36" xlink:href="#linear-gradient"/><linearGradient id="linear-gradient-10" x1="42.53" y1="10.49" x2="42.53" y2="18.36" xlink:href="#linear-gradient"/><linearGradient id="linear-gradient-11" x1="48.4" y1="10.49" x2="48.4" y2="18.36" xlink:href="#linear-gradient"/></defs><g id="Layer_2" data-name="Layer 2"><g id="Layer_1-2" data-name="Layer 1"><path class="cls-1" d="M102.51,21.36a14.12,14.12,0,0,1-4.71-1v1H65.67v-.95c-.24.12-.46.23-.67.31a10.27,10.27,0,0,1-3.68.64H0V16.24a1.9,1.9,0,0,1,.64-1.46c0-.58,0-1,0-1.31V7.93c0-.36,0-.83,0-1.43A2,2,0,0,1,0,5V0H10.69l.12.64L11,0H21.25V.05H32.42V0H43.11l.12.64L43.4,0H57.13c5.76,0,7.38.34,8.18.89l.36.17v-1H79.78V0H88.4c3.53,0,4.84.41,5.55.78a6.17,6.17,0,0,1,2.18,1.66A6.74,6.74,0,0,1,98.79.6a10.72,10.72,0,0,1,3.58-.6,14.07,14.07,0,0,1,7,1.7h1.45l0,2v6h-.33a7,7,0,0,1,1,3.49v.57a9.7,9.7,0,0,1-1,4l-.06.12-.07.11a6.12,6.12,0,0,1-2.39,2.2,7.69,7.69,0,0,1-3.23.91,14.57,14.57,0,0,1-2.3.18Z"/><path class="cls-2" d="M2,2H9c0,.25.63,2.47,1.74,6.66h0L12.52,2h6.73V5.06H16.81v.07l2,.36A3.63,3.63,0,0,0,18.6,7.1v7.56A1.87,1.87,0,0,0,18.92,16c.22.14.33.23.33.26v3.12H12.7V16.24a1,1,0,0,0,.62-.85V10.26h0L11,19.36H9.32L7,10.3h0v2.58c0,1.87.06,2.81.18,2.81s.17.31.46.55v3.12H2V16.24s.13-.1.4-.22a1.05,1.05,0,0,0,.26-.66c0-.88,0-1.51,0-1.89V7.93c0-.43,0-1,0-1.86a1.13,1.13,0,0,0-.37-.86C2.1,5.12,2,5.06,2,5Zm18.31,0h13V8.11H28.25V6.88q0-.67-.93-1l-.37,0H24v.07l2.4.44V9.06h3.49v3.33H26.37v3.34H27a1.18,1.18,0,0,0,1.3-1.09V13.19h5.09v6.17h-13V16.24a1,1,0,0,0,.51-.94V7q0-1.53-.51-1.95ZM34.42,2h7q.07.38,1.75,6.66h0L45,2h6.73V5.06H49.24v.07l2,.36A3.44,3.44,0,0,0,51,7.1v7.56A1.81,1.81,0,0,0,51.35,16c.22.14.33.23.33.26v3.12H45.13V16.24a1,1,0,0,0,.61-.85V10.26h0l-2.32,9.1H41.74L39.37,10.3h0v2.58c0,1.87.06,2.81.18,2.81s.18.31.47.55v3.12H34.42V16.24s.14-.1.4-.22a1,1,0,0,0,.26-.66c0-.88,0-1.51,0-1.89V7.93c0-.43,0-1,0-1.86a1.09,1.09,0,0,0-.37-.86c-.19-.09-.29-.15-.29-.19ZM52.73,2h4.4q6.54,0,7.14.62a3.21,3.21,0,0,1,1.78,1.6,4.87,4.87,0,0,1,.4,2.11c0,1.84-.6,3.05-1.81,3.64a2.57,2.57,0,0,1-1,.29v0a3.88,3.88,0,0,1,1.61.54,3.8,3.8,0,0,1,1.56,3.29v.28q0,3.47-2.51,4.44a8.19,8.19,0,0,1-2.95.51H52.73V16.24a1.8,1.8,0,0,0,.69-.63,4.5,4.5,0,0,0,.11-.84V6.92a1.83,1.83,0,0,0-.4-1.39,1.05,1.05,0,0,0-.4-.15Zm3.65,3.71v.07l2.44.44V8.84h.39q1.83,0,1.83-1a1.33,1.33,0,0,0,0-.28,2.54,2.54,0,0,0-.47-1.47,2.74,2.74,0,0,0-1.54-.36Zm0,6.3v.07l2.44.44v3.17h.42c1,0,1.58-.32,1.76-.95a5.19,5.19,0,0,0,.07-.65,2.22,2.22,0,0,0-.62-1.87A4.84,4.84,0,0,0,58.6,12Zm11.29-10h13V8.11H75.61V6.88c0-.45-.31-.78-.94-1l-.36,0h-3v.07l2.4.44V9.06h3.48v3.33H73.73v3.34h.58a1.19,1.19,0,0,0,1.3-1.09V13.19H80.7v6.17h-13V16.24a1,1,0,0,0,.5-.94V7a2.64,2.64,0,0,0-.5-1.95ZM81.78,2H88.4c2.41,0,4,.19,4.66.58a4,4,0,0,1,2.44,4c0,2-.58,3.28-1.74,3.79,0,.06-.26.16-.77.32v.08a3.15,3.15,0,0,1,1.5.58s.08.16.26.33a4.81,4.81,0,0,1,.42,2.61c0,1.11.13,1.73.37,1.87s.26.14.26.18v3H89.9A14.58,14.58,0,0,1,89.61,16V14.37c0-.77-.18-1.25-.55-1.45a4.08,4.08,0,0,0-1.19-.37v2.33a2,2,0,0,0,.35,1.36.68.68,0,0,0,.26.11v3h-6.7v-3c.44-.16.66-.83.66-2v-8a1,1,0,0,0-.59-1h-.07Zm3.65,3.67v.08l2.44.43v3h.24c1.19,0,1.79-.39,1.79-1.17a1.34,1.34,0,0,0,0-.33A2.46,2.46,0,0,0,89.39,6a4.74,4.74,0,0,0-2.11-.3ZM102.37,2a11.85,11.85,0,0,1,6.48,1.7h0v4h-5v-1c0-.78-.36-1.18-1.1-1.18H100.6v.08c1,.19,1.56.28,1.66.28a1.25,1.25,0,0,0-.21.57v.18c0,.88.82,1.45,2.45,1.73a10.15,10.15,0,0,1,2.87.93,4.43,4.43,0,0,1,2,2.55,4.78,4.78,0,0,1,.22,1.34v.57a7.52,7.52,0,0,1-.79,3.19,4,4,0,0,1-1.59,1.49,5.67,5.67,0,0,1-2.52.7,12.38,12.38,0,0,1-2.12.18h0a13.23,13.23,0,0,1-4.46-1c-.77-.4-1.18-.77-1.24-1.1V13h5.28v1.21c0,.87.32,1.31,1,1.31s1-.32,1-.72c0,0,.07-.17.07-.53v-.38c0-.76-.75-1.33-2.27-1.71a11.93,11.93,0,0,1-3.15-1.06q-2-1-2-4.14V6.61a4.14,4.14,0,0,1,2.86-4.15A8.54,8.54,0,0,1,102.37,2Z"/><path class="cls-3" d="M17.6,10.49H14.32v4.9a1.78,1.78,0,0,1-.62,1.34v1.63h4.55V16.72a2.71,2.71,0,0,1-.65-2.06Z"/><path class="cls-4" d="M94,12.36a1.7,1.7,0,0,1-.22-.24,1.86,1.86,0,0,0-.77-.31l-1-.08V10.49H83.44v3.84a3.88,3.88,0,0,1-.66,2.51v1.52h4.7V16.91a2.83,2.83,0,0,1-.61-2V11.55h1a4.67,4.67,0,0,1,1.67.49,2.42,2.42,0,0,1,1.07,2.33V16a19.54,19.54,0,0,0,.12,2.38H94.8V16.89a3.54,3.54,0,0,1-.63-2.56A6.15,6.15,0,0,0,94,12.36Z"/><path class="cls-5" d="M29.25,14.73v.08A2.19,2.19,0,0,1,27,16.73H25.37V11.39h3.49v-.9h-7V15.3a2,2,0,0,1-.51,1.39v1.67h11V14.19H29.25Z"/><path class="cls-6" d="M5.92,12.88V10.49H3.62v3c0,.38,0,1,0,1.86v.17A1.92,1.92,0,0,1,3,16.82v1.54H6.56V16.68a2.43,2.43,0,0,1-.2-.25C5.92,16,5.92,14.88,5.92,12.88Z"/><polygon class="cls-7" points="8.03 10.49 10.09 18.36 10.17 18.36 12.19 10.49 8.03 10.49"/><path class="cls-8" d="M38.34,12.88V10.49H36v3c0,.38,0,1,0,1.86v.17a1.88,1.88,0,0,1-.65,1.32v1.54H39V16.68a2.43,2.43,0,0,1-.2-.25C38.34,16,38.34,14.88,38.34,12.88Z"/><path class="cls-9" d="M76.61,14.73v.08a2.19,2.19,0,0,1-2.29,1.92H72.73V11.39h3.48v-.9h-7V15.3a2,2,0,0,1-.5,1.39v1.67h11V14.19H76.61Z"/><path class="cls-10" d="M64.69,11.69a2.8,2.8,0,0,0-1.08-.39l-1,0v-.77H54.53v4.28a5.05,5.05,0,0,1-.13,1.05l0,.12-.06.12a2,2,0,0,1-.58.69v1.61h7.59a7.33,7.33,0,0,0,2.59-.44c.8-.31,1.87-1,1.87-3.51v-.28A2.82,2.82,0,0,0,64.69,11.69ZM62,14.91l0,.1c-.17.63-.75,1.68-2.72,1.68H57.82V13.36l-2.44-.44V11H58.6a4.78,4.78,0,0,1,2.43.4,3,3,0,0,1,1,2.68A4.92,4.92,0,0,1,62,14.91Z"/><path class="cls-11" d="M107.25,10.49h-7.7a23.05,23.05,0,0,0,2.5.74c2,.51,3,1.41,3,2.68v.38A2.58,2.58,0,0,1,105,15c-.06.47-.37,1.33-1.82,1.51h-.12c-1,0-2-.61-2-2.31V14H97.81v3a2.93,2.93,0,0,0,.65.42,12,12,0,0,0,4.05.91h0a11.4,11.4,0,0,0,2-.16l.08,0h.09a4.8,4.8,0,0,0,2.08-.6,2.85,2.85,0,0,0,1.15-1.07,6.49,6.49,0,0,0,.67-2.71v-.57a3.78,3.78,0,0,0-.18-1.05A3.34,3.34,0,0,0,107.25,10.49Z"/><polygon class="cls-12" points="40.45 10.49 42.51 18.36 42.6 18.36 44.62 10.49 40.45 10.49"/><path class="cls-13" d="M50,10.49H46.74v4.9a1.76,1.76,0,0,1-.61,1.34v1.63h4.55V16.72A2.72,2.72,0,0,1,50,14.66Z"/></g></g></svg>