<svg xmlns="http://www.w3.org/2000/svg" xmlns:xlink="http://www.w3.org/1999/xlink" viewBox="0 0 134.83 21.41"><defs><style>.cls-1{fill:#0f1b30;}.cls-2{fill:#e63444;}.cls-3{fill:url(#linear-gradient);}.cls-4{fill:url(#linear-gradient-2);}.cls-5{fill:url(#linear-gradient-3);}.cls-6{fill:url(#linear-gradient-4);}.cls-7{fill:url(#linear-gradient-5);}.cls-8{fill:url(#linear-gradient-6);}.cls-9{fill:url(#linear-gradient-7);}.cls-10{fill:url(#linear-gradient-8);}.cls-11{fill:url(#linear-gradient-9);}.cls-12{fill:url(#linear-gradient-10);}</style><linearGradient id="linear-gradient" x1="38.86" y1="10.54" x2="38.86" y2="18.41" gradientUnits="userSpaceOnUse"><stop offset="0" stop-color="#e63444"/><stop offset="0.5" stop-color="#d2263e"/><stop offset="0.86" stop-color="#c9203c"/></linearGradient><linearGradient id="linear-gradient-2" x1="24.07" y1="10.54" x2="24.07" y2="18.41" xlink:href="#linear-gradient"/><linearGradient id="linear-gradient-3" x1="4.96" y1="10.54" x2="4.96" y2="18.41" xlink:href="#linear-gradient"/><linearGradient id="linear-gradient-4" x1="58.42" y1="10.54" x2="58.42" y2="18.41" xlink:href="#linear-gradient"/><linearGradient id="linear-gradient-5" x1="12.5" y1="10.54" x2="12.5" y2="18.41" xlink:href="#linear-gradient"/><linearGradient id="linear-gradient-6" x1="74.28" y1="10.54" x2="74.28" y2="18.41" xlink:href="#linear-gradient"/><linearGradient id="linear-gradient-7" x1="110.72" y1="10.54" x2="110.72" y2="18.41" xlink:href="#linear-gradient"/><linearGradient id="linear-gradient-8" x1="125.91" y1="10.54" x2="125.91" y2="18.41" xlink:href="#linear-gradient"/><linearGradient id="linear-gradient-9" x1="85.58" y1="10.54" x2="85.58" y2="18.41" xlink:href="#linear-gradient"/><linearGradient id="linear-gradient-10" x1="96.44" y1="10.54" x2="96.44" y2="18.41" xlink:href="#linear-gradient"/></defs><g id="Layer_2" data-name="Layer 2"><g id="Layer_1-2" data-name="Layer 1"><path class="cls-1" d="M65.27,21.41V15l.64-.23a3.79,3.79,0,0,0,0-.38V10.09h-.8V14.4H61.76v0c0,.19,0,.33,0,.44l.46.32v6.21H51.71V15.26l.64-.47a1.25,1.25,0,0,0,0-.24V6.81a2.08,2.08,0,0,1-.81-1.63V0H68.3V.05h5.59c3.53,0,4.83.41,5.55.78a6.85,6.85,0,0,1,.71.39V0H91V.1h11v0h7.83a3.87,3.87,0,0,1,.62,0v0h15.33c3.21,0,5.09.36,6.2,1.19,1.31.83,2.81,2.52,2.81,5.91v7.23a7,7,0,0,1-2.06,5.25l-.1.1a7.93,7.93,0,0,1-5.25,1.67Zm-35.34,0v-1a8.67,8.67,0,0,1-4.35,1H0v-5.9l.53-.58a.93.93,0,0,0,.24-.34v-.28l.07-.2c0-.18.48-2.57,2.24-12.37L3.37.09h9.42c1.81,0,2.06,1.65,2.31,3.25,0,.08,0,.16,0,.24V.06H24c3,0,4.81.31,5.95,1v-1h8.84C42,.06,43.86.42,45,1.25c1.31.83,2.81,2.52,2.81,5.91v7.23a7,7,0,0,1-2.06,5.25l-.1.1a7.93,7.93,0,0,1-5.25,1.67Z"/><path class="cls-2" d="M5.05,2.09h7.74a5.51,5.51,0,0,1,.33,1.55q2.06,10.81,2.25,11.56a2.1,2.1,0,0,0,.8,1.17v3H10.28c0-1.63,0-2.67,0-3.12a7,7,0,0,0-.36-2,3.66,3.66,0,0,0-1.49-1.71A3.87,3.87,0,0,0,7,12H6.8a3.72,3.72,0,0,0,.69.42l0,.08c0,.18-.09,1-.26,2.51a1.66,1.66,0,0,0,.65,1.42v3H2V16.29a2.5,2.5,0,0,0,.77-1.64Q2.83,14.41,5.05,2.09Zm2.68,9.37H9.34c-.51-3.2-.77-4.86-.77-5a3.82,3.82,0,0,0-.21,1.19Zm9.41-9.4H24c2.71,0,4.4.28,5.06.84q2,1.17,2,4.26v7.23a5.08,5.08,0,0,1-1.45,3.82,6,6,0,0,1-4,1.2H17.14V16.25c.49-.17.73-.41.73-.73.05,0,.07-.18.07-.55V6.72a1.52,1.52,0,0,0-.58-1.39l-.22-.06Zm4,3.86V6l2.44.44v9.35l.26,0h.43a1.19,1.19,0,0,0,.88-.36,1.5,1.5,0,0,0,.33-1V7.12a1,1,0,0,0-.51-1,3.3,3.3,0,0,0-1.1-.18ZM31.93,2.06h6.84c2.7,0,4.39.28,5,.84q2,1.17,2,4.26v7.23a5.08,5.08,0,0,1-1.45,3.82,6,6,0,0,1-4,1.2H31.93V16.25c.48-.17.72-.41.72-.73.05,0,.07-.18.07-.55V6.72a1.54,1.54,0,0,0-.57-1.39l-.22-.06Zm4,3.86V6l2.44.44v9.35l.26,0H39a1.19,1.19,0,0,0,.88-.36,1.5,1.5,0,0,0,.33-1V7.12a1,1,0,0,0-.51-1,3.24,3.24,0,0,0-1.09-.18ZM53.56,2H66.3V8.09H61.51V6.82A.86.86,0,0,0,61.05,6a4.34,4.34,0,0,0-1.54-.3H57.32v.08l2.44.44V9.05h3.37V12.4H59.76v2q0,1.46.48,1.8v3.17H53.71V16.28a2,2,0,0,0,.66-1.73V6.86c0-.87-.21-1.4-.63-1.57-.12,0-.18-.06-.18-.11Zm13.71,0h6.62c2.41,0,4,.19,4.66.58a4,4,0,0,1,2.44,4c0,2-.58,3.28-1.75,3.79,0,.06-.25.16-.76.32v.08a3.08,3.08,0,0,1,1.49.58c0,.05.09.16.26.33a4.68,4.68,0,0,1,.43,2.61c0,1.11.12,1.73.37,1.87s.26.14.26.18v3H75.38A15.16,15.16,0,0,1,75.09,16V14.42c0-.77-.18-1.25-.54-1.45a4,4,0,0,0-1.2-.37v2.33a1.9,1.9,0,0,0,.36,1.36.68.68,0,0,0,.26.11v3h-6.7v-3c.44-.16.66-.83.66-2v-8a1,1,0,0,0-.59-1h-.07Zm3.64,3.67V5.8l2.44.43v3h.25c1.19,0,1.78-.39,1.78-1.17a1,1,0,0,0,0-.33A2.42,2.42,0,0,0,74.87,6a4.68,4.68,0,0,0-2.11-.3ZM82.15,2H89v3.1H86.56v.08l2,.35a4.44,4.44,0,0,0-.18,1.36v7.53c0,1.06.21,1.69.62,1.91v3.05H82.15v-3a1.65,1.65,0,0,0,.66-1.35V6.19a1.14,1.14,0,0,0-.66-1.09Zm7.78.07h13V8.16H97.87V6.93q0-.67-.93-1l-.37,0h-3V6l2.4.44V9.11h3.48v3.33H96v3.34h.58a1.18,1.18,0,0,0,1.3-1.09V13.24H103v6.17h-13V16.29a1,1,0,0,0,.5-.94V7.07c0-1-.16-1.67-.5-1.95ZM104,2.05h5.83a33.39,33.39,0,0,1,1.34,3.35q1.71,4.29,1.71,4.37h0V8.09c0-.49,0-1.16,0-2a1.43,1.43,0,0,0-.51-1v-3h5.57V5.11h-2.44v.07l2,.36c-.13,0-.2.75-.22,2.25V19.41h-5.23q-3-6.88-3.36-7.79h0v1.49c0,1.65.07,2.48.19,2.48s.16.29.47.48v3.34H104V16.28A1.66,1.66,0,0,0,104.7,15c0-.73,0-1.28,0-1.63V8.12c0-.44,0-1,0-1.85a1.42,1.42,0,0,0-.66-1.2Zm14.94,0h6.84c2.7,0,4.39.28,5.05.84q2,1.17,2,4.26v7.23a5.08,5.08,0,0,1-1.45,3.82,6,6,0,0,1-4,1.2H119V16.25c.48-.17.72-.41.72-.73,0,0,.07-.18.07-.55V6.72a1.54,1.54,0,0,0-.57-1.39L119,5.27Zm4,3.86V6l2.44.44v9.35l.26,0h.42a1.19,1.19,0,0,0,.88-.36,1.5,1.5,0,0,0,.33-1V7.12a1,1,0,0,0-.51-1,3.24,3.24,0,0,0-1.09-.18Z"/><path class="cls-3" d="M41.22,10.54v3.92a2.55,2.55,0,0,1-.62,1.7,2.22,2.22,0,0,1-1.59.65h-.48l-1.2-.14V10.54H33.72V15a2.63,2.63,0,0,1-.08.73,1.66,1.66,0,0,1-.71,1.16v1.55h7.44a5,5,0,0,0,3.26-.92,4.05,4.05,0,0,0,1.15-3.1V10.54Z"/><path class="cls-4" d="M26.44,10.54v3.92a2.51,2.51,0,0,1-.63,1.7,2.2,2.2,0,0,1-1.58.65h-.48l-1.21-.14V10.54h-3.6V15a3.07,3.07,0,0,1-.08.73,1.64,1.64,0,0,1-.72,1.16v1.55h7.44a5,5,0,0,0,3.27-.92A4.09,4.09,0,0,0,30,14.39V10.54Z"/><path class="cls-5" d="M6.27,15v-.05c.11-1,.18-1.55.21-1.9a1.16,1.16,0,0,1-.66-.8L5.57,11H6.8l.07-.47H4.54c-.55,3-.72,3.94-.78,4.23A3.2,3.2,0,0,1,3,16.65v1.76H6.92V16.87A2.67,2.67,0,0,1,6.27,15Z"/><path class="cls-6" d="M62.13,11.4v-.86H55.37v4a3.2,3.2,0,0,1-.66,2.15v1.71h4.53V16.62a4,4,0,0,1-.48-2.18v-3Z"/><path class="cls-7" d="M14.42,15.5l0-.05c0-.14-.12-.5-1-4.91H10.2c0,.24.08.49.12.76l.19,1.16H9.84a4.9,4.9,0,0,1,1,1.46,7.88,7.88,0,0,1,.43,2.37c0,.35,0,1.06,0,2.12h3.9V16.84a3.82,3.82,0,0,1-.73-1.28Z"/><path class="cls-8" d="M79.46,12.41a2.61,2.61,0,0,1-.22-.24,1.85,1.85,0,0,0-.76-.31l-1-.08V10.54H68.93v3.84a3.88,3.88,0,0,1-.66,2.51v1.52H73V17a2.79,2.79,0,0,1-.62-2V11.6h1a4.62,4.62,0,0,1,1.67.49,2.42,2.42,0,0,1,1.07,2.33V16a17.49,17.49,0,0,0,.13,2.38h4.07V16.94a3.49,3.49,0,0,1-.63-2.56A5.61,5.61,0,0,0,79.46,12.41Z"/><path class="cls-9" d="M113.93,10.54v.23h-2v-.23h-6.26v2.83c0,.34,0,.88,0,1.63a2.5,2.5,0,0,1-.66,1.69v1.72h3.39V16.57a1.69,1.69,0,0,1-.27-.32c-.39-.5-.39-1.55-.39-3.14V11.62l0-1h1.67l.26.62c.23.57,1.27,3,3.08,7.17h3.58V10.54Z"/><path class="cls-10" d="M128.27,10.54v3.92a2.55,2.55,0,0,1-.62,1.7,2.22,2.22,0,0,1-1.59.65h-.48l-1.2-.14V10.54h-3.61V15a2.63,2.63,0,0,1-.08.73,1.66,1.66,0,0,1-.71,1.16v1.55h7.44a5,5,0,0,0,3.26-.92,4.05,4.05,0,0,0,1.15-3.1V10.54Z"/><path class="cls-11" d="M87.38,10.54H83.81v4.54a2.6,2.6,0,0,1-.66,1.77v1.56H88v-1.6a3.84,3.84,0,0,1-.62-2.36Z"/><path class="cls-12" d="M98.87,14.78v.09a2.19,2.19,0,0,1-2.29,1.91H95V11.44h3.48v-.9h-7v4.81a2,2,0,0,1-.5,1.39v1.67h11V14.24H98.87Z"/></g></g></svg>